<svg width="131" height="23" viewBox="0 0 131 23" fill="none" xmlns="http://www.w3.org/2000/svg">
<path d="M15.209 8.43266L4.85899 11.7927L15.209 15.2427V18.7227L0.118994 13.3527L0.118994 10.2927L15.209 4.92266L15.209 8.43266ZM38.3242 8.43266L27.9742 11.7927L38.3242 15.2427L38.3242 18.7227L23.2342 13.3527V10.2927L38.3242 4.92266V8.43266ZM65.6817 16.1727C65.6817 18.2127 65.0217 19.7727 63.7017 20.8527C62.3817 21.9327 60.5217 22.4727 58.1217 22.4727L50.0517 22.4727L50.0517 0.902655L57.4917 0.902655C59.9517 0.902655 61.8417 1.39266 63.1617 2.37266C64.5017 3.33266 65.1717 4.79265 65.1717 6.75265C65.1717 7.75266 64.9017 8.65266 64.3617 9.45266C63.8217 10.2527 63.0517 10.8627 62.0517 11.2827C62.8517 11.4827 63.5217 11.8227 64.0617 12.3027C64.6017 12.7827 65.0017 13.3527 65.2617 14.0127C65.5417 14.6727 65.6817 15.3927 65.6817 16.1727ZM54.0117 9.96266L57.5217 9.96266C58.7217 9.96266 59.6317 9.71266 60.2517 9.21266C60.8917 8.69266 61.2117 7.97266 61.2117 7.05266C61.2117 5.99266 60.9117 5.23266 60.3117 4.77266C59.7117 4.31266 58.7717 4.08266 57.4917 4.08266L54.0117 4.08266V9.96266ZM61.7217 16.1427C61.7217 15.4627 61.6017 14.8727 61.3617 14.3727C61.1217 13.8727 60.7417 13.4927 60.2217 13.2327C59.7217 12.9527 59.0717 12.8127 58.2717 12.8127H54.0117L54.0117 19.2927H58.1217C59.2817 19.2927 60.1717 19.0127 60.7917 18.4527C61.4117 17.8727 61.7217 17.1027 61.7217 16.1427ZM75.0117 0.902655L78.6117 0.902655L86.7417 22.4727H82.6017L80.9217 17.6427L72.7317 17.6427L71.0817 22.4727H66.9117L75.0117 0.902655ZM76.8417 5.73266L73.8417 14.4327H79.8117L76.8417 5.73266ZM104.611 15.3927C104.491 16.8527 104.091 18.1427 103.411 19.2627C102.731 20.3627 101.771 21.2227 100.531 21.8427C99.2911 22.4627 97.8111 22.7727 96.0911 22.7727C94.3111 22.7727 92.7611 22.3527 91.4411 21.5127C90.1211 20.6727 89.1011 19.4827 88.3811 17.9427C87.6811 16.4027 87.3311 14.5927 87.3311 12.5127V10.8627C87.3311 8.78266 87.6911 6.97266 88.4111 5.43266C89.1511 3.87266 90.1911 2.68266 91.5311 1.86266C92.8711 1.02266 94.4311 0.602655 96.2111 0.602655C98.7311 0.602655 100.701 1.28266 102.121 2.64266C103.561 3.98266 104.401 5.80266 104.641 8.10266L100.681 8.10266C100.541 6.66266 100.131 5.59266 99.4511 4.89266C98.7711 4.17266 97.6911 3.81266 96.2111 3.81266C95.1311 3.81266 94.2211 4.08266 93.4811 4.62266C92.7611 5.14266 92.2211 5.93266 91.8611 6.99266C91.5011 8.03266 91.3211 9.31266 91.3211 10.8327V12.5127C91.3211 14.0127 91.4911 15.2827 91.8311 16.3227C92.1711 17.3627 92.6911 18.1627 93.3911 18.7227C94.0911 19.2827 94.9911 19.5627 96.0911 19.5627C97.5711 19.5627 98.6611 19.2227 99.3611 18.5427C100.061 17.8627 100.491 16.8127 100.651 15.3927H104.611ZM107.356 0.902655L111.316 0.902655V10.9227L113.386 8.28266L119.446 0.902655L124.276 0.902655L116.356 10.4427L124.666 22.4727H119.926L113.746 13.3827L111.316 15.9327V22.4727H107.356V0.902655ZM126.047 0.902655H130.037L129.647 16.0227H126.437L126.047 0.902655ZM125.927 20.6727C125.927 20.0727 126.117 19.5827 126.497 19.2027C126.897 18.8027 127.427 18.6027 128.087 18.6027C128.727 18.6027 129.237 18.8027 129.617 19.2027C130.017 19.5827 130.217 20.0727 130.217 20.6727C130.217 21.2527 130.017 21.7327 129.617 22.1127C129.237 22.4927 128.727 22.6827 128.087 22.6827C127.427 22.6827 126.897 22.4927 126.497 22.1127C126.117 21.7327 125.927 21.2527 125.927 20.6727Z" fill="#9058FF"/>
</svg>
