<svg width="371" height="126" viewBox="0 0 371 126" fill="none" xmlns="http://www.w3.org/2000/svg">
<path d="M0.686523 45.3855C0.686523 20.5327 20.8337 0.385498 45.6865 0.385498H325.687C350.539 0.385498 370.687 20.5327 370.687 45.3855V80.3855C370.687 105.238 350.539 125.385 325.687 125.385H45.6865C20.8337 125.385 0.686523 105.238 0.686523 80.3855V45.3855Z" fill="#9058FF"/>
<path d="M134.435 62.6155C134.435 61.8555 134.235 61.2555 133.835 60.8155C133.455 60.3555 132.865 60.1255 132.065 60.1255C131.585 60.1255 131.175 60.2055 130.835 60.3655C130.495 60.5255 130.235 60.7555 130.055 61.0555C129.875 61.3555 129.785 61.6955 129.785 62.0755H125.435C125.435 61.1355 125.715 60.2755 126.275 59.4955C126.855 58.7155 127.665 58.0955 128.705 57.6355C129.745 57.1755 130.945 56.9455 132.305 56.9455C134.245 56.9455 135.805 57.4355 136.985 58.4155C138.185 59.3755 138.785 60.7855 138.785 62.6455V69.4555C138.785 70.3355 138.835 71.0555 138.935 71.6155C139.055 72.1755 139.215 72.6855 139.415 73.1455V73.3855H135.035C134.915 73.1055 134.775 72.6255 134.615 71.9455C134.135 72.4655 133.555 72.8855 132.875 73.2055C132.215 73.5255 131.445 73.6855 130.565 73.6855C129.545 73.6855 128.615 73.4855 127.775 73.0855C126.935 72.6655 126.275 72.0855 125.795 71.3455C125.315 70.6055 125.075 69.7755 125.075 68.8555C125.075 67.7155 125.355 66.7555 125.915 65.9755C126.475 65.1755 127.315 64.5755 128.435 64.1755C129.555 63.7555 130.925 63.5455 132.545 63.5455H134.435V62.6155ZM131.525 70.3855C132.185 70.3855 132.765 70.2355 133.265 69.9355C133.785 69.6155 134.175 69.2455 134.435 68.8255V66.0655H132.695C131.575 66.0655 130.745 66.2955 130.205 66.7555C129.685 67.1955 129.425 67.7855 129.425 68.5255C129.425 69.0655 129.615 69.5155 129.995 69.8755C130.375 70.2155 130.885 70.3855 131.525 70.3855ZM141.643 71.2555C141.643 70.5955 141.863 70.0455 142.303 69.6055C142.763 69.1455 143.363 68.9155 144.103 68.9155C144.823 68.9155 145.403 69.1455 145.843 69.6055C146.303 70.0455 146.533 70.5955 146.533 71.2555C146.533 71.9155 146.303 72.4655 145.843 72.9055C145.403 73.3255 144.823 73.5355 144.103 73.5355C143.363 73.5355 142.763 73.3255 142.303 72.9055C141.863 72.4655 141.643 71.9155 141.643 71.2555ZM166.327 55.2955H150.697V52.0855H166.327V55.2955ZM170.827 71.9455H148.387V68.6755H170.827V71.9455ZM168.217 55.2655C168.217 57.6255 168.167 59.6655 168.067 61.3855C167.967 63.0855 167.717 65.0755 167.317 67.3555L163.327 66.9955C163.707 64.8955 163.937 63.0055 164.017 61.3255C164.117 59.6255 164.167 57.6055 164.167 55.2655V52.0855H168.217V55.2655ZM194.387 56.1055H190.127V52.8955H194.387V56.1055ZM194.387 61.5655H190.127V58.2355H194.387V61.5655ZM191.327 64.4755H187.397V49.8955H191.327V64.4755ZM183.137 64.7755C184.837 64.7755 186.327 64.9955 187.607 65.4355C188.887 65.8555 189.877 66.4555 190.577 67.2355C191.277 68.0155 191.627 68.9255 191.627 69.9655C191.627 71.0055 191.277 71.9255 190.577 72.7255C189.877 73.5255 188.887 74.1255 187.607 74.5255C186.327 74.9455 184.837 75.1555 183.137 75.1555C181.437 75.1555 179.947 74.9455 178.667 74.5255C177.387 74.1055 176.397 73.5055 175.697 72.7255C175.017 71.9255 174.677 71.0055 174.677 69.9655C174.677 68.9255 175.027 68.0155 175.727 67.2355C176.427 66.4555 177.407 65.8555 178.667 65.4355C179.947 64.9955 181.437 64.7755 183.137 64.7755ZM183.137 68.0455C182.137 68.0455 181.297 68.1155 180.617 68.2555C179.937 68.3955 179.417 68.6055 179.057 68.8855C178.717 69.1655 178.547 69.5255 178.547 69.9655C178.547 70.4055 178.717 70.7855 179.057 71.1055C179.417 71.4055 179.937 71.6255 180.617 71.7655C181.297 71.9055 182.137 71.9755 183.137 71.9755C184.117 71.9755 184.947 71.9055 185.627 71.7655C186.307 71.6255 186.817 71.4055 187.157 71.1055C187.517 70.7855 187.697 70.4055 187.697 69.9655C187.697 69.5255 187.517 69.1655 187.157 68.8855C186.817 68.6055 186.307 68.3955 185.627 68.2555C184.947 68.1155 184.117 68.0455 183.137 68.0455ZM176.627 61.6855H172.637V51.2755H176.627V61.6855ZM174.857 59.9455C178.757 59.9455 182.347 59.6155 185.627 58.9555L186.047 62.2255C184.187 62.6055 182.317 62.8755 180.437 63.0355C178.577 63.1955 176.717 63.2755 174.857 63.2755H172.637V59.9455H174.857ZM220.508 67.7755H216.458V49.8955H220.508V67.7755ZM223.658 60.0355H219.398V56.7055H223.658V60.0355ZM213.788 51.7555C213.788 55.2155 212.808 58.1155 210.848 60.4555C208.908 62.7755 206.038 64.4655 202.238 65.5255L200.648 62.3455C203.548 61.5455 205.748 60.4055 207.248 58.9255C208.768 57.4255 209.528 55.7255 209.528 53.8255V51.7555H213.788ZM211.688 55.0255H201.758V51.7555H211.688V55.0255ZM221.198 74.7055H204.278V71.5255H221.198V74.7055ZM208.268 72.9355H204.278V65.9755H208.268V72.9355ZM243.738 75.1855H239.778V49.8955H243.738V75.1855ZM247.218 62.2555H242.868V59.0155H247.218V62.2555ZM227.328 65.7955C229.548 65.7955 231.498 65.7455 233.178 65.6455C234.878 65.5455 236.568 65.3455 238.248 65.0455L238.668 68.4355C236.948 68.7155 235.208 68.9055 233.448 69.0055C231.708 69.0855 229.668 69.1255 227.328 69.1255H225.138V65.7955H227.328ZM236.748 55.4155H229.128V67.4455H225.138V52.1755H236.748V55.4155Z" fill="white"/>
</svg>
