<svg width="371" height="126" viewBox="0 0 371 126" fill="none" xmlns="http://www.w3.org/2000/svg">
<path d="M0.0507812 45.3855C0.0507812 20.5327 20.198 0.385498 45.0508 0.385498H325.051C349.904 0.385498 370.051 20.5327 370.051 45.3855V80.3855C370.051 105.238 349.904 125.385 325.051 125.385H45.0508C20.198 125.385 0.0507812 105.238 0.0507812 80.3855V45.3855Z" fill="#9058FF"/>
<path d="M153.799 65.4655C153.799 67.0855 153.559 68.5155 153.079 69.7555C152.619 70.9955 151.919 71.9655 150.979 72.6655C150.039 73.3455 148.899 73.6855 147.559 73.6855C146.639 73.6855 145.829 73.5155 145.129 73.1755C144.449 72.8355 143.859 72.3355 143.359 71.6755L143.149 73.3855H139.249V51.6655H143.599V58.6555C144.099 58.1155 144.669 57.6955 145.309 57.3955C145.949 57.0955 146.689 56.9455 147.529 56.9455C149.549 56.9455 151.099 57.6955 152.179 59.1955C153.259 60.6955 153.799 62.6855 153.799 65.1655V65.4655ZM149.479 65.1655C149.479 63.7255 149.249 62.5855 148.789 61.7455C148.329 60.9055 147.539 60.4855 146.419 60.4855C145.719 60.4855 145.129 60.6255 144.649 60.9055C144.189 61.1855 143.839 61.5855 143.599 62.1055V68.5255C143.839 69.0655 144.199 69.4855 144.679 69.7855C145.159 70.0655 145.749 70.2055 146.449 70.2055C147.589 70.2055 148.379 69.7955 148.819 68.9755C149.259 68.1555 149.479 66.9855 149.479 65.4655V65.1655ZM155.978 71.2555C155.978 70.5955 156.198 70.0455 156.638 69.6055C157.098 69.1455 157.698 68.9155 158.438 68.9155C159.158 68.9155 159.738 69.1455 160.178 69.6055C160.638 70.0455 160.868 70.5955 160.868 71.2555C160.868 71.9155 160.638 72.4655 160.178 72.9055C159.738 73.3255 159.158 73.5355 158.438 73.5355C157.698 73.5355 157.098 73.3255 156.638 72.9055C156.198 72.4655 155.978 71.9155 155.978 71.2555ZM171.302 55.0255C171.302 57.3455 170.732 59.3655 169.592 61.0855C168.452 62.7855 166.692 63.9455 164.312 64.5655L162.482 61.4755C163.802 61.1155 164.882 60.6055 165.722 59.9455C166.582 59.2655 167.202 58.5055 167.582 57.6655C167.962 56.8055 168.152 55.9255 168.152 55.0255V54.1555H171.302V55.0255ZM172.112 55.0255C172.112 55.8655 172.292 56.6755 172.652 57.4555C173.012 58.2355 173.602 58.9455 174.422 59.5855C175.262 60.2255 176.332 60.7155 177.632 61.0555L175.892 64.1755C173.532 63.5755 171.772 62.4555 170.612 60.8155C169.472 59.1555 168.902 57.2255 168.902 55.0255V54.1555H172.112V55.0255ZM176.792 55.3855H163.412V52.2355H176.792V55.3855ZM172.142 53.6455H168.152V49.8055H172.142V53.6455ZM182.372 64.5655H178.412V49.8955H182.372V64.5655ZM185.522 58.9255H181.262V55.6255H185.522V58.9255ZM182.372 74.8555H166.112V65.6455H182.372V74.8555ZM169.982 71.6455H178.442V68.7955H169.982V71.6455ZM206.052 59.5855H188.772V56.4655H206.052V59.5855ZM208.512 65.1955H186.012V62.0755H208.512V65.1955ZM192.702 58.0255H188.772V50.7655H192.702V58.0255ZM206.172 74.5855H188.472V71.3755H206.172V74.5855ZM192.522 72.2155H188.472V67.0555H192.522V72.2155ZM228.922 75.1855H224.962V49.8955H228.922V75.1855ZM232.402 62.2555H228.052V59.0155H232.402V62.2555ZM212.512 65.7955C214.732 65.7955 216.682 65.7455 218.362 65.6455C220.062 65.5455 221.752 65.3455 223.432 65.0455L223.852 68.4355C222.132 68.7155 220.392 68.9055 218.632 69.0055C216.892 69.0855 214.852 69.1255 212.512 69.1255H210.322V65.7955H212.512ZM221.932 55.4155H214.312V67.4455H210.322V52.1755H221.932V55.4155Z" fill="white"/>
</svg>
