<svg width="371" height="126" viewBox="0 0 371 126" fill="none" xmlns="http://www.w3.org/2000/svg">
<path d="M0.686523 45.3855C0.686523 20.5327 20.8337 0.385498 45.6865 0.385498H325.687C350.539 0.385498 370.687 20.5327 370.687 45.3855V80.3855C370.687 105.238 350.539 125.385 325.687 125.385H45.6865C20.8337 125.385 0.686523 105.238 0.686523 80.3855V45.3855Z" fill="#9058FF"/>
<path d="M149.01 62.6155C149.01 61.8555 148.81 61.2555 148.41 60.8155C148.03 60.3555 147.44 60.1255 146.64 60.1255C146.16 60.1255 145.75 60.2055 145.41 60.3655C145.07 60.5255 144.81 60.7555 144.63 61.0555C144.45 61.3555 144.36 61.6955 144.36 62.0755H140.01C140.01 61.1355 140.29 60.2755 140.85 59.4955C141.43 58.7155 142.24 58.0955 143.28 57.6355C144.32 57.1755 145.52 56.9455 146.88 56.9455C148.82 56.9455 150.38 57.4355 151.56 58.4155C152.76 59.3755 153.36 60.7855 153.36 62.6455V69.4555C153.36 70.3355 153.41 71.0555 153.51 71.6155C153.63 72.1755 153.79 72.6855 153.99 73.1455V73.3855H149.61C149.49 73.1055 149.35 72.6255 149.19 71.9455C148.71 72.4655 148.13 72.8855 147.45 73.2055C146.79 73.5255 146.02 73.6855 145.14 73.6855C144.12 73.6855 143.19 73.4855 142.35 73.0855C141.51 72.6655 140.85 72.0855 140.37 71.3455C139.89 70.6055 139.65 69.7755 139.65 68.8555C139.65 67.7155 139.93 66.7555 140.49 65.9755C141.05 65.1755 141.89 64.5755 143.01 64.1755C144.13 63.7555 145.5 63.5455 147.12 63.5455H149.01V62.6155ZM146.1 70.3855C146.76 70.3855 147.34 70.2355 147.84 69.9355C148.36 69.6155 148.75 69.2455 149.01 68.8255V66.0655H147.27C146.15 66.0655 145.32 66.2955 144.78 66.7555C144.26 67.1955 144 67.7855 144 68.5255C144 69.0655 144.19 69.5155 144.57 69.8755C144.95 70.2155 145.46 70.3855 146.1 70.3855ZM156.218 71.2555C156.218 70.5955 156.438 70.0455 156.878 69.6055C157.338 69.1455 157.938 68.9155 158.678 68.9155C159.398 68.9155 159.978 69.1455 160.418 69.6055C160.878 70.0455 161.108 70.5955 161.108 71.2555C161.108 71.9155 160.878 72.4655 160.418 72.9055C159.978 73.3255 159.398 73.5355 158.678 73.5355C157.938 73.5355 157.338 73.3255 156.878 72.9055C156.438 72.4655 156.218 71.9155 156.218 71.2555ZM183.092 65.3755H165.572V62.1655H183.092V65.3755ZM185.462 72.4555H162.962V69.2155H185.462V72.4555ZM176.222 70.5955H172.202V63.7255H176.222V70.5955ZM182.942 54.7255H169.592V63.4255H165.572V51.5155H182.942V54.7255ZM182.342 59.9755H168.422V56.8555H182.342V59.9755ZM205.932 68.7355H201.972V49.9255H205.932V68.7355ZM209.082 60.6655H204.822V57.4255H209.082V60.6655ZM200.862 55.5355H186.282V52.3855H200.862V55.5355ZM193.572 56.2555C194.752 56.2555 195.812 56.4655 196.752 56.8855C197.692 57.3055 198.422 57.8955 198.942 58.6555C199.462 59.3955 199.722 60.2455 199.722 61.2055C199.722 62.1655 199.462 63.0155 198.942 63.7555C198.422 64.4955 197.692 65.0755 196.752 65.4955C195.812 65.8955 194.752 66.0955 193.572 66.0955C192.392 66.0955 191.332 65.8955 190.392 65.4955C189.452 65.0755 188.722 64.4955 188.202 63.7555C187.682 63.0155 187.422 62.1655 187.422 61.2055C187.422 60.2255 187.682 59.3655 188.202 58.6255C188.722 57.8855 189.452 57.3055 190.392 56.8855C191.332 56.4655 192.392 56.2555 193.572 56.2555ZM193.572 59.3455C192.872 59.3455 192.312 59.5055 191.892 59.8255C191.492 60.1255 191.292 60.5855 191.292 61.2055C191.292 61.8055 191.492 62.2555 191.892 62.5555C192.312 62.8555 192.872 63.0055 193.572 63.0055C194.292 63.0055 194.852 62.8555 195.252 62.5555C195.672 62.2555 195.882 61.8055 195.882 61.2055C195.882 60.5855 195.672 60.1255 195.252 59.8255C194.852 59.5055 194.292 59.3455 193.572 59.3455ZM195.612 53.9455H191.592V49.8955H195.612V53.9455ZM206.682 74.7055H189.792V71.5255H206.682V74.7055ZM193.692 72.8755H189.792V67.3255H193.692V72.8755ZM229.163 75.1855H225.203V49.8955H229.163V75.1855ZM232.643 62.2555H228.293V59.0155H232.643V62.2555ZM212.753 65.7955C214.973 65.7955 216.923 65.7455 218.603 65.6455C220.303 65.5455 221.993 65.3455 223.673 65.0455L224.093 68.4355C222.373 68.7155 220.633 68.9055 218.873 69.0055C217.133 69.0855 215.093 69.1255 212.753 69.1255H210.563V65.7955H212.753ZM222.173 55.4155H214.553V67.4455H210.563V52.1755H222.173V55.4155Z" fill="white"/>
</svg>
