<svg width="821" height="421" viewBox="0 0 821 421" fill="none" xmlns="http://www.w3.org/2000/svg">
<path d="M820.695 346.129C820.695 381.013 820.695 398.455 809.858 409.292C799.021 420.129 781.579 420.129 746.695 420.129L74.6953 420.129C39.8114 420.129 22.3694 420.129 11.5324 409.292C0.695314 398.455 0.695316 381.013 0.695319 346.129L0.695343 74.1291C0.695346 39.2451 0.695347 21.8032 11.5324 10.9661C22.3694 0.129081 39.8114 0.129082 74.6954 0.129085L746.695 0.129144C781.579 0.129147 799.021 0.129148 809.858 10.9662C820.695 21.8032 820.695 39.2452 820.695 74.1292L820.695 346.129Z" fill="#9058FF"/>
</svg>
