<svg width="781" height="326" viewBox="0 0 781 326" fill="none" xmlns="http://www.w3.org/2000/svg">
<path d="M0.885742 45.2451C0.885742 20.3923 21.0329 0.245117 45.8857 0.245117H165.693C190.546 0.245117 210.693 20.3923 210.693 45.2451V70.966H0.885742V45.2451Z" fill="#9058FF"/>
<mask id="path-2-inside-1_671_11" fill="white">
<path d="M0.885742 70.9661H706.886C741.77 70.9661 759.212 70.9661 770.049 81.8031C780.886 92.6402 780.886 110.082 780.886 144.966V251.245C780.886 286.129 780.886 303.571 770.049 314.408C759.212 325.245 741.77 325.245 706.886 325.245H74.8858C40.0018 325.245 22.5598 325.245 11.7228 314.408C0.885742 303.571 0.885742 286.129 0.885742 251.245V70.9661Z"/>
</mask>
<path d="M0.885742 70.9661V68.9661H-1.11426V70.9661H0.885742ZM11.7228 314.408L10.3086 315.822L11.7228 314.408ZM770.049 314.408L768.634 312.994L770.049 314.408ZM770.049 81.8031L768.634 83.2173L770.049 81.8031ZM-1.11426 70.9661V75.0633H2.88574V70.9661H-1.11426ZM-1.11426 83.2578V91.4523H2.88574V83.2578H-1.11426ZM-1.11426 99.6468V107.841H2.88574V99.6468H-1.11426ZM-1.11426 116.036V124.23H2.88574V116.036H-1.11426ZM-1.11426 132.425V140.619H2.88574V132.425H-1.11426ZM-1.11426 148.814V157.008H2.88574V148.814H-1.11426ZM-1.11426 165.203V173.397H2.88574V165.203H-1.11426ZM-1.11426 181.592V189.786H2.88574V181.592H-1.11426ZM-1.11426 197.981V206.175H2.88574V197.981H-1.11426ZM-1.11426 214.37V222.564H2.88574V214.37H-1.11426ZM-1.11426 230.759V238.953H2.88574V230.759H-1.11426ZM-1.11426 247.148V251.245H2.88574V247.148H-1.11426ZM-1.11426 251.245C-1.11426 252.643 -1.11426 254.013 -1.11356 255.356L2.88644 255.354C2.88574 254.012 2.88574 252.643 2.88574 251.245H-1.11426ZM-1.09299 263.554C-1.07708 266.43 -1.04927 269.169 -1.00058 271.779L2.99872 271.704C2.95046 269.118 2.9228 266.397 2.90695 263.532L-1.09299 263.554ZM-0.747394 280.036C-0.613353 282.973 -0.429971 285.726 -0.178532 288.311L3.80268 287.924C3.55941 285.423 3.38019 282.74 3.24845 279.854L-0.747394 280.036ZM0.994291 296.621C1.57722 299.601 2.32593 302.331 3.29223 304.84L7.025 303.403C6.15874 301.153 5.46786 298.655 4.91991 295.853L0.994291 296.621ZM7.43966 312.497C8.30822 313.67 9.26219 314.776 10.3086 315.822L13.137 312.994C12.2286 312.085 11.4041 311.129 10.6545 310.117L7.43966 312.497ZM10.3086 315.822C11.355 316.869 12.4609 317.823 13.6341 318.691L16.0142 315.476C15.0017 314.727 14.0454 313.902 13.137 312.994L10.3086 315.822ZM21.2907 322.839C23.7999 323.805 26.5296 324.554 29.51 325.137L30.2778 321.211C27.4762 320.663 24.9776 319.972 22.7282 319.106L21.2907 322.839ZM37.8197 326.309C40.4048 326.561 43.1584 326.744 46.0948 326.878L46.2772 322.882C43.3911 322.751 40.708 322.571 38.2069 322.328L37.8197 326.309ZM54.3522 327.131C56.9615 327.18 59.7005 327.208 62.5764 327.224L62.5986 323.224C59.7336 323.208 57.0131 323.18 54.4268 323.132L54.3522 327.131ZM70.7753 327.244C72.1182 327.245 73.4883 327.245 74.8858 327.245V323.245C73.4881 323.245 72.119 323.245 70.7774 323.244L70.7753 327.244ZM74.8858 327.245H78.8358V323.245H74.8858V327.245ZM86.7358 327.245H94.6358V323.245H86.7358V327.245ZM102.536 327.245H110.436V323.245H102.536V327.245ZM118.336 327.245H126.236V323.245H118.336V327.245ZM134.136 327.245H142.036V323.245H134.136V327.245ZM149.936 327.245H157.836V323.245H149.936V327.245ZM165.736 327.245H173.636V323.245H165.736V327.245ZM181.536 327.245H189.436V323.245H181.536V327.245ZM197.336 327.245H205.236V323.245H197.336V327.245ZM213.136 327.245H221.036V323.245H213.136V327.245ZM228.936 327.245H236.836V323.245H228.936V327.245ZM244.736 327.245H252.636V323.245H244.736V327.245ZM260.536 327.245H268.436V323.245H260.536V327.245ZM276.336 327.245H284.236V323.245H276.336V327.245ZM292.136 327.245H300.036V323.245H292.136V327.245ZM307.936 327.245H315.836V323.245H307.936V327.245ZM323.736 327.245H331.636V323.245H323.736V327.245ZM339.536 327.245H347.436V323.245H339.536V327.245ZM355.336 327.245H363.236V323.245H355.336V327.245ZM371.136 327.245H379.036V323.245H371.136V327.245ZM386.936 327.245H394.836V323.245H386.936V327.245ZM402.736 327.245H410.636V323.245H402.736V327.245ZM418.536 327.245H426.436V323.245H418.536V327.245ZM434.336 327.245H442.236V323.245H434.336V327.245ZM450.136 327.245H458.036V323.245H450.136V327.245ZM465.936 327.245H473.836V323.245H465.936V327.245ZM481.736 327.245H489.636V323.245H481.736V327.245ZM497.536 327.245H505.436V323.245H497.536V327.245ZM513.335 327.245H521.235V323.245H513.335V327.245ZM529.136 327.245H537.036V323.245H529.136V327.245ZM544.936 327.245H552.835V323.245H544.936V327.245ZM560.735 327.245H568.635V323.245H560.735V327.245ZM576.535 327.245H584.435V323.245H576.535V327.245ZM592.335 327.245H600.235V323.245H592.335V327.245ZM608.136 327.245H616.036V323.245H608.136V327.245ZM623.936 327.245H631.836V323.245H623.936V327.245ZM639.736 327.245H647.636V323.245H639.736V327.245ZM655.536 327.245H663.436V323.245H655.536V327.245ZM671.336 327.245H679.236V323.245H671.336V327.245ZM687.136 327.245H695.036V323.245H687.136V327.245ZM702.936 327.245H706.886V323.245H702.936V327.245ZM706.886 327.245C708.283 327.245 709.653 327.245 710.996 327.244L710.994 323.244C709.652 323.245 708.283 323.245 706.886 323.245V327.245ZM719.195 327.224C722.071 327.208 724.81 327.18 727.419 327.131L727.345 323.132C724.758 323.18 722.038 323.208 719.173 323.224L719.195 327.224ZM735.677 326.878C738.613 326.744 741.367 326.561 743.952 326.309L743.565 322.328C741.064 322.571 738.38 322.751 735.494 322.882L735.677 326.878ZM752.261 325.137C755.242 324.554 757.972 323.805 760.481 322.839L759.043 319.106C756.794 319.972 754.295 320.663 751.494 321.211L752.261 325.137ZM768.137 318.691C769.311 317.823 770.417 316.869 771.463 315.822L768.634 312.994C767.726 313.902 766.77 314.727 765.757 315.476L768.137 318.691ZM771.463 315.822C772.509 314.776 773.463 313.67 774.332 312.497L771.117 310.117C770.367 311.129 769.543 312.085 768.634 312.994L771.463 315.822ZM778.479 304.84C779.446 302.331 780.194 299.601 780.777 296.621L776.852 295.853C776.304 298.655 775.613 301.153 774.746 303.403L778.479 304.84ZM781.95 288.311C782.201 285.726 782.385 282.973 782.519 280.036L778.523 279.854C778.391 282.74 778.212 285.423 777.969 287.924L781.95 288.311ZM782.772 271.779C782.821 269.169 782.849 266.43 782.864 263.555L778.865 263.532C778.849 266.397 778.821 269.118 778.773 271.704L782.772 271.779ZM782.885 255.356C782.886 254.013 782.886 252.643 782.886 251.245H778.886C778.886 252.643 778.886 254.012 778.885 255.354L782.885 255.356ZM782.886 251.245V247.45H778.886V251.245H782.886ZM782.886 239.858V232.267H778.886V239.858H782.886ZM782.886 224.675V217.084H778.886V224.675H782.886ZM782.886 209.493V201.901H778.886V209.493H782.886ZM782.886 194.31V186.719H778.886V194.31H782.886ZM782.886 179.127V171.536H778.886V179.127H782.886ZM782.886 163.944V156.353H778.886V163.944H782.886ZM782.886 148.762V144.966H778.886V148.762H782.886ZM782.886 144.966C782.886 143.569 782.886 142.199 782.885 140.856L778.885 140.858C778.886 142.199 778.886 143.568 778.886 144.966H782.886ZM782.864 132.657C782.849 129.781 782.821 127.042 782.772 124.432L778.773 124.507C778.821 127.093 778.849 129.814 778.865 132.679L782.864 132.657ZM782.519 116.175C782.385 113.239 782.201 110.485 781.95 107.9L777.969 108.287C778.212 110.788 778.391 113.471 778.523 116.358L782.519 116.175ZM780.777 99.5903C780.194 96.6099 779.446 93.8802 778.479 91.371L774.746 92.8085C775.613 95.0579 776.304 97.5565 776.852 100.358L780.777 99.5903ZM774.332 83.7144C773.463 82.5412 772.509 81.4353 771.463 80.3889L768.634 83.2173C769.543 84.1258 770.367 85.0821 771.117 86.0945L774.332 83.7144ZM771.463 80.3889C770.417 79.3425 769.311 78.3885 768.137 77.52L765.757 80.7348C766.77 81.4844 767.726 82.3089 768.634 83.2173L771.463 80.3889ZM760.481 73.3725C757.972 72.4063 755.242 71.6575 752.261 71.0746L751.494 75.0002C754.295 75.5482 756.794 76.2391 759.043 77.1053L760.481 73.3725ZM743.952 69.9018C741.367 69.6504 738.613 69.467 735.677 69.3329L735.494 73.3288C738.38 73.4605 741.064 73.6397 743.565 73.883L743.952 69.9018ZM727.419 69.0797C724.81 69.0311 722.071 69.0032 719.195 68.9873L719.173 72.9873C722.038 73.0031 724.758 73.0308 727.345 73.079L727.419 69.0797ZM710.996 68.9668C709.653 68.9661 708.283 68.9661 706.886 68.9661V72.9661C708.283 72.9661 709.652 72.9661 710.994 72.9668L710.996 68.9668ZM706.886 68.9661H702.874V72.9661H706.886V68.9661ZM694.852 68.9661H686.829V72.9661H694.852V68.9661ZM678.806 68.9661H670.783V72.9661H678.806V68.9661ZM662.761 68.9661H654.738V72.9661H662.761V68.9661ZM646.715 68.9661H638.693V72.9661H646.715V68.9661ZM630.67 68.9661H622.647V72.9661H630.67V68.9661ZM614.624 68.9661H606.602V72.9661H614.624V68.9661ZM598.579 68.9661H590.556V72.9661H598.579V68.9661ZM582.533 68.9661H574.511V72.9661H582.533V68.9661ZM566.488 68.9661H558.465V72.9661H566.488V68.9661ZM550.443 68.9661H542.42V72.9661H550.443V68.9661ZM534.397 68.9661H526.374V72.9661H534.397V68.9661ZM518.352 68.9661H510.329V72.9661H518.352V68.9661ZM502.306 68.9661H494.284V72.9661H502.306V68.9661ZM486.261 68.9661H478.238V72.9661H486.261V68.9661ZM470.215 68.9661H462.193V72.9661H470.215V68.9661ZM454.17 68.9661H446.147V72.9661H454.17V68.9661ZM438.124 68.9661H430.102V72.9661H438.124V68.9661ZM422.079 68.9661H414.056V72.9661H422.079V68.9661ZM406.034 68.9661H398.011V72.9661H406.034V68.9661ZM389.988 68.9661H381.965V72.9661H389.988V68.9661ZM373.943 68.9661H365.92V72.9661H373.943V68.9661ZM357.897 68.9661H349.874V72.9661H357.897V68.9661ZM341.852 68.9661H333.829V72.9661H341.852V68.9661ZM325.806 68.9661H317.783V72.9661H325.806V68.9661ZM309.761 68.9661H301.738V72.9661H309.761V68.9661ZM293.715 68.9661H285.692V72.9661H293.715V68.9661ZM277.67 68.9661H269.647V72.9661H277.67V68.9661ZM261.624 68.9661H253.602V72.9661H261.624V68.9661ZM245.579 68.9661H237.556V72.9661H245.579V68.9661ZM229.533 68.9661H221.511V72.9661H229.533V68.9661ZM213.488 68.9661H205.465V72.9661H213.488V68.9661ZM197.442 68.9661H189.42V72.9661H197.442V68.9661ZM181.397 68.9661H173.374V72.9661H181.397V68.9661ZM165.352 68.9661H157.329V72.9661H165.352V68.9661ZM149.306 68.9661H141.283V72.9661H149.306V68.9661ZM133.261 68.9661H125.238V72.9661H133.261V68.9661ZM117.215 68.9661H109.193V72.9661H117.215V68.9661ZM101.17 68.9661H93.1472V72.9661H101.17V68.9661ZM85.1245 68.9661H77.1018V72.9661H85.1245V68.9661ZM69.0791 68.9661H61.0564V72.9661H69.0791V68.9661ZM53.0337 68.9661H45.011V72.9661H53.0337V68.9661ZM36.9883 68.9661H28.9656V72.9661H36.9883V68.9661ZM20.9429 68.9661H12.9202V72.9661H20.9429V68.9661ZM4.89748 68.9661H0.885742V72.9661H4.89748V68.9661ZM0.885742 70.9661V66.9661H-3.11426V70.9661H0.885742ZM11.7228 314.408L8.89436 317.237L11.7228 314.408ZM770.049 314.408L767.22 311.58L770.049 314.408ZM770.049 81.8031L767.22 84.6315L770.049 81.8031ZM-3.11426 70.9661V75.0633H4.88574V70.9661H-3.11426ZM-3.11426 83.2578V91.4523H4.88574V83.2578H-3.11426ZM-3.11426 99.6468V107.841H4.88574V99.6468H-3.11426ZM-3.11426 116.036V124.23H4.88574V116.036H-3.11426ZM-3.11426 132.425V140.619H4.88574V132.425H-3.11426ZM-3.11426 148.814V157.008H4.88574V148.814H-3.11426ZM-3.11426 165.203V173.397H4.88574V165.203H-3.11426ZM-3.11426 181.592V189.786H4.88574V181.592H-3.11426ZM-3.11426 197.981V206.175H4.88574V197.981H-3.11426ZM-3.11426 214.37V222.564H4.88574V214.37H-3.11426ZM-3.11426 230.759V238.953H4.88574V230.759H-3.11426ZM-3.11426 247.148V251.245H4.88574V247.148H-3.11426ZM-3.11426 251.245C-3.11426 252.643 -3.11426 254.013 -3.11356 255.357L4.88644 255.352C4.88574 254.011 4.88574 252.643 4.88574 251.245H-3.11426ZM-3.09296 263.566C-3.07702 266.447 -3.04914 269.195 -3.00023 271.816L4.99837 271.667C4.95033 269.092 4.92273 266.381 4.90692 263.521L-3.09296 263.566ZM-2.74531 280.127C-2.61012 283.089 -2.42466 285.878 -2.16914 288.505L5.79329 287.73C5.5541 285.271 5.37696 282.623 5.24637 279.762L-2.74531 280.127ZM-0.968519 297.005C-0.368106 300.075 0.409525 302.92 1.42584 305.559L8.89139 302.684C8.07514 300.564 7.41319 298.181 6.88272 295.469L-0.968519 297.005ZM5.83224 313.687C6.7603 314.94 7.779 316.121 8.89436 317.237L14.5512 311.58C13.7118 310.74 12.952 309.859 12.2619 308.927L5.83224 313.687ZM8.89436 317.237C10.0097 318.352 11.1905 319.371 12.4441 320.299L17.2042 313.869C16.2722 313.179 15.3907 312.419 14.5512 311.58L8.89436 317.237ZM20.5719 324.705C23.211 325.721 26.0563 326.499 29.1261 327.099L30.6617 319.248C27.9495 318.718 25.5665 318.056 23.4469 317.24L20.5719 324.705ZM37.626 328.3C40.2531 328.556 43.042 328.741 46.0036 328.876L46.3684 320.885C43.5075 320.754 40.8596 320.577 38.4005 320.338L37.626 328.3ZM54.3149 329.131C56.9357 329.18 59.684 329.208 62.5654 329.224L62.6096 321.224C59.7501 321.208 57.039 321.181 54.4641 321.133L54.3149 329.131ZM70.7743 329.244C72.1178 329.245 73.4884 329.245 74.8858 329.245V321.245C73.488 321.245 72.1195 321.245 70.7784 321.244L70.7743 329.244ZM74.8858 329.245H78.8358V321.245H74.8858V329.245ZM86.7358 329.245H94.6358V321.245H86.7358V329.245ZM102.536 329.245H110.436V321.245H102.536V329.245ZM118.336 329.245H126.236V321.245H118.336V329.245ZM134.136 329.245H142.036V321.245H134.136V329.245ZM149.936 329.245H157.836V321.245H149.936V329.245ZM165.736 329.245H173.636V321.245H165.736V329.245ZM181.536 329.245H189.436V321.245H181.536V329.245ZM197.336 329.245H205.236V321.245H197.336V329.245ZM213.136 329.245H221.036V321.245H213.136V329.245ZM228.936 329.245H236.836V321.245H228.936V329.245ZM244.736 329.245H252.636V321.245H244.736V329.245ZM260.536 329.245H268.436V321.245H260.536V329.245ZM276.336 329.245H284.236V321.245H276.336V329.245ZM292.136 329.245H300.036V321.245H292.136V329.245ZM307.936 329.245H315.836V321.245H307.936V329.245ZM323.736 329.245H331.636V321.245H323.736V329.245ZM339.536 329.245H347.436V321.245H339.536V329.245ZM355.336 329.245H363.236V321.245H355.336V329.245ZM371.136 329.245H379.036V321.245H371.136V329.245ZM386.936 329.245H394.836V321.245H386.936V329.245ZM402.736 329.245H410.636V321.245H402.736V329.245ZM418.536 329.245H426.436V321.245H418.536V329.245ZM434.336 329.245H442.236V321.245H434.336V329.245ZM450.136 329.245H458.036V321.245H450.136V329.245ZM465.936 329.245H473.836V321.245H465.936V329.245ZM481.736 329.245H489.636V321.245H481.736V329.245ZM497.536 329.245H505.436V321.245H497.536V329.245ZM513.335 329.245H521.235V321.245H513.335V329.245ZM529.136 329.245H537.036V321.245H529.136V329.245ZM544.936 329.245H552.835V321.245H544.936V329.245ZM560.735 329.245H568.635V321.245H560.735V329.245ZM576.535 329.245H584.435V321.245H576.535V329.245ZM592.335 329.245H600.235V321.245H592.335V329.245ZM608.136 329.245H616.036V321.245H608.136V329.245ZM623.936 329.245H631.836V321.245H623.936V329.245ZM639.736 329.245H647.636V321.245H639.736V329.245ZM655.536 329.245H663.436V321.245H655.536V329.245ZM671.336 329.245H679.236V321.245H671.336V329.245ZM687.136 329.245H695.036V321.245H687.136V329.245ZM702.936 329.245H706.886V321.245H702.936V329.245ZM706.886 329.245C708.283 329.245 709.654 329.245 710.997 329.244L710.993 321.244C709.652 321.245 708.284 321.245 706.886 321.245V329.245ZM719.206 329.224C722.088 329.208 724.836 329.18 727.457 329.131L727.307 321.133C724.733 321.181 722.021 321.208 719.162 321.224L719.206 329.224ZM735.768 328.876C738.73 328.741 741.518 328.556 744.145 328.3L743.371 320.338C740.912 320.577 738.264 320.754 735.403 320.885L735.768 328.876ZM752.645 327.099C755.715 326.499 758.56 325.721 761.2 324.705L758.325 317.24C756.205 318.056 753.822 318.718 751.11 319.248L752.645 327.099ZM769.327 320.299C770.581 319.371 771.762 318.352 772.877 317.237L767.22 311.58C766.381 312.419 765.499 313.179 764.567 313.869L769.327 320.299ZM772.877 317.237C773.992 316.121 775.011 314.94 775.939 313.687L769.51 308.927C768.82 309.859 768.06 310.74 767.22 311.58L772.877 317.237ZM780.346 305.559C781.362 302.92 782.14 300.075 782.74 297.005L774.889 295.469C774.358 298.181 773.696 300.564 772.88 302.684L780.346 305.559ZM783.941 288.505C784.196 285.878 784.382 283.089 784.517 280.127L776.525 279.763C776.395 282.623 776.217 285.271 775.978 287.73L783.941 288.505ZM784.772 271.816C784.821 269.195 784.849 266.447 784.864 263.566L776.865 263.521C776.849 266.381 776.821 269.092 776.773 271.667L784.772 271.816ZM784.885 255.357C784.886 254.013 784.886 252.643 784.886 251.245H776.886C776.886 252.643 776.886 254.011 776.885 255.353L784.885 255.357ZM784.886 251.245V247.45H776.886V251.245H784.886ZM784.886 239.858V232.267H776.886V239.858H784.886ZM784.886 224.675V217.084H776.886V224.675H784.886ZM784.886 209.493V201.901H776.886V209.493H784.886ZM784.886 194.31V186.719H776.886V194.31H784.886ZM784.886 179.127V171.536H776.886V179.127H784.886ZM784.886 163.944V156.353H776.886V163.944H784.886ZM784.886 148.762V144.966H776.886V148.762H784.886ZM784.886 144.966C784.886 143.569 784.886 142.198 784.885 140.855L776.885 140.859C776.886 142.2 776.886 143.568 776.886 144.966H784.886ZM784.864 132.646C784.849 129.764 784.821 127.016 784.772 124.395L776.773 124.544C776.821 127.119 776.849 129.83 776.865 132.69L784.864 132.646ZM784.517 116.084C784.382 113.122 784.196 110.333 783.941 107.706L775.978 108.481C776.217 110.94 776.395 113.588 776.525 116.449L784.517 116.084ZM782.74 99.2064C782.14 96.1366 781.362 93.2913 780.346 90.6523L772.88 93.5272C773.696 95.6468 774.358 98.0298 774.889 100.742L782.74 99.2064ZM775.939 82.5244C775.011 81.2708 773.992 80.0901 772.877 78.9747L767.22 84.6315C768.06 85.471 768.82 86.3525 769.51 87.2845L775.939 82.5244ZM772.877 78.9747C771.762 77.8593 770.581 76.8406 769.327 75.9126L764.567 82.3423C765.499 83.0323 766.381 83.7921 767.22 84.6315L772.877 78.9747ZM761.2 71.5062C758.56 70.4898 755.715 69.7122 752.645 69.1118L751.11 76.963C753.822 77.4935 756.205 78.1555 758.325 78.9717L761.2 71.5062ZM744.145 67.9112C741.518 67.6557 738.729 67.4702 735.768 67.335L735.403 75.3267C738.264 75.4573 740.912 75.6344 743.371 75.8736L744.145 67.9112ZM727.457 67.0801C724.836 67.0312 722.088 67.0033 719.206 66.9874L719.162 74.9872C722.021 75.0031 724.733 75.0307 727.307 75.0787L727.457 67.0801ZM710.997 66.9668C709.654 66.9661 708.283 66.9661 706.886 66.9661V74.9661C708.283 74.9661 709.652 74.9661 710.993 74.9668L710.997 66.9668ZM706.886 66.9661H702.874V74.9661H706.886V66.9661ZM694.852 66.9661H686.829V74.9661H694.852V66.9661ZM678.806 66.9661H670.783V74.9661H678.806V66.9661ZM662.761 66.9661H654.738V74.9661H662.761V66.9661ZM646.715 66.9661H638.693V74.9661H646.715V66.9661ZM630.67 66.9661H622.647V74.9661H630.67V66.9661ZM614.624 66.9661H606.602V74.9661H614.624V66.9661ZM598.579 66.9661H590.556V74.9661H598.579V66.9661ZM582.533 66.9661H574.511V74.9661H582.533V66.9661ZM566.488 66.9661H558.465V74.9661H566.488V66.9661ZM550.443 66.9661H542.42V74.9661H550.443V66.9661ZM534.397 66.9661H526.374V74.9661H534.397V66.9661ZM518.352 66.9661H510.329V74.9661H518.352V66.9661ZM502.306 66.9661H494.284V74.9661H502.306V66.9661ZM486.261 66.9661H478.238V74.9661H486.261V66.9661ZM470.215 66.9661H462.193V74.9661H470.215V66.9661ZM454.17 66.9661H446.147V74.9661H454.17V66.9661ZM438.124 66.9661H430.102V74.9661H438.124V66.9661ZM422.079 66.9661H414.056V74.9661H422.079V66.9661ZM406.034 66.9661H398.011V74.9661H406.034V66.9661ZM389.988 66.9661H381.965V74.9661H389.988V66.9661ZM373.943 66.9661H365.92V74.9661H373.943V66.9661ZM357.897 66.9661H349.874V74.9661H357.897V66.9661ZM341.852 66.9661H333.829V74.9661H341.852V66.9661ZM325.806 66.9661H317.783V74.9661H325.806V66.9661ZM309.761 66.9661H301.738V74.9661H309.761V66.9661ZM293.715 66.9661H285.692V74.9661H293.715V66.9661ZM277.67 66.9661H269.647V74.9661H277.67V66.9661ZM261.624 66.9661H253.602V74.9661H261.624V66.9661ZM245.579 66.9661H237.556V74.9661H245.579V66.9661ZM229.533 66.9661H221.511V74.9661H229.533V66.9661ZM213.488 66.9661H205.465V74.9661H213.488V66.9661ZM197.442 66.9661H189.42V74.9661H197.442V66.9661ZM181.397 66.9661H173.374V74.9661H181.397V66.9661ZM165.352 66.9661H157.329V74.9661H165.352V66.9661ZM149.306 66.9661H141.283V74.9661H149.306V66.9661ZM133.261 66.9661H125.238V74.9661H133.261V66.9661ZM117.215 66.9661H109.193V74.9661H117.215V66.9661ZM101.17 66.9661H93.1472V74.9661H101.17V66.9661ZM85.1245 66.9661H77.1018V74.9661H85.1245V66.9661ZM69.0791 66.9661H61.0564V74.9661H69.0791V66.9661ZM53.0337 66.9661H45.011V74.9661H53.0337V66.9661ZM36.9883 66.9661H28.9656V74.9661H36.9883V66.9661ZM20.9429 66.9661H12.9202V74.9661H20.9429V66.9661ZM4.89748 66.9661H0.885742V74.9661H4.89748V66.9661Z" fill="#9058FF" mask="url(#path-2-inside-1_671_11)"/>
<path d="M53.9691 27.8356H38.3991V24.6256H53.9691V27.8356ZM58.6491 44.9356H36.2091V41.6656H58.6491V44.9356ZM44.6391 42.6556H40.6791V33.8656H44.6391V42.6556ZM56.8491 26.9656C56.8491 29.0656 56.7991 30.9856 56.6991 32.7256C56.5991 34.4456 56.3491 36.4556 55.9491 38.7556L52.0491 38.3956C52.4291 36.2356 52.6591 34.3056 52.7391 32.6056C52.8391 30.9056 52.8891 29.0256 52.8891 26.9656V24.6256H56.8491V26.9656ZM50.7891 42.6556H46.8291V33.8656H50.7891V42.6556ZM82.0594 37.4656H59.5294V34.2856H82.0594V37.4656ZM72.7594 35.5456H68.8294V30.5656H72.7594V35.5456ZM79.4794 32.4556H62.1994V29.2756H79.4794V32.4556ZM79.4194 26.8156H66.1894V31.3456H62.1994V23.7256H79.4194V26.8156ZM70.7194 38.5456C73.4394 38.5456 75.5494 38.9556 77.0494 39.7756C78.5694 40.5756 79.3294 41.7256 79.3294 43.2256C79.3294 44.7056 78.5694 45.8456 77.0494 46.6456C75.5294 47.4656 73.4294 47.8756 70.7494 47.8756C68.0294 47.8756 65.8994 47.4656 64.3594 46.6456C62.8194 45.8456 62.0494 44.7056 62.0494 43.2256C62.0494 41.7256 62.8194 40.5756 64.3594 39.7756C65.8994 38.9556 68.0194 38.5456 70.7194 38.5456ZM70.7494 41.6056C69.1494 41.6056 67.9694 41.7356 67.2094 41.9956C66.4694 42.2556 66.0994 42.6656 66.0994 43.2256C66.0994 43.7856 66.4694 44.1956 67.2094 44.4556C67.9694 44.6956 69.1394 44.8156 70.7194 44.8156C72.2994 44.8156 73.4594 44.6956 74.1994 44.4556C74.9594 44.1956 75.3394 43.7856 75.3394 43.2256C75.3394 42.6656 74.9594 42.2556 74.1994 41.9956C73.4594 41.7356 72.3094 41.6056 70.7494 41.6056ZM97.4897 35.8156H84.4697V32.6356H97.4897V35.8156ZM92.9597 40.3756H89.0297V35.2456H92.9597V40.3756ZM97.3397 27.9556H88.4297V33.5956H84.4697V24.8056H97.3397V27.9556ZM103.73 47.9056H99.7397V22.6156H103.73V47.9056ZM82.9697 39.8056C85.7497 39.8456 88.4397 39.8256 91.0397 39.7456C93.6597 39.6656 96.1397 39.5056 98.4797 39.2656L98.7497 42.1756C96.3897 42.5556 94.0397 42.7956 91.6997 42.8956C89.3597 42.9956 86.5897 43.0456 83.3897 43.0456L82.9697 39.8056ZM125.73 47.9056H121.77V22.6156H125.73V47.9056ZM129.21 34.9756H124.86V31.7356H129.21V34.9756ZM109.32 38.5156C111.54 38.5156 113.49 38.4656 115.17 38.3656C116.87 38.2656 118.56 38.0656 120.24 37.7656L120.66 41.1556C118.94 41.4356 117.2 41.6256 115.44 41.7256C113.7 41.8056 111.66 41.8456 109.32 41.8456H107.13V38.5156H109.32ZM118.74 28.1356H111.12V40.1656H107.13V24.8956H118.74V28.1356ZM142.09 36.9256H130.12V24.6256H142.09V36.9256ZM134.05 33.7456H138.19V27.8056H134.05V33.7456ZM149.11 40.9756H145.18V22.6456H149.11V40.9756ZM152.32 33.0856H148.03V29.7556H152.32V33.0856ZM149.92 47.4256H133V44.2456H149.92V47.4256ZM136.9 45.8656H133V39.1756H136.9V45.8656ZM173.721 39.1756H169.701V22.6456H173.721V39.1756ZM170.241 32.3956H165.831V29.1256H170.241V32.3956ZM165.621 24.5356C165.621 26.8756 165.241 28.9356 164.481 30.7156C163.721 32.4756 162.541 33.9956 160.941 35.2756C159.341 36.5356 157.281 37.5656 154.761 38.3656L153.081 35.1856C156.061 34.3056 158.201 33.1356 159.501 31.6756C160.821 30.1956 161.481 28.3956 161.481 26.2756V24.5356H165.621ZM164.391 27.6856H154.431V24.5356H164.391V27.6856ZM166.641 38.2156C166.641 39.7956 166.291 41.2456 165.591 42.5656C164.911 43.8656 163.861 44.9756 162.441 45.8956C161.021 46.7956 159.261 47.4156 157.161 47.7556L155.661 44.5756C157.421 44.3156 158.861 43.8556 159.981 43.1956C161.121 42.5356 161.951 41.7756 162.471 40.9156C162.991 40.0556 163.251 39.1556 163.251 38.2156V37.4656H166.641V38.2156ZM167.181 38.2156C167.181 39.1356 167.441 40.0256 167.961 40.8856C168.501 41.7456 169.331 42.5056 170.451 43.1656C171.591 43.8256 173.031 44.2856 174.771 44.5456L173.241 47.7256C171.161 47.4056 169.411 46.7956 167.991 45.8956C166.591 44.9756 165.541 43.8556 164.841 42.5356C164.161 41.2156 163.821 39.7756 163.821 38.2156V37.4656H167.181V38.2156Z" fill="black"/>
</svg>
