<svg width="371" height="126" viewBox="0 0 371 126" fill="none" xmlns="http://www.w3.org/2000/svg">
<path d="M0.0507812 62.8855C0.0507812 46.6014 0.0507812 38.4593 2.13352 31.8537C6.54845 17.8514 17.5166 6.88317 31.519 2.46823C38.1246 0.385498 46.2667 0.385498 62.5508 0.385498H307.551C323.835 0.385498 331.977 0.385498 338.583 2.46823C352.585 6.88317 363.553 17.8514 367.968 31.8537C370.051 38.4593 370.051 46.6014 370.051 62.8855V62.8855C370.051 79.1696 370.051 87.3117 367.968 93.9173C363.553 107.92 352.585 118.888 338.583 123.303C331.977 125.385 323.835 125.385 307.551 125.385H62.5508C46.2667 125.385 38.1246 125.385 31.519 123.303C17.5166 118.888 6.54845 107.92 2.13352 93.9173C0.0507812 87.3117 0.0507812 79.1696 0.0507812 62.8855V62.8855Z" fill="#9058FF"/>
<path d="M142.139 65.4655C142.139 67.0855 141.899 68.5155 141.419 69.7555C140.959 70.9955 140.259 71.9655 139.319 72.6655C138.379 73.3455 137.239 73.6855 135.899 73.6855C134.979 73.6855 134.169 73.5155 133.469 73.1755C132.789 72.8355 132.199 72.3355 131.699 71.6755L131.489 73.3855H127.589V51.6655H131.939V58.6555C132.439 58.1155 133.009 57.6955 133.649 57.3955C134.289 57.0955 135.029 56.9455 135.869 56.9455C137.889 56.9455 139.439 57.6955 140.519 59.1955C141.599 60.6955 142.139 62.6855 142.139 65.1655V65.4655ZM137.819 65.1655C137.819 63.7255 137.589 62.5855 137.129 61.7455C136.669 60.9055 135.879 60.4855 134.759 60.4855C134.059 60.4855 133.469 60.6255 132.989 60.9055C132.529 61.1855 132.179 61.5855 131.939 62.1055V68.5255C132.179 69.0655 132.539 69.4855 133.019 69.7855C133.499 70.0655 134.089 70.2055 134.789 70.2055C135.929 70.2055 136.719 69.7955 137.159 68.9755C137.599 68.1555 137.819 66.9855 137.819 65.4655V65.1655ZM144.318 71.2555C144.318 70.5955 144.538 70.0455 144.978 69.6055C145.438 69.1455 146.038 68.9155 146.778 68.9155C147.498 68.9155 148.078 69.1455 148.518 69.6055C148.978 70.0455 149.208 70.5955 149.208 71.2555C149.208 71.9155 148.978 72.4655 148.518 72.9055C148.078 73.3255 147.498 73.5355 146.778 73.5355C146.038 73.5355 145.438 73.3255 144.978 72.9055C144.538 72.4655 144.318 71.9155 144.318 71.2555ZM171.732 75.1255H167.802V49.8955H171.732V75.1255ZM169.362 59.0455H163.992V55.8655H169.362V59.0455ZM168.582 65.8855H163.062V62.6455H168.582V65.8855ZM158.562 52.4155C158.562 55.0755 158.442 57.3555 158.202 59.2555C157.962 61.1355 157.492 62.9355 156.792 64.6555C156.092 66.3755 155.072 68.0155 153.732 69.5755L150.732 67.2355C151.832 65.8955 152.672 64.5555 153.252 63.2155C153.852 61.8555 154.252 60.3855 154.452 58.8055C154.672 57.2255 154.782 55.2655 154.782 52.9255V52.4155H158.562ZM156.372 55.6855H151.842V52.4155H156.372V55.6855ZM165.312 52.4155C165.312 55.1755 165.182 57.6255 164.922 59.7655C164.682 61.8855 164.212 63.9055 163.512 65.8255C162.832 67.7255 161.862 69.5155 160.602 71.1955L157.392 69.0955C158.512 67.5355 159.372 65.9755 159.972 64.4155C160.572 62.8555 160.982 61.1755 161.202 59.3755C161.442 57.5755 161.562 55.4155 161.562 52.8955V52.4155H165.312ZM163.212 55.6855H159.312V52.4155H163.212V55.6855ZM171.732 75.1255H167.802V49.8955H171.732V75.1255ZM195.082 63.4555H191.122V49.8955H195.082V63.4555ZM182.332 66.5755H191.152V64.4755H195.082V74.8555H178.462V64.4755H182.332V66.5755ZM191.152 71.5855V69.6355H182.332V71.5855H191.152ZM181.582 50.8555C182.842 50.8555 183.992 51.1155 185.032 51.6355C186.072 52.1355 186.882 52.8555 187.462 53.7955C188.042 54.7155 188.332 55.7555 188.332 56.9155C188.332 58.0555 188.042 59.0855 187.462 60.0055C186.882 60.9055 186.072 61.6055 185.032 62.1055C183.992 62.6055 182.842 62.8555 181.582 62.8555C180.282 62.8555 179.112 62.6055 178.072 62.1055C177.032 61.6055 176.212 60.9055 175.612 60.0055C175.032 59.0855 174.742 58.0555 174.742 56.9155C174.742 55.7555 175.032 54.7155 175.612 53.7955C176.212 52.8555 177.032 52.1355 178.072 51.6355C179.112 51.1155 180.282 50.8555 181.582 50.8555ZM181.582 54.2155C181.002 54.2155 180.482 54.3255 180.022 54.5455C179.582 54.7455 179.232 55.0555 178.972 55.4755C178.712 55.8755 178.582 56.3555 178.582 56.9155C178.582 57.4755 178.702 57.9555 178.942 58.3555C179.202 58.7555 179.562 59.0555 180.022 59.2555C180.482 59.4555 181.002 59.5555 181.582 59.5555C182.122 59.5555 182.602 59.4555 183.022 59.2555C183.462 59.0555 183.802 58.7555 184.042 58.3555C184.302 57.9555 184.432 57.4755 184.432 56.9155C184.432 56.3555 184.302 55.8755 184.042 55.4755C183.802 55.0555 183.462 54.7455 183.022 54.5455C182.602 54.3255 182.122 54.2155 181.582 54.2155ZM217.712 59.5855H200.432V56.4655H217.712V59.5855ZM220.172 65.1955H197.672V62.0755H220.172V65.1955ZM204.362 58.0255H200.432V50.7655H204.362V58.0255ZM217.832 74.5855H200.132V71.3755H217.832V74.5855ZM204.182 72.2155H200.132V67.0555H204.182V72.2155ZM240.583 75.1855H236.623V49.8955H240.583V75.1855ZM244.063 62.2555H239.713V59.0155H244.063V62.2555ZM224.173 65.7955C226.393 65.7955 228.343 65.7455 230.023 65.6455C231.723 65.5455 233.413 65.3455 235.093 65.0455L235.513 68.4355C233.793 68.7155 232.053 68.9055 230.293 69.0055C228.553 69.0855 226.513 69.1255 224.173 69.1255H221.983V65.7955H224.173ZM233.593 55.4155H225.973V67.4455H221.983V52.1755H233.593V55.4155Z" fill="white"/>
</svg>
