<svg width="334" height="284" viewBox="0 0 334 284" fill="none" xmlns="http://www.w3.org/2000/svg">
<rect x="0.0712891" y="186.96" width="324.649" height="117.921" transform="rotate(-35 0.0712891 186.96)" fill="#9058FF"/>
<path d="M43.5715 193.417L45.0656 192.37L45.8021 193.422L44.308 194.468L43.5715 193.417ZM44.1537 188.013L45.4021 187.139L51.7757 196.242L50.5273 197.116L44.1537 188.013ZM42.409 189.455L43.6278 188.601L49.616 197.153L48.3971 198.007L42.409 189.455ZM40.0794 191.819C40.4791 191.539 40.9205 191.43 41.4035 191.492C41.8885 191.543 42.384 191.763 42.8901 192.15C43.398 192.527 43.8929 193.06 44.3747 193.748C44.8519 194.429 45.183 195.076 45.3679 195.689C45.5594 196.297 45.5984 196.841 45.4851 197.321C45.3738 197.79 45.1149 198.166 44.7086 198.451C44.3154 198.726 43.8764 198.838 43.3914 198.787C42.9083 198.725 42.4105 198.502 41.898 198.119C41.392 197.731 40.9003 197.196 40.4231 196.515C39.9413 195.827 39.607 195.182 39.4201 194.58C39.2352 193.967 39.1984 193.427 39.3098 192.958C39.4231 192.478 39.6796 192.098 40.0794 191.819ZM40.9466 193.057C40.7828 193.172 40.6947 193.346 40.6823 193.579C40.6698 193.812 40.7387 194.106 40.8888 194.46C41.0409 194.803 41.2822 195.21 41.6125 195.682C41.9337 196.141 42.2317 196.503 42.5063 196.77C42.7875 197.032 43.0421 197.2 43.2702 197.275C43.4937 197.343 43.6874 197.32 43.8512 197.205C44.0151 197.091 44.1032 196.917 44.1156 196.683C44.13 196.439 44.0588 196.142 43.9021 195.793C43.7455 195.443 43.5065 195.039 43.1853 194.581C42.8549 194.109 42.5547 193.743 42.2847 193.483C42.01 193.216 41.7577 193.051 41.5276 192.987C41.3041 192.919 41.1105 192.942 40.9466 193.057ZM49.5575 185.167C50.0097 184.851 50.5068 184.703 51.0488 184.724C51.5928 184.733 52.1351 184.915 52.6759 185.269C53.2186 185.612 53.7216 186.114 54.1851 186.776C54.6531 187.444 54.9576 188.095 55.0986 188.729C55.2416 189.352 55.2269 189.924 55.0546 190.445C54.8843 190.955 54.5731 191.368 54.1209 191.684C53.6687 192.001 53.1739 192.152 52.6365 192.138C52.0945 192.117 51.5521 191.935 51.0094 191.592C50.4621 191.243 49.9545 190.734 49.4864 190.066C49.023 189.404 48.7231 188.76 48.5866 188.132C48.4456 187.499 48.4603 186.927 48.6306 186.417C48.7964 185.9 49.1053 185.484 49.5575 185.167ZM50.3903 186.357C50.1741 186.508 50.0358 186.722 49.9756 186.999C49.9219 187.271 49.957 187.593 50.0809 187.965C50.2002 188.331 50.4182 188.74 50.7348 189.192C51.0468 189.637 51.3589 189.985 51.6709 190.236C51.9783 190.479 52.2689 190.623 52.5429 190.665C52.8234 190.703 53.0718 190.646 53.2881 190.495C53.5174 190.334 53.659 190.118 53.7127 189.846C53.7664 189.574 53.7313 189.252 53.6073 188.88C53.4788 188.501 53.2586 188.089 52.9465 187.643C52.6299 187.191 52.3202 186.846 52.0174 186.609C51.71 186.365 51.4193 186.222 51.1453 186.18C50.8714 186.137 50.6197 186.196 50.3903 186.357ZM52.9536 181.837L54.261 180.922L60.6552 190.054L59.3478 190.969L52.9536 181.837ZM53.3819 186.445L55.8098 184.745L56.5394 185.787L54.1115 187.487L53.3819 186.445ZM56.3384 180.522L61.2041 177.115L61.9406 178.167L57.0748 181.574L56.3384 180.522ZM59.3787 185.073L58.4908 184.098C58.9954 183.745 59.5501 183.351 60.155 182.918C60.7618 182.474 61.3726 182.007 61.9873 181.518C62.6019 181.029 63.1776 180.533 63.7143 180.03L64.4606 180.929C63.9423 181.458 63.3826 181.976 62.7817 182.485C62.1828 182.983 61.5887 183.452 60.9996 183.894C60.417 184.331 59.8767 184.724 59.3787 185.073ZM57.6135 180.816L58.8717 179.935L60.9847 182.952L59.7265 183.833L57.6135 180.816ZM59.7858 179.294L61.0441 178.413L63.1571 181.431L61.8989 182.312L59.7858 179.294ZM61.5215 175.852L62.8288 174.937L67.1307 181.081L65.8233 181.996L61.5215 175.852ZM64.1269 177.544L65.6898 176.45L66.4332 177.511L64.8702 178.606L64.1269 177.544ZM63.2517 183.094L64.3723 182.309L64.4756 182.456C64.7601 182.863 64.9531 183.299 65.0548 183.765C65.1518 184.224 65.1539 184.701 65.0609 185.196C64.9698 185.68 64.7769 186.171 64.4821 186.671C64.1872 187.17 63.7934 187.661 63.3006 188.143L62.0835 187.471C62.5291 187.062 62.876 186.658 63.1244 186.259C63.3727 185.861 63.5437 185.477 63.6374 185.109C63.731 184.74 63.751 184.399 63.6972 184.085C63.6388 183.765 63.5247 183.483 63.355 183.241L63.2517 183.094ZM63.4483 182.956L64.5591 182.178L64.6623 182.326C64.8321 182.568 65.0576 182.771 65.3388 182.936C65.6219 183.089 65.9493 183.187 66.3209 183.23C66.6991 183.268 67.1179 183.238 67.5773 183.141C68.0432 183.039 68.5416 182.852 69.0725 182.578L69.2968 183.944C68.6755 184.242 68.0798 184.445 67.5096 184.551C66.9395 184.657 66.4083 184.673 65.9161 184.597C65.4258 184.511 64.9815 184.343 64.5829 184.095C64.1799 183.84 63.8361 183.51 63.5516 183.103L63.4483 182.956ZM65.7222 174.259L69.6541 171.506L70.3837 172.548L66.4518 175.301L65.7222 174.259ZM68.7257 176.038L70.0036 175.143L72.1717 178.239L70.8938 179.134L68.7257 176.038ZM69.1233 171.877L70.4208 170.969L70.9439 171.716C71.2514 172.155 71.5893 172.665 71.9577 173.247C72.3327 173.825 72.724 174.537 73.1318 175.384L71.7782 176.171C71.3868 175.361 71.0105 174.677 70.6493 174.12C70.2836 173.555 69.9492 173.057 69.6464 172.624L69.1233 171.877ZM70.5641 169.521L71.8617 168.612L78.2353 177.715L76.9377 178.623L70.5641 169.521ZM74.0486 172.53L75.6509 171.408L76.408 172.49L74.8057 173.612L74.0486 172.53ZM69.8481 180.863L68.9868 179.884C69.5176 179.512 70.092 179.105 70.7099 178.662C71.3299 178.209 71.9495 177.741 72.5687 177.258C73.19 176.765 73.7768 176.271 74.3292 175.776L75.0558 176.689C74.5087 177.218 73.9323 177.734 73.3268 178.236C72.7279 178.734 72.1306 179.206 71.5349 179.652C70.9346 180.092 70.3723 180.495 69.8481 180.863ZM80.3189 169.414L86.7181 164.934L87.4408 165.966L81.0416 170.446L80.3189 169.414ZM81.1383 172.635L89.3855 166.86L90.122 167.912L81.8747 173.687L81.1383 172.635ZM83.1805 168.187L84.4879 167.272L86.2292 169.759L84.9219 170.674L83.1805 168.187ZM77.5933 165.522L83.9237 161.089L84.6602 162.141L79.6568 165.644L81.9144 168.869L80.5873 169.798L77.5933 165.522ZM79.8732 166.811L85.0732 163.17L85.7821 164.183L80.5822 167.824L79.8732 166.811ZM86.1131 159.908L90.4677 156.859L94.6938 162.894L90.3392 165.943L86.1131 159.908ZM89.9027 158.792L88.1235 160.038L90.911 164.019L92.6902 162.773L89.9027 158.792ZM91.0553 155.187L92.3725 154.265L98.7461 163.367L97.4289 164.29L91.0553 155.187ZM94.4896 157.895L96.0918 156.773L96.8421 157.845L95.2398 158.967L94.4896 157.895ZM98.4043 156.751L104.803 152.27L105.526 153.302L99.127 157.783L98.4043 156.751ZM99.2236 159.971L107.471 154.197L108.207 155.248L99.9601 161.023L99.2236 159.971ZM101.266 155.524L102.573 154.608L104.315 157.095L103.007 158.011L101.266 155.524ZM95.6786 152.858L102.009 148.426L102.745 149.477L97.7421 152.981L99.9997 156.205L98.6727 157.134L95.6786 152.858ZM97.9586 154.148L103.159 150.507L103.867 151.519L98.6675 155.16L97.9586 154.148ZM109.833 143.533L110.974 142.735L111.166 143.01C111.387 143.324 111.548 143.666 111.649 144.034C111.757 144.398 111.799 144.779 111.775 145.176C111.746 145.568 111.656 145.968 111.503 146.378C111.352 146.776 111.135 147.177 110.851 147.581C110.568 147.985 110.214 148.379 109.79 148.764L108.599 148.089C108.969 147.752 109.274 147.421 109.515 147.096C109.758 146.759 109.947 146.437 110.082 146.127C110.213 145.811 110.297 145.513 110.335 145.233C110.373 144.952 110.361 144.692 110.3 144.451C110.246 144.206 110.155 143.992 110.026 143.808L109.833 143.533ZM110.217 143.265L111.347 142.473L111.54 142.748C111.668 142.932 111.835 143.093 112.04 143.233C112.252 143.368 112.496 143.465 112.773 143.526C113.049 143.586 113.358 143.609 113.7 143.594C114.043 143.569 114.411 143.502 114.804 143.393C115.192 143.277 115.607 143.104 116.05 142.871L116.278 144.221C115.771 144.488 115.279 144.686 114.803 144.814C114.327 144.943 113.872 145.012 113.439 145.022C113.009 145.021 112.605 144.967 112.227 144.86C111.852 144.742 111.508 144.572 111.197 144.351C110.892 144.125 110.63 143.854 110.409 143.54L110.217 143.265ZM113.24 148.252L114.548 147.337L116.881 150.669L115.574 151.585L113.24 148.252ZM109.28 149.898L117.517 144.13L118.254 145.181L110.016 150.949L109.28 149.898ZM106.82 144.837L113.573 140.108L114.296 141.141L107.543 145.869L106.82 144.837ZM115.697 139.105L120.032 136.07L124.299 142.164L119.964 145.199L115.697 139.105ZM119.467 138.003L117.707 139.235L120.536 143.275L122.296 142.043L119.467 138.003ZM121.129 134.1L122.436 133.185L128.83 142.317L127.523 143.232L121.129 134.1ZM121.434 138.574L123.862 136.874L124.599 137.926L122.171 139.626L121.434 138.574ZM130.149 127.799L131.446 126.89L137.82 135.993L136.522 136.901L130.149 127.799ZM124.925 132.746L126.233 131.83L130.197 137.492L128.89 138.408L124.925 132.746ZM128.346 137.631L129.152 137.067C129.821 136.599 130.5 136.084 131.191 135.522C131.877 134.954 132.544 134.33 133.192 133.652L134.094 134.647C133.435 135.352 132.75 135.998 132.038 136.585C131.327 137.16 130.625 137.691 129.93 138.177L129.124 138.742L128.346 137.631Z" fill="white"/>
<path d="M57.6857 218.87L63.79 214.596L64.2511 215.255L58.1468 219.529L57.6857 218.87ZM58.4018 222.09L66.4623 216.446L66.9303 217.114L58.8698 222.758L58.4018 222.09ZM60.4951 217.401L61.311 216.83L63.0386 219.297L62.2227 219.869L60.4951 217.401ZM54.96 214.978L60.9759 210.765L61.4439 211.434L56.2538 215.068L58.6834 218.538L57.8577 219.116L54.96 214.978ZM56.8654 216.486L62.1146 212.81L62.5757 213.469L57.3266 217.144L56.8654 216.486ZM63.4415 209.288L67.5208 206.432L71.5405 212.172L67.4611 215.029L63.4415 209.288ZM67.1691 207.645L64.6919 209.379L67.7961 213.813L70.2733 212.078L67.1691 207.645ZM68.4771 204.429L69.293 203.858L75.522 212.754L74.7061 213.325L68.4771 204.429ZM71.5909 207.537L73.2325 206.388L73.7143 207.076L72.0727 208.225L71.5909 207.537ZM75.771 206.207L81.8753 201.933L82.3365 202.591L76.2322 206.866L75.771 206.207ZM76.4871 209.426L84.5476 203.782L85.0156 204.451L76.9552 210.095L76.4871 209.426ZM78.5804 204.738L79.3963 204.167L81.1239 206.634L80.3081 207.205L78.5804 204.738ZM73.0454 202.314L79.0612 198.102L79.5293 198.77L74.3391 202.405L76.7688 205.875L75.9431 206.453L73.0454 202.314ZM74.9508 203.822L80.1999 200.147L80.6611 200.805L75.4119 204.481L74.9508 203.822ZM88.2669 201.12L96.3274 195.476L96.8023 196.154L88.7418 201.798L88.2669 201.12ZM90.2639 196.293L91.0699 195.729L92.8113 198.216L92.0052 198.78L90.2639 196.293ZM84.7711 194.119L90.9049 189.824L93.837 194.011L87.7032 198.306L84.7711 194.119ZM90.5698 191.04L86.0285 194.22L88.0452 197.1L92.5865 193.92L90.5698 191.04ZM99.9379 184.378L101.471 183.304L101.946 183.982L100.413 185.056L99.9379 184.378ZM101.266 186.275L102.8 185.201L103.275 185.879L101.741 186.953L101.266 186.275ZM95.2027 186.507C95.6549 186.19 96.1165 185.999 96.5878 185.932C97.059 185.866 97.503 185.921 97.9199 186.098C98.3433 186.271 98.6995 186.563 98.9886 186.976C99.2823 187.395 99.4376 187.834 99.4547 188.29C99.4738 188.736 99.3716 189.169 99.1482 189.589C98.9248 190.009 98.587 190.378 98.1348 190.694C97.6957 191.002 97.2373 191.191 96.7596 191.262C96.2883 191.328 95.8433 191.278 95.4245 191.112C95.0011 190.94 94.6426 190.644 94.3489 190.225C94.0598 189.812 93.9067 189.377 93.8896 188.92C93.8725 188.463 93.9757 188.025 94.1991 187.605C94.4291 187.18 94.7636 186.814 95.2027 186.507ZM95.6845 187.195C95.3961 187.397 95.1809 187.64 95.0387 187.925C94.8919 188.204 94.8232 188.496 94.8324 188.802C94.8481 189.104 94.9524 189.392 95.1451 189.667C95.3424 189.949 95.58 190.149 95.8579 190.267C96.1424 190.38 96.4406 190.415 96.7525 190.373C97.0645 190.33 97.3647 190.208 97.653 190.006C97.9479 189.8 98.1687 189.557 98.3155 189.278C98.4623 189 98.5278 188.71 98.512 188.408C98.5028 188.102 98.3995 187.808 98.2022 187.527C98.0095 187.251 97.7709 187.057 97.4864 186.944C97.2085 186.826 96.9136 186.788 96.6016 186.831C96.2851 186.867 95.9794 186.988 95.6845 187.195ZM98.4385 183.45L99.2544 182.878L102.944 188.147L102.128 188.719L98.4385 183.45ZM100.305 190.405C100.902 189.987 101.468 189.694 102.003 189.524C102.534 189.347 103.004 189.301 103.415 189.385C103.82 189.462 104.147 189.678 104.395 190.032C104.638 190.379 104.729 190.76 104.667 191.174C104.601 191.582 104.395 192.005 104.047 192.443C103.705 192.888 103.235 193.32 102.639 193.737C102.036 194.159 101.467 194.455 100.931 194.625C100.4 194.801 99.9321 194.851 99.5264 194.774C99.1161 194.69 98.7894 194.474 98.5462 194.127C98.2984 193.773 98.2076 193.392 98.2737 192.985C98.3353 192.57 98.5397 192.144 98.887 191.706C99.2297 191.261 99.7025 190.827 100.305 190.405ZM100.767 191.063C100.327 191.371 99.9749 191.676 99.7089 191.98C99.4494 192.279 99.2872 192.563 99.2224 192.833C99.1575 193.103 99.2008 193.346 99.3523 193.563C99.4991 193.772 99.7105 193.893 99.9864 193.924C100.262 193.956 100.585 193.901 100.955 193.759C101.331 193.613 101.738 193.386 102.178 193.079C102.617 192.771 102.966 192.468 103.225 192.169C103.485 191.87 103.647 191.586 103.712 191.316C103.777 191.046 103.736 190.806 103.589 190.596C103.437 190.38 103.224 190.256 102.948 190.225C102.672 190.193 102.349 190.248 101.98 190.39C101.61 190.531 101.206 190.756 100.767 191.063ZM104.731 180.011C105.196 179.685 105.668 179.487 106.146 179.416C106.625 179.334 107.077 179.379 107.5 179.551C107.924 179.723 108.282 180.019 108.576 180.439C108.865 180.852 109.02 181.29 109.042 181.753C109.059 182.21 108.949 182.653 108.713 183.082C108.478 183.5 108.128 183.872 107.663 184.198C107.204 184.519 106.735 184.721 106.255 184.803C105.771 184.878 105.314 184.832 104.884 184.665C104.456 184.486 104.097 184.19 103.808 183.777C103.515 183.358 103.359 182.919 103.342 182.463C103.332 182.001 103.447 181.559 103.688 181.136C103.925 180.707 104.272 180.332 104.731 180.011ZM105.227 180.718C104.925 180.929 104.694 181.179 104.535 181.467C104.377 181.743 104.302 182.035 104.312 182.341C104.321 182.647 104.422 182.937 104.614 183.213C104.807 183.488 105.046 183.682 105.33 183.795C105.615 183.909 105.916 183.942 106.235 183.895C106.555 183.836 106.866 183.701 107.168 183.49C107.476 183.275 107.708 183.029 107.866 182.752C108.02 182.469 108.092 182.174 108.083 181.868C108.073 181.562 107.972 181.271 107.78 180.996C107.587 180.721 107.348 180.527 107.064 180.413C106.779 180.3 106.48 180.27 106.166 180.324C105.848 180.371 105.535 180.503 105.227 180.718ZM107.825 176.877L108.641 176.306L114.877 185.212L114.061 185.783L107.825 176.877ZM106.427 188.228L105.837 187.616C106.381 187.235 106.975 186.814 107.619 186.353C108.259 185.886 108.909 185.391 109.569 184.87C110.232 184.338 110.85 183.798 111.423 183.25L111.912 183.801C111.331 184.394 110.717 184.961 110.07 185.501C109.425 186.031 108.789 186.525 108.163 186.983C107.536 187.441 106.958 187.856 106.427 188.228ZM116.036 172.49L116.704 172.022L117.207 172.74C117.588 173.284 117.839 173.865 117.959 174.484C118.082 175.091 118.081 175.697 117.957 176.301C117.829 176.899 117.578 177.461 117.204 177.987L116.331 177.66C116.666 177.191 116.898 176.692 117.026 176.163C117.153 175.634 117.178 175.119 117.1 174.617C117.024 174.103 116.837 173.634 116.538 173.208L116.036 172.49ZM116.183 172.387L116.852 171.919L117.354 172.637C117.625 173.023 117.975 173.335 118.404 173.571C118.834 173.808 119.305 173.951 119.819 174.002C120.34 174.048 120.869 173.994 121.407 173.842L121.441 174.77C120.832 174.933 120.23 174.979 119.633 174.908C119.039 174.826 118.487 174.631 117.979 174.323C117.47 174.015 117.039 173.609 116.686 173.105L116.183 172.387ZM113.844 173.586L118.602 170.254L119.07 170.923L114.312 174.254L113.844 173.586ZM119.289 168.85L120.104 168.279L123.856 173.636L123.04 174.208L119.289 168.85ZM121.516 170.777L123.05 169.703L123.532 170.391L121.998 171.465L121.516 170.777ZM118.406 178.155L124.186 174.108L126.333 177.175L125.518 177.746L123.838 175.348L118.874 178.824L118.406 178.155ZM125.523 171.458L133.554 165.835L134.015 166.493L125.984 172.117L125.523 171.458ZM128.902 174.088L135.006 169.813L135.474 170.482L129.37 174.756L128.902 174.088ZM127.567 172.181L128.383 171.609L129.856 173.713L129.04 174.284L127.567 172.181ZM126.47 164.276C127.106 163.831 127.707 163.517 128.273 163.336C128.842 163.143 129.347 163.091 129.791 163.181C130.23 163.264 130.578 163.489 130.835 163.856C131.092 164.223 131.187 164.631 131.12 165.078C131.052 165.526 130.833 165.987 130.462 166.462C130.093 166.925 129.591 167.379 128.955 167.824C128.32 168.269 127.718 168.588 127.149 168.781C126.583 168.963 126.078 169.009 125.635 168.919C125.191 168.829 124.84 168.601 124.584 168.234C124.327 167.867 124.234 167.463 124.306 167.022C124.374 166.574 124.592 166.119 124.961 165.655C125.332 165.181 125.835 164.721 126.47 164.276ZM126.932 164.934C126.473 165.256 126.102 165.584 125.819 165.919C125.538 166.242 125.362 166.556 125.291 166.859C125.216 167.156 125.258 167.419 125.419 167.649C125.58 167.878 125.815 168.012 126.124 168.049C126.429 168.08 126.784 168.022 127.189 167.875C127.596 167.717 128.028 167.477 128.487 167.156C128.959 166.826 129.335 166.498 129.617 166.175C129.893 165.844 130.066 165.533 130.135 165.241C130.205 164.937 130.16 164.671 130 164.441C129.839 164.212 129.606 164.082 129.302 164.051C128.999 164.009 128.647 164.065 128.247 164.218C127.842 164.365 127.403 164.604 126.932 164.934ZM134.83 159.389L139.784 155.92L140.252 156.589L135.298 160.058L134.83 159.389ZM138.731 165.213L138.151 164.593C138.682 164.222 139.26 163.812 139.884 163.365C140.504 162.912 141.134 162.437 141.772 161.941C142.407 161.438 143 160.939 143.553 160.445L144.029 161.02C143.481 161.55 142.896 162.067 142.273 162.572C141.65 163.076 141.031 163.553 140.418 164.002C139.811 164.447 139.249 164.85 138.731 165.213ZM136.141 159.233L136.937 158.675L140.248 163.404L139.452 163.961L136.141 159.233ZM138.392 157.657L139.178 157.106L142.489 161.834L141.703 162.385L138.392 157.657ZM140.07 154.299L140.886 153.728L147.115 162.624L146.299 163.195L140.07 154.299ZM143.19 157.417L144.832 156.268L145.307 156.946L143.665 158.095L143.19 157.417ZM146.652 157.279L154.712 151.635L155.187 152.313L147.127 157.957L146.652 157.279ZM150.549 155.165L151.355 154.601L153.729 157.992L152.923 158.557L150.549 155.165ZM147.345 149.732C147.968 149.297 148.569 148.998 149.149 148.836C149.724 148.667 150.246 148.639 150.715 148.75C151.179 148.855 151.551 149.107 151.831 149.507C152.106 149.9 152.216 150.336 152.16 150.814C152.105 151.293 151.899 151.773 151.544 152.256C151.189 152.739 150.7 153.199 150.078 153.635C149.468 154.062 148.872 154.362 148.29 154.535C147.715 154.703 147.193 154.732 146.724 154.62C146.256 154.509 145.884 154.257 145.609 153.864C145.329 153.464 145.219 153.028 145.279 152.556C145.335 152.078 145.54 151.597 145.895 151.114C146.252 150.62 146.736 150.159 147.345 149.732ZM147.806 150.391C147.361 150.703 147.001 151.033 146.727 151.381C146.46 151.725 146.3 152.061 146.247 152.391C146.19 152.714 146.254 153.007 146.437 153.269C146.625 153.537 146.883 153.704 147.211 153.767C147.534 153.824 147.903 153.786 148.317 153.652C148.738 153.514 149.171 153.288 149.616 152.976C150.075 152.655 150.438 152.323 150.706 151.979C150.973 151.636 151.135 151.303 151.192 150.979C151.244 150.65 151.177 150.351 150.988 150.082C150.805 149.82 150.552 149.66 150.228 149.603C149.901 149.54 149.53 149.575 149.116 149.709C148.701 149.842 148.265 150.07 147.806 150.391ZM158.597 141.326L159.423 140.748L165.652 149.644L164.826 150.222L158.597 141.326ZM156.086 146.234L156.745 145.773L157.282 146.54C157.612 147.011 157.871 147.514 158.059 148.047C158.242 148.573 158.351 149.106 158.388 149.647C158.431 150.183 158.4 150.703 158.294 151.207C158.194 151.706 158.024 152.168 157.783 152.59L156.89 152.278C157.112 151.898 157.272 151.483 157.368 151.035C157.471 150.582 157.511 150.124 157.49 149.661C157.47 149.186 157.388 148.721 157.245 148.265C157.101 147.809 156.894 147.387 156.623 147.001L156.086 146.234ZM156.234 146.131L156.892 145.67L157.429 146.436C157.686 146.803 158 147.126 158.37 147.404C158.736 147.675 159.134 147.894 159.564 148.062C159.989 148.223 160.428 148.326 160.879 148.372C161.331 148.417 161.776 148.398 162.216 148.314L162.204 149.26C161.729 149.349 161.241 149.363 160.741 149.303C160.235 149.237 159.742 149.104 159.26 148.905C158.774 148.698 158.316 148.428 157.887 148.094C157.464 147.755 157.092 147.356 156.771 146.897L156.234 146.131ZM153.623 147.109L158.518 143.682L158.979 144.34L154.084 147.768L153.623 147.109ZM154.714 144.295L155.53 143.723L156.748 145.463L155.932 146.034L154.714 144.295ZM170.031 133.32L170.847 132.749L175.431 139.295L174.615 139.867L170.031 133.32ZM172.484 135.631L174.047 134.537L174.522 135.215L172.959 136.309L172.484 135.631ZM170.936 144.655L176.864 140.504L177.332 141.173L171.404 145.323L170.936 144.655ZM169.429 142.502L170.235 141.938L171.928 144.356L171.122 144.92L169.429 142.502ZM166.864 136.475C167.31 136.163 167.773 135.981 168.253 135.927C168.729 135.868 169.183 135.931 169.616 136.116C170.048 136.301 170.416 136.61 170.719 137.043C171.013 137.462 171.175 137.91 171.206 138.387C171.237 138.863 171.145 139.318 170.931 139.751C170.712 140.178 170.38 140.547 169.934 140.859C169.495 141.167 169.034 141.353 168.552 141.417C168.071 141.47 167.613 141.401 167.175 141.209C166.738 141.017 166.373 140.711 166.079 140.292C165.776 139.859 165.612 139.408 165.585 138.938C165.559 138.468 165.655 138.02 165.874 137.593C166.095 137.155 166.425 136.783 166.864 136.475ZM167.36 137.183C167.071 137.385 166.856 137.628 166.714 137.913C166.572 138.199 166.51 138.501 166.528 138.82C166.553 139.135 166.669 139.439 166.875 139.734C167.077 140.022 167.322 140.232 167.609 140.363C167.902 140.49 168.208 140.535 168.524 140.499C168.841 140.463 169.143 140.344 169.431 140.142C169.72 139.94 169.935 139.696 170.077 139.411C170.226 139.122 170.288 138.819 170.263 138.505C170.245 138.186 170.134 137.882 169.932 137.594C169.726 137.299 169.476 137.088 169.182 136.962C168.895 136.83 168.59 136.785 168.267 136.826C167.95 136.862 167.648 136.981 167.36 137.183ZM179.019 132.183L180.691 131.013L181.159 131.681L179.488 132.851L179.019 132.183ZM179.762 126.507L180.548 125.956L186.777 134.852L185.991 135.403L179.762 126.507ZM178.123 127.932L178.9 127.388L184.682 135.646L183.905 136.189L178.123 127.932ZM175.508 130.599C175.894 130.328 176.316 130.218 176.772 130.27C177.235 130.317 177.708 130.518 178.191 130.874C178.674 131.229 179.135 131.721 179.576 132.35C180.021 132.986 180.328 133.591 180.496 134.167C180.665 134.742 180.694 135.258 180.585 135.716C180.478 136.162 180.231 136.521 179.844 136.791C179.47 137.053 179.052 137.16 178.59 137.113C178.129 137.055 177.657 136.848 177.174 136.493C176.691 136.138 176.227 135.642 175.782 135.007C175.341 134.378 175.037 133.775 174.868 133.2C174.7 132.625 174.669 132.114 174.776 131.667C174.89 131.216 175.134 130.86 175.508 130.599ZM176.038 131.356C175.808 131.516 175.675 131.751 175.638 132.061C175.6 132.37 175.657 132.73 175.809 133.142C175.96 133.553 176.204 133.998 176.539 134.477C176.873 134.955 177.211 135.339 177.55 135.629C177.885 135.912 178.204 136.089 178.508 136.16C178.811 136.23 179.078 136.185 179.307 136.025C179.543 135.86 179.68 135.622 179.717 135.313C179.761 134.999 179.707 134.636 179.556 134.225C179.4 133.807 179.154 133.358 178.819 132.88C178.484 132.402 178.149 132.021 177.814 131.738C177.479 131.455 177.157 131.28 176.847 131.214C176.543 131.143 176.274 131.19 176.038 131.356ZM190.827 123.915L192.498 122.745L192.966 123.414L191.295 124.584L190.827 123.915ZM191.569 118.239L192.356 117.688L198.585 126.584L197.798 127.135L191.569 118.239ZM189.931 119.665L190.707 119.121L196.489 127.378L195.712 127.922L189.931 119.665ZM187.315 122.331C187.702 122.06 188.123 121.951 188.579 122.003C189.042 122.05 189.515 122.251 189.998 122.606C190.481 122.961 190.943 123.453 191.383 124.082C191.828 124.718 192.135 125.324 192.304 125.899C192.472 126.474 192.502 126.991 192.392 127.448C192.285 127.895 192.038 128.253 191.651 128.524C191.278 128.785 190.86 128.893 190.397 128.846C189.936 128.787 189.464 128.581 188.981 128.225C188.498 127.87 188.034 127.375 187.589 126.739C187.148 126.11 186.844 125.508 186.675 124.932C186.507 124.357 186.476 123.846 186.584 123.4C186.698 122.949 186.941 122.593 187.315 122.331ZM187.845 123.088C187.616 123.249 187.482 123.484 187.445 123.793C187.408 124.102 187.465 124.463 187.616 124.874C187.768 125.286 188.011 125.731 188.346 126.209C188.681 126.688 189.018 127.072 189.358 127.361C189.693 127.644 190.012 127.821 190.315 127.892C190.619 127.963 190.885 127.918 191.114 127.757C191.35 127.592 191.487 127.355 191.524 127.045C191.568 126.731 191.514 126.369 191.363 125.957C191.207 125.539 190.961 125.091 190.626 124.612C190.291 124.134 189.956 123.753 189.621 123.47C189.287 123.187 188.964 123.013 188.654 122.946C188.351 122.876 188.081 122.923 187.845 123.088ZM196.69 115.679C197.122 115.376 197.595 115.235 198.108 115.257C198.617 115.272 199.126 115.448 199.635 115.785C200.151 116.117 200.629 116.597 201.07 117.227C201.51 117.856 201.798 118.469 201.934 119.068C202.076 119.662 202.07 120.203 201.915 120.693C201.759 121.182 201.466 121.579 201.033 121.881C200.607 122.18 200.134 122.32 199.615 122.303C199.101 122.282 198.587 122.105 198.071 121.773C197.562 121.436 197.087 120.953 196.646 120.324C196.206 119.695 195.914 119.083 195.772 118.49C195.636 117.891 195.648 117.351 195.808 116.868C195.97 116.373 196.264 115.977 196.69 115.679ZM197.199 116.406C196.917 116.604 196.737 116.876 196.659 117.224C196.576 117.566 196.598 117.96 196.726 118.408C196.856 118.844 197.088 119.302 197.423 119.78C197.758 120.259 198.111 120.637 198.481 120.914C198.853 121.181 199.216 121.337 199.57 121.382C199.924 121.427 200.242 121.351 200.524 121.154C200.812 120.952 200.996 120.677 201.074 120.329C201.153 119.981 201.127 119.589 200.997 119.152C200.869 118.705 200.638 118.242 200.303 117.763C199.968 117.285 199.614 116.913 199.242 116.646C198.872 116.368 198.512 116.21 198.163 116.171C197.809 116.126 197.488 116.204 197.199 116.406ZM200.346 112.093L201.153 111.529L207.388 120.434L206.582 120.999L200.346 112.093ZM200.529 117.019L203.085 115.23L203.546 115.888L200.99 117.678L200.529 117.019ZM203.691 110.909L208.449 107.577L208.917 108.246L204.159 111.577L203.691 110.909ZM206.4 115.091L205.82 114.472C206.324 114.119 206.882 113.723 207.494 113.285C208.101 112.841 208.711 112.374 209.326 111.885C209.941 111.396 210.513 110.902 211.043 110.404L211.529 110.972C211 111.499 210.432 112.014 209.827 112.516C209.223 113.007 208.627 113.473 208.038 113.915C207.444 114.35 206.898 114.742 206.4 115.091ZM204.913 110.771L205.699 110.22L207.888 113.346L207.102 113.897L204.913 110.771ZM207.115 109.229L207.901 108.678L210.09 111.804L209.304 112.355L207.115 109.229ZM208.966 106.057L209.782 105.486L213.967 111.463L213.151 112.034L208.966 106.057ZM211.284 108.112L212.817 107.038L213.292 107.716L211.759 108.79L211.284 108.112ZM210.575 113.208L211.283 112.712L211.42 112.909C211.714 113.328 211.888 113.773 211.943 114.242C212.005 114.707 211.973 115.183 211.846 115.672C211.722 116.15 211.522 116.617 211.246 117.074C210.975 117.538 210.644 117.965 210.253 118.355L209.474 117.934C209.822 117.593 210.122 117.227 210.375 116.835C210.634 116.438 210.826 116.035 210.95 115.626C211.074 115.217 211.12 114.823 211.089 114.445C211.058 114.066 210.933 113.719 210.712 113.405L210.575 113.208ZM210.693 113.125L211.381 112.644L211.519 112.84C211.739 113.155 212.022 113.391 212.367 113.55C212.719 113.704 213.108 113.793 213.535 113.816C213.962 113.84 214.402 113.8 214.857 113.696C215.319 113.588 215.769 113.429 216.208 113.219L216.338 114.095C215.837 114.328 215.323 114.493 214.794 114.59C214.271 114.693 213.76 114.723 213.262 114.681C212.766 114.628 212.31 114.493 211.894 114.276C211.479 114.06 211.124 113.741 210.83 113.322L210.693 113.125ZM218.383 99.464L219.199 98.8927L225.434 107.799L224.619 108.37L218.383 99.464ZM214.992 102.864C215.431 102.557 215.907 102.414 216.42 102.435C216.935 102.446 217.451 102.617 217.966 102.949C218.489 103.277 218.97 103.755 219.411 104.384C219.851 105.013 220.136 105.629 220.265 106.232C220.401 106.831 220.388 107.377 220.226 107.871C220.071 108.361 219.774 108.759 219.335 109.067C218.896 109.374 218.416 109.519 217.896 109.502C217.377 109.485 216.856 109.313 216.333 108.985C215.817 108.653 215.339 108.173 214.899 107.543C214.458 106.914 214.17 106.301 214.034 105.702C213.905 105.099 213.924 104.554 214.09 104.066C214.252 103.572 214.552 103.171 214.992 102.864ZM215.501 103.591C215.206 103.798 215.016 104.077 214.931 104.43C214.848 104.771 214.87 105.166 214.998 105.614C215.121 106.055 215.35 106.514 215.685 106.993C216.02 107.471 216.376 107.847 216.753 108.12C217.125 108.387 217.488 108.543 217.842 108.588C218.203 108.629 218.53 108.546 218.825 108.339C219.114 108.137 219.297 107.862 219.376 107.514C219.461 107.162 219.442 106.765 219.319 106.324C219.191 105.876 218.959 105.413 218.624 104.935C218.289 104.456 217.936 104.084 217.563 103.817C217.187 103.544 216.82 103.39 216.464 103.356C216.11 103.311 215.789 103.389 215.501 103.591ZM226.334 99.4342L234.374 93.8039L234.835 94.4625L226.795 100.093L226.334 99.4342ZM226.441 97.3078L232.447 93.1023L232.909 93.7609L226.903 97.9664L226.441 97.3078ZM225.01 95.2632L230.927 91.1196L231.388 91.7782L226.277 95.3574L227.612 97.2643L226.806 97.8287L225.01 95.2632ZM228.312 100.188L234.337 95.9687L235.796 98.0526L230.587 101.701L231.371 102.821L230.575 103.379L229.364 101.649L234.574 98.0007L233.988 97.1651L228.759 100.827L228.312 100.188ZM230.424 103.162L236.695 98.7711L237.149 99.4199L230.878 103.811L230.424 103.162ZM235.625 88.4161C236.058 88.1132 236.531 87.9726 237.044 87.9941C237.552 88.0091 238.061 88.185 238.571 88.5218C239.086 88.854 239.565 89.3347 240.005 89.9638C240.446 90.5929 240.734 91.2066 240.869 91.805C241.012 92.3987 241.005 92.9404 240.85 93.43C240.695 93.9196 240.401 94.3158 239.968 94.6187C239.542 94.9169 239.07 95.0576 238.55 95.0406C238.037 95.0191 237.522 94.8422 237.006 94.51C236.497 94.1732 236.022 93.6902 235.582 93.0611C235.141 92.432 234.85 91.8206 234.707 91.2268C234.572 90.6285 234.584 90.0878 234.744 89.6047C234.905 89.1105 235.199 88.7143 235.625 88.4161ZM236.135 89.1435C235.853 89.3408 235.673 89.6134 235.594 89.9615C235.511 90.3029 235.533 90.6975 235.661 91.1451C235.791 91.5816 236.023 92.039 236.358 92.5174C236.693 92.9957 237.046 93.3739 237.416 93.6517C237.788 93.9184 238.152 94.0743 238.505 94.1195C238.859 94.1647 239.177 94.0886 239.459 93.8913C239.747 93.6894 239.931 93.4144 240.009 93.0664C240.088 92.7184 240.062 92.3261 239.933 91.8897C239.805 91.442 239.573 90.9791 239.238 90.5007C238.903 90.0223 238.55 89.6497 238.177 89.3831C237.807 89.1052 237.447 88.947 237.098 88.9084C236.744 88.8632 236.423 88.9416 236.135 89.1435ZM239.282 84.8303L240.088 84.2659L246.324 93.1717L245.518 93.7361L239.282 84.8303ZM239.464 89.7564L242.02 87.9669L242.481 88.6255L239.926 90.415L239.464 89.7564ZM247.863 86.9816L248.502 86.5342L248.832 87.006C249.103 87.3926 249.29 87.8278 249.394 88.3115C249.499 88.7951 249.503 89.2899 249.408 89.7959C249.32 90.2973 249.115 90.778 248.792 91.2382L247.969 90.9207C248.247 90.5216 248.431 90.109 248.524 89.683C248.623 89.2524 248.642 88.848 248.582 88.4698C248.525 88.0806 248.395 87.7417 248.193 87.4534L247.863 86.9816ZM248.049 86.8508L248.649 86.4309L248.979 86.9028C249.19 87.2042 249.458 87.4611 249.783 87.6734C250.107 87.8857 250.472 88.0305 250.878 88.1078C251.29 88.1804 251.72 88.1673 252.169 88.0683L252.268 88.9215C251.716 89.054 251.197 89.0659 250.711 88.9572C250.231 88.8438 249.793 88.643 249.395 88.3547C248.994 88.0598 248.655 87.7158 248.38 87.3226L248.049 86.8508ZM251.156 84.6758L251.755 84.2559L252.086 84.7278C252.329 85.0751 252.515 85.487 252.643 85.9634C252.778 86.4353 252.823 86.9314 252.777 87.4518C252.733 87.961 252.564 88.4509 252.268 88.9215L251.481 88.5501C251.72 88.1384 251.868 87.7222 251.925 87.3015C251.977 86.8742 251.961 86.475 251.877 86.1041C251.795 85.722 251.665 85.4032 251.486 85.1476L251.156 84.6758ZM251.313 84.5657L251.952 84.1183L252.282 84.5901C252.498 84.8981 252.775 85.1481 253.115 85.3401C253.461 85.5275 253.848 85.6474 254.275 85.6997C254.704 85.741 255.152 85.6963 255.617 85.5658L255.634 86.4477C255.091 86.5932 254.57 86.6307 254.072 86.5599C253.568 86.4827 253.11 86.3156 252.695 86.0588C252.283 85.7908 251.932 85.4503 251.643 85.0375L251.313 84.5657ZM248.292 78.5359L249.108 77.9646L252.66 83.0368L251.844 83.6081L248.292 78.5359ZM244.698 81.814C245.151 81.4973 245.612 81.3059 246.083 81.2397C246.555 81.1734 246.999 81.2287 247.416 81.4056C247.834 81.5714 248.188 81.8607 248.477 82.2735C248.762 82.6798 248.91 83.1081 248.923 83.5583C248.942 84.004 248.84 84.4369 248.616 84.857C248.393 85.2772 248.055 85.6455 247.603 85.9621C247.157 86.2742 246.696 86.4656 246.218 86.5365C245.747 86.6027 245.302 86.553 244.883 86.3872C244.471 86.2169 244.122 85.9286 243.838 85.5223C243.549 85.1094 243.395 84.6801 243.375 84.2345C243.358 83.7777 243.462 83.3392 243.685 82.9191C243.915 82.4944 244.253 82.126 244.698 81.814ZM245.18 82.5021C244.892 82.704 244.674 82.9442 244.528 83.2227C244.381 83.5013 244.312 83.7936 244.321 84.0997C244.332 84.3946 244.437 84.683 244.634 84.9647C244.827 85.24 245.062 85.4366 245.34 85.5545C245.62 85.6613 245.916 85.6933 246.228 85.6507C246.54 85.6081 246.84 85.4858 247.128 85.2839C247.423 85.0774 247.644 84.8349 247.791 84.5563C247.937 84.2778 248.005 83.991 247.994 83.6961C247.978 83.3946 247.874 83.1063 247.681 82.831C247.484 82.5492 247.249 82.3527 246.975 82.2413C246.697 82.1234 246.402 82.0857 246.09 82.1284C245.778 82.171 245.475 82.2956 245.18 82.5021ZM256.876 72.5109L257.692 71.9396L263.927 80.8455L263.112 81.4167L256.876 72.5109ZM259.962 75.5797L261.604 74.4302L262.078 75.1085L260.437 76.2579L259.962 75.5797ZM255.442 82.451L256.14 81.9623C256.684 81.5815 257.177 81.2262 257.62 80.8965C258.065 80.5556 258.481 80.2154 258.868 79.8759C259.262 79.5317 259.651 79.1666 260.035 78.7806L260.622 79.4096C260.218 79.8095 259.816 80.1838 259.416 80.5325C259.022 80.8766 258.597 81.2181 258.141 81.557C257.685 81.8959 257.178 82.2604 256.621 82.6504L255.924 83.1391L255.442 82.451ZM251.849 77.3199L255.968 74.4359L256.436 75.1043L253.123 77.4239L256.468 82.2012L255.662 82.7656L251.849 77.3199ZM266.497 77.9724C266.324 78.093 266.133 78.1348 265.924 78.0978C265.714 78.0609 265.549 77.9563 265.428 77.7841C265.308 77.6118 265.266 77.4209 265.303 77.2112C265.34 77.0015 265.445 76.8364 265.617 76.7158C265.789 76.5952 265.98 76.5534 266.19 76.5904C266.399 76.6273 266.564 76.7319 266.685 76.9041C266.765 77.0182 266.809 77.1433 266.818 77.2794C266.829 77.4139 266.807 77.5437 266.752 77.6687C266.698 77.7897 266.613 77.8909 266.497 77.9724Z" fill="white"/>
</svg>
