<svg width="341" height="265" viewBox="0 0 341 265" fill="none" xmlns="http://www.w3.org/2000/svg">
<rect x="58.9736" y="0.0407715" width="324.649" height="117.921" transform="rotate(30 58.9736 0.0407715)" fill="#9058FF"/>
<path d="M73.6346 41.6496L75.4532 42.6996L74.8052 43.822L72.9866 42.772L73.6346 41.6496ZM76.3615 40.2864L77.7541 41.0904L74.5441 46.6503L73.1515 45.8463L76.3615 40.2864ZM67.8996 43.3268L74.3221 47.0348L72.2581 50.6098L65.8356 46.9018L67.8996 43.3268ZM72.3367 47.3296L68.637 45.1936L67.827 46.5966L71.5267 48.7326L72.3367 47.3296ZM71.414 38.6078L72.5364 39.2558L72.1824 39.8689C71.8344 40.4717 71.4054 40.9907 70.8954 41.426C70.3854 41.8614 69.8095 42.1709 69.1676 42.3546C68.5367 42.5353 67.8515 42.5462 67.112 42.3871L67.0561 40.8999C67.527 40.9963 67.9645 41.0225 68.3685 40.9787C68.7835 40.9319 69.1591 40.8254 69.4952 40.6592C69.8383 40.497 70.1408 40.293 70.4029 40.0471C70.665 39.8011 70.884 39.5258 71.06 39.2209L71.414 38.6078ZM71.705 38.7758L72.8066 39.4118L72.4586 40.0145C72.2426 40.3887 72.1028 40.8068 72.0392 41.2689C71.9796 41.7241 72.0232 42.1927 72.1699 42.6746C72.3235 43.1605 72.6032 43.636 73.0089 44.1012L71.7094 44.792C71.2296 44.2471 70.9097 43.6652 70.7497 43.0463C70.5967 42.4314 70.5766 41.8101 70.6896 41.1825C70.8025 40.5549 71.025 39.9536 71.357 39.3785L71.705 38.7758ZM69.7462 37.1045L74.9216 40.0925L74.2856 41.1941L69.1102 38.2061L69.7462 37.1045ZM85.4436 45.53L86.8257 46.328L82.7877 53.322L81.4056 52.524L85.4436 45.53ZM84.8572 48.8495L86.52 49.8095L85.86 50.9527L84.1972 49.9927L84.8572 48.8495ZM75.8035 51.091L82.3507 54.871L81.7087 55.983L75.1615 52.203L75.8035 51.091ZM77.0035 49.0125L78.3961 49.8165L76.9081 52.3938L75.5155 51.5898L77.0035 49.0125ZM81.577 44.1151C82.0689 44.3991 82.4523 44.759 82.7272 45.1949C83.0021 45.6307 83.1479 46.0982 83.1645 46.5974C83.1881 47.1006 83.0618 47.5913 82.7858 48.0693C82.5138 48.5404 82.152 48.895 81.7005 49.1332C81.2599 49.3684 80.7801 49.4793 80.2612 49.4661C79.7463 49.446 79.2429 49.2939 78.751 49.0099C78.2591 48.7259 77.8757 48.366 77.6008 47.9301C77.3298 47.4873 77.1861 47.0164 77.1694 46.5172C77.1568 46.011 77.2865 45.5224 77.5585 45.0513C77.8345 44.5733 78.1928 44.2166 78.6334 43.9814C79.0741 43.7462 79.5518 43.6387 80.0668 43.6589C80.5817 43.679 81.0851 43.8311 81.577 44.1151ZM80.887 45.3102C80.6514 45.1742 80.4066 45.1022 80.1526 45.0941C79.9096 45.0831 79.6786 45.1391 79.4598 45.2622C79.2449 45.3783 79.0615 45.568 78.9095 45.8313C78.7575 46.0946 78.6829 46.3517 78.6858 46.6028C78.6926 46.8469 78.7596 47.075 78.8866 47.2869C79.0246 47.4959 79.2114 47.6684 79.447 47.8044C79.6895 47.9444 79.9322 48.0199 80.1753 48.0309C80.4293 48.039 80.6637 47.9849 80.8786 47.8688C81.0974 47.7457 81.2828 47.5526 81.4348 47.2893C81.5868 47.026 81.6594 46.7723 81.6526 46.5282C81.6497 46.2771 81.5793 46.0471 81.4413 45.8381C81.3142 45.6262 81.1295 45.4502 80.887 45.3102ZM90.7082 49.3455C91.1378 49.5935 91.4573 49.9119 91.667 50.3008C91.8875 50.6868 91.9893 51.1105 91.9724 51.5718C91.9624 52.0372 91.8234 52.5019 91.5554 52.9661C91.2914 53.4234 90.9584 53.7762 90.5564 54.0244C90.1653 54.2698 89.7455 54.3969 89.297 54.4058C88.8593 54.4118 88.4258 54.2908 87.9962 54.0428C87.5736 53.7988 87.252 53.4838 87.0314 53.0978C86.8149 52.7049 86.7151 52.2778 86.732 51.8164C86.753 51.3482 86.8954 50.8854 87.1594 50.4281C87.4274 49.9639 87.757 49.6092 88.148 49.3638C88.5391 49.1185 88.9569 48.9948 89.4014 48.9928C89.85 48.9839 90.2856 49.1015 90.7082 49.3455ZM90.0422 50.499C89.8551 50.391 89.6609 50.3435 89.4594 50.3565C89.2579 50.3695 89.069 50.4406 88.8928 50.5698C88.7166 50.699 88.5545 50.8918 88.4065 51.1481C88.2625 51.3975 88.1766 51.6343 88.1488 51.8584C88.121 52.0826 88.1519 52.2851 88.2414 52.4661C88.3349 52.6402 88.4751 52.7812 88.6622 52.8892C88.8493 52.9972 89.0415 53.0482 89.239 53.0421C89.4405 53.0291 89.6314 52.9546 89.8116 52.8184C89.9987 52.6863 90.1643 52.4955 90.3083 52.2461C90.4563 51.9898 90.5387 51.751 90.5556 51.5298C90.5794 51.3126 90.5465 51.1135 90.457 50.9325C90.3675 50.7515 90.2293 50.607 90.0422 50.499ZM95.7 51.4515L97.0198 52.2135L93.7078 57.95L92.388 57.188L95.7 51.4515ZM93.2128 53.1194L94.7405 54.0014L94.0985 55.1133L92.5708 54.2313L93.2128 53.1194ZM93.5879 50.4538L94.8765 51.1978L91.6785 56.7369L90.3899 55.9929L93.5879 50.4538ZM86.8359 54.5645L93.4558 58.3865L91.4638 61.8368L90.0816 61.0388L91.4376 58.6901L86.1999 55.6661L86.8359 54.5645Z" fill="white"/>
<path d="M58.1406 65.5319L58.9928 66.0239L58.2608 67.2918L57.4086 66.7998L58.1406 65.5319ZM60.3051 62.7909C61.3443 63.3909 62.0729 64.0009 62.4909 64.621C62.9129 65.2341 62.9738 65.8005 62.6738 66.3201C62.3698 66.8467 61.8449 67.084 61.0989 67.032C60.3569 66.9731 59.4663 66.6437 58.4271 66.0437C57.3948 65.4477 56.6642 64.8411 56.2353 64.224C55.8173 63.604 55.7603 63.0307 56.0643 62.5041C56.3643 61.9845 56.8853 61.7541 57.6273 61.813C58.3802 61.8689 59.2728 62.1949 60.3051 62.7909ZM59.9271 63.4456C59.4213 63.1536 58.9663 62.9417 58.5621 62.81C58.1578 62.6782 57.8167 62.629 57.5387 62.6625C57.2716 62.6931 57.0781 62.8123 56.9581 63.0201C56.8381 63.228 56.8276 63.4621 56.9267 63.7225C57.0367 63.98 57.2498 64.2509 57.5661 64.5351C57.8863 64.8124 58.2993 65.097 58.8051 65.389C59.3178 65.685 59.7743 65.9024 60.1745 66.0411C60.5788 66.1729 60.9165 66.22 61.1875 66.1825C61.4695 66.1421 61.6705 66.018 61.7905 65.8101C61.9105 65.6023 61.9135 65.3731 61.7995 65.1225C61.6965 64.869 61.4868 64.6002 61.1705 64.316C60.8543 64.0317 60.4398 63.7416 59.9271 63.4456ZM53.779 64.3024L62.2695 69.2044L61.8675 69.9007L53.377 64.9987L53.779 64.3024ZM53.9559 66.3721L60.3264 70.0501L59.0964 72.1805L53.5884 69.0005L52.9284 70.1437L52.0867 69.6577L53.1127 67.8806L58.6206 71.0606L59.1006 70.2292L53.5719 67.0372L53.9559 66.3721ZM52.2007 69.4602L58.8309 73.2882L58.4409 73.9637L51.8107 70.1357L52.2007 69.4602ZM64.7404 67.3469L69.4065 70.0409L68.9985 70.7476L64.3324 68.0536L64.7404 67.3469ZM66.3106 70.0272C66.7055 70.2552 66.9999 70.5452 67.1939 70.8974C67.3947 71.2535 67.4877 71.6444 67.4729 72.07C67.4621 72.4887 67.3347 72.9094 67.0907 73.332C66.8467 73.7546 66.5441 74.0787 66.1829 74.3043C65.8257 74.523 65.4407 74.6379 65.0279 74.649C64.6259 74.6571 64.2275 74.5472 63.8326 74.3192C63.4446 74.0952 63.1502 73.8051 62.9494 73.449C62.7526 73.0859 62.6595 72.695 62.6703 72.2763C62.6851 71.8507 62.8145 71.4266 63.0585 71.004C63.3025 70.5814 63.6031 70.2607 63.9603 70.042C64.3175 69.8233 64.7006 69.7119 65.1094 69.7078C65.5222 69.6967 65.9226 69.8032 66.3106 70.0272ZM65.8906 70.7546C65.6551 70.6186 65.4043 70.557 65.1383 70.5697C64.8832 70.5795 64.6383 70.6597 64.4034 70.8105C64.1795 70.9584 63.9875 71.1708 63.8275 71.448C63.6675 71.7251 63.5775 72.0011 63.5574 72.2758C63.5443 72.5546 63.5972 72.8069 63.7163 73.0327C63.8423 73.2624 64.0231 73.4453 64.2586 73.5813C64.5011 73.7213 64.7499 73.7864 65.0049 73.7767C65.26 73.7669 65.5015 73.6846 65.7294 73.5298C65.9643 73.3791 66.1617 73.1651 66.3217 72.888C66.4817 72.6108 66.5663 72.3364 66.5754 72.0645C66.5955 71.7897 66.546 71.5395 66.4269 71.3137C66.3119 71.081 66.1331 70.8946 65.8906 70.7546ZM72.8203 69.8641L73.6413 70.3381L68.2113 79.7432L67.3903 79.2692L72.8203 69.8641ZM69.0274 72.9536L70.8045 73.9796L70.3965 74.6863L68.6194 73.6603L69.0274 72.9536ZM70.6782 68.9184L71.4888 69.3864L66.4488 78.1159L65.6382 77.6479L70.6782 68.9184ZM67.4205 67.1207L68.2727 67.6127L67.2587 69.369L66.4065 68.877L67.4205 67.1207ZM75.9247 83.2535C75.6175 83.0696 75.3416 82.8316 75.097 82.5394C74.8523 82.2473 74.6795 81.8933 74.5784 81.4774C74.4788 81.059 74.4843 80.575 74.5949 80.0255C74.707 79.4734 74.9647 78.8481 75.3681 78.1493C75.7545 77.4801 76.1595 76.9234 76.5833 76.4792C77.0085 76.0325 77.4427 75.7009 77.8859 75.4844C78.3305 75.2655 78.7746 75.161 79.2182 75.1711C79.6643 75.1826 80.1001 75.3112 80.5257 75.557C80.9489 75.8013 81.2763 76.1035 81.508 76.4636C81.7435 76.8227 81.8792 77.2127 81.9151 77.6335C81.9509 78.0544 81.8866 78.4782 81.7223 78.9049L80.8218 78.3851C80.9342 77.9972 80.9345 77.6218 80.8226 77.2587C80.7108 76.8956 80.4556 76.599 80.057 76.3689C79.4714 76.0308 78.8631 76.0191 78.232 76.3338C77.6034 76.6499 77.0222 77.2673 76.4885 78.186L76.5475 78.2201C76.8061 78.0906 77.0727 78.0066 77.3473 77.9684C77.6259 77.9291 77.9042 77.9356 78.1824 77.988C78.4605 78.0403 78.7287 78.1411 78.9871 78.2902C79.4201 78.5402 79.7537 78.8771 79.9879 79.301C80.2235 79.7225 80.3402 80.1851 80.338 80.689C80.3372 81.1904 80.1961 81.6847 79.9149 82.1719C79.645 82.6393 79.2933 83.007 78.8597 83.275C78.4276 83.5406 77.956 83.6784 77.445 83.6884C76.9379 83.6974 76.4311 83.5525 75.9247 83.2535ZM76.3934 82.4416C76.7034 82.6206 77.0262 82.7036 77.3617 82.6906C77.6997 82.6791 78.0153 82.5841 78.3086 82.4057C78.6043 82.2287 78.8445 81.9803 79.0292 81.6605C79.2096 81.348 79.3035 81.0234 79.311 80.6866C79.3224 80.3487 79.2503 80.0332 79.0948 79.74C78.9418 79.4483 78.7102 79.2129 78.4002 79.0339C78.1665 78.899 77.9218 78.82 77.6661 78.797C77.4118 78.7716 77.1622 78.7948 76.9173 78.8666C76.6749 78.9399 76.451 79.055 76.2456 79.212C76.0415 79.3664 75.8742 79.5569 75.7435 79.7832C75.5702 80.0834 75.4784 80.4043 75.4681 80.7461C75.4602 81.0893 75.5331 81.4118 75.6868 81.7138C75.843 82.0172 76.0785 82.2598 76.3934 82.4416ZM84.9405 82.044L85.7926 82.536L84.8206 84.2196L83.9685 83.7276L84.9405 82.044ZM91.4809 80.6517L92.3434 81.1497L89.1514 86.6784L88.2889 86.1804L91.4809 80.6517ZM82.3199 80.919L82.5819 80.2251C83.1847 80.5731 83.831 80.9416 84.5209 81.3307C85.2217 81.7168 85.9369 82.1021 86.6666 82.4863C87.4002 82.8637 88.125 83.2083 88.841 83.5201L88.569 84.1112C87.8271 83.8122 87.0853 83.481 86.3437 83.1175C85.6131 82.7511 84.9042 82.3788 84.2173 82.0006C83.5412 81.6196 82.9088 81.259 82.3199 80.919ZM82.6557 83.3854L88.9534 87.0214L87.8254 88.9751L82.4006 85.8431L81.7886 86.9031L80.9469 86.4171L81.8949 84.7751L87.3093 87.9011L87.7473 87.1425L82.3017 83.9985L82.6557 83.3854ZM81.0789 86.1885L87.6572 89.9865L87.2912 90.6204L80.7129 86.8224L81.0789 86.1885ZM87.0303 84.0404L89.1815 85.2824L88.8575 85.8436L86.7063 84.6016L87.0303 84.0404ZM87.5545 78.6204C88.0187 78.8884 88.392 79.1778 88.6744 79.4886C88.9568 79.7995 89.133 80.1183 89.203 80.4451C89.273 80.7719 89.224 81.0807 89.056 81.3717C88.892 81.6558 88.651 81.8492 88.333 81.952C88.019 82.0478 87.6548 82.0546 87.2404 81.9724C86.83 81.8833 86.3927 81.7047 85.9285 81.4367C85.4643 81.1687 85.0875 80.8773 84.7982 80.5624C84.5198 80.2446 84.3436 79.9258 84.2696 79.606C84.2065 79.2832 84.257 78.9798 84.421 78.6957C84.589 78.4047 84.8285 78.2059 85.1396 78.0991C85.4576 77.9963 85.8218 77.9895 86.2322 78.0786C86.6495 78.1718 87.0903 78.3524 87.5545 78.6204ZM87.2125 79.2127C86.7552 78.9487 86.346 78.8095 85.9849 78.795C85.6307 78.7845 85.3796 78.9074 85.2316 79.1637C85.0916 79.4062 85.1127 79.6817 85.2949 79.9901C85.488 80.2956 85.8132 80.5803 86.2705 80.8443C86.7278 81.1083 87.1335 81.2456 87.4877 81.2561C87.8528 81.2637 88.1054 81.1462 88.2454 80.9037C88.3934 80.6474 88.3708 80.3665 88.1777 80.061C87.9915 79.7595 87.6698 79.4767 87.2125 79.2127ZM95.9212 88.0789L97.6879 89.0989L97.2799 89.8056L95.5132 88.7856L95.9212 88.0789ZM101.38 86.3528L102.211 86.8328L96.7809 96.2379L95.9495 95.7579L101.38 86.3528ZM99.3949 85.4703L100.216 85.9443L95.1759 94.6738L94.3549 94.1998L99.3949 85.4703ZM95.8729 84.2267C96.2816 84.4627 96.559 84.7983 96.7049 85.2336C96.8577 85.6728 96.8753 86.1864 96.7576 86.7743C96.6398 87.3622 96.389 87.9887 96.005 88.6538C95.617 89.3259 95.1978 89.8598 94.7476 90.2557C94.2973 90.6516 93.8417 90.8967 93.3809 90.9909C92.931 91.0822 92.5016 91.0098 92.0929 90.7738C91.698 90.5458 91.4241 90.2122 91.2712 89.7729C91.1293 89.3307 91.1172 88.8156 91.235 88.2277C91.3527 87.6398 91.6055 87.0099 91.9935 86.3378C92.3775 85.6727 92.7947 85.1422 93.245 84.7463C93.6952 84.3504 94.1453 84.1068 94.5952 84.0156C95.0521 83.9283 95.478 83.9987 95.8729 84.2267ZM95.4109 85.0269C95.1684 84.8869 94.8991 84.8653 94.6029 84.9622C94.3068 85.0592 94.0042 85.2632 93.6952 85.5744C93.3863 85.8856 93.0858 86.2941 92.7938 86.7998C92.5018 87.3056 92.2963 87.7735 92.1772 88.2037C92.0622 88.6269 92.0368 88.9909 92.1009 89.2958C92.1651 89.6007 92.3184 89.8232 92.5609 89.9632C92.8103 90.1072 93.0831 90.1307 93.3792 90.0338C93.6823 89.9409 93.9883 89.7389 94.2973 89.4277C94.6103 89.1095 94.9128 88.6976 95.2048 88.1918C95.4968 87.6861 95.7003 87.2216 95.8153 86.7984C95.9303 86.3752 95.9523 86.0092 95.8812 85.7002C95.8171 85.3953 95.6603 85.1709 95.4109 85.0269ZM113.073 93.1039L113.925 93.5959L108.489 103.011L107.637 102.519L113.073 93.1039ZM111.573 97.2127L113.309 98.2147L112.889 98.9422L111.153 97.9402L111.573 97.2127ZM103.379 96.0703L104.127 96.5023C104.709 96.8383 105.246 97.1394 105.739 97.4055C106.243 97.6687 106.736 97.9116 107.217 98.134C107.702 98.3495 108.207 98.5482 108.73 98.7302L108.405 99.4848C107.868 99.2949 107.353 99.0902 106.861 98.8707C106.376 98.6552 105.878 98.4138 105.367 98.1466C104.856 97.8794 104.303 97.5738 103.707 97.2298L102.959 96.7978L103.379 96.0703ZM106.562 90.5088L110.802 92.9568L108.852 96.3343L105.485 94.3903L104.063 96.8533L103.211 96.3613L105.047 93.1813L108.414 95.1253L109.542 93.1715L106.154 91.2155L106.562 90.5088ZM118.83 99.2822L120.597 100.302L120.189 101.009L118.422 99.9889L118.83 99.2822ZM117.882 96.6286L118.568 97.0246L117.836 98.2924C117.564 98.7636 117.205 99.1847 116.76 99.5558C116.325 99.924 115.839 100.207 115.3 100.404C114.766 100.594 114.21 100.661 113.632 100.605L113.549 99.6695C114.065 99.7184 114.556 99.669 115.02 99.5213C115.495 99.3706 115.917 99.1522 116.285 98.866C116.653 98.5799 116.942 98.2567 117.15 97.8964L117.882 96.6286ZM118.038 96.7186L118.713 97.1086L117.981 98.3764C117.777 98.7298 117.648 99.1217 117.593 99.5521C117.543 99.9756 117.571 100.407 117.677 100.847C117.794 101.285 117.998 101.698 118.29 102.088L117.449 102.49C117.125 102.044 116.905 101.561 116.789 101.041C116.684 100.519 116.676 99.997 116.765 99.4754C116.857 98.947 117.038 98.4506 117.306 97.9864L118.038 96.7186ZM123.36 99.0434L124.181 99.5174L120.899 105.202L120.078 104.728L123.36 99.0434ZM121.413 98.1685L122.234 98.6425L119.114 104.046L118.293 103.572L121.413 98.1685ZM114.301 102.086L120.599 105.722L118.751 108.922L117.899 108.43L119.339 105.936L113.893 102.792L114.301 102.086ZM132.249 104.189L133.112 104.687L129.044 111.733L128.181 111.235L132.249 104.189ZM131.06 107.618L132.712 108.572L132.298 109.289L130.646 108.335L131.06 107.618ZM125.177 101.63L130.727 104.834L130.325 105.531L124.775 102.327L125.177 101.63ZM127.256 104.438C127.699 104.694 128.047 104.996 128.298 105.345C128.554 105.686 128.699 106.042 128.734 106.414C128.773 106.778 128.691 107.137 128.487 107.49C128.283 107.844 128.011 108.098 127.672 108.253C127.337 108.402 126.958 108.45 126.534 108.4C126.111 108.349 125.677 108.196 125.234 107.94C124.791 107.684 124.441 107.385 124.186 107.044C123.93 106.702 123.779 106.348 123.733 105.979C123.698 105.608 123.783 105.246 123.987 104.892C124.191 104.539 124.46 104.288 124.795 104.14C125.141 103.988 125.526 103.938 125.95 103.989C126.377 104.032 126.813 104.182 127.256 104.438ZM126.866 105.113C126.443 104.869 126.042 104.772 125.663 104.821C125.288 104.863 125.006 105.047 124.818 105.372C124.63 105.698 124.612 106.034 124.763 106.38C124.914 106.726 125.201 107.021 125.624 107.265C126.053 107.513 126.452 107.614 126.821 107.568C127.196 107.526 127.478 107.342 127.666 107.016C127.854 106.691 127.872 106.355 127.721 106.009C127.58 105.66 127.295 105.361 126.866 105.113ZM128.186 101.843L129.048 102.341L128.184 103.838L127.322 103.34L128.186 101.843ZM122.365 109.789L128.631 113.407L128.223 114.114L121.957 110.496L122.365 109.789ZM123.517 107.794L124.369 108.286L123.049 110.572L122.197 110.08L123.517 107.794ZM137.91 114.524L138.773 115.022L136.577 118.826L135.714 118.328L137.91 114.524ZM145.148 111.636L146 112.128L140.576 121.523L139.724 121.031L145.148 111.636ZM134.99 113.559L135.306 112.771C135.926 113.12 136.589 113.494 137.292 113.891C137.996 114.288 138.722 114.679 139.469 115.064C140.221 115.443 140.959 115.795 141.685 116.122L141.355 116.79C140.606 116.487 139.857 116.152 139.109 115.785C138.36 115.417 137.639 115.042 136.945 114.66C136.251 114.278 135.599 113.911 134.99 113.559ZM137.287 111.38L141.932 114.062L141.524 114.768L136.879 112.086L137.287 111.38ZM138.841 108.688L143.362 111.298L142.96 111.994L139.302 109.882L137.916 112.283L137.053 111.785L138.841 108.688ZM143.521 120.716L152.043 125.636L151.629 126.353L143.107 121.433L143.521 120.716ZM148.493 120.912L149.346 121.404L148.014 123.711L147.161 123.219L148.493 120.912ZM148.503 114.488L154.925 118.196L153.281 121.043L147.732 117.839L146.646 119.72L145.793 119.228L147.275 116.661L152.825 119.865L153.665 118.41L148.095 115.194L148.503 114.488ZM146.003 118.865L152.623 122.687L152.215 123.393L145.595 119.571L146.003 118.865ZM159.868 123.918L166.239 127.596L165.837 128.292L159.466 124.614L159.868 123.918ZM161.308 121.424L162.16 121.916L160.552 124.701L159.7 124.209L161.308 121.424ZM157.666 125.044L166.167 129.952L165.765 130.648L157.264 125.74L157.666 125.044ZM161.289 127.745L162.141 128.237L160.887 130.409L160.035 129.917L161.289 127.745ZM156.527 129.513L163.043 133.275L162.635 133.982L156.119 130.22L156.527 129.513ZM157.703 127.476L158.555 127.968L157.187 130.338L156.335 129.846L157.703 127.476ZM176.736 129.86L177.599 130.358L172.163 139.773L171.3 139.275L176.736 129.86ZM172.222 128.224C172.686 128.492 173.017 128.863 173.214 129.337C173.422 129.808 173.485 130.348 173.402 130.956C173.326 131.567 173.096 132.206 172.712 132.871C172.328 133.536 171.89 134.055 171.398 134.427C170.913 134.803 170.412 135.022 169.896 135.084C169.387 135.15 168.9 135.049 168.436 134.781C167.971 134.513 167.637 134.14 167.433 133.662C167.229 133.184 167.165 132.639 167.241 132.027C167.324 131.419 167.557 130.782 167.941 130.117C168.325 129.452 168.76 128.931 169.245 128.556C169.737 128.184 170.239 127.97 170.751 127.915C171.267 127.853 171.757 127.956 172.222 128.224ZM171.778 128.993C171.466 128.813 171.132 128.758 170.777 128.83C170.432 128.899 170.084 129.086 169.732 129.391C169.385 129.689 169.065 130.091 168.773 130.597C168.481 131.103 168.291 131.584 168.202 132.041C168.118 132.491 168.13 132.886 168.239 133.226C168.354 133.57 168.568 133.832 168.88 134.012C169.185 134.188 169.511 134.238 169.86 134.162C170.215 134.09 170.567 133.905 170.915 133.607C171.266 133.302 171.588 132.897 171.88 132.391C172.172 131.885 172.36 131.407 172.445 130.957C172.533 130.5 172.517 130.103 172.398 129.766C172.289 129.426 172.083 129.169 171.778 128.993ZM189.255 137.101L190.117 137.599L186.109 144.542L185.247 144.044L189.255 137.101ZM185.55 138.815L187.753 140.087L187.339 140.804L185.136 139.532L185.55 138.815ZM185.931 136.139L186.845 136.667C186.377 137.477 185.769 138.114 185.021 138.579C184.277 139.036 183.437 139.322 182.502 139.438C181.567 139.554 180.569 139.505 179.511 139.291L179.549 138.384C180.459 138.568 181.318 138.625 182.125 138.555C182.932 138.485 183.643 138.277 184.259 137.931C184.882 137.588 185.371 137.109 185.727 136.492L185.931 136.139ZM182.585 134.207L186.492 136.463L186.078 137.18L182.171 134.924L182.585 134.207ZM179.277 142.648L185.46 146.218L185.052 146.924L178.869 143.354L179.277 142.648ZM180.573 140.403L181.446 140.907L179.946 143.505L179.073 143.001L180.573 140.403ZM187.632 146.127L196.153 151.047L195.739 151.764L187.218 146.844L187.632 146.127ZM192.77 146.059L193.632 146.557L192.18 149.072L191.318 148.574L192.77 146.059ZM195.065 142.036L195.803 142.462L195.473 143.033C195.249 143.421 194.964 143.746 194.619 144.009C194.284 144.268 193.906 144.475 193.485 144.629C193.074 144.78 192.64 144.876 192.183 144.916C191.736 144.954 191.281 144.95 190.818 144.904C190.366 144.856 189.934 144.764 189.523 144.628L189.565 143.738C189.916 143.866 190.292 143.959 190.694 144.015C191.099 144.065 191.5 144.074 191.896 144.044C192.299 144.018 192.682 143.948 193.043 143.834C193.412 143.723 193.742 143.567 194.034 143.366C194.325 143.165 194.559 142.912 194.735 142.607L195.065 142.036ZM195.231 142.132L195.959 142.552L195.629 143.123C195.453 143.428 195.351 143.757 195.322 144.11C195.298 144.456 195.33 144.817 195.419 145.191C195.507 145.566 195.641 145.934 195.82 146.296C196.003 146.651 196.219 146.988 196.469 147.308C196.726 147.632 197.003 147.912 197.3 148.148L196.551 148.63C196.221 148.338 195.916 148.01 195.637 147.645C195.362 147.274 195.125 146.883 194.928 146.474C194.741 146.061 194.605 145.641 194.52 145.213C194.438 144.778 194.423 144.348 194.473 143.925C194.535 143.498 194.677 143.091 194.901 142.703L195.231 142.132ZM192.166 139.905L199.254 143.997L198.84 144.714L191.752 140.622L192.166 139.905ZM200.561 145.763L205.227 148.457L204.819 149.164L200.153 146.47L200.561 145.763ZM202.131 148.443C202.526 148.671 202.82 148.961 203.014 149.313C203.215 149.67 203.308 150.06 203.293 150.486C203.283 150.905 203.155 151.325 202.911 151.748C202.667 152.171 202.365 152.495 202.003 152.72C201.646 152.939 201.261 153.054 200.848 153.065C200.446 153.073 200.048 152.963 199.653 152.735C199.265 152.511 198.971 152.221 198.77 151.865C198.573 151.502 198.48 151.111 198.491 150.692C198.506 150.267 198.635 149.843 198.879 149.42C199.123 148.997 199.424 148.677 199.781 148.458C200.138 148.239 200.521 148.128 200.93 148.124C201.343 148.113 201.743 148.219 202.131 148.443ZM201.711 149.171C201.476 149.035 201.225 148.973 200.959 148.986C200.704 148.995 200.459 149.076 200.224 149.227C200 149.374 199.808 149.587 199.648 149.864C199.488 150.141 199.398 150.417 199.378 150.692C199.365 150.971 199.418 151.223 199.537 151.449C199.663 151.678 199.844 151.861 200.079 151.997C200.322 152.137 200.57 152.202 200.825 152.193C201.081 152.183 201.322 152.101 201.55 151.946C201.785 151.795 201.982 151.581 202.142 151.304C202.302 151.027 202.387 150.752 202.396 150.481C202.416 150.206 202.367 149.955 202.247 149.73C202.132 149.497 201.954 149.311 201.711 149.171ZM208.641 148.28L209.462 148.754L204.032 158.159L203.211 157.685L208.641 148.28ZM204.848 151.37L206.625 152.396L206.217 153.102L204.44 152.076L204.848 151.37ZM206.499 147.334L207.309 147.802L202.269 156.532L201.459 156.064L206.499 147.334ZM203.241 145.537L204.093 146.029L203.079 147.785L202.227 147.293L203.241 145.537ZM213.927 155.586L216.536 157.092L216.128 157.799L213.519 156.293L213.927 155.586ZM213.025 151.892L213.732 152.3L212.76 153.984C212.46 154.503 212.098 154.978 211.674 155.408C211.258 155.842 210.806 156.209 210.318 156.509C209.83 156.81 209.329 157.038 208.815 157.193C208.307 157.353 207.808 157.425 207.318 157.41L207.179 156.402C207.622 156.435 208.074 156.387 208.537 156.257C209.007 156.131 209.463 155.942 209.905 155.689C210.351 155.429 210.754 155.121 211.116 154.767C211.489 154.409 211.801 154.012 212.053 153.576L213.025 151.892ZM213.202 151.994L213.898 152.396L212.926 154.08C212.682 154.502 212.499 154.956 212.377 155.439C212.262 155.927 212.209 156.418 212.218 156.914C212.232 157.402 212.302 157.872 212.429 158.324C212.563 158.78 212.754 159.186 213.002 159.541L212.08 159.938C211.818 159.528 211.621 159.068 211.491 158.558C211.36 158.048 211.299 157.514 211.307 156.956C211.323 156.401 211.405 155.843 211.553 155.282C211.708 154.725 211.934 154.191 212.23 153.678L213.202 151.994ZM217.951 153.656L218.804 154.148L213.368 163.563L212.515 163.071L217.951 153.656ZM230.403 160.845L231.266 161.343L228.452 166.217L227.589 165.719L230.403 160.845ZM222.067 163.14L228.188 166.674L226.886 168.929L221.638 165.899L220.822 167.312L219.97 166.82L221.152 164.773L226.4 167.803L226.94 166.868L221.671 163.826L222.067 163.14ZM220.198 166.426L226.641 170.146L226.239 170.842L219.796 167.122L220.198 166.426ZM223.598 157.775L228.649 160.691L228.259 161.367L223.208 158.451L223.598 157.775ZM221.187 161.593L221.491 160.826C222.056 161.143 222.671 161.485 223.338 161.851C224.004 162.217 224.683 162.577 225.375 162.93C226.078 163.28 226.754 163.597 227.404 163.88L227.086 164.527C226.413 164.268 225.727 163.969 225.027 163.629C224.326 163.29 223.648 162.945 222.992 162.593C222.343 162.246 221.741 161.913 221.187 161.593ZM224.343 158.621L225.175 159.101L223.333 162.291L222.501 161.811L224.343 158.621ZM226.702 159.983L227.544 160.469L225.702 163.659L224.86 163.173L226.702 159.983ZM232.408 168.459L233.26 168.951L231.64 171.757L230.788 171.265L232.408 168.459ZM235.879 170.463L236.741 170.961L235.121 173.767L234.259 173.269L235.879 170.463ZM228.795 169.893L237.317 174.813L236.903 175.53L228.381 170.61L228.795 169.893ZM237.013 165.451C237.678 165.835 238.209 166.275 238.606 166.772C239.002 167.269 239.242 167.781 239.325 168.31C239.415 168.842 239.318 169.354 239.034 169.846C238.754 170.331 238.359 170.671 237.849 170.866C237.35 171.059 236.786 171.107 236.158 171.012C235.533 170.91 234.888 170.667 234.223 170.283C233.565 169.903 233.032 169.466 232.624 168.972C232.228 168.475 231.988 167.963 231.905 167.434C231.826 166.899 231.926 166.389 232.206 165.904C232.49 165.412 232.882 165.07 233.381 164.878C233.88 164.685 234.444 164.637 235.072 164.732C235.708 164.831 236.355 165.071 237.013 165.451ZM236.617 166.136C236.118 165.848 235.633 165.665 235.161 165.587C234.689 165.508 234.266 165.537 233.892 165.672C233.522 165.8 233.238 166.038 233.038 166.384C232.838 166.73 232.772 167.099 232.842 167.491C232.916 167.875 233.105 168.252 233.409 168.621C233.713 168.991 234.114 169.32 234.613 169.608C235.119 169.9 235.608 170.085 236.079 170.163C236.551 170.242 236.972 170.217 237.342 170.089C237.716 169.953 238.003 169.712 238.203 169.366C238.403 169.02 238.466 168.654 238.392 168.27C238.322 167.879 238.135 167.498 237.831 167.129C237.528 166.759 237.123 166.428 236.617 166.136ZM249.045 171.608L249.898 172.1L244.468 181.505L243.615 181.013L249.045 171.608ZM247.468 175.852L249.204 176.854L248.784 177.581L247.048 176.579L247.468 175.852ZM241.753 169.407L247.292 172.605L246.884 173.311L241.345 170.113L241.753 169.407ZM243.717 172.508C244.161 172.764 244.498 173.084 244.73 173.467C244.968 173.854 245.09 174.266 245.096 174.704C245.113 175.139 245 175.567 244.756 175.99C244.512 176.413 244.195 176.729 243.806 176.938C243.424 177.152 243.006 177.252 242.552 177.239C242.108 177.224 241.665 177.088 241.221 176.832C240.778 176.576 240.435 176.258 240.193 175.877C239.961 175.494 239.839 175.082 239.826 174.64C239.813 174.199 239.929 173.767 240.173 173.344C240.417 172.921 240.731 172.609 241.116 172.406C241.505 172.196 241.923 172.096 242.371 172.105C242.825 172.118 243.274 172.252 243.717 172.508ZM243.303 173.225C243.019 173.061 242.73 172.978 242.437 172.974C242.143 172.971 241.868 173.039 241.613 173.178C241.364 173.32 241.158 173.534 240.994 173.818C240.83 174.102 240.746 174.391 240.743 174.685C240.75 174.975 240.829 175.247 240.979 175.5C241.132 175.746 241.351 175.95 241.635 176.114C241.912 176.274 242.196 176.36 242.486 176.37C242.779 176.373 243.05 176.303 243.299 176.161C243.559 176.015 243.771 175.8 243.935 175.516C244.099 175.232 244.177 174.944 244.169 174.654C244.168 174.367 244.093 174.097 243.944 173.844C243.794 173.592 243.58 173.385 243.303 173.225ZM244.926 169.382L245.789 169.88L244.805 171.584L243.942 171.086L244.926 169.382ZM258.595 177.121L259.458 177.619L254.022 187.035L253.159 186.537L258.595 177.121ZM257.118 181.215L258.854 182.217L258.44 182.934L256.704 181.932L257.118 181.215ZM248.98 180.023L249.718 180.449C250.293 180.781 250.824 181.078 251.31 181.34C251.807 181.599 252.291 181.832 252.762 182.04C253.241 182.251 253.736 182.45 254.248 182.634L253.926 183.432C253.393 183.235 252.884 183.029 252.399 182.814C251.92 182.602 251.431 182.361 250.931 182.091C250.431 181.821 249.887 181.516 249.298 181.176L248.56 180.75L248.98 180.023ZM252.112 174.598L256.467 177.112L256.059 177.819L252.557 175.797L249.641 180.847L248.788 180.355L252.112 174.598ZM257.711 188.149C257.529 188.044 257.411 187.889 257.356 187.683C257.3 187.477 257.325 187.283 257.431 187.101C257.536 186.919 257.691 186.801 257.897 186.745C258.102 186.69 258.296 186.715 258.478 186.82C258.66 186.926 258.779 187.081 258.834 187.287C258.889 187.492 258.864 187.686 258.759 187.868C258.69 187.989 258.595 188.082 258.475 188.147C258.358 188.214 258.231 188.249 258.095 188.252C257.962 188.254 257.834 188.22 257.711 188.149ZM260.573 189.801C260.391 189.696 260.273 189.541 260.218 189.335C260.162 189.13 260.187 188.936 260.293 188.754C260.398 188.572 260.553 188.453 260.759 188.398C260.964 188.343 261.158 188.368 261.34 188.473C261.522 188.578 261.641 188.733 261.696 188.939C261.751 189.145 261.726 189.339 261.621 189.521C261.551 189.641 261.457 189.734 261.337 189.799C261.22 189.866 261.093 189.901 260.957 189.905C260.824 189.907 260.696 189.872 260.573 189.801ZM263.435 191.454C263.253 191.349 263.135 191.193 263.079 190.988C263.024 190.782 263.049 190.588 263.154 190.406C263.26 190.224 263.415 190.105 263.621 190.05C263.826 189.995 264.02 190.02 264.202 190.125C264.384 190.23 264.503 190.386 264.558 190.591C264.613 190.797 264.588 190.991 264.483 191.173C264.413 191.294 264.319 191.386 264.199 191.452C264.082 191.519 263.955 191.554 263.818 191.557C263.686 191.559 263.558 191.525 263.435 191.454Z" fill="white"/>
</svg>
