<svg width="333" height="141" viewBox="0 0 333 141" fill="none" xmlns="http://www.w3.org/2000/svg">
<rect x="0.839844" y="22.7349" width="324.649" height="117.921" transform="rotate(-4 0.839844 22.7349)" fill="#9058FF"/>
<path d="M37.7008 46.3688L39.2929 46.2574L39.7256 52.4463L38.1335 52.5577L37.7008 46.3688ZM30.9926 51.5894L31.9502 51.5225C32.6765 51.4717 33.3266 51.4222 33.9006 51.3741C34.4741 51.3179 35.0186 51.2478 35.5339 51.1636C36.0493 51.0795 36.5673 50.9751 37.0879 50.8504L37.3562 52.1068C36.8196 52.2325 36.2817 52.3383 35.7424 52.4241C35.211 52.5094 34.6467 52.581 34.0492 52.6388C33.4513 52.6886 32.7812 52.7395 32.039 52.7914L31.0813 52.8583L30.9926 51.5894ZM30.6732 47.3654L35.7847 47.008L36.0157 50.3119L32.4843 50.5589L32.6065 52.3066L31.0503 52.4154L30.8453 49.4826L34.3527 49.2373L34.2933 48.3874L30.7619 48.6343L30.6732 47.3654ZM32.3843 53.4288L33.9525 53.3192L34.0178 54.2529L38.2434 53.9574L38.1781 53.0237L39.7583 52.9132L40.0605 57.2346L32.6865 57.7503L32.3843 53.4288ZM34.1031 55.4739L34.1651 56.3598L38.3908 56.0643L38.3288 55.1784L34.1031 55.4739ZM43.0866 52.8729L50.293 52.369L50.5818 56.4989L43.3754 57.0028L43.0866 52.8729ZM48.8239 53.7228L44.7419 54.0082L44.8557 55.6362L48.9377 55.3508L48.8239 53.7228ZM48.223 45.645L49.8151 45.5337L50.2579 51.8662L48.6658 51.9776L48.223 45.645ZM49.5557 48.0178L51.4591 47.8847L51.5495 49.1776L49.6461 49.3107L49.5557 48.0178ZM41.4526 46.7079L43.0328 46.5974L43.129 47.974L45.3077 47.8217L45.2114 46.445L46.7796 46.3354L47.1446 51.5546L41.8176 51.9271L41.4526 46.7079ZM43.2136 49.1831L43.3098 50.5597L45.4885 50.4074L45.3922 49.0307L43.2136 49.1831Z" fill="white"/>
<path d="M34.8507 74.9715L35.6647 74.9146L35.8003 76.8539C35.8421 77.4524 35.8073 78.0443 35.6959 78.6295C35.5924 79.2141 35.4226 79.7673 35.1864 80.2891C34.9502 80.8108 34.6623 81.28 34.3225 81.6968C33.9828 82.1135 33.6055 82.4526 33.1907 82.7142L32.5241 81.9548C32.9092 81.7274 33.2576 81.4344 33.5694 81.0758C33.8885 80.7086 34.1604 80.2967 34.3851 79.8399C34.6098 79.3831 34.773 78.9065 34.8746 78.4102C34.9836 77.9054 35.0209 77.4056 34.9863 76.9108L34.8507 74.9715ZM35.0302 74.959L35.8323 74.9029L35.9679 76.8422C36.0014 77.321 36.1024 77.7911 36.271 78.2525C36.4476 78.7133 36.6781 79.1422 36.9624 79.5394C37.2468 79.9365 37.5641 80.2872 37.9142 80.5915C38.2722 80.8953 38.6495 81.1295 39.0459 81.2943L38.4907 82.1271C38.0526 81.9412 37.641 81.6732 37.2556 81.3233C36.8782 80.9727 36.5371 80.5675 36.2323 80.1077C35.9349 79.6393 35.6911 79.1351 35.501 78.595C35.3183 78.0464 35.2066 77.4808 35.1658 76.8982L35.0302 74.959ZM39.4659 73.7105L40.4595 73.641L41.2171 84.4746L40.2235 84.5441L39.4659 73.7105ZM40.5384 78.0383L42.5376 77.8985L42.597 78.7484L40.5979 78.8882L40.5384 78.0383ZM51.0288 72.902L52.0223 72.8325L52.4141 78.4348L51.4205 78.5043L51.0288 72.902ZM45.4497 79.4752L52.4526 78.9855L52.6351 81.5951L46.6258 82.0153L46.7296 83.4997L45.7719 83.5667L45.6154 81.3281L51.6008 80.9096L51.5263 79.8442L45.505 80.2652L45.4497 79.4752ZM45.7485 83.2315L53.0865 82.7183L53.1426 83.5204L45.8045 84.0335L45.7485 83.2315ZM45.9869 73.5673L46.8129 73.5095L46.8706 74.3355C46.9175 75.0059 46.8336 75.6413 46.619 76.2417C46.4044 76.8422 46.0807 77.374 45.6479 77.8373C45.2146 78.2927 44.7026 78.6533 44.1117 78.9191L43.5536 78.1642C43.9506 77.9921 44.3083 77.7746 44.6267 77.5118C44.9452 77.2489 45.2132 76.9535 45.4309 76.6255C45.656 76.289 45.8195 75.9327 45.9215 75.5567C46.0315 75.1801 46.0726 74.7923 46.0447 74.3933L45.9869 73.5673ZM46.1665 73.5547L46.9924 73.497L47.0502 74.323C47.0764 74.698 47.1657 75.0567 47.3179 75.3989C47.4781 75.7406 47.6883 76.0507 47.9483 76.3292C48.2164 76.6072 48.5261 76.8502 48.8775 77.0582C49.2283 77.2582 49.6079 77.4121 50.0164 77.5198L49.58 78.3323C49.114 78.2045 48.6842 78.022 48.2907 77.7849C47.8967 77.5398 47.5514 77.2471 47.255 76.907C46.9579 76.5588 46.7186 76.1746 46.5368 75.7543C46.3625 75.3254 46.2583 74.8675 46.2242 74.3807L46.1665 73.5547ZM60.2479 73.1114L61.0499 73.0553L61.1102 73.9172C61.1537 74.5397 61.0662 75.1232 60.8477 75.6678C60.6291 76.2123 60.3021 76.6963 59.8666 77.1198C59.4385 77.5346 58.9239 77.8593 58.3228 78.0938L57.7776 77.35C58.3165 77.1439 58.7783 76.8671 59.163 76.5194C59.5557 76.1711 59.8529 75.7774 60.0548 75.3383C60.2566 74.8991 60.3411 74.4441 60.3082 73.9733L60.2479 73.1114ZM60.4275 73.0988L61.2415 73.0419L61.3009 73.8918C61.3305 74.3148 61.4707 74.714 61.7215 75.0894C61.9717 75.4569 62.3067 75.7743 62.7263 76.0416C63.146 76.309 63.6288 76.5038 64.1746 76.626L63.7622 77.4368C63.1434 77.3036 62.594 77.0734 62.114 76.7461C61.6414 76.4102 61.2601 76.0038 60.9702 75.5269C60.6882 75.0494 60.5271 74.5234 60.4869 73.9488L60.4275 73.0988ZM57.8122 73.0291L63.6061 72.6239L63.663 73.438L57.8692 73.8431L57.8122 73.0291ZM64.9409 71.9291L65.9344 71.8597L66.3245 77.438L65.3309 77.5075L64.9409 71.9291ZM65.6564 74.2489L67.6915 74.1066L67.7484 74.9206L65.7133 75.0629L65.6564 74.2489ZM59.4773 78.4341L66.3605 77.9528L66.5438 80.5744L60.6662 80.9854L60.7825 82.6493L59.8129 82.7171L59.6447 80.311L65.5103 79.9008L65.4333 78.7995L59.5317 79.2122L59.4773 78.4341ZM59.7828 82.2862L67.0131 81.7806L67.0675 82.5587L59.8372 83.0643L59.7828 82.2862ZM79.3198 70.9237L80.3134 70.8542L80.8709 78.8267L79.8773 78.8962L79.3198 70.9237ZM80.2323 74.1679L82.1357 74.0348L82.1935 74.8608L80.2901 74.9939L80.2323 74.1679ZM74.2577 81.1056L81.4761 80.6008L81.533 81.4148L74.3147 81.9196L74.2577 81.1056ZM74.0744 78.484L75.056 78.4153L75.2619 81.3602L74.2803 81.4288L74.0744 78.484ZM74.9801 71.997C75.5228 71.9591 76.0137 72.041 76.4529 72.2429C76.8914 72.4367 77.2484 72.7246 77.5237 73.1063C77.799 73.488 77.9551 73.9422 77.9919 74.4689C78.0276 74.9797 77.936 75.4472 77.7171 75.8715C77.4981 76.2958 77.1853 76.6385 76.7785 76.8995C76.3711 77.1525 75.8961 77.298 75.3535 77.336C74.8188 77.3734 74.3281 77.2954 73.8816 77.1021C73.4424 76.9002 73.0849 76.6044 72.809 76.2147C72.5332 75.825 72.3774 75.3748 72.3417 74.864C72.3049 74.3373 72.3962 73.8658 72.6157 73.4495C72.8352 73.0332 73.1486 72.6985 73.5559 72.4454C73.9707 72.1839 74.4454 72.0344 74.9801 71.997ZM75.0404 72.8589C74.6892 72.8835 74.3793 72.9813 74.1106 73.1525C73.8419 73.3236 73.6332 73.5507 73.4846 73.8338C73.344 74.1163 73.2862 74.4371 73.3113 74.7962C73.3359 75.1474 73.4374 75.453 73.616 75.7132C73.8026 75.9728 74.0408 76.1687 74.3308 76.3008C74.6207 76.4329 74.9412 76.4867 75.2923 76.4621C75.6435 76.4375 75.9534 76.3397 76.2221 76.1685C76.4988 75.9968 76.7075 75.7697 76.8481 75.4872C76.9967 75.2041 77.0588 74.887 77.0342 74.5359C77.0091 74.1768 76.9033 73.8674 76.7167 73.6078C76.5381 73.3476 76.2999 73.1518 76.002 73.0202C75.7121 72.8881 75.3915 72.8343 75.0404 72.8589ZM88.6124 71.152L89.3905 71.0976L89.486 72.4623C89.5228 72.989 89.4641 73.5264 89.31 74.0745C89.1633 74.614 88.9257 75.1158 88.5973 75.5798C88.2763 76.0354 87.8611 76.4052 87.3516 76.6894L86.7722 75.9721C87.212 75.7248 87.579 75.4105 87.8731 75.029C88.1746 74.639 88.3941 74.2227 88.5316 73.78C88.677 73.3368 88.7358 72.9157 88.7079 72.5167L88.6124 71.152ZM88.8279 71.1369L89.606 71.0825L89.7014 72.4472C89.7215 72.7345 89.7826 73.035 89.8848 73.3486C89.9949 73.6617 90.1449 73.972 90.3348 74.2795C90.5321 74.5784 90.7677 74.8507 91.0415 75.0962C91.3233 75.3411 91.6456 75.5351 92.0084 75.6781L91.6216 76.5112C91.1932 76.3486 90.8165 76.1224 90.4915 75.8323C90.1659 75.5343 89.89 75.2008 89.6637 74.8316C89.4374 74.4625 89.2621 74.0778 89.1379 73.6775C89.0211 73.2687 88.9496 72.8767 88.9233 72.5016L88.8279 71.1369ZM92.874 70.854L93.6402 70.8004L93.7356 72.1651C93.7724 72.6918 93.7223 73.2366 93.5852 73.7996C93.4562 74.3619 93.228 74.8831 92.9006 75.3631C92.5813 75.8426 92.155 76.2252 91.6216 76.5112L91.1226 75.7401C91.5778 75.4837 91.944 75.1574 92.221 74.7611C92.498 74.3648 92.6973 73.9459 92.8188 73.5043C92.9477 73.0542 92.9979 72.6257 92.9695 72.2187L92.874 70.854ZM93.0895 70.8389L93.8676 70.7845L93.963 72.1492C93.9937 72.5881 94.104 73.0175 94.2937 73.4373C94.4914 73.8565 94.7622 74.2305 95.1059 74.5593C95.4577 74.8876 95.876 75.135 96.3608 75.3016L95.8748 76.0934C95.3394 75.8903 94.8775 75.5938 94.4894 75.2039C94.1007 74.8061 93.7962 74.3502 93.5758 73.8363C93.3548 73.3145 93.2246 72.7702 93.1849 72.2036L93.0895 70.8389ZM86.8874 78.9954L96.6914 78.3099L96.7492 79.1359L86.9451 79.8214L86.8874 78.9954ZM98.8455 72.8303L106.208 72.3155L106.264 73.1175L98.9016 73.6323L98.8455 72.8303ZM97.6741 75.1737L107.49 74.4873L107.547 75.3013L97.731 75.9877L97.6741 75.1737ZM98.6454 69.9693L99.627 69.9006L99.8556 73.1686L98.874 73.2373L98.6454 69.9693ZM99.2282 79.3354L106.722 78.8114L106.779 79.6254L99.2851 80.1494L99.2282 79.3354ZM99.0641 76.9891L100.058 76.9197L100.237 79.4814L99.2433 79.5509L99.0641 76.9891ZM116.549 68.3203L117.507 68.2534L118.264 79.0869L117.307 79.1539L116.549 68.3203ZM112.337 72.765L115.066 72.5741L115.124 73.4001L112.395 73.591L112.337 72.765ZM114.388 68.7241L115.322 68.6588L116.022 78.6783L115.089 78.7436L114.388 68.7241ZM109.238 76.2657L109.932 76.2172C110.49 76.1781 110.985 76.1355 111.415 76.0894C111.852 76.0428 112.261 75.9821 112.641 75.9075C113.029 75.8322 113.419 75.7408 113.813 75.6331L113.966 76.4523C113.565 76.5686 113.167 76.6646 112.771 76.7404C112.375 76.8082 111.954 76.8657 111.508 76.9129C111.07 76.9596 110.564 77.003 109.99 77.0432L109.295 77.0917L109.238 76.2657ZM108.813 70.1965L112.871 69.9128L112.928 70.7268L109.84 70.9428L110.23 76.5211L109.26 76.5889L108.813 70.1965ZM130.557 67.3408L131.551 67.2713L132.309 78.1169L131.315 78.1863L130.557 67.3408ZM125.899 68.5086C126.434 68.4712 126.915 68.5939 127.344 68.8767C127.78 69.1509 128.134 69.5632 128.405 70.1137C128.684 70.6636 128.85 71.3216 128.904 72.0877C128.958 72.8538 128.885 73.5286 128.685 74.1119C128.493 74.6947 128.2 75.1562 127.807 75.4965C127.422 75.8362 126.962 76.0247 126.427 76.0621C125.893 76.0995 125.407 75.9771 124.97 75.6949C124.533 75.4127 124.175 74.9966 123.896 74.4467C123.625 73.8963 123.463 73.238 123.409 72.4719C123.356 71.7058 123.425 71.0313 123.617 70.4485C123.817 69.8652 124.113 69.4073 124.507 69.0751C124.9 68.7348 125.364 68.546 125.899 68.5086ZM125.961 69.3944C125.602 69.4195 125.295 69.5613 125.04 69.8197C124.793 70.0695 124.609 70.4192 124.488 70.8687C124.367 71.3103 124.326 71.8224 124.367 72.4049C124.408 72.9875 124.519 73.493 124.702 73.9213C124.883 74.3416 125.114 74.6623 125.395 74.8833C125.683 75.1037 126.006 75.2014 126.365 75.1763C126.716 75.1517 127.015 75.0106 127.262 74.7527C127.517 74.4943 127.705 74.1444 127.826 73.7028C127.947 73.2533 127.987 72.7372 127.946 72.1546C127.906 71.5721 127.794 71.0706 127.613 70.6503C127.43 70.2219 127.195 69.9015 126.908 69.6891C126.628 69.4681 126.312 69.3699 125.961 69.3944ZM141.94 66.5448L142.886 66.4787L143.643 77.3122L142.698 77.3784L141.94 66.5448ZM138.262 70.7116L140.345 70.5659L140.402 71.3799L138.319 71.5256L138.262 70.7116ZM139.791 66.9477L140.725 66.8824L141.425 76.902L140.492 76.9673L139.791 66.9477ZM136.037 68.6538L136.803 68.6002L136.899 69.9768C136.941 70.5674 136.925 71.1499 136.853 71.7243C136.78 72.2907 136.654 72.8289 136.473 73.3388C136.291 73.8406 136.059 74.302 135.776 74.7228C135.492 75.1356 135.163 75.4793 134.789 75.7541L134.127 75.0546C134.608 74.7162 135.003 74.2796 135.31 73.7448C135.626 73.2095 135.853 72.6202 135.993 71.9769C136.132 71.3336 136.179 70.6848 136.133 70.0304L136.037 68.6538ZM136.24 68.6395L136.995 68.5868L137.091 69.9634C137.134 70.5859 137.265 71.1903 137.482 71.7765C137.708 72.3622 138.005 72.8868 138.374 73.3502C138.751 73.805 139.197 74.1588 139.712 74.4115L139.165 75.1955C138.615 74.9051 138.138 74.5014 137.733 73.9844C137.335 73.4589 137.016 72.8557 136.776 72.1748C136.536 71.4859 136.389 70.7663 136.337 70.0162L136.24 68.6395ZM133.961 68.3779L138.905 68.0322L138.962 68.8462L134.018 69.1919L133.961 68.3779ZM152.642 66.9753L153.612 66.9075C153.666 67.6737 153.626 68.4262 153.493 69.1653C153.368 69.8958 153.133 70.602 152.787 71.2837C152.45 71.9649 151.986 72.6069 151.394 73.2096C150.811 73.8117 150.088 74.3635 149.224 74.865L148.642 74.1117C149.636 73.529 150.437 72.8796 151.044 72.1634C151.66 71.4468 152.099 70.6663 152.36 69.8219C152.622 68.9776 152.72 68.0806 152.653 67.1309L152.642 66.9753ZM148.632 67.2557L153.133 66.941L153.189 67.743L148.688 68.0578L148.632 67.2557ZM155.995 65.55L156.977 65.4813L157.734 76.3149L156.753 76.3835L155.995 65.55ZM153.331 68.7316L156.395 68.5173L156.451 69.3193L153.387 69.5336L153.331 68.7316ZM153.413 71.6369L156.49 71.4218L156.547 72.2358L153.47 72.4509L153.413 71.6369ZM163.833 70.1384L164.827 70.0689L164.942 71.7209L163.949 71.7904L163.833 70.1384ZM163.989 65.1354C165.186 65.0517 166.131 65.15 166.824 65.4303C167.517 65.7026 167.884 66.1381 167.926 66.7366C167.968 67.3431 167.666 67.8334 167.018 68.2075C166.37 68.5736 165.448 68.7985 164.251 68.8822C163.062 68.9654 162.117 68.871 161.416 68.5993C160.723 68.3189 160.355 67.8755 160.313 67.269C160.271 66.6705 160.574 66.1881 161.222 65.822C161.877 65.4474 162.8 65.2185 163.989 65.1354ZM164.041 65.8895C163.459 65.9303 162.963 66.009 162.554 66.1258C162.145 66.2426 161.835 66.3926 161.623 66.5759C161.419 66.7505 161.325 66.9576 161.342 67.197C161.359 67.4364 161.481 67.6364 161.709 67.7969C161.944 67.9488 162.272 68.0542 162.693 68.113C163.114 68.1638 163.615 68.1688 164.198 68.1281C164.789 68.0868 165.289 68.0117 165.698 67.9029C166.107 67.7861 166.413 67.6363 166.617 67.4537C166.828 67.2625 166.925 67.0472 166.909 66.8078C166.892 66.5683 166.766 66.3766 166.531 66.2327C166.304 66.0801 165.98 65.9745 165.559 65.9157C165.138 65.857 164.632 65.8482 164.041 65.8895ZM159.416 69.93L169.196 69.2461L169.252 70.0482L159.472 70.7321L159.416 69.93ZM160.728 71.6547L168.066 71.1416L168.236 73.5836L161.892 74.0273L161.983 75.3321L161.014 75.3999L160.871 73.3649L167.216 72.9212L167.15 71.9755L160.781 72.4209L160.728 71.6547ZM160.999 75.1964L168.637 74.6624L168.691 75.4405L161.054 75.9745L160.999 75.1964ZM177.972 64.0252L178.966 63.9557L179.724 74.8012L178.731 74.8707L177.972 64.0252ZM173.315 65.193C173.849 65.1556 174.331 65.2783 174.76 65.5611C175.196 65.8353 175.55 66.2476 175.821 66.7981C176.1 67.3479 176.266 68.0059 176.32 68.7721C176.373 69.5382 176.3 70.2129 176.1 70.7963C175.908 71.3791 175.616 71.8406 175.223 72.1809C174.837 72.5206 174.377 72.7091 173.843 72.7465C173.308 72.7839 172.822 72.6615 172.386 72.3793C171.949 72.0971 171.591 71.681 171.312 71.1311C171.041 70.5807 170.879 69.9224 170.825 69.1563C170.771 68.3902 170.84 67.7157 171.032 67.1329C171.232 66.5495 171.529 66.0917 171.923 65.7594C172.316 65.4192 172.78 65.2304 173.315 65.193ZM173.376 66.0788C173.017 66.1039 172.71 66.2457 172.456 66.5041C172.209 66.7539 172.025 67.1036 171.904 67.5531C171.782 67.9947 171.742 68.5067 171.783 69.0893C171.823 69.6719 171.935 70.1774 172.117 70.6057C172.299 71.026 172.53 71.3467 172.81 71.5677C173.098 71.7881 173.422 71.8858 173.781 71.8607C174.132 71.8361 174.431 71.6949 174.677 71.4371C174.932 71.1787 175.12 70.8288 175.242 70.3872C175.362 69.9377 175.403 69.4216 175.362 68.839C175.321 68.2565 175.21 67.755 175.028 67.3347C174.846 66.9063 174.611 66.5859 174.323 66.3735C174.043 66.1525 173.728 66.0543 173.376 66.0788ZM188.458 63.292L189.439 63.2234L190.198 74.0689L189.216 74.1375L188.458 63.292ZM189.513 67.5368L191.512 67.397L191.57 68.2349L189.571 68.3747L189.513 67.5368ZM182.08 71.1721L182.942 71.1118C183.612 71.0649 184.226 71.014 184.784 70.959C185.349 70.8954 185.893 70.8213 186.416 70.7365C186.939 70.6439 187.468 70.5267 188.004 70.385L188.156 71.1923C187.605 71.3351 187.064 71.4531 186.533 71.5464C186.01 71.6391 185.462 71.7175 184.889 71.7816C184.316 71.8457 183.687 71.9018 183.001 71.9498L182.139 72.01L182.08 71.1721ZM181.609 64.7814L186.493 64.4398L186.765 68.3303L182.887 68.6016L183.085 71.4386L182.103 71.5073L181.847 67.8442L185.726 67.573L185.568 65.3225L181.666 65.5954L181.609 64.7814ZM193.88 72.9294C193.67 72.9441 193.485 72.8816 193.324 72.7419C193.163 72.6022 193.076 72.4275 193.061 72.2178C193.046 72.008 193.109 71.8228 193.249 71.6621C193.388 71.5014 193.563 71.4137 193.773 71.3991C193.983 71.3844 194.168 71.4469 194.328 71.5866C194.489 71.7263 194.577 71.901 194.592 72.1108C194.601 72.2496 194.575 72.3796 194.512 72.5008C194.452 72.6217 194.367 72.7217 194.255 72.8007C194.147 72.8766 194.022 72.9195 193.88 72.9294ZM197.176 72.6989C196.967 72.7136 196.782 72.6511 196.621 72.5114C196.46 72.3717 196.372 72.197 196.358 71.9872C196.343 71.7775 196.406 71.5923 196.545 71.4316C196.685 71.2709 196.86 71.1832 197.069 71.1686C197.279 71.1539 197.464 71.2164 197.625 71.3561C197.786 71.4958 197.873 71.6705 197.888 71.8802C197.898 72.0191 197.871 72.1491 197.809 72.2702C197.749 72.3912 197.663 72.4912 197.552 72.5701C197.443 72.6461 197.318 72.689 197.176 72.6989ZM200.473 72.4684C200.263 72.4831 200.078 72.4205 199.917 72.2808C199.757 72.1411 199.669 71.9664 199.654 71.7567C199.64 71.547 199.702 71.3618 199.842 71.2011C199.982 71.0404 200.156 70.9527 200.366 70.938C200.576 70.9234 200.761 70.9859 200.922 71.1256C201.082 71.2653 201.17 71.44 201.185 71.6497C201.194 71.7886 201.168 71.9186 201.105 72.0397C201.045 72.1607 200.96 72.2606 200.849 72.3396C200.74 72.4156 200.615 72.4585 200.473 72.4684Z" fill="white"/>
</svg>
