<svg width="345" height="245" viewBox="0 0 345 245" fill="none" xmlns="http://www.w3.org/2000/svg">
<rect x="0.56543" y="137.6" width="324.649" height="117.921" transform="rotate(-25 0.56543 137.6)" fill="#9058FF"/>
<path d="M39.372 149.414L40.5575 148.861L40.8466 149.481C41.1272 150.083 41.2891 150.705 41.3324 151.347C41.383 151.985 41.2874 152.604 41.0455 153.202C40.811 153.797 40.4147 154.348 39.8569 154.855L38.6116 154.059C38.9747 153.739 39.2575 153.409 39.4601 153.067C39.6666 152.715 39.8086 152.366 39.886 152.021C39.96 151.669 39.9766 151.326 39.9356 150.992C39.8912 150.651 39.7997 150.331 39.6611 150.034L39.372 149.414ZM39.6766 149.272L40.8511 148.724L41.1402 149.344C41.2721 149.627 41.4494 149.884 41.6721 150.116C41.8914 150.34 42.1528 150.532 42.4563 150.69C42.767 150.846 43.1167 150.952 43.5052 151.009C43.8904 151.059 44.3183 151.049 44.7891 150.98L44.5937 152.434C43.875 152.54 43.2175 152.502 42.6211 152.321C42.0214 152.133 41.4947 151.827 41.041 151.403C40.5946 150.976 40.2361 150.472 39.9656 149.892L39.6766 149.272ZM37.2079 150.026L42.6892 147.47L43.2217 148.612L37.7404 151.168L37.2079 150.026ZM43.4522 146.466L44.8986 145.791L47.4445 151.251L45.998 151.925L43.4522 146.466ZM40.9588 154.805L42.3835 154.14L42.8095 155.054L46.6378 153.269L46.2118 152.355L47.6474 151.686L49.5441 155.753L42.8555 158.872L40.9588 154.805ZM43.3268 156.163L43.7376 157.044L47.5658 155.259L47.155 154.378L43.3268 156.163ZM53.8217 141.617L55.2029 140.973L59.899 151.044L58.5178 151.688L53.8217 141.617ZM51.6415 147.334L53.784 146.335L54.3216 147.488L52.1791 148.487L51.6415 147.334ZM51.8023 142.823L53.1509 142.195L57.5377 151.602L56.1891 152.231L51.8023 142.823ZM50.0677 144.811L51.4598 144.162C51.9061 145.119 52.2095 146.063 52.3702 146.994C52.5309 147.926 52.5035 148.861 52.2882 149.8C52.0801 150.735 51.6315 151.695 50.9425 152.678L49.6552 152.047C50.2035 151.235 50.5773 150.456 50.7767 149.71C50.9799 148.953 51.0309 148.201 50.9296 147.454C50.8249 146.7 50.5833 145.916 50.2046 145.104L50.0677 144.811ZM47.5119 146.003L50.5136 144.603L51.0562 145.766L48.0545 147.166L47.5119 146.003ZM63.4618 137.135L64.9082 136.46L68.3568 143.856L66.9103 144.53L63.4618 137.135ZM62.2485 148.333L69.209 145.087L69.7516 146.251L62.7912 149.497L62.2485 148.333ZM61.3204 146.343L62.7669 145.668L64.0246 148.365L62.5782 149.04L61.3204 146.343ZM57.3493 140.978L62.7763 138.448L63.3139 139.6L57.8869 142.131L57.3493 140.978ZM59.706 146.288L59.006 145.184C59.5933 144.91 60.2297 144.609 60.9151 144.281C61.5971 143.945 62.285 143.593 62.9786 143.226C63.6722 142.858 64.3284 142.486 64.9472 142.109L65.537 143.119C64.9206 143.538 64.269 143.939 63.5822 144.321C62.9025 144.7 62.2306 145.058 61.5665 145.394C60.9062 145.719 60.286 146.017 59.706 146.288ZM58.5953 141.549L59.9766 140.905L61.569 144.32L60.1878 144.964L58.5953 141.549ZM61.0315 140.413L62.4236 139.764L64.016 143.179L62.6239 143.828L61.0315 140.413Z" fill="white"/>
<path d="M55.4264 171.099L56.3182 170.683L60.9078 180.526L60.016 180.942L55.4264 171.099ZM54.9725 176.117L57.6697 174.859L58.0196 175.61L55.3225 176.868L54.9725 176.117ZM52.7694 173.636L53.6504 173.225C53.9749 173.921 54.2113 174.636 54.3594 175.37C54.5115 176.094 54.5504 176.83 54.4762 177.58C54.4093 178.326 54.2114 179.085 53.8826 179.856C53.5537 180.627 53.0743 181.407 52.4443 182.195L51.6144 181.721C52.1699 181.039 52.6 180.361 52.9047 179.69C53.2166 179.015 53.4173 178.347 53.507 177.688C53.5932 177.021 53.5789 176.365 53.464 175.722C53.3458 175.071 53.1363 174.422 52.8354 173.777L52.7694 173.636ZM49.1587 175.319L53.2371 173.418L53.5769 174.146L49.4985 176.048L49.1587 175.319ZM62.2583 168.006L63.0305 167.646L63.1979 168.005C63.3534 168.338 63.4263 168.684 63.4165 169.042C63.4067 169.399 63.3344 169.755 63.1994 170.109C63.0645 170.464 62.8689 170.811 62.6126 171.151C62.3636 171.488 62.0757 171.807 61.7489 172.11C61.4221 172.412 61.0639 172.685 60.6743 172.929L60.0503 172.386C60.3853 172.176 60.7012 171.945 60.998 171.692C61.2915 171.432 61.5494 171.161 61.7718 170.881C61.998 170.59 62.1796 170.298 62.3165 170.005C62.4606 169.708 62.5435 169.422 62.5654 169.147C62.5838 168.865 62.5373 168.604 62.4257 168.365L62.2583 168.006ZM62.4106 167.935L63.1828 167.575L63.3501 167.934C63.4617 168.173 63.6315 168.376 63.8596 168.544C64.0843 168.704 64.353 168.826 64.6656 168.909C64.9783 168.993 65.3188 169.042 65.687 169.055C66.0519 169.062 66.4284 169.036 66.8165 168.979C67.2012 168.914 67.5814 168.821 67.9569 168.699L67.961 169.531C67.5314 169.669 67.0956 169.767 66.6539 169.823C66.2121 169.879 65.7822 169.894 65.3642 169.868C64.9461 169.842 64.5544 169.769 64.1891 169.648C63.8238 169.527 63.501 169.355 63.2207 169.133C62.9477 168.907 62.7335 168.628 62.578 168.294L62.4106 167.935ZM60.1695 173.919L69.0549 169.776L69.3998 170.515L60.5143 174.658L60.1695 173.919ZM62.0069 175.048L68.6737 171.939L69.7285 174.202L63.9644 176.889L64.5071 178.053L63.6261 178.464L62.7741 176.637L68.5382 173.949L68.1173 173.046L62.3315 175.744L62.0069 175.048ZM63.5501 178.301L70.4887 175.065L70.8184 175.772L63.8797 179.008L63.5501 178.301ZM75.4142 161.779L76.306 161.363L80.9007 171.216L80.0089 171.632L75.4142 161.779ZM71.9468 171.578L72.7625 171.198C73.3208 170.938 73.8539 170.68 74.3619 170.426C74.8738 170.16 75.3826 169.879 75.8882 169.581C76.4011 169.281 76.9255 168.948 77.4616 168.583L77.8935 169.282C77.0765 169.839 76.2884 170.326 75.529 170.742C74.7662 171.151 73.9607 171.553 73.1124 171.948L72.2967 172.329L71.9468 171.578ZM69.2169 165.781L73.7629 163.661L75.401 167.174L71.7903 168.857L72.9922 171.435L72.0787 171.861L70.5369 168.555L74.1477 166.871L73.1942 164.826L69.5618 166.52L69.2169 165.781ZM80.8277 162.856L87.5162 159.737L87.856 160.466L81.1674 163.584L80.8277 162.856ZM80.5739 165.463L89.492 161.305L89.8368 162.044L80.9187 166.203L80.5739 165.463ZM79.6156 160.257L80.5074 159.841L81.8919 162.81L81.0001 163.226L79.6156 160.257ZM83.5162 168.792L90.3244 165.617L90.6692 166.357L83.861 169.531L83.5162 168.792ZM82.5222 166.66L83.4249 166.239L84.5102 168.567L83.6075 168.988L82.5222 166.66ZM96.4302 153.634L99.421 152.239L99.7608 152.968L96.77 154.363L96.4302 153.634ZM97.4749 155.874L100.466 154.48L100.816 155.23L97.8248 156.625L97.4749 155.874ZM98.5043 151.012L99.407 150.591L101.988 156.126L101.086 156.547L98.5043 151.012ZM94.2655 153.677C94.7513 153.45 95.2283 153.347 95.6966 153.367C96.1688 153.376 96.5948 153.504 96.9746 153.751C97.351 153.99 97.644 154.335 97.8537 154.784C98.0633 155.234 98.1405 155.683 98.0852 156.133C98.0266 156.575 97.8508 156.983 97.5578 157.358C97.2687 157.723 96.8813 158.018 96.3955 158.245C95.9025 158.474 95.4199 158.585 94.9477 158.575C94.4794 158.555 94.057 158.426 93.6806 158.186C93.3008 157.94 93.0061 157.592 92.7965 157.142C92.5868 156.693 92.5113 156.247 92.5699 155.805C92.6252 155.355 92.7973 154.948 93.0865 154.584C93.3795 154.209 93.7725 153.907 94.2655 153.677ZM94.6154 154.427C94.2892 154.579 94.0296 154.78 93.8367 155.029C93.651 155.274 93.5398 155.547 93.5029 155.846C93.4627 156.139 93.5136 156.437 93.6556 156.742C93.7976 157.046 93.9952 157.281 94.2484 157.445C94.5016 157.609 94.7819 157.699 95.0893 157.715C95.4005 157.72 95.7193 157.646 96.0456 157.494C96.3646 157.345 96.6186 157.152 96.8077 156.914C97.0006 156.665 97.1154 156.391 97.1522 156.091C97.1891 155.791 97.1365 155.489 96.9945 155.185C96.8525 154.88 96.6566 154.649 96.4067 154.492C96.1535 154.328 95.8696 154.24 95.555 154.227C95.2476 154.212 94.9344 154.278 94.6154 154.427ZM95.681 159.637L102.283 156.559L102.622 157.287L96.0208 160.366L95.681 159.637ZM96.9575 162.63L103.777 159.45L104.121 160.19L97.3023 163.369L96.9575 162.63ZM97.2209 159.276L98.1018 158.866L99.5168 161.9L98.6358 162.311L97.2209 159.276ZM100.136 157.917L101.027 157.501L102.442 160.536L101.551 160.952L100.136 157.917ZM102.163 150.484L106.633 148.4L109.61 154.784L105.14 156.868L102.163 150.484ZM106.092 149.539L103.395 150.797L105.697 155.734L108.394 154.477L106.092 149.539ZM108.52 146.341L109.412 145.925L114.006 155.779L113.115 156.195L108.52 146.341ZM107.692 151.097L110.542 149.768L110.886 150.507L108.037 151.836L107.692 151.097ZM118.492 141.691L119.384 141.275L123.979 151.129L123.087 151.545L118.492 141.691ZM115.025 151.491L115.84 151.11C116.399 150.85 116.932 150.593 117.44 150.338C117.952 150.073 118.461 149.791 118.966 149.494C119.479 149.193 120.003 148.86 120.54 148.495L120.971 149.194C120.154 149.752 119.366 150.239 118.607 150.654C117.844 151.063 117.039 151.465 116.19 151.861L115.375 152.241L115.025 151.491ZM112.295 145.693L116.841 143.573L118.479 147.086L114.868 148.77L116.07 151.347L115.157 151.773L113.615 148.467L117.226 146.784L116.272 144.739L112.64 146.433L112.295 145.693ZM123.449 144.941L132.367 140.782L132.692 141.478L123.774 145.637L123.449 144.941ZM125.205 145.923L131.947 142.779L132.926 144.878L127.097 147.596L127.634 148.749L126.743 149.165L125.916 147.392L131.745 144.674L131.36 143.847L125.509 146.575L125.205 145.923ZM126.631 148.925L133.668 145.644L133.972 146.297L126.935 149.578L126.631 148.925ZM122.587 140.139L129.232 137.041L130.185 139.085L124.454 141.758L124.951 142.824L124.059 143.24L123.278 141.565L129.01 138.892L128.639 138.098L122.886 140.781L122.587 140.139ZM123.958 143.022L130.755 139.852L131.059 140.505L124.262 143.675L123.958 143.022ZM135.801 134.825L142.131 131.873L142.476 132.613L136.146 135.564L135.801 134.825ZM137.989 141.987L146.875 137.844L147.224 138.594L138.339 142.738L137.989 141.987ZM139.809 136.862L140.701 136.446L142.517 140.339L141.625 140.755L139.809 136.862ZM141.783 132.035L142.685 131.615L143.137 132.582C143.326 132.988 143.518 133.42 143.713 133.876C143.916 134.329 144.117 134.835 144.316 135.396C144.523 135.952 144.718 136.589 144.903 137.307L143.939 137.624C143.688 136.594 143.411 135.716 143.109 134.992C142.803 134.261 142.511 133.598 142.234 133.003L141.783 132.035ZM150.843 129.717L153.051 128.688L153.401 129.438L151.193 130.468L150.843 129.717ZM151.587 126.259L152.49 125.838L155.223 131.7L154.321 132.121L151.587 126.259ZM152.124 133.516C152.806 133.198 153.423 132.998 153.977 132.917C154.537 132.832 155.012 132.866 155.402 133.02C155.788 133.167 156.072 133.436 156.255 133.827C156.525 134.407 156.441 134.994 156.003 135.586C155.572 136.176 154.848 136.707 153.833 137.181C152.818 137.654 151.943 137.868 151.207 137.823C150.478 137.774 149.978 137.46 149.708 136.88C149.525 136.489 149.502 136.098 149.638 135.708C149.778 135.307 150.057 134.921 150.475 134.55C150.9 134.175 151.45 133.83 152.124 133.516ZM152.454 134.223C151.961 134.452 151.557 134.694 151.242 134.946C150.928 135.199 150.711 135.454 150.593 135.712C150.483 135.967 150.485 136.218 150.6 136.464C150.708 136.696 150.895 136.852 151.161 136.931C151.435 137.006 151.771 137.008 152.17 136.937C152.566 136.858 153.011 136.704 153.504 136.474C154.004 136.241 154.408 135.999 154.715 135.75C155.027 135.49 155.238 135.233 155.348 134.978C155.466 134.72 155.471 134.475 155.363 134.243C155.248 133.996 155.054 133.835 154.78 133.76C154.514 133.681 154.183 133.681 153.787 133.76C153.399 133.835 152.954 133.989 152.454 134.223ZM147.366 129.445L148.106 129.1L148.476 129.894C148.757 130.496 148.904 131.116 148.919 131.753C148.938 132.38 148.833 132.989 148.606 133.581C148.375 134.165 148.037 134.689 147.591 135.153L146.789 134.653C147.098 134.35 147.349 134.017 147.541 133.653C147.741 133.287 147.882 132.908 147.964 132.516C148.054 132.121 148.079 131.73 148.039 131.342C148 130.955 147.899 130.587 147.736 130.239L147.366 129.445ZM147.54 129.364L148.28 129.019L148.645 129.802C148.841 130.223 149.13 130.587 149.512 130.894C149.893 131.202 150.336 131.423 150.841 131.559C151.345 131.694 151.874 131.739 152.426 131.693L152.304 132.624C151.676 132.678 151.077 132.614 150.506 132.43C149.931 132.239 149.417 131.949 148.962 131.561C148.514 131.169 148.162 130.698 147.905 130.147L147.54 129.364ZM145.048 130.182L150.301 127.732L150.646 128.472L145.393 130.921L145.048 130.182ZM161.12 121.774L162.023 121.353L164.558 126.791L163.656 127.212L161.12 121.774ZM162.737 123.906L164.585 123.044L164.935 123.795L163.086 124.657L162.737 123.906ZM158.538 130.207L164.792 127.291L165.816 129.488L160.476 131.978L161.029 133.163L160.148 133.574L159.291 131.736L164.62 129.251L164.214 128.381L158.852 130.881L158.538 130.207ZM160.031 133.324L166.6 130.261L166.925 130.957L160.356 134.02L160.031 133.324ZM154.841 125.827L160.648 123.119L160.978 123.826L155.17 126.534L154.841 125.827ZM158.277 125.615C158.987 125.284 159.624 125.163 160.187 125.254C160.747 125.337 161.143 125.629 161.377 126.129C161.607 126.622 161.575 127.114 161.283 127.603C160.99 128.093 160.489 128.503 159.778 128.834C159.06 129.169 158.42 129.291 157.857 129.201C157.294 129.11 156.897 128.818 156.667 128.325C156.434 127.825 156.465 127.334 156.761 126.852C157.054 126.362 157.559 125.95 158.277 125.615ZM158.586 126.279C158.137 126.488 157.815 126.744 157.62 127.047C157.43 127.339 157.402 127.63 157.538 127.92C157.673 128.21 157.915 128.379 158.264 128.428C158.618 128.466 159.019 128.381 159.469 128.171C159.925 127.958 160.249 127.706 160.44 127.414C160.627 127.115 160.653 126.82 160.517 126.53C160.382 126.24 160.142 126.074 159.796 126.032C159.446 125.984 159.043 126.066 158.586 126.279ZM156.837 123.691L157.74 123.271L158.429 124.75L157.527 125.171L156.837 123.691ZM173.191 116.45L174.028 116.059L178.288 125.195L177.451 125.585L173.191 116.45ZM175.45 120.017L177.266 119.17L177.611 119.91L175.795 120.757L175.45 120.017ZM170.792 125.248L171.184 125.065C171.379 124.974 171.626 124.85 171.924 124.693C172.226 124.526 172.543 124.308 172.876 124.038L173.307 124.763C172.952 125.044 172.621 125.269 172.312 125.439C172.007 125.599 171.749 125.728 171.539 125.826L171.147 126.009L170.792 125.248ZM168.327 119.962L170.437 118.978L170.782 119.718L169.51 120.311L171.827 125.281L170.99 125.672L168.327 119.962ZM173.326 124.066L173.729 123.878C173.997 123.753 174.289 123.604 174.605 123.43C174.929 123.253 175.253 123.022 175.58 122.737L176.022 123.458C175.674 123.752 175.334 123.99 175.004 124.171C174.68 124.348 174.374 124.504 174.084 124.64L173.681 124.827L173.326 124.066ZM170.862 118.78L173.026 117.771L173.371 118.511L172.033 119.134L174.34 124.083L173.514 124.468L170.862 118.78ZM175.08 115.304L175.939 114.903L180.528 124.746L179.669 125.147L175.08 115.304ZM183.329 112.49L184.069 112.145L184.89 113.907C185.144 114.451 185.324 115.016 185.429 115.602C185.542 116.185 185.582 116.762 185.548 117.334C185.515 117.906 185.414 118.447 185.246 118.958C185.078 119.468 184.848 119.92 184.554 120.313L183.66 119.843C183.938 119.493 184.158 119.094 184.321 118.648C184.487 118.191 184.593 117.709 184.639 117.202C184.685 116.695 184.667 116.191 184.584 115.692C184.505 115.181 184.36 114.701 184.151 114.252L183.329 112.49ZM183.492 112.414L184.221 112.074L185.043 113.836C185.245 114.271 185.508 114.674 185.831 115.044C186.161 115.411 186.53 115.729 186.938 115.998C187.346 116.266 187.767 116.48 188.203 116.639C188.646 116.794 189.083 116.877 189.512 116.889L189.292 117.866C188.816 117.849 188.336 117.746 187.851 117.558C187.373 117.366 186.909 117.11 186.46 116.79C186.014 116.459 185.606 116.076 185.235 115.64C184.868 115.193 184.561 114.705 184.314 114.176L183.492 112.414ZM187.186 109.659L188.089 109.238L192.678 119.08L191.776 119.501L187.186 109.659ZM189.738 113.315L191.555 112.468L191.915 113.24L190.098 114.087L189.738 113.315ZM194.278 110.417L195.181 109.996L196.043 111.844L195.14 112.265L194.278 110.417ZM197.889 108.733L198.78 108.317L199.643 110.166L198.751 110.582L197.889 108.733ZM192.802 112.958L201.687 108.815L202.027 109.544L193.142 113.687L192.802 112.958ZM197.929 112.368C198.98 111.878 199.872 111.643 200.606 111.663C201.339 111.683 201.835 111.972 202.096 112.531C202.36 113.096 202.263 113.666 201.808 114.241C201.355 114.822 200.603 115.358 199.552 115.849C198.5 116.339 197.603 116.572 196.859 116.548C196.126 116.528 195.627 116.235 195.364 115.67C195.103 115.112 195.201 114.545 195.657 113.971C196.12 113.393 196.878 112.859 197.929 112.368ZM198.253 113.064C197.739 113.305 197.315 113.551 196.982 113.803C196.657 114.052 196.434 114.301 196.312 114.552C196.188 114.796 196.176 115.026 196.277 115.244C196.386 115.476 196.575 115.626 196.845 115.694C197.112 115.755 197.445 115.741 197.845 115.652C198.251 115.559 198.712 115.393 199.227 115.153C199.742 114.913 200.162 114.668 200.487 114.419C200.82 114.167 201.049 113.919 201.173 113.676C201.295 113.425 201.301 113.184 201.193 112.952C201.092 112.734 200.908 112.595 200.641 112.534C200.371 112.466 200.032 112.478 199.625 112.57C199.225 112.66 198.768 112.824 198.253 113.064ZM195.058 106.213C195.769 105.881 196.415 105.668 196.998 105.573C197.588 105.475 198.084 105.499 198.488 105.646C198.896 105.783 199.19 106.043 199.369 106.427C199.545 106.804 199.555 107.196 199.401 107.604C199.254 108.008 198.953 108.404 198.499 108.792C198.048 109.17 197.468 109.525 196.757 109.856C196.047 110.187 195.398 110.406 194.812 110.512C194.23 110.607 193.733 110.582 193.322 110.439C192.918 110.292 192.628 110.03 192.452 109.653C192.273 109.268 192.258 108.878 192.409 108.481C192.563 108.074 192.864 107.678 193.311 107.292C193.765 106.904 194.348 106.544 195.058 106.213ZM195.388 106.92C194.873 107.16 194.444 107.413 194.1 107.679C193.764 107.942 193.529 108.206 193.397 108.471C193.272 108.732 193.265 108.982 193.376 109.222C193.485 109.454 193.681 109.609 193.965 109.689C194.253 109.757 194.606 109.747 195.023 109.658C195.448 109.566 195.918 109.4 196.433 109.16C196.962 108.913 197.395 108.658 197.731 108.396C198.068 108.133 198.299 107.871 198.424 107.609C198.546 107.341 198.553 107.09 198.444 106.858C198.333 106.619 198.137 106.463 197.856 106.391C197.575 106.319 197.226 106.327 196.808 106.416C196.391 106.505 195.917 106.673 195.388 106.92ZM207.277 100.303L208.18 99.8825L211.618 107.256L210.715 107.677L207.277 100.303ZM209.403 103.244L211.132 102.438L211.482 103.188L209.753 103.995L209.403 103.244ZM201.124 104.629L206.932 101.921L207.272 102.649L201.464 105.357L201.124 104.629ZM204.617 104.536C205.081 104.32 205.527 104.209 205.957 104.203C206.383 104.189 206.759 104.275 207.083 104.459C207.404 104.636 207.65 104.909 207.823 105.279C207.995 105.649 208.048 106.017 207.98 106.384C207.91 106.743 207.732 107.082 207.448 107.4C207.164 107.718 206.79 107.985 206.326 108.201C205.862 108.418 205.416 108.533 204.99 108.546C204.564 108.56 204.187 108.479 203.859 108.306C203.534 108.122 203.286 107.845 203.114 107.475C202.941 107.105 202.89 106.74 202.961 106.381C203.035 106.011 203.215 105.667 203.499 105.349C203.78 105.023 204.152 104.753 204.617 104.536ZM204.946 105.243C204.504 105.449 204.194 105.722 204.017 106.061C203.836 106.392 203.825 106.728 203.984 107.069C204.143 107.41 204.407 107.618 204.777 107.692C205.147 107.767 205.554 107.701 205.996 107.494C206.445 107.285 206.757 107.016 206.931 106.688C207.111 106.356 207.122 106.02 206.964 105.68C206.805 105.339 206.54 105.131 206.17 105.057C205.804 104.971 205.396 105.034 204.946 105.243ZM203.024 102.286L203.927 101.865L204.657 103.431L203.755 103.852L203.024 102.286ZM206.195 111.612L212.753 108.554L213.098 109.294L206.54 112.352L206.195 111.612ZM205.221 109.524L206.113 109.108L207.229 111.501L206.337 111.917L205.221 109.524ZM217.2 95.6627L218.103 95.2418L222.698 105.095L221.795 105.516L217.2 95.6627ZM219.707 99.2208L221.523 98.3738L221.873 99.1243L220.057 99.9712L219.707 99.2208ZM214.062 105.203L214.834 104.843C215.436 104.562 215.984 104.298 216.477 104.05C216.975 103.792 217.444 103.529 217.884 103.262C218.332 102.991 218.778 102.699 219.223 102.386L219.692 103.107C219.225 103.431 218.764 103.73 218.309 104.004C217.862 104.274 217.384 104.537 216.876 104.791C216.368 105.046 215.806 105.317 215.189 105.604L214.417 105.964L214.062 105.203ZM211.415 99.5257L215.972 97.4008L216.317 98.1403L212.652 99.8494L215.116 105.135L214.225 105.551L211.415 99.5257ZM225.727 102.712C225.536 102.801 225.341 102.809 225.141 102.736C224.941 102.663 224.796 102.531 224.708 102.341C224.619 102.15 224.611 101.955 224.684 101.755C224.756 101.555 224.888 101.41 225.079 101.322C225.269 101.233 225.464 101.225 225.665 101.298C225.865 101.37 226.009 101.502 226.098 101.693C226.157 101.819 226.179 101.95 226.163 102.085C226.151 102.22 226.107 102.344 226.031 102.457C225.957 102.567 225.856 102.652 225.727 102.712Z" fill="white"/>
</svg>
