<svg width="326" height="300" viewBox="0 0 326 300" fill="none" xmlns="http://www.w3.org/2000/svg">
<rect x="76.6758" y="0.39856" width="324.649" height="117.921" transform="rotate(40 76.6758 0.39856)" fill="#9058FF"/>
<path d="M76.9316 42.8608L84.6349 49.3246L83.8096 50.3082L76.1062 43.8444L76.9316 42.8608ZM79.5998 46.1962L80.8224 47.2221L78.2076 50.3384L76.9849 49.3125L79.5998 46.1962ZM84.5136 41.6097C85.1203 42.1188 85.5866 42.6458 85.9125 43.1908C86.2497 43.7349 86.4262 44.2589 86.4419 44.7629C86.4576 45.2669 86.3034 45.7119 85.9795 46.098C85.6504 46.4902 85.2363 46.7224 84.7372 46.7944C84.2433 46.8604 83.6966 46.7776 83.0971 46.5461C82.5089 46.3136 81.9115 45.9429 81.3048 45.4338C80.6981 44.9247 80.2261 44.3981 79.8889 43.8541C79.563 43.3091 79.3865 42.7851 79.3596 42.2821C79.3439 41.7781 79.5006 41.3299 79.8297 40.9377C80.1536 40.5516 80.5652 40.3226 81.0642 40.2505C81.5695 40.1836 82.1161 40.2664 82.7043 40.4988C83.3038 40.7303 83.9069 41.1006 84.5136 41.6097ZM83.6945 42.5672C83.3268 42.2587 82.9742 42.0255 82.6367 41.8676C82.3053 41.7149 82.007 41.6473 81.7416 41.6648C81.4814 41.6762 81.2639 41.7861 81.0891 41.9945C80.9194 42.1967 80.8489 42.43 80.8777 42.6944C80.9065 42.9587 81.0249 43.2408 81.2328 43.5406C81.4521 43.8394 81.7455 44.1431 82.1132 44.4517C82.4932 44.7705 82.8463 45.0093 83.1725 45.1682C83.5038 45.3209 83.8022 45.3885 84.0675 45.3709C84.339 45.3586 84.5596 45.2512 84.7293 45.049C84.9041 44.8406 84.9715 44.6048 84.9314 44.3414C84.9026 44.077 84.7843 43.7949 84.5763 43.4951C84.3684 43.1953 84.0744 42.886 83.6945 42.5672ZM90.8467 47.3155L91.8579 48.1639L91.0866 49.0832C90.6135 49.647 90.0798 50.1025 89.4855 50.4498C88.9026 50.7961 88.2791 51.004 87.6151 51.0734C86.9572 51.148 86.2785 51.0484 85.5788 50.7746L85.7206 49.2801C86.3384 49.527 86.9158 49.6355 87.4526 49.6055C87.9946 49.5695 88.4847 49.4272 88.9229 49.1788C89.3724 48.9294 89.7566 48.6147 90.0754 48.2347L90.8467 47.3155ZM91.0949 47.5237L92.0877 48.3568L91.3087 49.2852C91.0824 49.5549 90.8955 49.8523 90.7479 50.1775C90.6055 50.4966 90.5162 50.8395 90.4801 51.206C90.4492 51.5665 90.4792 51.9415 90.57 52.331C90.666 52.7144 90.8394 53.1053 91.09 53.5036L89.6627 53.9351C89.2787 53.31 89.0616 52.6788 89.0115 52.0415C88.9727 51.4032 89.0686 50.7787 89.2991 50.168C89.5295 49.5573 89.8685 48.9853 90.3159 48.4522L91.0949 47.5237ZM94.8454 49.7935L96.068 50.8194L90.846 57.0427L89.6234 56.0168L94.8454 49.7935ZM93.6607 52.9976L95.1315 54.2317L94.2907 55.2337L92.8199 53.9996L93.6607 52.9976ZM84.3953 53.6038L90.1774 58.4555L89.3521 59.4391L83.57 54.5874L84.3953 53.6038ZM85.8686 51.848L87.1004 52.8816L85.1875 55.1613L83.9557 54.1277L85.8686 51.848Z" fill="white"/>
<path d="M66.9764 62.7855L69.3572 64.7833L68.8404 65.3992L66.4596 63.4014L66.9764 62.7855ZM60.1164 63.1386L67.6084 69.4251L67.0838 70.0502L59.5919 63.7637L60.1164 63.1386ZM65.0425 64.4367L65.7963 65.0693L64.161 67.0181L63.4073 66.3856L65.0425 64.4367ZM69.0355 64.5133L69.7801 65.1381L69.4715 65.5058C69.2556 65.7632 68.9579 66.093 68.5786 66.4953C68.2054 66.9027 67.7189 67.3456 67.119 67.824L66.4516 67.1073C67.0524 66.6402 67.5291 66.2152 67.8817 65.8323C68.2344 65.4493 68.5161 65.1323 68.7269 64.881L69.0355 64.5133ZM59.6773 65.3235L65.4134 70.1367L63.0454 72.9588L62.2824 72.3186L64.1259 70.1216L59.1528 65.9486L59.6773 65.3235ZM63.7682 60.0935L65.9468 61.9216L65.43 62.5375L63.2514 60.7094L63.7682 60.0935ZM65.5423 61.5822L66.2869 62.207L66.0478 62.4919C65.8421 62.7371 65.5358 63.0648 65.1287 63.4752C64.7278 63.8908 64.1753 64.3252 63.4711 64.7787L62.8282 64.0513C63.3015 63.7487 63.6937 63.4616 64.005 63.1902C64.3276 62.9178 64.5896 62.6678 64.7912 62.44C65.004 62.2113 65.1746 62.0204 65.3032 61.8671L65.5423 61.5822ZM80.156 73.2179L80.919 73.8582L75.7818 79.9804L75.0189 79.3402L80.156 73.2179ZM78.5588 76.1855L80.0204 77.412L79.4882 78.0463L78.0266 76.8198L78.5588 76.1855ZM69.4417 77.0258L74.9848 81.677L74.4603 82.3021L68.9172 77.6509L69.4417 77.0258ZM71.131 75.0126L71.8847 75.6451L69.9872 77.9065L69.2334 77.274L71.131 75.0126ZM76.2887 70.9754C76.7054 71.3251 77.0016 71.7251 77.1773 72.1753C77.3581 72.6195 77.415 73.0745 77.3478 73.5403C77.2807 74.0061 77.0774 74.4413 76.738 74.8457C76.4089 75.2379 76.0183 75.5106 75.566 75.6638C75.1138 75.8169 74.6507 75.846 74.1768 75.7512C73.708 75.6503 73.2652 75.425 72.8485 75.0753C72.4379 74.7308 72.1391 74.3339 71.9522 73.8846C71.7765 73.4343 71.7248 72.9732 71.7971 72.5012C71.8694 72.0293 72.0701 71.5972 72.3992 71.205C72.7386 70.8005 73.1318 70.5248 73.5789 70.3778C74.026 70.2308 74.4839 70.2077 74.9527 70.3087C75.4328 70.4086 75.8781 70.6309 76.2887 70.9754ZM75.7333 71.6373C75.4637 71.411 75.1728 71.2661 74.8606 71.2026C74.5484 71.139 74.2405 71.1575 73.937 71.2578C73.6396 71.3633 73.3752 71.554 73.1438 71.8298C72.9175 72.0994 72.7782 72.3898 72.726 72.7011C72.6798 73.0174 72.7151 73.3238 72.8319 73.6202C72.9487 73.9166 73.1419 74.178 73.4116 74.4042C73.6812 74.6305 73.9722 74.7754 74.2843 74.8389C74.6027 74.9076 74.9105 74.8892 75.2079 74.7837C75.5115 74.6833 75.7764 74.4983 76.0026 74.2287C76.234 73.9529 76.3728 73.6568 76.419 73.3405C76.4712 73.0293 76.4359 72.7229 76.313 72.4213C76.1962 72.1249 76.003 71.8635 75.7333 71.6373ZM82.592 81.1833L90.1115 87.4929L89.5947 88.1088L82.0752 81.7992L82.592 81.1833ZM84.6738 80.7371L90.2905 85.45L89.7737 86.0659L84.157 81.353L84.6738 80.7371ZM86.2782 78.825L91.8121 83.4685L91.2953 84.0844L86.5152 80.0734L85.0188 81.8568L84.265 81.2243L86.2782 78.825ZM82.3759 83.289L88.0109 88.0174L86.3756 89.9662L81.5036 85.878L80.6243 86.926L79.8797 86.3012L81.2372 84.6833L86.1093 88.7714L86.7649 87.9901L81.8745 83.8865L82.3759 83.289ZM80.0494 86.099L85.9142 91.0201L85.4051 91.6269L79.5403 86.7057L80.0494 86.099ZM94.0619 86.3119L99.4119 90.8011L98.8874 91.4262L93.5374 86.9369L94.0619 86.3119ZM88.4952 91.3218L96.0055 97.6237L95.4733 98.2579L87.963 91.9561L88.4952 91.3218ZM93.9099 90.8055L94.6637 91.438L91.9023 94.7289L91.1485 94.0964L93.9099 90.8055ZM99.1178 90.5543L99.8808 91.1945L99.1943 92.0126C98.9063 92.3558 98.5968 92.7122 98.2657 93.0819C97.9407 93.4567 97.5666 93.8529 97.1431 94.2704C96.7258 94.693 96.2311 95.1395 95.659 95.6097L94.9639 94.8699C95.7918 94.2069 96.4699 93.5854 96.9984 93.0054C97.532 92.4192 98.0096 91.8749 98.4313 91.3724L99.1178 90.5543ZM101.296 98.4911L108.806 104.793L108.281 105.418L100.771 99.1161L101.296 98.4911ZM105.695 100.099L106.458 100.739L105.162 102.284L104.399 101.644L105.695 100.099ZM99.6692 102.39L105.378 107.18L104.853 107.805L99.1447 103.015L99.6692 102.39ZM101.166 100.606L101.929 101.247L100.27 103.223L99.5072 102.583L101.166 100.606ZM108.548 97.4647C109.143 97.9635 109.601 98.4629 109.923 98.9628C110.256 99.4618 110.437 99.9371 110.465 100.389C110.498 100.835 110.371 101.229 110.083 101.572C109.79 101.922 109.418 102.122 108.969 102.172C108.524 102.217 108.024 102.121 107.47 101.886C106.927 101.65 106.358 101.282 105.764 100.783C105.169 100.284 104.705 99.7856 104.372 99.2866C104.05 98.7867 103.872 98.3139 103.839 97.8682C103.811 97.4164 103.943 97.0158 104.237 96.6665C104.524 96.3233 104.891 96.1294 105.336 96.0848C105.785 96.0341 106.282 96.127 106.825 96.3634C107.379 96.5988 107.954 96.9659 108.548 97.4647ZM108.031 98.0806C107.602 97.7207 107.189 97.4473 106.793 97.2606C106.407 97.0728 106.059 96.9841 105.747 96.9943C105.441 96.9984 105.198 97.1077 105.018 97.3222C104.833 97.5428 104.765 97.8042 104.814 98.1066C104.863 98.4089 105.011 98.7367 105.258 99.0899C105.516 99.4421 105.859 99.7982 106.288 100.158C106.729 100.528 107.143 100.807 107.528 100.995C107.919 101.177 108.264 101.263 108.565 101.254C108.871 101.25 109.116 101.137 109.302 100.917C109.482 100.702 109.547 100.444 109.498 100.141C109.46 99.8381 109.315 99.5129 109.063 99.1658C108.817 98.8126 108.473 98.4509 108.031 98.0806ZM121.738 108.109L122.501 108.749L118.984 112.941L118.221 112.301L121.738 108.109ZM120.847 110.291L122.281 111.494L121.741 112.138L120.307 110.935L120.847 110.291ZM116.134 104.034L116.897 104.674L114.221 107.864L113.458 107.224L116.134 104.034ZM113.797 106.819L114.459 107.375C115.054 107.874 115.684 108.361 116.35 108.836C117.022 109.306 117.751 109.756 118.538 110.186L118.098 110.898C117.281 110.453 116.534 109.993 115.856 109.518C115.184 109.038 114.538 108.538 113.919 108.018L113.257 107.463L113.797 106.819ZM113.358 108.91L118.644 113.346L116.932 115.386L112.427 111.607L111.371 112.866L110.617 112.234L112.167 110.386L116.662 114.158L117.372 113.312L112.849 109.517L113.358 108.91ZM110.879 111.921L116.431 116.58L115.907 117.205L110.355 112.546L110.879 111.921ZM125.163 116.497L126.725 117.808L126.201 118.433L124.638 117.122L125.163 116.497ZM130.838 115.745L131.573 116.362L124.592 124.681L123.857 124.064L130.838 115.745ZM129.037 114.531L129.763 115.141L123.283 122.862L122.557 122.253L129.037 114.531ZM125.784 112.695C126.146 112.998 126.36 113.377 126.428 113.831C126.503 114.29 126.431 114.799 126.213 115.357C125.995 115.916 125.639 116.489 125.145 117.078C124.646 117.672 124.141 118.125 123.629 118.437C123.117 118.749 122.625 118.911 122.155 118.924C121.696 118.935 121.286 118.79 120.924 118.486C120.575 118.193 120.363 117.817 120.289 117.358C120.226 116.898 120.304 116.388 120.522 115.83C120.74 115.271 121.098 114.695 121.597 114.1C122.091 113.512 122.594 113.062 123.106 112.75C123.618 112.439 124.103 112.277 124.562 112.265C125.027 112.258 125.435 112.402 125.784 112.695ZM125.19 113.403C124.976 113.223 124.714 113.155 124.406 113.199C124.097 113.243 123.764 113.391 123.405 113.644C123.047 113.897 122.68 114.247 122.305 114.694C121.929 115.142 121.646 115.567 121.454 115.97C121.267 116.367 121.179 116.721 121.189 117.032C121.199 117.343 121.312 117.589 121.526 117.769C121.747 117.954 122.011 118.025 122.32 117.981C122.634 117.942 122.971 117.796 123.329 117.543C123.693 117.284 124.062 116.931 124.437 116.484C124.813 116.036 125.094 115.614 125.281 115.218C125.467 114.821 125.553 114.464 125.536 114.148C125.526 113.836 125.411 113.588 125.19 113.403ZM132.668 118.565L136.492 121.774L133.268 125.617L129.444 122.408L132.668 118.565ZM135.231 121.765L132.896 119.806L130.705 122.417L133.04 124.376L135.231 121.765ZM138.651 122.301L139.414 122.941L134.3 129.036L133.537 128.395L138.651 122.301ZM137.053 125.268L138.515 126.495L137.983 127.129L136.521 125.903L137.053 125.268ZM127.936 126.109L133.479 130.76L132.955 131.385L127.412 126.734L127.936 126.109ZM129.61 124.114L130.364 124.746L128.466 127.008L127.713 126.375L129.61 124.114ZM150.042 131.859L150.805 132.499L143.816 140.828L143.053 140.188L150.042 131.859ZM143.877 127.893L144.64 128.533L142.804 130.721L145.204 132.734L147.039 130.546L147.793 131.178L143.08 136.795L139.164 133.509L143.877 127.893ZM142.295 131.327L140.46 133.515L142.859 135.528L144.695 133.341L142.295 131.327ZM158.085 138.608L158.848 139.248L151.875 147.558L151.112 146.918L158.085 138.608ZM155.814 142.452L157.34 143.732L156.808 144.367L155.282 143.086L155.814 142.452ZM155.213 137.718L155.957 138.342C155.294 139.133 154.53 139.782 153.666 140.289C152.807 140.79 151.845 141.116 150.779 141.266C149.718 141.41 148.55 141.327 147.274 141.019L147.344 140.075C148.441 140.337 149.459 140.424 150.4 140.336C151.351 140.247 152.218 139.993 152.999 139.572C153.791 139.151 154.496 138.573 155.113 137.837L155.213 137.718ZM152.143 135.141L155.599 138.042L155.067 138.676L151.61 135.776L152.143 135.141ZM159.79 147.574L167.301 153.876L166.776 154.501L159.266 148.199L159.79 147.574ZM164.19 149.182L164.953 149.822L163.657 151.367L162.894 150.726L164.19 149.182ZM158.164 151.473L163.872 156.263L163.348 156.888L157.639 152.098L158.164 151.473ZM159.66 149.689L160.423 150.329L158.765 152.306L158.002 151.666L159.66 149.689ZM167.043 146.548C167.637 147.046 168.096 147.546 168.417 148.046C168.751 148.545 168.931 149.02 168.96 149.472C168.993 149.917 168.866 150.312 168.578 150.655C168.285 151.004 167.913 151.204 167.463 151.255C167.019 151.3 166.519 151.204 165.965 150.969C165.422 150.732 164.853 150.365 164.258 149.866C163.664 149.367 163.2 148.868 162.867 148.369C162.545 147.87 162.367 147.397 162.334 146.951C162.306 146.499 162.438 146.099 162.731 145.749C163.019 145.406 163.385 145.212 163.83 145.168C164.28 145.117 164.777 145.21 165.32 145.446C165.874 145.682 166.448 146.049 167.043 146.548ZM166.526 147.163C166.097 146.804 165.684 146.53 165.287 146.343C164.902 146.156 164.553 146.067 164.242 146.077C163.936 146.081 163.693 146.191 163.513 146.405C163.327 146.626 163.259 146.887 163.309 147.189C163.358 147.492 163.506 147.82 163.752 148.173C164.01 148.525 164.354 148.881 164.783 149.241C165.224 149.611 165.637 149.89 166.023 150.078C166.414 150.26 166.759 150.346 167.059 150.337C167.365 150.332 167.611 150.22 167.796 149.999C167.976 149.785 168.042 149.527 167.993 149.224C167.955 148.921 167.81 148.596 167.558 148.249C167.311 147.895 166.967 147.534 166.526 147.163ZM177.583 154.969L178.346 155.609L171.357 163.937L170.594 163.297L177.583 154.969ZM175.417 158.744L176.953 160.032L176.42 160.667L174.885 159.378L175.417 158.744ZM167.61 156.156L168.263 156.704C168.772 157.131 169.242 157.515 169.676 157.858C170.12 158.2 170.556 158.514 170.985 158.8C171.419 159.091 171.872 159.372 172.345 159.643L171.889 160.373C171.398 160.087 170.933 159.795 170.492 159.499C170.058 159.207 169.618 158.885 169.172 158.532C168.727 158.18 168.244 157.785 167.723 157.347L167.07 156.8L167.61 156.156ZM171.637 151.358L175.488 154.59L174.964 155.215L171.866 152.615L168.117 157.083L167.363 156.451L171.637 151.358ZM174.797 165.675C174.636 165.54 174.547 165.367 174.528 165.155C174.51 164.942 174.568 164.756 174.703 164.595C174.838 164.434 175.012 164.344 175.224 164.325C175.436 164.307 175.623 164.365 175.784 164.5C175.945 164.635 176.034 164.809 176.053 165.021C176.072 165.233 176.013 165.42 175.878 165.581C175.789 165.688 175.679 165.763 175.55 165.806C175.423 165.852 175.292 165.864 175.157 165.844C175.026 165.823 174.906 165.767 174.797 165.675Z" fill="white"/>
</svg>
