<svg width="300" height="325" viewBox="0 0 300 325" fill="none" xmlns="http://www.w3.org/2000/svg">
<rect x="0.688477" y="249.048" width="324.649" height="117.921" transform="rotate(-50 0.688477 249.048)" fill="#9058FF"/>
<path d="M40.6431 242.615C41.0134 242.174 41.4257 241.857 41.8801 241.664C42.3336 241.459 42.7896 241.383 43.2483 241.433C43.7061 241.473 44.1249 241.652 44.5049 241.971C44.8848 242.29 45.137 242.673 45.2615 243.123C45.385 243.56 45.3855 244.02 45.263 244.502C45.1456 244.978 44.9018 245.437 44.5316 245.878C44.1716 246.307 43.7649 246.624 43.3115 246.828C42.858 247.032 42.4025 247.115 41.9447 247.075C41.486 247.025 41.0667 246.84 40.6867 246.521C40.3068 246.202 40.052 245.821 39.9224 245.378C39.7979 244.929 39.7969 244.464 39.9194 243.982C40.0419 243.5 40.2832 243.044 40.6431 242.615ZM41.6436 243.439C41.4688 243.647 41.3518 243.868 41.2926 244.1C41.2273 244.327 41.224 244.549 41.2827 244.765C41.3465 244.976 41.4795 245.165 41.6818 245.335C41.884 245.505 42.0972 245.605 42.3214 245.637C42.5447 245.657 42.7599 245.618 42.9671 245.521C43.1795 245.417 43.3757 245.258 43.5557 245.043C43.7305 244.835 43.848 244.62 43.9082 244.399C43.9735 244.172 43.9742 243.953 43.9104 243.743C43.8456 243.522 43.7121 243.326 43.5098 243.157C43.3076 242.987 43.0949 242.892 42.8716 242.872C42.6536 242.845 42.4383 242.884 42.2259 242.988C42.0074 243.086 41.8133 243.237 41.6436 243.439ZM43.3044 238.958L44.3303 237.736L48.5864 241.307L47.5605 242.53L43.3044 238.958ZM44.1765 247.272L48.9357 241.6L51.2614 243.552L47.5204 248.01L48.5592 248.882L47.5487 250.086L45.6275 248.474L49.3608 244.025L48.8552 243.6L45.1142 248.059L44.1765 247.272ZM47.0431 249.662L51.972 243.788L52.928 244.59L47.9991 250.464L47.0431 249.662ZM50.4064 230.476L51.4323 229.253L59.9446 236.396L58.9187 237.618L50.4064 230.476ZM49.1831 233.726L50.1936 232.522C50.8432 233.067 51.4112 233.653 51.8977 234.28C52.3831 234.897 52.7629 235.57 53.037 236.302C53.3162 237.027 53.4661 237.831 53.4867 238.715C53.5062 239.588 53.3836 240.556 53.1188 241.618L51.6137 241.452C51.9044 240.296 52.0139 239.276 51.9421 238.391C51.8693 237.494 51.6196 236.684 51.1929 235.96C50.76 235.232 50.1636 234.549 49.4037 233.911L49.1831 233.726ZM46.7688 236.603L49.6613 233.156L50.6357 233.973L47.7432 237.421L46.7688 236.603ZM58.5059 229.597L59.524 228.384L61.5372 230.073L60.519 231.287L58.5059 229.597ZM55.1923 225.799C55.5574 225.364 55.9754 225.046 56.4462 224.846C56.9171 224.646 57.3967 224.578 57.885 224.643C58.3673 224.703 58.8106 224.903 59.2151 225.242C59.6196 225.582 59.8963 225.986 60.0453 226.456C60.1943 226.926 60.2111 227.41 60.0957 227.908C59.9803 228.407 59.74 228.873 59.3749 229.308C59.0047 229.75 58.5842 230.07 58.1133 230.271C57.6425 230.471 57.1629 230.538 56.6745 230.473C56.1861 230.408 55.7397 230.206 55.3352 229.866C54.9308 229.527 54.6571 229.125 54.5143 228.66C54.3653 228.191 54.3485 227.707 54.4639 227.208C54.5793 226.71 54.8221 226.24 55.1923 225.799ZM56.2311 226.67C56.046 226.891 55.9243 227.123 55.8661 227.367C55.807 227.599 55.8159 227.831 55.893 228.063C55.9639 228.29 56.1097 228.495 56.3303 228.68C56.557 228.871 56.7912 228.984 57.0328 229.019C57.2683 229.05 57.4984 229.018 57.723 228.925C57.9467 228.82 58.1511 228.657 58.3362 228.437C58.5162 228.222 58.6357 227.999 58.6949 227.767C58.7531 227.523 58.7467 227.288 58.6758 227.061C58.5987 226.83 58.4468 226.619 58.2201 226.428C57.9995 226.243 57.7714 226.135 57.5359 226.105C57.2943 226.069 57.0617 226.104 56.838 226.209C56.6134 226.302 56.4111 226.456 56.2311 226.67ZM57.1936 222.387L58.2195 221.164L66.7318 228.307L65.7059 229.53L57.1936 222.387ZM61.2401 224.341L62.4974 222.843L63.5086 223.691L62.2513 225.19L61.2401 224.341ZM59.4481 233.552L58.3411 232.874C58.7525 232.384 59.1994 231.845 59.6818 231.258C60.1641 230.67 60.6446 230.061 61.123 229.428C61.6015 228.796 62.0405 228.167 62.44 227.541L63.3996 228.19C63.0163 228.871 62.5946 229.535 62.1345 230.183C61.6735 230.819 61.2095 231.422 60.7425 231.991C60.2807 232.554 59.8492 233.074 59.4481 233.552ZM62.3752 216.679L67.7052 210.327L68.6245 211.098L63.2945 217.45L62.3752 216.679ZM64.424 218.288L69.6383 212.074L70.5575 212.845L65.3433 219.059L64.424 218.288ZM63.6439 215.895L64.6698 214.672L66.8944 216.539L65.8685 217.761L63.6439 215.895ZM66.1277 212.935L67.1535 211.712L69.3781 213.579L68.3522 214.801L66.1277 212.935ZM65.1582 220.157L71.6221 212.454L72.5781 213.256L66.1142 220.96L65.1582 220.157ZM67.3236 220.47L72.2602 214.587L74.3836 216.369L70.4729 221.03L71.2635 221.693L70.2453 222.906L68.6366 221.557L72.555 216.887L72.123 216.524L68.1968 221.203L67.3236 220.47ZM69.9052 222.621L75.0269 216.517L75.9186 217.265L70.7969 223.369L69.9052 222.621ZM74.5137 213.19L75.015 212.592C75.4419 212.084 75.8415 211.589 76.2139 211.107C76.5802 210.621 76.9416 210.078 77.298 209.479L78.368 210.221C78.0022 210.843 77.6285 211.407 77.2468 211.911C76.864 212.405 76.4541 212.912 76.017 213.433L75.5157 214.03L74.5137 213.19ZM69.6997 209.182L72.4072 205.955L75.6981 208.717L74.0011 210.739L75.8672 212.305L74.8722 213.491L72.0409 211.115L73.7456 209.083L72.3851 207.942L70.665 209.992L69.6997 209.182ZM73.8384 202.551L74.818 201.383L83.3303 208.526L82.3507 209.693L73.8384 202.551ZM76.107 206.381L77.2949 204.965L78.2785 205.791L77.0906 207.206L76.107 206.381ZM72.3888 204.577L73.3376 203.446L81.3075 210.134L80.3587 211.264L72.3888 204.577ZM80.7491 194.315L81.7749 193.092L90.3148 200.258L89.2889 201.481L80.7491 194.315ZM81.4667 198.817L83.6881 196.17L84.6717 196.995L82.4503 199.643L81.4667 198.817ZM77.0542 200.566L78.0724 199.353L83.3673 203.796L82.3491 205.009L77.0542 200.566ZM81.6688 204.438L82.2782 203.712C82.6176 203.308 82.9504 202.893 83.2765 202.467C83.6017 202.029 83.9197 201.576 84.2307 201.105C84.5416 200.635 84.8367 200.147 85.116 199.64L86.226 200.352C85.9374 200.882 85.6355 201.391 85.3204 201.879C84.9992 202.361 84.6709 202.827 84.3354 203.277C83.9939 203.721 83.6482 204.152 83.2986 204.568L82.6892 205.295L81.6688 204.438Z" fill="white"/>
<path d="M63.0726 263.68L67.855 257.981L68.48 258.505L63.6977 264.205L63.0726 263.68ZM64.1288 266.211L70.4538 258.673L71.0881 259.205L64.7631 266.743L64.1288 266.211ZM67.2843 263.141L67.9245 262.378L71.243 265.163L70.6028 265.926L67.2843 263.141ZM60.7009 261.69L61.3412 260.927L64.0162 263.172L63.376 263.935L60.7009 261.69ZM67.3585 253.774L67.991 253.021L69.2596 254.085L71.2574 251.704L69.9888 250.64L70.6213 249.886L74.4822 253.126L71.2194 257.014L67.3585 253.774ZM69.8755 254.602L71.236 255.743L73.2338 253.363L71.8733 252.221L69.8755 254.602ZM71.6486 247.803L72.2888 247.04L77.1241 251.097L76.4839 251.86L71.6486 247.803ZM73.0699 256.844L77.5745 251.475L80.4793 253.913L75.9747 259.281L73.0699 256.844ZM77.5564 252.729L74.3013 256.608L75.9744 258.012L79.2295 254.133L77.5564 252.729ZM83.1459 243.193L83.7784 242.439L85.2033 243.634L84.5708 244.388L83.1459 243.193ZM79.9014 246.219L86.2033 238.709L86.8192 239.226L80.5173 246.736L79.9014 246.219ZM82.1845 246.709L87.0054 240.964L89.6712 243.201L89.031 243.964L86.9902 242.252L82.8095 247.234L82.1845 246.709ZM76.8552 241.971L77.4877 241.218L78.4346 242.012L81.813 237.986L80.8662 237.191L81.4987 236.437L84.615 239.052L79.9715 244.586L76.8552 241.971ZM79.0229 242.506L79.9881 243.316L83.3666 239.289L82.4014 238.479L79.0229 242.506ZM86.6893 231.614L87.3063 230.879C87.9069 231.383 88.4407 231.935 88.9078 232.536C89.3801 233.131 89.7558 233.791 90.035 234.516C90.3194 235.235 90.4852 236.027 90.5324 236.891C90.5848 237.75 90.4864 238.701 90.237 239.745L89.2938 239.674C89.5038 238.764 89.5979 237.924 89.5759 237.154C89.5539 236.384 89.4293 235.673 89.2021 235.023C88.9748 234.373 88.6557 233.776 88.2448 233.233C87.8329 232.678 87.3419 232.162 86.772 231.684L86.6893 231.614ZM84.167 234.62L87.0749 231.155L87.7 231.679L84.792 235.145L84.167 234.62ZM88.7098 233.388L89.2981 233.882L86.8786 237.381L86.1011 236.964L88.7098 233.388ZM88.0235 228.269L88.656 227.516L96.9752 234.496L96.3427 235.25L88.0235 228.269ZM89.756 232.981L91.6689 230.702L92.3032 231.234L90.3903 233.514L89.756 232.981ZM95.127 219.804L95.7595 219.05L104.088 226.038L103.455 226.792L95.127 219.804ZM96.3799 224.583L98.4008 222.175L99.0259 222.699L97.005 225.108L96.3799 224.583ZM90.951 226.106L91.5912 225.343L93.7515 227.156L95.6876 224.848L93.5273 223.036L94.1521 222.291L99.732 226.973L96.5309 230.788L90.951 226.106ZM94.3582 227.665L96.546 229.501L98.4821 227.193L96.2943 225.357L94.3582 227.665ZM103.183 216.774L104.494 215.212L105.119 215.736L103.808 217.299L103.183 216.774ZM102.431 211.099L103.048 210.364L111.367 217.344L110.75 218.08L102.431 211.099ZM101.217 212.9L101.827 212.174L109.548 218.654L108.939 219.38L101.217 212.9ZM99.3809 216.153C99.6843 215.791 100.063 215.577 100.517 215.508C100.976 215.434 101.485 215.506 102.043 215.724C102.602 215.942 103.175 216.298 103.764 216.792C104.358 217.29 104.811 217.796 105.123 218.308C105.435 218.82 105.597 219.312 105.61 219.782C105.621 220.241 105.476 220.651 105.172 221.012C104.879 221.362 104.503 221.574 104.044 221.648C103.584 221.711 103.074 221.633 102.516 221.415C101.957 221.197 101.381 220.839 100.786 220.34C100.198 219.846 99.748 219.343 99.4363 218.831C99.1246 218.319 98.9629 217.833 98.9512 217.375C98.9445 216.91 99.0878 216.502 99.3809 216.153ZM100.089 216.747C99.9087 216.961 99.8408 217.223 99.8848 217.531C99.9288 217.84 100.077 218.173 100.33 218.532C100.583 218.89 100.933 219.257 101.38 219.632C101.828 220.008 102.253 220.291 102.656 220.483C103.053 220.67 103.407 220.758 103.718 220.748C104.03 220.738 104.275 220.625 104.455 220.411C104.64 220.19 104.711 219.926 104.667 219.617C104.628 219.303 104.482 218.966 104.229 218.608C103.97 218.244 103.617 217.875 103.17 217.5C102.722 217.124 102.3 216.843 101.904 216.656C101.507 216.47 101.15 216.384 100.834 216.401C100.522 216.411 100.274 216.526 100.089 216.747ZM107.343 205.506L107.976 204.752L108.757 205.408L112.136 201.382L111.354 200.726L111.987 199.972L114.735 202.279L110.092 207.813L107.343 205.506ZM109.336 205.894L110.127 206.557L113.505 202.531L112.715 201.868L109.336 205.894ZM110.059 209.476L116.361 201.966L116.976 202.483L110.675 209.993L110.059 209.476ZM111.797 205.202L112.43 204.448L113.707 205.52L113.075 206.274L111.797 205.202ZM112.118 209.654L116.847 204.019L118.704 205.577L114.616 210.449L115.636 211.305L115.011 212.05L113.439 210.731L117.527 205.859L116.801 205.249L112.698 210.14L112.118 209.654ZM114.79 211.865L119.712 206L120.309 206.501L115.388 212.366L114.79 211.865ZM118.769 191.629L119.378 190.902L125.611 196.132L125.001 196.858L118.769 191.629ZM119.005 196.276L120.193 194.86L120.818 195.384L119.63 196.8L119.005 196.276ZM117.655 193.31L118.257 192.593L124.113 197.507L123.511 198.224L117.655 193.31ZM114.37 198.495L117.617 194.625L118.233 195.142L114.986 199.012L114.37 198.495ZM118.333 201.931L117.62 201.473C117.851 201.198 118.114 200.885 118.407 200.536C118.699 200.175 118.996 199.803 119.297 199.419C119.604 199.028 119.902 198.642 120.192 198.259C120.481 197.864 120.741 197.487 120.97 197.126L121.571 197.567C121.274 198.07 120.934 198.588 120.549 199.122C120.164 199.655 119.777 200.166 119.388 200.654C118.993 201.137 118.641 201.563 118.333 201.931ZM115.406 198.175L116 197.467L119.08 200.051L118.486 200.759L115.406 198.175ZM116.88 196.419L117.466 195.72L120.545 198.304L119.959 199.003L116.88 196.419ZM122.353 202.609L127.089 196.965L127.714 197.49L122.978 203.134L122.353 202.609ZM120.349 200.928L120.997 200.156L123.323 202.107L122.675 202.879L120.349 200.928ZM121.799 189.865L124.947 186.114L125.572 186.639L122.425 190.389L121.799 189.865ZM125.268 190.567L125.9 189.813L128.713 192.173L128.081 192.927L125.268 190.567ZM124.684 186.427L125.317 185.673L125.767 186.051C126.104 186.334 126.535 186.716 127.06 187.199C127.59 187.675 128.192 188.295 128.867 189.059L128.17 189.759C127.519 189.004 126.935 188.394 126.417 187.928C125.899 187.462 125.472 187.088 125.135 186.805L124.684 186.427ZM125.278 183.871L125.919 183.108L134.238 190.088L133.598 190.851L125.278 183.871ZM129.216 186.235L130.504 184.7L131.157 185.247L129.869 186.783L129.216 186.235ZM127.08 194.922L126.369 194.482C126.779 193.981 127.228 193.433 127.715 192.84C128.202 192.235 128.681 191.614 129.154 190.976C129.631 190.333 130.07 189.704 130.471 189.089L131.079 189.522C130.688 190.175 130.259 190.823 129.793 191.465C129.332 192.102 128.869 192.716 128.404 193.308C127.933 193.894 127.491 194.432 127.08 194.922ZM134.613 172.746L135.253 171.983L140.263 176.187L139.623 176.95L134.613 172.746ZM137.282 174.046L138.485 172.612L139.129 173.152L137.925 174.586L137.282 174.046ZM136.351 181.802L140.732 176.58L143.462 178.871L139.081 184.093L136.351 181.802ZM140.715 177.851L137.591 181.574L139.081 182.824L142.205 179.101L140.715 177.851ZM130.736 179.159L134.855 174.25L135.471 174.767L131.352 179.675L130.736 179.159ZM133.825 177.568C134.16 177.17 134.511 176.875 134.881 176.684C135.255 176.486 135.625 176.4 135.991 176.425C136.35 176.444 136.677 176.577 136.971 176.824C137.272 177.076 137.463 177.378 137.545 177.728C137.626 178.079 137.602 178.456 137.473 178.859C137.349 179.256 137.12 179.653 136.785 180.052C136.451 180.45 136.097 180.748 135.722 180.945C135.353 181.137 134.986 181.226 134.621 181.212C134.262 181.192 133.932 181.057 133.631 180.805C133.337 180.558 133.149 180.259 133.068 179.909C132.985 179.547 133.006 179.167 133.13 178.77C133.259 178.367 133.491 177.966 133.825 177.568ZM134.414 178.062C134.095 178.442 133.917 178.815 133.881 179.181C133.85 179.542 133.973 179.838 134.249 180.069C134.524 180.301 134.84 180.372 135.196 180.285C135.551 180.185 135.887 179.946 136.206 179.566C136.52 179.192 136.695 178.822 136.731 178.455C136.761 178.083 136.638 177.782 136.362 177.551C136.086 177.319 135.771 177.253 135.416 177.352C135.067 177.445 134.732 177.682 134.414 178.062ZM131.533 176.287L132.173 175.524L133.432 176.58L132.792 177.343L131.533 176.287ZM139.101 169.433L139.648 168.78C140.09 169.15 140.525 169.552 140.955 169.986C141.384 170.408 141.784 170.865 142.156 171.354C142.528 171.833 142.854 172.352 143.136 172.913C143.423 173.467 143.643 174.064 143.795 174.703L142.945 175.008C142.819 174.411 142.631 173.857 142.382 173.345C142.138 172.827 141.848 172.344 141.514 171.896C141.173 171.443 140.804 171.018 140.406 170.622C140.002 170.22 139.585 169.839 139.156 169.479L139.101 169.433ZM138.09 170.637L139.417 169.056L140.042 169.58L138.715 171.161L138.09 170.637ZM140.636 167.603L141.183 166.951C141.619 167.316 142.071 167.722 142.542 168.169C143.018 168.61 143.478 169.095 143.922 169.624C144.37 170.147 144.767 170.714 145.11 171.326C145.453 171.938 145.709 172.597 145.879 173.303L145.028 173.607C144.908 173.078 144.737 172.58 144.514 172.111C144.29 171.631 144.029 171.182 143.732 170.765C143.428 170.343 143.11 169.951 142.777 169.588C142.438 169.22 142.09 168.876 141.733 168.555C141.375 168.234 141.028 167.933 140.691 167.65L140.636 167.603ZM139.872 168.513L140.975 167.199L141.6 167.723L140.497 169.038L139.872 168.513ZM142.272 163.619L142.889 162.883L151.208 169.864L150.591 170.599L142.272 163.619ZM143.121 169.234L144.378 167.736L145.012 168.268L143.755 169.767L143.121 169.234ZM141.204 165.339L141.806 164.622L149.482 171.063L148.88 171.78L141.204 165.339ZM149.674 161.854L155.984 154.334L156.6 154.851L150.29 162.371L149.674 161.854ZM149.228 159.772L153.941 154.155L154.557 154.672L149.844 160.289L149.228 159.772ZM147.316 158.168L151.959 152.634L152.575 153.151L148.564 157.931L150.348 159.427L149.715 160.181L147.316 158.168ZM151.78 162.07L156.508 156.435L158.457 158.07L154.369 162.942L155.417 163.822L154.792 164.566L153.174 163.209L157.262 158.337L156.481 157.681L152.377 162.571L151.78 162.07ZM154.59 164.396L159.511 158.532L160.118 159.041L155.196 164.906L154.59 164.396ZM155.797 148.806C156.137 148.402 156.557 148.144 157.058 148.032C157.554 147.914 158.091 147.953 158.67 148.146C159.254 148.334 159.84 148.674 160.429 149.168C161.017 149.661 161.454 150.18 161.74 150.722C162.031 151.259 162.165 151.784 162.142 152.297C162.119 152.81 161.937 153.269 161.598 153.674C161.264 154.072 160.843 154.33 160.337 154.448C159.836 154.56 159.293 154.523 158.709 154.335C158.13 154.142 157.546 153.798 156.958 153.304C156.369 152.811 155.93 152.296 155.638 151.759C155.352 151.216 155.224 150.691 155.254 150.183C155.282 149.663 155.463 149.205 155.797 148.806ZM156.478 149.377C156.257 149.641 156.153 149.951 156.167 150.307C156.175 150.659 156.299 151.034 156.538 151.433C156.777 151.821 157.12 152.203 157.567 152.578C158.014 152.954 158.453 153.228 158.882 153.4C159.311 153.561 159.702 153.618 160.056 153.57C160.409 153.522 160.697 153.366 160.918 153.103C161.144 152.833 161.25 152.52 161.236 152.163C161.222 151.807 161.095 151.435 160.857 151.047C160.618 150.647 160.274 150.26 159.827 149.885C159.38 149.509 158.942 149.241 158.513 149.08C158.083 148.907 157.695 148.848 157.347 148.901C156.994 148.949 156.704 149.107 156.478 149.377ZM158.401 144.396L159.034 143.643L167.362 150.631L166.73 151.385L158.401 144.396ZM159.853 149.107L161.858 146.717L162.474 147.234L160.469 149.624L159.853 149.107ZM167.247 144.253L167.748 143.656L168.189 144.026C168.551 144.33 168.845 144.701 169.07 145.142C169.296 145.582 169.429 146.059 169.468 146.572C169.513 147.079 169.439 147.597 169.246 148.124L168.369 148.031C168.534 147.573 168.605 147.127 168.584 146.692C168.568 146.25 168.483 145.855 168.327 145.505C168.171 145.144 167.958 144.85 167.688 144.624L167.247 144.253ZM167.393 144.079L167.864 143.518L168.305 143.888C168.587 144.125 168.912 144.304 169.28 144.425C169.649 144.546 170.039 144.591 170.451 144.561C170.868 144.524 171.28 144.4 171.687 144.189L172.004 144.987C171.505 145.258 171.007 145.404 170.509 145.425C170.016 145.439 169.541 145.359 169.083 145.183C168.618 145.002 168.202 144.758 167.834 144.449L167.393 144.079ZM169.831 141.174L170.301 140.613L170.742 140.983C171.067 141.256 171.353 141.606 171.601 142.033C171.853 142.454 172.025 142.921 172.115 143.436C172.205 143.939 172.168 144.456 172.004 144.987L171.147 144.832C171.272 144.373 171.307 143.932 171.253 143.511C171.193 143.085 171.075 142.703 170.897 142.367C170.719 142.019 170.511 141.745 170.272 141.544L169.831 141.174ZM169.954 141.027L170.455 140.429L170.897 140.8C171.185 141.041 171.518 141.211 171.895 141.308C172.278 141.4 172.682 141.416 173.109 141.356C173.534 141.284 173.955 141.125 174.37 140.879L174.615 141.726C174.128 142.007 173.635 142.178 173.135 142.239C172.629 142.295 172.142 142.252 171.676 142.111C171.208 141.959 170.781 141.721 170.395 141.397L169.954 141.027ZM165.475 135.984L166.116 135.221L170.859 139.202L170.219 139.965L165.475 135.984ZM162.853 140.081C163.208 139.658 163.604 139.354 164.042 139.168C164.48 138.982 164.923 138.92 165.372 138.983C165.819 139.035 166.236 139.223 166.622 139.547C167.002 139.866 167.256 140.241 167.385 140.672C167.519 141.098 167.532 141.543 167.425 142.006C167.318 142.47 167.087 142.913 166.732 143.336C166.382 143.753 165.986 144.057 165.543 144.249C165.105 144.435 164.662 144.502 164.215 144.451C163.772 144.393 163.361 144.204 162.981 143.886C162.595 143.562 162.335 143.187 162.201 142.761C162.067 142.325 162.053 141.874 162.16 141.411C162.272 140.941 162.503 140.498 162.853 140.081ZM163.496 140.621C163.27 140.89 163.122 141.179 163.052 141.486C162.983 141.793 162.992 142.093 163.08 142.386C163.167 142.668 163.342 142.92 163.606 143.141C163.863 143.357 164.141 143.486 164.44 143.528C164.738 143.559 165.033 143.513 165.323 143.391C165.613 143.269 165.871 143.073 166.098 142.804C166.329 142.528 166.48 142.237 166.549 141.93C166.619 141.622 166.61 141.328 166.523 141.046C166.43 140.759 166.254 140.507 165.997 140.291C165.734 140.07 165.455 139.941 165.163 139.904C164.864 139.862 164.569 139.902 164.279 140.024C163.988 140.146 163.728 140.345 163.496 140.621ZM172.207 127.943L172.847 127.18L181.176 134.169L180.536 134.932L172.207 127.943ZM175.983 130.109L177.271 128.573L177.905 129.106L176.617 130.641L175.983 130.109ZM173.395 137.916L173.943 137.263C174.369 136.754 174.754 136.283 175.097 135.85C175.438 135.406 175.752 134.97 176.038 134.541C176.33 134.107 176.611 133.654 176.882 133.181L177.612 133.637C177.325 134.128 177.034 134.593 176.737 135.034C176.446 135.468 176.124 135.908 175.771 136.353C175.418 136.799 175.023 137.282 174.586 137.803L174.038 138.456L173.395 137.916ZM168.596 133.889L171.828 130.038L172.453 130.562L169.854 133.66L174.322 137.409L173.689 138.162L168.596 133.889ZM182.914 130.728C182.779 130.889 182.605 130.979 182.393 130.998C182.181 131.016 181.994 130.958 181.833 130.823C181.672 130.688 181.582 130.514 181.564 130.302C181.545 130.09 181.604 129.903 181.739 129.742C181.874 129.581 182.048 129.492 182.26 129.473C182.472 129.454 182.658 129.513 182.819 129.648C182.926 129.737 183.001 129.847 183.045 129.976C183.09 130.103 183.103 130.234 183.082 130.369C183.061 130.5 183.005 130.62 182.914 130.728Z" fill="white"/>
</svg>
