<svg width="338" height="157" viewBox="0 0 338 157" fill="none" xmlns="http://www.w3.org/2000/svg">
<rect x="14.8838" y="0.24707" width="324.649" height="117.921" transform="rotate(7 14.8838 0.24707)" fill="#9058FF"/>
<path d="M42.4115 36.2699L43.9837 36.463L43.6751 38.9761L42.1029 38.7831L42.4115 36.2699ZM43.8893 30.7328C44.6754 30.8293 45.3625 31.0426 45.9507 31.3728C46.5478 31.6959 46.9972 32.1058 47.2989 32.6022C47.6007 33.0987 47.7135 33.6566 47.6375 34.276C47.5624 34.8874 47.3179 35.4014 46.9041 35.8181C46.4902 36.2348 45.954 36.5316 45.2955 36.7087C44.646 36.8788 43.9281 36.9156 43.142 36.8191C42.3639 36.7235 41.6763 36.5142 41.0792 36.191C40.491 35.8609 40.0426 35.4431 39.7339 34.9377C39.4331 34.4333 39.3203 33.8754 39.3954 33.264C39.4714 32.6446 39.7159 32.1306 40.1288 31.7218C40.5496 31.3141 41.0848 31.0252 41.7344 30.8551C42.3928 30.678 43.1112 30.6372 43.8893 30.7328ZM43.7358 31.9834C43.2355 31.922 42.7821 31.9388 42.3755 32.034C41.9768 32.1301 41.6502 32.2955 41.3957 32.5303C41.1491 32.766 41.0024 33.0744 40.9556 33.4555C40.9098 33.8287 40.9775 34.1635 41.1588 34.4598C41.3489 34.7491 41.6258 34.9886 41.9894 35.1784C42.3609 35.3691 42.7968 35.4951 43.297 35.5565C43.8052 35.6189 44.2587 35.6021 44.6573 35.506C45.064 35.4108 45.3906 35.2454 45.6371 35.0097C45.8847 34.766 46.0314 34.4576 46.0772 34.0844C46.124 33.7033 46.0563 33.3685 45.874 33.0801C45.6918 32.7918 45.415 32.5523 45.0434 32.3616C44.6798 32.1718 44.244 32.0458 43.7358 31.9834ZM37.9411 38.0182L47.9341 39.2452L47.7761 40.5315L37.7832 39.3045L37.9411 38.0182ZM52.7979 32.0201C53.3617 32.0893 53.838 32.313 54.2268 32.6912C54.6245 33.0624 54.9099 33.5609 55.0829 34.1867C55.2648 34.8055 55.3066 35.5158 55.2081 36.3178C55.1087 37.1277 54.8953 37.8149 54.5681 38.3792C54.2498 38.9366 53.8523 39.3512 53.3756 39.6231C52.9079 39.8881 52.3921 39.986 51.8283 39.9168C51.2646 39.8475 50.7838 39.6273 50.3861 39.2561C49.9893 38.8769 49.7 38.3779 49.518 37.7591C49.345 37.1334 49.3082 36.4155 49.4077 35.6056C49.5061 34.8036 49.7145 34.124 50.0328 33.5666C50.36 33.0023 50.7615 32.5881 51.2372 32.3241C51.7139 32.0522 52.2341 31.9508 52.7979 32.0201ZM52.621 33.4612C52.351 33.4281 52.0971 33.4936 51.8593 33.6579C51.6295 33.8231 51.4321 34.085 51.2671 34.4436C51.1111 34.7952 50.9995 35.2449 50.9322 35.7928C50.8659 36.3327 50.865 36.8001 50.9293 37.1949C51.0026 37.5827 51.1308 37.8846 51.3138 38.1005C51.5048 38.3174 51.7353 38.4424 52.0053 38.4756C52.2752 38.5087 52.5252 38.4427 52.755 38.2775C52.9849 38.1122 53.1783 37.8499 53.3353 37.4903C53.5012 37.1238 53.6173 36.6706 53.6836 36.1306C53.7508 35.5827 53.7473 35.1189 53.6731 34.739C53.6077 34.3521 53.4835 34.0507 53.3005 33.8348C53.1174 33.6189 52.8909 33.4944 52.621 33.4612ZM57.8282 34.4754L59.7696 34.7138L59.6102 36.012L57.6688 35.7736L57.8282 34.4754ZM57.4319 37.7032L59.3733 37.9415L59.2139 39.2398L57.2725 39.0014L57.4319 37.7032ZM56.9754 31.7713L58.5714 31.9673L57.2172 42.9964L55.6212 42.8005L56.9754 31.7713ZM63.4235 33.6995L64.7337 33.8604L64.6488 34.5512C64.563 35.2499 64.3705 35.8993 64.0711 36.4993C63.7718 37.0993 63.3586 37.6087 62.8316 38.0276C62.3136 38.4396 61.6866 38.7213 60.9506 38.8727L60.2928 37.5346C60.9286 37.4111 61.4595 37.1902 61.8854 36.8717C62.3194 36.5542 62.6554 36.1804 62.8936 35.7502C63.1328 35.3121 63.2812 34.8588 63.3387 34.3903L63.4235 33.6995ZM63.757 33.7405L65.0433 33.8984L64.9585 34.5892C64.9195 34.9068 64.9321 35.2308 64.9964 35.5611C65.0606 35.8914 65.1784 36.2121 65.3497 36.5233C65.53 36.8275 65.7693 37.1108 66.0675 37.3731C66.3658 37.6354 66.7285 37.8653 67.1556 38.0629L66.2055 39.2036C65.541 38.9044 65.0092 38.5086 64.6103 38.0163C64.2123 37.5161 63.9342 36.958 63.7761 36.3422C63.6269 35.7193 63.5922 35.0824 63.6722 34.4313L63.757 33.7405ZM61.2683 33.0359L67.2712 33.773L67.1177 35.0236L61.1148 34.2865L61.2683 33.0359ZM68.4681 33.1824L70.0522 33.3769L69.1382 40.821L67.5541 40.6265L68.4681 33.1824ZM64.6556 39.7145L65.9896 39.8783L65.9677 40.057C65.9082 40.5413 65.7569 40.9862 65.5137 41.3916C65.2784 41.7979 64.9606 42.1539 64.5604 42.4594C64.1691 42.7579 63.6968 42.9941 63.1435 43.168C62.5902 43.3418 61.9658 43.4384 61.2702 43.4578L60.8372 42.1594C61.4346 42.1521 61.9623 42.088 62.4205 41.9669C62.8796 41.8379 63.2633 41.6674 63.5714 41.4553C63.8875 41.2443 64.1345 41.0046 64.3126 40.7363C64.4916 40.4601 64.5986 40.179 64.6337 39.8932L64.6556 39.7145ZM64.9415 39.7496L66.2874 39.9149L66.2655 40.0935C66.2304 40.3794 66.2623 40.6775 66.3612 40.9878C66.469 41.2912 66.6507 41.5836 66.9064 41.8648C67.162 42.1461 67.497 42.4048 67.9113 42.6411C68.3265 42.8694 68.8231 43.0593 69.4009 43.2109L68.6548 44.3645C67.9846 44.1775 67.4021 43.9326 66.9072 43.6301C66.4124 43.3275 66.0073 42.9836 65.6919 42.5983C65.3854 42.206 65.1632 41.7838 65.0253 41.3316C64.8953 40.8804 64.8601 40.4126 64.9196 39.9283L64.9415 39.7496ZM79.4144 34.5144L81.0105 34.7104L79.6563 45.7395L78.0602 45.5436L79.4144 34.5144ZM74.2025 36.7882L75.465 36.9432L75.3948 37.5149C75.3236 38.0945 75.1855 38.6619 74.9803 39.2171C74.784 39.7652 74.5242 40.2733 74.2007 40.7414C73.8852 41.2105 73.509 41.6156 73.0722 41.9569C72.6442 42.2913 72.1665 42.5389 71.6389 42.6998L70.9439 41.3692C71.4209 41.2262 71.8417 41.016 72.2062 40.7383C72.5797 40.4537 72.9015 40.1305 73.1716 39.7687C73.4417 39.407 73.6547 39.018 73.8105 38.6019C73.9743 38.1868 74.0816 37.7728 74.1323 37.3599L74.2025 36.7882ZM74.5598 36.832L75.7866 36.9827L75.7164 37.5544C75.6686 37.9434 75.675 38.3513 75.7354 38.7778C75.7959 39.2044 75.9139 39.6218 76.0894 40.0303C76.266 40.4308 76.5019 40.8063 76.7974 41.157C77.1018 41.5006 77.4681 41.7995 77.8963 42.0536L76.9149 43.1542C76.4321 42.8853 76.019 42.5404 75.6758 42.1194C75.3404 41.6994 75.0715 41.2312 74.8689 40.7146C74.6664 40.1981 74.5352 39.6581 74.4754 39.0946C74.4157 38.5311 74.4204 37.9675 74.4896 37.4037L74.5598 36.832ZM72.0473 35.4354L78.1693 36.1871L78.0158 37.4377L71.8937 36.686L72.0473 35.4354ZM74.5228 34.1797L76.1188 34.3757L75.8497 36.5673L74.2537 36.3713L74.5228 34.1797ZM85.7796 36.3357L91.8659 37.083L91.7123 38.3336L85.626 37.5863L85.7796 36.3357ZM84.7406 43.8128L84.7318 42.506C85.367 42.584 86.0623 42.6653 86.8176 42.75C87.5818 42.8277 88.3594 42.895 89.1504 42.9518C89.9503 43.0016 90.7208 43.0277 91.4621 43.0301L91.4051 44.1837C90.6431 44.2191 89.8651 44.2203 89.0712 44.1874C88.2853 44.1553 87.5216 44.1059 86.7802 44.039C86.0478 43.9652 85.3679 43.8898 84.7406 43.8128ZM86.5991 37.4398L88.1356 37.6284L87.4526 43.1907L85.9162 43.002L86.5991 37.4398ZM89.2671 37.7674L90.7916 37.9546L90.1087 43.5168L88.5841 43.3296L89.2671 37.7674ZM92.8001 36.17L94.3961 36.366L93.0419 47.3952L91.4459 47.1992L92.8001 36.17ZM93.5388 40.4923L95.4803 40.7307L95.3194 42.0408L93.378 41.8024L93.5388 40.4923ZM95.9616 42.8088L105.943 44.0343L105.786 45.3088L95.8052 44.0832L95.9616 42.8088ZM100.016 44.1529L101.6 44.3474L101.104 48.3851L99.5203 48.1906L100.016 44.1529ZM101.639 37.6301C102.425 37.7266 103.103 37.9147 103.673 38.1942C104.253 38.4669 104.686 38.8102 104.974 39.2244C105.261 39.6385 105.374 40.0957 105.313 40.596C105.251 41.1041 105.03 41.5244 104.65 41.8566C104.272 42.1809 103.769 42.4092 103.14 42.5416C102.52 42.667 101.817 42.6814 101.031 42.5849C100.245 42.4884 99.562 42.3038 98.9829 42.0312C98.4127 41.7516 97.9794 41.4083 97.6828 41.0011C97.3951 40.5869 97.2825 40.1258 97.3449 39.6176C97.4063 39.1173 97.6267 38.7011 98.006 38.3689C98.3932 38.0376 98.8968 37.8092 99.5167 37.6839C100.146 37.5515 100.853 37.5336 101.639 37.6301ZM101.474 38.8793C100.997 38.8208 100.574 38.8172 100.205 38.8686C99.8444 38.921 99.5574 39.0268 99.3444 39.1861C99.1323 39.3373 99.0098 39.548 98.9766 39.8179C98.9444 40.08 99.0124 40.314 99.1806 40.52C99.3487 40.7261 99.6016 40.8982 99.9393 41.0363C100.286 41.1676 100.697 41.2624 101.174 41.3209C101.666 41.3814 102.092 41.3894 102.452 41.3449C102.814 41.2925 103.101 41.1867 103.314 41.0275C103.534 40.8692 103.661 40.6591 103.693 40.3971C103.726 40.1271 103.654 39.8926 103.477 39.6935C103.309 39.4875 103.056 39.3154 102.719 39.1772C102.381 39.039 101.966 38.9397 101.474 38.8793ZM115.239 38.9131L116.835 39.1091L115.481 50.1382L113.885 49.9423L115.239 38.9131ZM110.027 41.1869L111.29 41.3419L111.22 41.9136C111.148 42.4933 111.01 43.0606 110.805 43.6158C110.609 44.1639 110.349 44.6721 110.025 45.1401C109.71 45.6092 109.334 46.0143 108.897 46.3557C108.469 46.69 107.991 46.9376 107.464 47.0985L106.769 45.7679C107.246 45.625 107.666 45.4147 108.031 45.137C108.404 44.8524 108.726 44.5292 108.996 44.1675C109.266 43.8057 109.479 43.4167 109.635 43.0006C109.799 42.5855 109.906 42.1715 109.957 41.7586L110.027 41.1869ZM110.385 41.2308L111.611 41.3814L111.541 41.9531C111.493 42.3422 111.5 42.75 111.56 43.1765C111.621 43.6031 111.739 44.0206 111.914 44.429C112.091 44.8295 112.327 45.2051 112.622 45.5557C112.927 45.8993 113.293 46.1982 113.721 46.4523L112.74 47.5529C112.257 47.284 111.844 46.9391 111.5 46.5182C111.165 46.0982 110.896 45.6299 110.694 45.1134C110.491 44.5968 110.36 44.0568 110.3 43.4933C110.24 42.9299 110.245 42.3662 110.314 41.8025L110.385 41.2308ZM107.872 39.8341L113.994 40.5858L113.84 41.8364L107.718 41.0848L107.872 39.8341ZM110.347 38.5785L111.943 38.7744L111.674 40.966L110.078 40.77L110.347 38.5785Z" fill="white"/>
<path d="M36.7046 58.0349L43.6365 58.886L43.5371 59.696L36.6051 58.8448L36.7046 58.0349ZM34.7554 65.1464L44.4863 66.3412L44.3854 67.163L34.6544 65.9682L34.7554 65.1464ZM43.1005 58.8202L44.0772 58.9401L43.9441 60.024C43.8885 60.4766 43.8211 60.96 43.7419 61.4742C43.6715 61.9814 43.5705 62.5412 43.4389 63.1538C43.3073 63.7663 43.1262 64.4533 42.8957 65.2149L41.9084 64.9849C42.141 64.2719 42.3226 63.6132 42.4533 63.0086C42.5919 62.405 42.6968 61.8456 42.7681 61.3304C42.8474 60.8163 42.9138 60.3408 42.9674 59.9041L43.1005 58.8202ZM52.8702 59.1009L53.7873 59.2136L52.5589 69.2184L51.6418 69.1058L52.8702 59.1009ZM52.8958 63.3235L54.8848 63.5678L54.7854 64.3777L52.7963 64.1335L52.8958 63.3235ZM46.1739 65.291L46.6027 65.3437C46.8171 65.37 47.092 65.3957 47.4274 65.4207C47.7718 65.4388 48.1568 65.4216 48.5823 65.3691L48.5633 66.2131C48.1139 66.2627 47.7131 66.2779 47.3608 66.2589C47.0174 66.2328 46.7306 66.2057 46.5003 66.1774L46.0715 66.1248L46.1739 65.291ZM46.8846 59.5025L49.1953 59.7862L49.0958 60.5961L47.7023 60.425L47.034 65.8681L46.1169 65.7555L46.8846 59.5025ZM48.9491 65.6318L49.3898 65.6859C49.6835 65.7219 50.0106 65.75 50.3708 65.7701C50.739 65.7911 51.1368 65.7674 51.5644 65.699L51.5573 66.5444C51.1059 66.6099 50.6922 66.6316 50.3161 66.6096C49.9479 66.5886 49.605 66.5586 49.2874 66.5196L48.8467 66.4655L48.9491 65.6318ZM49.6598 59.8432L52.03 60.1343L51.9306 60.9442L50.4656 60.7643L49.8002 66.1836L48.895 66.0724L49.6598 59.8432ZM55.0791 59.1304L56.02 59.2459L54.6965 70.0249L53.7556 69.9094L55.0791 59.1304ZM58.6181 60.7255L65.5501 61.5767L65.4506 62.3866L58.5187 61.5355L58.6181 60.7255ZM56.6689 67.837L66.3998 69.0318L66.2989 69.8536L56.568 68.6588L56.6689 67.837ZM65.0141 61.5109L65.9907 61.6308L65.8577 62.7147C65.8021 63.1673 65.7347 63.6506 65.6554 64.1648C65.5851 64.672 65.4841 65.2319 65.3525 65.8444C65.2208 66.4569 65.0398 67.144 64.8092 67.9056L63.8219 67.6755C64.0545 66.9626 64.2362 66.3038 64.3668 65.6992C64.5054 65.0956 64.6104 64.5362 64.6817 64.0211C64.7609 63.5069 64.8274 63.0315 64.881 62.5947L65.0141 61.5109ZM74.7838 61.7916L75.7009 61.9042L74.4724 71.9091L73.5553 71.7965L74.7838 61.7916ZM74.8093 66.0142L76.7984 66.2584L76.699 67.0683L74.7099 66.8241L74.8093 66.0142ZM68.0875 67.9817L68.5162 68.0343C68.7306 68.0606 69.0055 68.0863 69.341 68.1114C69.6854 68.1295 70.0703 68.1123 70.4959 68.0598L70.4769 68.9037C70.0275 68.9533 69.6267 68.9686 69.2744 68.9495C68.931 68.9235 68.6441 68.8963 68.4139 68.868L67.9851 68.8154L68.0875 67.9817ZM68.7982 62.1931L71.1089 62.4768L71.0094 63.2868L69.6159 63.1157L68.9475 68.5588L68.0304 68.4462L68.7982 62.1931ZM70.8626 68.3224L71.3033 68.3765C71.5971 68.4126 71.9241 68.4407 72.2844 68.4607C72.6525 68.4817 73.0504 68.458 73.4779 68.3896L73.4708 69.2351C73.0195 69.3006 72.6058 69.3223 72.2296 69.3003C71.8615 69.2793 71.5186 69.2493 71.2009 69.2103L70.7603 69.1561L70.8626 68.3224ZM71.5734 62.5339L73.9436 62.8249L73.8441 63.6348L72.3791 63.4549L71.7137 68.8742L70.8085 68.7631L71.5734 62.5339ZM76.9926 61.821L77.9336 61.9365L76.6101 72.7156L75.6691 72.6001L76.9926 61.821ZM90.3345 63.4592L91.3231 63.5806L90.5743 69.6788L89.5857 69.5574L90.3345 63.4592ZM90.7259 66.1792L92.584 66.4073L92.4831 67.2291L90.625 67.001L90.7259 66.1792ZM82.8874 67.2962L83.7211 67.3986C84.4596 67.4892 85.1077 67.5608 85.6655 67.6131C86.2242 67.6576 86.7408 67.6847 87.2151 67.6946C87.6904 67.6965 88.1721 67.6791 88.6602 67.6423L88.6813 68.4549C88.1684 68.4968 87.6664 68.5157 87.1752 68.5118C86.6919 68.5089 86.1675 68.4808 85.6017 68.4274C85.036 68.3741 84.376 68.3011 83.6217 68.2085L82.7879 68.1061L82.8874 67.2962ZM83.3729 63.3419L88.1014 63.9225L88.0034 64.7205L84.2516 64.2598L83.807 67.8806L82.8303 67.7607L83.3729 63.3419ZM83.7389 69.4198L90.5041 70.2505L90.0186 74.2048L83.2534 73.3741L83.7389 69.4198ZM89.4295 70.9286L84.6057 70.3363L84.3161 72.6946L89.1399 73.2868L89.4295 70.9286ZM96.6748 65.084C97.2068 65.1493 97.6563 65.3617 98.0232 65.7211C98.3911 66.0725 98.6556 66.5443 98.8167 67.1363C98.9777 67.7283 99.0114 68.4055 98.9178 69.1678C98.8242 69.9301 98.6277 70.5789 98.3282 71.1144C98.0287 71.6499 97.6575 72.0476 97.2145 72.3076C96.7715 72.5675 96.284 72.6649 95.752 72.5995C95.228 72.5352 94.7785 72.3228 94.4036 71.9625C94.0367 71.6031 93.7727 71.1273 93.6116 70.5353C93.4506 69.9433 93.4169 69.2661 93.5104 68.5038C93.604 67.7416 93.8006 67.0927 94.1001 66.5572C94.3996 66.0217 94.7703 65.6279 95.2123 65.3759C95.6633 65.1169 96.1507 65.0196 96.6748 65.084ZM96.5666 65.9654C96.2252 65.9234 95.9048 66.005 95.6056 66.2101C95.3153 66.4082 95.0679 66.7163 94.8634 67.1345C94.6599 67.5448 94.5226 68.0397 94.4514 68.6194C94.3802 69.199 94.3932 69.7165 94.4905 70.1717C94.5887 70.619 94.7542 70.9779 94.987 71.2482C95.2277 71.5196 95.5228 71.6767 95.8721 71.7196C96.2136 71.7615 96.5299 71.6795 96.8212 71.4734C97.1204 71.2684 97.3678 70.9602 97.5634 70.549C97.7679 70.1308 97.9057 69.6319 97.9769 69.0522C98.0481 68.4726 98.0346 67.9591 97.9363 67.5118C97.847 67.0575 97.6815 66.6987 97.4398 66.4353C97.207 66.1649 96.916 66.0083 96.5666 65.9654ZM101.208 64.7943L102.196 64.9156L100.873 75.6947L99.8844 75.5733L101.208 64.7943ZM101.442 69.1876L103.431 69.4318L103.329 70.2655L101.34 70.0213L101.442 69.1876ZM104.973 71.9304L112.894 72.9029L112.799 73.6771L104.878 72.7045L104.973 71.9304ZM105.901 67.9215L113.214 68.8194L113.117 69.6055L105.804 68.7076L105.901 67.9215ZM104.325 69.6262L114.092 70.8254L113.994 71.6234L104.227 70.4242L104.325 69.6262ZM106.189 65.5751L107.166 65.695L106.825 68.4702L105.848 68.3503L106.189 65.5751ZM108.934 68.6204L109.911 68.7403L109.674 70.6698L108.697 70.5499L108.934 68.6204ZM108.771 73.6903C109.811 73.818 110.594 74.0391 111.12 74.3535C111.653 74.6689 111.891 75.0648 111.832 75.5412C111.774 76.0176 111.448 76.3443 110.854 76.5212C110.268 76.6991 109.455 76.7242 108.414 76.5965C107.382 76.4697 106.599 76.2487 106.066 75.9333C105.54 75.6189 105.307 75.2235 105.365 74.7471C105.424 74.2707 105.746 73.9435 106.332 73.7656C106.926 73.5887 107.739 73.5636 108.771 73.6903ZM108.685 74.393C107.986 74.3072 107.434 74.304 107.03 74.3832C106.634 74.4556 106.421 74.6188 106.389 74.8728C106.358 75.1269 106.526 75.3369 106.892 75.5028C107.266 75.6777 107.802 75.808 108.501 75.8938C109.207 75.9805 109.759 75.9838 110.156 75.9035C110.559 75.8322 110.777 75.6695 110.808 75.4154C110.839 75.1613 110.668 74.9508 110.293 74.784C109.928 74.6101 109.392 74.4798 108.685 74.393ZM108.559 71.3793L109.548 71.5006L109.366 72.9775L108.378 72.8562L108.559 71.3793ZM116.745 69.9904L124.07 70.8898L123.972 71.6878L116.647 70.7884L116.745 69.9904ZM115.148 72.0673L124.914 73.2665L124.815 74.0764L115.048 72.8772L115.148 72.0673ZM117.094 67.1438L118.071 67.2637L117.672 70.5153L116.695 70.3954L117.094 67.1438ZM115.879 76.4491L123.335 77.3646L123.236 78.1745L115.78 77.259L115.879 76.4491ZM116.166 74.1146L117.154 74.236L116.841 76.7849L115.853 76.6635L116.166 74.1146ZM138.01 69.3251L138.999 69.4465L138.105 76.7238L137.117 76.6025L138.01 69.3251ZM135.328 72.0667L137.841 72.3753L137.74 73.1971L135.227 72.8885L135.328 72.0667ZM134.512 69.754L135.548 69.8812C135.435 70.8023 135.138 71.6121 134.657 72.3108C134.178 73.0014 133.535 73.5754 132.729 74.0326C131.931 74.4908 131 74.8238 129.935 75.0315L129.602 74.1927C130.551 74.019 131.37 73.7488 132.059 73.3821C132.757 73.0164 133.309 72.5603 133.715 72.0136C134.128 71.468 134.378 70.8418 134.465 70.1351L134.512 69.754ZM130.736 69.2904L135.215 69.8403L135.115 70.6502L130.637 70.1003L130.736 69.2904ZM134.252 75.3197L135.097 75.4236L135.037 75.9119C134.975 76.4201 134.806 76.8789 134.53 77.2883C134.263 77.6908 133.918 78.0353 133.496 78.322C133.083 78.6018 132.621 78.8231 132.109 78.9859C131.596 79.1567 131.064 79.2606 130.511 79.2975L130.214 78.4632C130.701 78.4423 131.169 78.3668 131.621 78.2368C132.081 78.0999 132.494 77.9169 132.861 77.6879C133.227 77.4589 133.527 77.1853 133.759 76.8673C134 76.5502 134.144 76.1972 134.192 75.8081L134.252 75.3197ZM134.383 75.3358L135.228 75.4397L135.168 75.928C135.122 76.3091 135.172 76.6821 135.321 77.047C135.471 77.4038 135.696 77.7378 135.996 78.0487C136.296 78.3596 136.65 78.6327 137.056 78.868C137.47 79.1042 137.906 79.2948 138.364 79.4396L137.863 80.176C137.335 80.0065 136.843 79.7808 136.386 79.499C135.937 79.2182 135.546 78.8921 135.213 78.5207C134.88 78.1414 134.633 77.7242 134.472 77.2691C134.31 76.814 134.26 76.3323 134.323 75.8242L134.383 75.3358ZM148.921 70.6527L149.909 70.7741L148.584 81.565L147.596 81.4436L148.921 70.6527ZM144.126 70.9102C144.658 70.9755 145.107 71.1879 145.474 71.5473C145.85 71.8997 146.118 72.372 146.279 72.964C146.448 73.557 146.486 74.2347 146.393 74.9969C146.299 75.7592 146.098 76.4076 145.791 76.9421C145.492 77.4776 145.116 77.8749 144.665 78.1338C144.222 78.3938 143.735 78.4911 143.203 78.4258C142.671 78.3605 142.217 78.1476 141.843 77.7872C141.468 77.4269 141.196 76.9502 141.027 76.3572C140.866 75.7651 140.832 75.088 140.926 74.3257C141.019 73.5634 141.216 72.9145 141.515 72.379C141.823 71.8445 142.201 71.4517 142.651 71.2007C143.102 70.9417 143.594 70.8449 144.126 70.9102ZM144.017 71.7916C143.66 71.7477 143.332 71.8283 143.033 72.0334C142.742 72.2315 142.495 72.5396 142.29 72.9578C142.087 73.3681 141.95 73.863 141.878 74.4427C141.807 75.0223 141.82 75.5398 141.918 75.995C142.016 76.4423 142.181 76.8012 142.414 77.0715C142.655 77.3429 142.954 77.5005 143.311 77.5444C143.661 77.5873 143.981 77.5057 144.272 77.2997C144.571 77.0946 144.823 76.787 145.026 76.3767C145.231 75.9585 145.369 75.4596 145.44 74.8799C145.511 74.3003 145.497 73.7868 145.399 73.3395C145.302 72.8843 145.132 72.5249 144.891 72.2615C144.658 71.9911 144.367 71.8345 144.017 71.7916ZM162.691 72.3435L163.68 72.4649L162.355 83.2558L161.367 83.1345L162.691 72.3435ZM162.932 76.6892L164.921 76.9334L164.82 77.7552L162.831 77.511L162.932 76.6892ZM154.975 78.771L155.82 78.8748C156.479 78.9557 157.084 79.0219 157.634 79.0733C158.192 79.1177 158.729 79.1433 159.244 79.1501C159.767 79.1579 160.301 79.1468 160.844 79.1169L160.86 79.9771C160.292 80.0042 159.743 80.0133 159.212 80.0046C158.689 79.9968 158.145 79.9662 157.579 79.9129C157.013 79.8595 156.393 79.7914 155.718 79.7085L154.872 79.6047L154.975 78.771ZM155.738 72.5537L160.729 73.1664L160.629 73.9763L156.615 73.4835L155.905 79.272L154.928 79.1521L155.738 72.5537ZM165.614 78.7595L175.381 79.9587L175.282 80.7687L165.515 79.5695L165.614 78.7595ZM166.439 82.6812L173.907 83.5982L173.807 84.4081L166.339 83.4911L166.439 82.6812ZM166.697 80.5731L167.686 80.6944L167.391 83.1004L166.402 82.979L166.697 80.5731ZM167.542 73.3018L174.819 74.1953L174.49 76.8752L168.213 76.1045L168.036 77.5457L167.06 77.4257L167.327 75.2461L173.604 76.0168L173.746 74.8615L167.445 74.0879L167.542 73.3018ZM167.092 77.1637L174.572 78.0821L174.477 78.8563L166.997 77.9379L167.092 77.1637ZM185.51 75.1453L186.463 75.2623L185.14 86.0413L184.187 85.9243L185.51 75.1453ZM180.527 78.7046L183.243 79.038L183.142 79.8598L180.426 79.5264L180.527 78.7046ZM183.312 75.1293L184.241 75.2433L183.017 85.2125L182.088 85.0984L183.312 75.1293ZM176.817 81.5496L177.508 81.6344C178.064 81.7027 178.557 81.7552 178.988 81.7919C179.426 81.8297 179.839 81.8481 180.226 81.8473C180.621 81.8474 181.022 81.8321 181.429 81.8015L181.423 82.635C181.007 82.6726 180.598 82.6909 180.195 82.6898C179.793 82.6807 179.369 82.6569 178.922 82.6181C178.484 82.5804 177.979 82.5264 177.407 82.4562L176.716 82.3714L176.817 81.5496ZM177.558 75.5109L181.596 76.0067L181.497 76.8166L178.424 76.4393L177.742 81.9896L176.777 81.8712L177.558 75.5109ZM189.015 84.3721L188.892 84.8205C188.804 85.1361 188.689 85.4711 188.545 85.8256C188.404 86.1804 188.262 86.5135 188.117 86.8249C187.973 87.1364 187.856 87.3838 187.764 87.5673L187.003 87.4738C187.062 87.2978 187.139 87.0655 187.235 86.7767C187.33 86.4879 187.43 86.1638 187.534 85.8045C187.641 85.4484 187.738 85.0824 187.824 84.7066L187.933 84.2391L189.015 84.3721ZM32.9025 80.237L42.6691 81.4362L42.5682 82.2581L32.8015 81.0589L32.9025 80.237ZM37.591 78.1892L38.5676 78.3091L38.221 81.1319L37.2444 81.012L37.591 78.1892ZM35.0067 72.5522L35.9953 72.6736L35.7598 74.5912L41.2387 75.2639L41.4741 73.3463L42.4508 73.4662L41.7737 78.9808L34.3296 78.0668L35.0067 72.5522ZM35.6604 75.4011L35.4176 77.3782L40.8965 78.051L41.1392 76.0738L35.6604 75.4011ZM44.2012 78.6985L53.9441 79.8948L53.8461 80.6928L44.1033 79.4965L44.2012 78.6985ZM48.7435 77.8417L49.7321 77.9631L49.52 79.6901L48.5315 79.5687L48.7435 77.8417ZM45.7113 77.0342L53.0244 77.9321L52.9293 78.7063L45.6163 77.8084L45.7113 77.0342ZM46.1501 73.461L53.4036 74.3516L53.3071 75.1377L47.0421 74.3685L46.6487 77.5724L45.6601 77.451L46.1501 73.461ZM46.623 75.3205L52.8998 76.0912L52.8077 76.8416L46.5308 76.0709L46.623 75.3205ZM48.8767 80.8927C50.0439 81.036 50.9311 81.294 51.5382 81.6668C52.1453 82.0396 52.4142 82.5078 52.345 83.0716C52.2758 83.6354 51.9015 84.0247 51.2223 84.2395C50.5431 84.4543 49.6198 84.4901 48.4526 84.3468C47.2774 84.2025 46.3863 83.9439 45.7792 83.5712C45.1721 83.1984 44.9031 82.7301 44.9724 82.1664C45.0416 81.6026 45.4158 81.2133 46.0951 80.9985C46.7743 80.7837 47.7015 80.7484 48.8767 80.8927ZM48.7726 81.6416C47.9151 81.5363 47.2418 81.5383 46.7529 81.6475C46.2639 81.7567 45.9999 81.9701 45.9609 82.2877C45.921 82.6133 46.125 82.8882 46.573 83.1125C47.022 83.3288 47.6752 83.4896 48.5328 83.5949C49.4062 83.7022 50.083 83.7047 50.563 83.6024C51.052 83.4932 51.3164 83.2758 51.3564 82.9502C51.3954 82.6326 51.1909 82.3617 50.7429 82.1374C50.3028 81.9141 49.6461 81.7488 48.7726 81.6416ZM58.1659 83.339L67.9325 84.5382L67.8316 85.36L58.0649 84.1608L58.1659 83.339ZM62.8544 81.2911L63.831 81.411L63.4844 84.2338L62.5078 84.1139L62.8544 81.2911ZM60.2701 75.6541L61.2587 75.7755L61.0232 77.6931L66.5021 78.3658L66.7375 76.4483L67.7142 76.5682L67.0371 82.0828L59.593 81.1687L60.2701 75.6541ZM60.9238 78.503L60.681 80.4802L66.1599 81.1529L66.4026 79.1758L60.9238 78.503ZM69.1241 84.6724L78.8908 85.8716L78.7898 86.6934L69.0232 85.4942L69.1241 84.6724ZM73.8275 82.6022L74.816 82.7235L74.4621 85.6059L73.4735 85.4845L73.8275 82.6022ZM74.3681 78.0018L75.2138 78.1056L75.1333 78.7607C75.0788 79.2053 74.9437 79.6159 74.7282 79.9925C74.5216 80.3621 74.2545 80.7 73.9267 81.0064C73.6078 81.3057 73.2457 81.5635 72.8403 81.7797C72.4439 81.989 72.0235 82.163 71.5793 82.3019C71.144 82.4339 70.7105 82.5177 70.279 82.5533L69.9705 81.7175C70.3436 81.6989 70.726 81.637 71.1177 81.532C71.5104 81.419 71.8832 81.2713 72.236 81.0889C72.5968 80.9076 72.9213 80.6935 73.2095 80.4468C73.5057 80.2011 73.7487 79.9286 73.9386 79.6295C74.1284 79.3305 74.2448 79.0062 74.2877 78.6568L74.3681 78.0018ZM74.5587 78.0252L75.3924 78.1275L75.312 78.7826C75.2691 79.132 75.3036 79.4748 75.4155 79.8109C75.5283 80.1391 75.6987 80.4582 75.9266 80.7683C76.1545 81.0784 76.4216 81.3651 76.7277 81.6284C77.0349 81.8837 77.3658 82.1097 77.7205 82.3064C78.0831 82.5041 78.4476 82.6536 78.814 82.755L78.3125 83.4914C77.8945 83.3514 77.4857 83.1682 77.0863 82.9419C76.6879 82.7076 76.3177 82.4404 75.9757 82.1405C75.6426 81.8337 75.3532 81.4999 75.1073 81.1392C74.8624 80.7706 74.6804 80.3816 74.5615 79.972C74.4514 79.5555 74.4237 79.1249 74.4783 78.6802L74.5587 78.0252ZM70.867 77.1729L78.99 78.1703L78.8891 78.9921L70.7661 77.9947L70.867 77.1729ZM81.3892 78.5132L82.3301 78.6288L82.0084 81.2491L84.2714 81.5269L84.5931 78.9066L85.5102 79.0192L84.643 86.0822L80.522 85.5762L81.3892 78.5132ZM81.9104 82.0471L81.5624 84.8818L83.8254 85.1597L84.1734 82.325L81.9104 82.0471ZM89.3402 78.4497L90.293 78.5667L88.9695 89.3458L88.0167 89.2288L89.3402 78.4497ZM87.0896 82.5017L89.1621 82.7561L89.0611 83.578L86.9887 83.3235L87.0896 82.5017ZM86.9184 78.3821L87.8593 78.4976L86.6309 88.5025L85.69 88.387L86.9184 78.3821ZM99.9754 79.7556L100.952 79.8755L99.6271 90.6665L98.6504 90.5465L99.9754 79.7556ZM97.2494 83.5436L99.6315 83.8361L99.5321 84.646L97.15 84.3535L97.2494 83.5436ZM91.6841 86.2334L92.4941 86.3329C93.1769 86.4167 93.7853 86.4834 94.3193 86.5328C94.8533 86.5822 95.3614 86.6124 95.8436 86.6232C96.3339 86.6351 96.8344 86.628 97.3454 86.6021L97.3532 87.4252C96.8263 87.4492 96.3138 87.4547 95.8157 87.4419C95.3175 87.4291 94.793 87.401 94.2422 87.3575C93.7003 87.3071 93.084 87.2395 92.3932 87.1547L91.5832 87.0552L91.6841 86.2334ZM92.4695 79.8374L97.4481 80.4487L97.3486 81.2587L93.3467 80.7673L92.6272 86.6273L91.6505 86.5074L92.4695 79.8374ZM92.8246 82.9519L96.6002 83.4155L96.5022 84.2135L92.7266 83.7499L92.8246 82.9519ZM110.896 81.0965L111.873 81.2164L110.548 92.0074L109.571 91.8875L110.896 81.0965ZM102.763 87.5695L103.656 87.6792C104.268 87.7543 104.856 87.8185 105.422 87.8718C105.997 87.9182 106.577 87.9492 107.164 87.9648C107.758 87.9814 108.379 87.977 109.027 87.9518L109.023 88.7734C108.035 88.8133 107.108 88.8083 106.244 88.7586C105.381 88.701 104.484 88.6151 103.555 88.5011L102.662 88.3914L102.763 87.5695ZM103.52 81.2064L108.499 81.8177L108.026 85.6648L104.072 85.1793L103.725 88.0021L102.725 87.8792L103.17 84.2584L107.124 84.7439L107.399 82.5048L103.421 82.0163L103.52 81.2064ZM121.492 86.762L123.469 87.0048L123.368 87.8266L121.391 87.5839L121.492 86.762ZM121.293 82.3731L122.282 82.4945L120.96 93.2616L119.971 93.1402L121.293 82.3731ZM114.303 82.5908L115.279 82.7107L114.46 89.3806L113.484 89.2607L114.303 82.5908ZM113.547 88.7485L114.404 88.8538C115.19 88.9504 116.001 89.0136 116.835 89.0435C117.678 89.0744 118.555 89.0532 119.467 88.9797L119.483 89.8281C118.54 89.8976 117.643 89.9164 116.792 89.8846C115.951 89.8457 115.121 89.7761 114.303 89.6757L113.446 89.5704L113.547 88.7485ZM131.965 89.6076L132.942 89.7275L132.743 91.3474L131.766 91.2274L131.965 89.6076ZM127.659 88.5468L137.389 89.7416L137.291 90.5397L127.561 89.3448L127.659 88.5468ZM132.685 83.7476L133.662 83.8675L133.483 85.3206L132.506 85.2007L132.685 83.7476ZM132.444 85.314L133.314 85.4207L133.293 85.5875C133.239 86.0321 133.075 86.415 132.802 86.7361C132.536 87.0582 132.186 87.3214 131.749 87.5258C131.321 87.7311 130.835 87.881 130.292 87.9755C129.757 88.063 129.192 88.1024 128.597 88.0938L128.381 87.2935C128.911 87.3102 129.41 87.2828 129.878 87.2113C130.346 87.1399 130.763 87.0298 131.127 86.8812C131.501 86.7256 131.799 86.5324 132.021 86.3017C132.251 86.0641 132.386 85.7904 132.424 85.4807L132.444 85.314ZM132.659 85.3403L133.516 85.4456L133.496 85.6123C133.458 85.922 133.518 86.2196 133.676 86.505C133.844 86.7835 134.086 87.0429 134.403 87.2833C134.729 87.5168 135.11 87.7248 135.547 87.9075C135.984 88.0901 136.462 88.2374 136.98 88.3494L136.589 89.0751C136.009 88.9394 135.466 88.764 134.961 88.5488C134.464 88.3266 134.029 88.0636 133.655 87.7598C133.289 87.4569 133.013 87.1167 132.825 86.739C132.646 86.3624 132.584 85.9517 132.638 85.507L132.659 85.3403ZM129.183 84.4057L136.924 85.3563L136.826 86.1543L129.085 85.2037L129.183 84.4057ZM132.288 91.0135C133.448 91.1558 134.33 91.4213 134.935 91.8099C135.549 92.1916 135.821 92.6723 135.749 93.2519C135.678 93.8316 135.299 94.2323 134.61 94.4541C133.929 94.6848 133.009 94.729 131.85 94.5866C130.69 94.4443 129.804 94.1783 129.191 93.7887C128.577 93.407 128.306 92.9263 128.377 92.3467C128.448 91.767 128.828 91.3663 129.516 91.1445C130.205 90.9148 131.129 90.8711 132.288 91.0135ZM132.196 91.7638C131.339 91.6585 130.665 91.6684 130.174 91.7935C129.684 91.9107 129.418 92.136 129.377 92.4695C129.336 92.803 129.539 93.0899 129.985 93.33C130.432 93.5622 131.084 93.731 131.942 93.8363C132.791 93.9406 133.461 93.9342 133.951 93.817C134.45 93.6929 134.72 93.4641 134.761 93.1306C134.802 92.7971 134.595 92.5137 134.14 92.2805C133.694 92.0404 133.046 91.8682 132.196 91.7638ZM144.607 88.2582L147.335 88.5931L147.235 89.403L144.508 89.0681L144.607 88.2582ZM147.139 85.5586L148.128 85.68L147.158 93.5767L146.169 93.4553L147.139 85.5586ZM140.062 94.5552L147.232 95.4356L147.133 96.2455L139.962 95.3651L140.062 94.5552ZM140.372 92.0302L141.349 92.1501L140.989 95.0801L140.012 94.9602L140.372 92.0302ZM141.842 86.2623L142.652 86.3617L142.545 87.2312C142.465 87.8823 142.262 88.4821 141.937 89.0306C141.621 89.572 141.21 90.0294 140.705 90.4026C140.2 90.7679 139.636 91.0291 139.013 91.1862L138.598 90.3253C139.013 90.2311 139.398 90.0849 139.752 89.8867C140.115 89.6894 140.439 89.4511 140.723 89.1716C141.007 88.8922 141.235 88.5776 141.407 88.228C141.579 87.8783 141.688 87.5129 141.735 87.1318L141.842 86.2623ZM142.032 86.2857L142.842 86.3851L142.735 87.2546C142.679 87.7152 142.731 88.177 142.892 88.64C143.053 89.103 143.31 89.5297 143.666 89.9198C144.022 90.3021 144.447 90.6162 144.94 90.8622L144.343 91.5869C143.782 91.3003 143.308 90.9278 142.921 90.4692C142.535 90.0027 142.252 89.4843 142.072 88.9142C141.9 88.345 141.851 87.7586 141.926 87.1552L142.032 86.2857ZM139.505 85.5038L145.258 86.2102L145.158 87.0201L139.405 86.3138L139.505 85.5038ZM158.073 86.8891L159.062 87.0105L157.738 97.7896L156.75 97.6682L158.073 86.8891ZM154.774 87.6688L155.75 87.7887C155.655 88.5669 155.467 89.3055 155.188 90.0047C154.917 90.7049 154.543 91.3561 154.066 91.9585C153.59 92.5529 153 93.089 152.297 93.5669C151.593 94.0447 150.762 94.4464 149.803 94.772L149.377 93.9096C150.479 93.5371 151.408 93.0588 152.165 92.4747C152.921 91.8905 153.513 91.2095 153.939 90.4316C154.366 89.6458 154.638 88.7765 154.755 87.8236L154.774 87.6688ZM150.712 87.1701L155.191 87.72L155.093 88.518L150.614 87.9681L150.712 87.1701ZM160.555 92.2717L170.322 93.4709L170.228 94.2331L160.461 93.0339L160.555 92.2717ZM161.523 94.0348L168.908 94.9415L168.626 97.2403L162.242 96.4564L162.087 97.7189L161.11 97.599L161.348 95.6576L167.732 96.4414L167.843 95.5362L161.436 94.7495L161.523 94.0348ZM161.142 97.337L168.848 98.2832L168.76 98.9978L161.054 98.0516L161.142 97.337ZM162.368 87.7429L169.646 88.6365L169.371 90.8756L163.094 90.1049L162.951 91.2722L161.974 91.1523L162.199 89.318L168.476 90.0887L168.583 89.2193L162.282 88.4456L162.368 87.7429ZM162.003 90.914L169.447 91.8281L169.36 92.5427L161.915 91.6287L162.003 90.914ZM174.435 97.6029L184.201 98.8021L184.101 99.624L174.334 98.4248L174.435 97.6029ZM179.148 95.3526L180.125 95.4725L179.755 98.4859L178.778 98.3659L179.148 95.3526ZM176.521 90.061L183.954 90.9736L183.331 96.0475L175.898 95.1349L176.521 90.061ZM182.891 91.6531L177.388 90.9775L176.96 94.4673L182.462 95.1429L182.891 91.6531ZM189.201 91.5574C189.733 91.6227 190.182 91.8351 190.549 92.1945C190.917 92.5459 191.181 93.0177 191.343 93.6097C191.504 94.2017 191.537 94.8789 191.444 95.6412C191.35 96.4034 191.154 97.0523 190.854 97.5878C190.555 98.1233 190.183 98.521 189.74 98.781C189.297 99.0409 188.81 99.1383 188.278 99.0729C187.754 99.0086 187.304 98.7962 186.929 98.4359C186.563 98.0765 186.299 97.6007 186.138 97.0087C185.976 96.4167 185.943 95.7395 186.036 94.9772C186.13 94.215 186.326 93.5661 186.626 93.0306C186.925 92.4951 187.296 92.1013 187.738 91.8493C188.189 91.5903 188.677 91.493 189.201 91.5574ZM189.092 92.4388C188.751 92.3968 188.431 92.4784 188.131 92.6835C187.841 92.8816 187.594 93.1897 187.389 93.6079C187.186 94.0182 187.048 94.5131 186.977 95.0928C186.906 95.6724 186.919 96.1899 187.016 96.6451C187.115 97.0924 187.28 97.4512 187.513 97.7216C187.754 97.993 188.049 98.1501 188.398 98.193C188.739 98.2349 189.056 98.1529 189.347 97.9468C189.646 97.7418 189.894 97.4336 190.089 97.0224C190.294 96.6042 190.432 96.1053 190.503 95.5256C190.574 94.946 190.56 94.4325 190.462 93.9852C190.373 93.5309 190.207 93.1721 189.966 92.9087C189.733 92.6383 189.442 92.4817 189.092 92.4388ZM193.734 91.2677L194.722 91.389L193.399 102.168L192.41 102.047L193.734 91.2677ZM193.968 95.661L195.957 95.9052L195.855 96.7389L193.866 96.4947L193.968 95.661ZM200.198 96.6315L209.941 97.8277L209.843 98.6258L200.1 97.4295L200.198 96.6315ZM201.701 95.1234L208.979 96.0169L208.881 96.815L201.603 95.9214L201.701 95.1234ZM202.006 92.646L209.176 93.5264L209.078 94.3244L202.884 93.5639L202.6 95.8746L201.624 95.7547L202.006 92.646ZM201.164 98.5152L208.465 99.4117L208.155 101.937L201.843 101.162L201.676 102.519L200.711 102.401L200.968 100.305L207.281 101.08L207.405 100.067L201.069 99.2894L201.164 98.5152ZM200.743 102.139L208.342 103.072L208.246 103.858L200.647 102.925L200.743 102.139ZM212.611 94.6857L219.543 95.5368L219.444 96.3468L212.512 95.4956L212.611 94.6857ZM210.671 101.919L220.402 103.114L220.301 103.936L210.57 102.741L210.671 101.919ZM214.931 98.5371L215.908 98.6571L215.384 102.921L214.407 102.801L214.931 98.5371ZM219.162 95.49L220.15 95.6114L220.02 96.6715C219.966 97.1161 219.9 97.5836 219.824 98.074C219.756 98.5653 219.657 99.1014 219.53 99.6821C219.41 100.264 219.238 100.908 219.014 101.614L218.029 101.372C218.362 100.365 218.592 99.4743 218.719 98.7C218.848 97.9178 218.952 97.2012 219.032 96.5501L219.162 95.49ZM233.304 96.1263L234.292 96.2476L232.967 107.039L231.979 106.917L233.304 96.1263ZM233.544 100.472L235.533 100.716L235.432 101.538L233.443 101.294L233.544 100.472ZM225.587 102.554L226.433 102.658C227.092 102.738 227.696 102.805 228.246 102.856C228.805 102.9 229.342 102.926 229.857 102.933C230.38 102.941 230.913 102.93 231.457 102.9L231.472 103.76C230.904 103.787 230.355 103.796 229.824 103.787C229.301 103.78 228.757 103.749 228.191 103.696C227.626 103.642 227.005 103.574 226.33 103.491L225.485 103.387L225.587 102.554ZM226.35 96.3364L231.341 96.9492L231.241 97.7591L227.228 97.2662L226.517 103.055L225.54 102.935L226.35 96.3364ZM244.807 97.5508L245.796 97.6721L244.835 105.497L243.846 105.376L244.807 97.5508ZM237.587 106.53L244.936 107.432L244.836 108.242L237.487 107.34L237.587 106.53ZM237.917 103.838L238.906 103.959L238.532 107.008L237.543 106.887L237.917 103.838ZM237.539 97.4684L238.527 97.5898L237.975 102.092L236.986 101.971L237.539 97.4684ZM237.031 101.601L237.901 101.708C238.536 101.786 239.137 101.848 239.704 101.893C240.279 101.932 240.845 101.949 241.402 101.945C241.959 101.94 242.526 101.913 243.105 101.863L243.135 102.701C242.532 102.756 241.948 102.785 241.383 102.789C240.819 102.792 240.241 102.773 239.649 102.733C239.066 102.685 238.45 102.622 237.799 102.542L236.929 102.435L237.031 101.601ZM255.217 98.8169L256.206 98.9383L254.881 109.729L253.892 109.608L255.217 98.8169ZM255.458 103.163L257.447 103.407L257.346 104.229L255.357 103.984L255.458 103.163ZM247.501 105.244L248.346 105.348C249.005 105.429 249.61 105.495 250.16 105.547C250.718 105.591 251.255 105.617 251.77 105.624C252.293 105.631 252.826 105.62 253.37 105.59L253.385 106.451C252.818 106.478 252.269 106.487 251.738 106.478C251.215 106.47 250.671 106.44 250.105 106.386C249.539 106.333 248.919 106.265 248.244 106.182L247.398 106.078L247.501 105.244ZM248.264 99.0271L253.254 99.6398L253.155 100.45L249.141 99.9569L248.43 105.745L247.454 105.625L248.264 99.0271ZM258.713 109.313C258.504 109.288 258.334 109.191 258.203 109.023C258.072 108.855 258.019 108.667 258.045 108.458C258.07 108.25 258.167 108.08 258.335 107.949C258.503 107.818 258.691 107.765 258.9 107.791C259.108 107.816 259.278 107.913 259.409 108.081C259.54 108.249 259.593 108.437 259.568 108.645C259.551 108.784 259.5 108.906 259.415 109.013C259.333 109.12 259.23 109.202 259.106 109.259C258.985 109.312 258.854 109.331 258.713 109.313Z" fill="white"/>
</svg>
