<svg width="300" height="326" viewBox="0 0 300 326" fill="none" xmlns="http://www.w3.org/2000/svg">
<rect x="91.0186" y="0.607178" width="324.649" height="117.921" transform="rotate(50 91.0186 0.607178)" fill="#9058FF"/>
<path d="M84.7291 44.7299L85.7704 45.9709L82.645 48.5935L81.6037 47.3525L84.7291 44.7299ZM87.1974 47.6715L88.2388 48.9125L85.1133 51.5351L84.072 50.2941L87.1974 47.6715ZM83.9148 42.4526L90.3786 50.1559L89.395 50.9812L82.9312 43.2779L83.9148 42.4526ZM91.5805 42.5525C92.0896 43.1592 92.4603 43.7567 92.6928 44.3449C92.9304 44.9392 93.0132 45.4859 92.9411 45.985C92.8691 46.484 92.64 46.8956 92.2539 47.2195C91.8678 47.5435 91.4228 47.6976 90.9188 47.6819C90.4209 47.6611 89.8969 47.4846 89.3467 47.1526C88.8078 46.8215 88.2838 46.3526 87.7748 45.7459C87.2657 45.1392 86.8923 44.5387 86.6547 43.9444C86.4284 43.351 86.3456 42.8044 86.4064 42.3043C86.4784 41.8052 86.7075 41.3937 87.0936 41.0697C87.4797 40.7458 87.9247 40.5916 88.4287 40.6073C88.9379 40.6292 89.4619 40.8056 90.0008 41.1367C90.5448 41.4739 91.0714 41.9458 91.5805 42.5525ZM90.6152 43.3624C90.3016 42.9886 89.9923 42.6947 89.6873 42.4806C89.3875 42.2727 89.1054 42.1543 88.8411 42.1255C88.5828 42.0915 88.3526 42.1594 88.1503 42.3291C87.9481 42.4988 87.8382 42.7163 87.8207 42.9817C87.8093 43.2419 87.8799 43.5377 88.0327 43.869C88.1966 44.2014 88.4355 44.5545 88.7492 44.9283C89.0628 45.3021 89.3665 45.5956 89.6602 45.8086C89.96 46.0166 90.239 46.1375 90.4973 46.1715C90.7668 46.2064 91.0026 46.139 91.2049 45.9693C91.4071 45.7996 91.5114 45.5816 91.5176 45.3153C91.5352 45.0499 91.4676 44.7516 91.3149 44.4202C91.1621 44.0889 90.9289 43.7363 90.6152 43.3624ZM96.1227 50.1126L96.9403 51.0871L95.9843 51.8893C95.494 52.3006 94.9692 52.6522 94.4099 52.944C93.8558 53.2419 93.2855 53.4646 92.6991 53.612C92.1239 53.7604 91.551 53.8182 90.9804 53.7853C90.4158 53.7473 89.8745 53.6062 89.3564 53.3622L89.7354 51.8536C90.1991 52.0702 90.6733 52.1997 91.158 52.2421C91.6477 52.2906 92.127 52.2644 92.5958 52.1635C93.0759 52.0635 93.5327 51.9047 93.9662 51.6871C94.4111 51.4705 94.8112 51.2131 95.1667 50.9148L96.1227 50.1126ZM96.3464 50.3792L97.1563 51.3444L96.2003 52.1466C95.8632 52.4295 95.556 52.7603 95.2787 53.1392C95.0126 53.5191 94.7953 53.926 94.6268 54.3599C94.4643 54.7886 94.3711 55.2375 94.3471 55.7067C94.3231 56.176 94.3892 56.6531 94.5455 57.138L93.0081 57.2846C92.8464 56.731 92.7897 56.1781 92.838 55.6258C92.8863 55.0736 93.0218 54.5318 93.2443 54.0004C93.4668 53.4691 93.7606 52.9667 94.1257 52.4932C94.4969 52.0147 94.9185 51.5774 95.3904 51.1814L96.3464 50.3792ZM95.1594 47.8819L99.1704 52.662L98.1593 53.5105L94.1483 48.7304L95.1594 47.8819ZM100.643 52.7738L101.669 53.9964L93.1563 61.1391L92.1305 59.9165L100.643 52.7738ZM103.483 58.0811L104.323 59.0831L103.79 59.5305C103.251 59.983 102.665 60.3235 102.031 60.552C101.403 60.7867 100.756 60.8806 100.09 60.8336C99.4304 60.7816 98.7828 60.5574 98.1474 60.1611L98.6036 58.7445C99.1476 59.0817 99.6809 59.2817 100.203 59.3444C100.737 59.4082 101.238 59.364 101.706 59.2118C102.179 59.0545 102.594 58.8267 102.949 58.5285L103.483 58.0811ZM103.691 58.3293L104.516 59.3129L103.983 59.7603C103.652 60.038 103.387 60.3754 103.188 60.7724C102.994 61.1644 102.893 61.6041 102.885 62.0917C102.881 62.5855 103.002 63.1213 103.247 63.6992L101.797 63.9131C101.504 63.2401 101.376 62.5901 101.414 61.9631C101.463 61.337 101.639 60.7562 101.941 60.2205C102.25 59.6796 102.655 59.1984 103.158 58.7767L103.691 58.3293ZM102.442 56.0565L106.306 60.662L105.332 61.4796L101.467 56.8741L102.442 56.0565ZM107.43 60.8625L108.456 62.0851L103.409 66.3198L102.383 65.0972L107.43 60.8625ZM106.229 63.3894L107.456 64.8511L106.454 65.6918L105.227 64.2302L106.229 63.3894ZM100.933 63.6671C101.431 64.2615 101.793 64.8298 102.019 65.3719C102.25 65.9089 102.341 66.3967 102.291 66.8352C102.241 67.2738 102.042 67.6397 101.692 67.9328C101.343 68.2259 100.948 68.3588 100.507 68.3317C100.061 68.3096 99.5932 68.1381 99.1045 67.8171C98.6097 67.5012 98.1129 67.0461 97.6141 66.4516C97.1205 65.8633 96.7585 65.295 96.5282 64.7468C96.2969 64.2098 96.2067 63.7164 96.2574 63.2666C96.3071 62.828 96.5066 62.4622 96.8559 62.169C97.2053 61.8759 97.6002 61.743 98.0407 61.7702C98.4864 61.8035 98.9536 61.9806 99.4422 62.3016C99.9422 62.6236 100.439 63.0788 100.933 63.6671ZM99.9766 64.4693C99.6732 64.1077 99.3941 63.8249 99.1394 63.6209C98.8847 63.4169 98.6513 63.2943 98.4391 63.253C98.2269 63.2117 98.0412 63.258 97.8818 63.3917C97.7164 63.5305 97.6355 63.708 97.6393 63.9241C97.6431 64.1402 97.7203 64.394 97.8709 64.6854C98.0275 64.9717 98.2575 65.2956 98.5609 65.6571C98.8643 66.0187 99.1434 66.3015 99.3981 66.5055C99.6641 66.7105 99.9006 66.8305 100.108 66.8657C100.32 66.907 100.509 66.8582 100.674 66.7193C100.833 66.5856 100.911 66.4107 100.907 66.1946C100.909 65.9846 100.828 65.7334 100.667 65.441C100.51 65.1548 100.28 64.8308 99.9766 64.4693ZM114.843 69.6789L115.877 70.9107L107.365 78.0534L106.331 76.8216L114.843 69.6789ZM109.481 67.7873L110.299 68.7617L109.857 69.132C109.41 69.5073 108.922 69.8281 108.393 70.0941C107.876 70.3612 107.339 70.5556 106.784 70.6773C106.233 70.8052 105.681 70.8449 105.129 70.7966C104.588 70.7493 104.07 70.6046 103.574 70.3625L103.974 68.9153C104.42 69.1361 104.871 69.2692 105.327 69.3148C105.794 69.3614 106.25 69.3445 106.694 69.2641C107.139 69.1837 107.56 69.0445 107.957 68.8465C108.36 68.6546 108.721 68.4249 109.04 68.1576L109.481 67.7873ZM109.712 68.0631L110.507 69.0099L110.066 69.3802C109.765 69.6321 109.492 69.9347 109.245 70.2879C108.998 70.6411 108.8 71.0269 108.65 71.4453C108.506 71.8586 108.422 72.2942 108.399 72.7522C108.388 73.2111 108.452 73.6795 108.591 74.1574L107.123 74.293C106.953 73.767 106.886 73.2331 106.923 72.6911C106.964 72.1553 107.086 71.6294 107.291 71.1135C107.495 70.5976 107.767 70.1132 108.108 69.6603C108.448 69.2074 108.836 68.7984 109.271 68.4333L109.712 68.0631ZM108.827 65.3281L112.792 70.0531L111.827 70.863L107.862 66.138L108.827 65.3281ZM111.494 66.0981L112.528 67.3299L110.836 68.7491L109.803 67.5173L111.494 66.0981Z" fill="white"/>
<path d="M72.8289 62.233L73.4769 63.0051L65.1576 69.9858L64.5097 69.2136L72.8289 62.233ZM67.7209 60.1592L68.2377 60.7751L67.5207 61.3767C67.0794 61.747 66.6016 62.0487 66.0871 62.282C65.5788 62.5101 65.057 62.666 64.5215 62.7497C63.9913 62.8396 63.4705 62.8537 62.9591 62.7919C62.4529 62.7363 61.9787 62.6068 61.5366 62.4034L61.7701 61.4869C62.1682 61.675 62.5947 61.7975 63.0497 61.8544C63.5098 61.9173 63.9697 61.9178 64.4294 61.8558C64.9004 61.7948 65.3568 61.6729 65.7987 61.4901C66.2406 61.3073 66.6423 61.0642 67.0038 60.7608L67.7209 60.1592ZM67.8366 60.2971L68.3534 60.913L67.6364 61.5146C67.2932 61.8026 66.9993 62.1431 66.7548 62.5363C66.5165 62.9243 66.3325 63.3397 66.2029 63.7827C66.0794 64.2205 66.0148 64.6663 66.0092 65.1201C66.0036 65.5738 66.0614 66.0161 66.1827 66.447L65.2396 66.5178C65.1099 66.0521 65.053 65.5673 65.0687 65.0633C65.0905 64.5542 65.18 64.0509 65.3371 63.5536C65.5003 63.0512 65.7296 62.5715 66.0251 62.1147C66.3258 61.664 66.6906 61.2587 67.1196 60.8987L67.8366 60.2971ZM66.6342 57.7814L70.4755 62.3593L69.8596 62.8761L66.0183 58.2982L66.6342 57.7814ZM69.5333 58.6227L70.1735 59.3857L68.5464 60.751L67.9062 59.988L69.5333 58.6227ZM76.0647 67.396C76.4092 67.8066 76.5931 68.2685 76.6164 68.7816C76.6458 69.2895 76.5175 69.8149 76.2315 70.3577C75.9455 70.9006 75.5083 71.4188 74.92 71.9125C74.3317 72.4061 73.7454 72.7467 73.1612 72.934C72.5769 73.1214 72.0342 73.1591 71.5329 73.0471C71.0317 72.9351 70.6088 72.6738 70.2642 72.2632C69.9248 71.8587 69.7409 71.3969 69.7125 70.8777C69.6893 70.3646 69.8207 69.8366 70.1066 69.2938C70.3926 68.751 70.8298 68.2327 71.4181 67.7391C72.0064 67.2454 72.5927 66.9049 73.177 66.7175C73.7612 66.5301 74.3009 66.495 74.796 66.6121C75.3024 66.7303 75.7253 66.9916 76.0647 67.396ZM75.3845 67.9668C75.1633 67.7033 74.8734 67.5445 74.5147 67.4904C74.1673 67.4373 73.7762 67.4939 73.3415 67.6603C72.9128 67.8216 72.4748 68.0899 72.0275 68.4653C71.5801 68.8407 71.2367 69.228 70.9974 69.6273C70.7642 70.0214 70.6405 70.3967 70.6263 70.7532C70.6173 71.1158 70.7259 71.432 70.9522 71.7016C71.1733 71.9651 71.4606 72.1209 71.8142 72.1688C72.1729 72.2229 72.564 72.1663 72.9875 71.9989C73.4222 71.8325 73.8633 71.5617 74.3107 71.1863C74.758 70.8109 75.0983 70.4261 75.3315 70.032C75.576 69.6389 75.6997 69.2635 75.7026 68.9061C75.7168 68.5495 75.6107 68.2365 75.3845 67.9668ZM79.5776 70.2757L80.2178 71.0387L71.8986 78.0194L71.2583 77.2564L79.5776 70.2757ZM76.7527 73.6486L78.0409 75.1837L77.3974 75.7237L76.1093 74.1885L76.7527 73.6486ZM83.9413 77.175L88.4228 82.5158L87.7977 83.0404L83.3162 77.6995L83.9413 77.175ZM77.6046 81.1605L83.9065 88.6708L83.2722 89.2031L76.9703 81.6928L77.6046 81.1605ZM81.8867 80.7004L82.5269 81.4634L79.5577 83.9549L78.9175 83.1919L81.8867 80.7004ZM88.2145 82.2676L88.8547 83.0306L87.9447 83.7943C87.5954 84.0874 87.2286 84.3846 86.8445 84.6861C86.4656 84.9936 86.0436 85.3059 85.5786 85.623C85.1249 85.941 84.5995 86.267 84.0024 86.6009L83.4527 85.7777C84.3125 85.2964 85.0376 84.8289 85.6281 84.3752C86.2248 83.9164 86.7835 83.4684 87.3045 83.0313L88.2145 82.2676ZM83.6145 82.7596L84.247 83.5133L81.2778 86.0048L80.6453 85.251L83.6145 82.7596ZM92.7833 90.4008L94.3491 92.2668L93.7148 92.7991L92.149 90.933L92.7833 90.4008ZM96.3165 90.2244L96.9567 90.9873L92.0019 95.1449L91.3617 94.3819L96.3165 90.2244ZM89.4459 92.6215C89.9293 93.1976 90.282 93.7423 90.504 94.2558C90.7311 94.7753 90.8207 95.2431 90.773 95.6592C90.7314 96.0701 90.5451 96.4143 90.2142 96.692C89.7239 97.1034 89.1357 97.174 88.4495 96.9039C87.7685 96.6399 87.068 96.0789 86.3481 95.2209C85.6281 94.363 85.1947 93.5727 85.0479 92.85C84.9061 92.1335 85.0804 91.5695 85.5707 91.1581C85.9016 90.8804 86.273 90.7568 86.6849 90.7871C87.108 90.8185 87.5531 90.988 88.0202 91.2958C88.4925 91.6097 88.9677 92.0516 89.4459 92.6215ZM88.8484 93.1229C88.4988 92.7061 88.1612 92.3785 87.8356 92.1399C87.5101 91.9013 87.2075 91.7584 86.9277 91.7112C86.653 91.6702 86.4115 91.7371 86.2032 91.9119C86.0071 92.0765 85.9054 92.2975 85.8981 92.5752C85.896 92.8589 85.9811 93.1843 86.1534 93.5515C86.3318 93.9135 86.5959 94.3028 86.9456 94.7196C87.3004 95.1424 87.638 95.4701 87.9584 95.7025C88.29 95.936 88.5931 96.0732 88.8678 96.1143C89.1476 96.1615 89.3855 96.1028 89.5817 95.9382C89.79 95.7634 89.8953 95.5341 89.8974 95.2504C89.9046 94.9728 89.819 94.653 89.6406 94.291C89.4673 93.9351 89.2032 93.5457 88.8484 93.1229ZM92.1463 86.972L92.6708 87.5971L91.9998 88.1602C91.4911 88.587 90.9308 88.8901 90.3189 89.0693C89.7182 89.2496 89.1028 89.3065 88.4727 89.24C87.8486 89.1684 87.2549 88.9773 86.6915 88.6668L86.9665 87.7624C87.3391 87.9824 87.7258 88.1383 88.1266 88.2302C88.5326 88.3282 88.9352 88.3662 89.3346 88.3444C89.7392 88.3287 90.1235 88.2516 90.4877 88.1131C90.8519 87.9746 91.1811 87.7819 91.4752 87.5351L92.1463 86.972ZM92.2697 87.1191L92.7942 87.7442L92.1324 88.2996C91.7769 88.5978 91.5001 88.9711 91.3019 89.4194C91.1036 89.8677 91.0044 90.353 91.0041 90.8754C91.0039 91.3978 91.0973 91.9199 91.2845 92.4416L90.3538 92.5646C90.1387 91.9723 90.0461 91.3765 90.0758 90.7772C90.1116 90.1727 90.2582 89.6006 90.5155 89.061C90.778 88.5275 91.1421 88.0653 91.6078 87.6745L92.2697 87.1191ZM90.8349 84.9238L94.5605 89.3638L93.9354 89.8883L90.2098 85.4483L90.8349 84.9238ZM105.551 101.229L106.191 101.992L97.8626 108.981L97.2224 108.218L105.551 101.229ZM101.868 98.1475C102.213 98.5581 102.397 99.0199 102.42 99.533C102.454 100.047 102.329 100.576 102.043 101.118C101.762 101.667 101.327 102.189 100.739 102.682C100.151 103.176 99.5618 103.513 98.9724 103.695C98.3882 103.882 97.8429 103.917 97.3365 103.799C96.8352 103.687 96.4123 103.425 96.0678 103.015C95.7232 102.604 95.5368 102.139 95.5084 101.62C95.48 101.101 95.6062 100.567 95.887 100.018C96.173 99.4749 96.6102 98.9566 97.1985 98.4629C97.7868 97.9693 98.3731 97.6288 98.9574 97.4414C99.5467 97.2601 100.092 97.2311 100.592 97.3544C101.098 97.4725 101.524 97.7369 101.868 98.1475ZM101.188 98.7183C100.957 98.4425 100.662 98.2776 100.303 98.2235C99.9554 98.1704 99.5644 98.227 99.1296 98.3934C98.701 98.5546 98.263 98.823 97.8156 99.1984C97.3682 99.5737 97.0249 99.9611 96.7855 100.36C96.5523 100.754 96.4286 101.13 96.4144 101.486C96.4054 101.849 96.5166 102.168 96.748 102.444C96.9743 102.714 97.2642 102.872 97.6177 102.92C97.9764 102.974 98.3701 102.921 98.7987 102.76C99.2335 102.593 99.6745 102.322 100.122 101.947C100.569 101.572 100.91 101.187 101.143 100.793C101.382 100.393 101.503 100.015 101.506 99.6575C101.52 99.301 101.414 98.9879 101.188 98.7183ZM106.964 104.836L112.571 111.519L111.946 112.044L106.339 105.361L106.964 104.836ZM102.183 108.174L108.508 115.712L107.883 116.237L101.558 108.699L102.183 108.174ZM104.508 111.972L105.141 112.726L102.714 114.762L102.081 114.008L104.508 111.972ZM108.676 109.117C109.386 109.963 109.822 110.725 109.984 111.403C110.146 112.082 110.003 112.609 109.556 112.984C109.121 113.349 108.58 113.396 107.934 113.123C107.294 112.846 106.619 112.284 105.909 111.439C105.199 110.593 104.764 109.831 104.601 109.152C104.446 108.469 104.585 107.944 105.02 107.579C105.468 107.204 106.011 107.155 106.651 107.432C107.292 107.71 107.966 108.271 108.676 109.117ZM108.097 109.603C107.588 108.996 107.121 108.583 106.698 108.365C106.285 108.147 105.947 108.149 105.684 108.37C105.432 108.581 105.375 108.911 105.512 109.36C105.654 109.815 105.979 110.346 106.488 110.953C106.997 111.559 107.461 111.969 107.88 112.182C108.304 112.401 108.641 112.405 108.892 112.194C109.156 111.973 109.214 111.637 109.066 111.187C108.929 110.738 108.606 110.21 108.097 109.603ZM110.456 106.981L111.088 107.735L109.682 108.915L109.049 108.162L110.456 106.981ZM117.832 117.321L118.356 117.946L116.867 119.196C116.407 119.582 115.908 119.901 115.369 120.155C114.835 120.415 114.288 120.603 113.727 120.719C113.166 120.834 112.617 120.877 112.08 120.847C111.544 120.817 111.047 120.711 110.592 120.529L110.815 119.544C111.225 119.722 111.667 119.831 112.14 119.873C112.625 119.915 113.118 119.893 113.62 119.806C114.121 119.72 114.603 119.571 115.064 119.362C115.536 119.153 115.963 118.89 116.343 118.571L117.832 117.321ZM117.947 117.459L118.464 118.075L116.975 119.325C116.607 119.633 116.286 119.991 116.012 120.399C115.743 120.813 115.532 121.251 115.378 121.715C115.223 122.178 115.126 122.641 115.086 123.103C115.05 123.571 115.083 124.014 115.182 124.432L114.182 124.472C114.075 124.008 114.05 123.518 114.107 123C114.168 122.489 114.296 121.975 114.489 121.458C114.693 120.942 114.957 120.449 115.283 119.977C115.619 119.507 116.011 119.084 116.458 118.709L117.947 117.459ZM121.565 120.314L122.205 121.077L113.886 128.058L113.245 127.295L121.565 120.314ZM118.694 123.725L119.982 125.261L119.329 125.808L118.041 124.273L118.694 123.725ZM122.668 127.36L123.308 128.123L121.746 129.435L121.105 128.672L122.668 127.36ZM125.229 130.412L125.861 131.166L124.299 132.477L123.666 131.723L125.229 130.412ZM119.831 126.592L126.133 134.103L125.517 134.62L119.215 127.109L119.831 126.592ZM121.728 131.392C122.473 132.281 122.931 133.082 123.102 133.795C123.272 134.508 123.121 135.063 122.65 135.459C122.171 135.86 121.596 135.915 120.923 135.623C120.244 135.337 119.532 134.749 118.786 133.86C118.04 132.972 117.583 132.165 117.413 131.44C117.243 130.727 117.397 130.17 117.875 129.769C118.347 129.373 118.919 129.321 119.592 129.612C120.27 129.91 120.982 130.503 121.728 131.392ZM121.139 131.886C120.774 131.451 120.427 131.105 120.097 130.849C119.773 130.599 119.474 130.448 119.2 130.396C118.932 130.338 118.707 130.387 118.523 130.541C118.327 130.706 118.231 130.927 118.235 131.206C118.245 131.479 118.345 131.797 118.534 132.16C118.729 132.529 119.009 132.932 119.374 133.367C119.739 133.802 120.084 134.144 120.409 134.394C120.738 134.65 121.037 134.807 121.305 134.864C121.578 134.917 121.813 134.861 122.009 134.696C122.193 134.542 122.28 134.328 122.27 134.054C122.266 133.776 122.166 133.452 121.972 133.083C121.782 132.72 121.504 132.321 121.139 131.886ZM126.931 127.026C127.435 127.627 127.808 128.196 128.05 128.734C128.298 129.278 128.403 129.764 128.366 130.193C128.339 130.622 128.164 130.973 127.839 131.245C127.52 131.513 127.144 131.625 126.711 131.581C126.283 131.544 125.822 131.356 125.329 131.017C124.848 130.68 124.355 130.211 123.851 129.61C123.347 129.01 122.968 128.44 122.715 127.901C122.472 127.363 122.367 126.877 122.399 126.442C122.437 126.014 122.615 125.666 122.933 125.399C123.258 125.126 123.632 125.011 124.054 125.054C124.487 125.098 124.948 125.286 125.435 125.618C125.928 125.956 126.427 126.426 126.931 127.026ZM126.333 127.528C125.968 127.092 125.612 126.743 125.266 126.48C124.925 126.223 124.61 126.065 124.32 126.006C124.035 125.952 123.791 126.011 123.589 126.18C123.393 126.345 123.293 126.575 123.29 126.87C123.298 127.166 123.399 127.504 123.593 127.884C123.792 128.271 124.074 128.681 124.439 129.117C124.815 129.564 125.173 129.916 125.514 130.173C125.855 130.43 126.168 130.585 126.453 130.639C126.744 130.687 126.987 130.629 127.184 130.464C127.386 130.294 127.485 130.064 127.482 129.775C127.479 129.485 127.381 129.15 127.187 128.769C126.993 128.389 126.709 127.975 126.333 127.528ZM135.764 137.236L136.396 137.99L128.077 144.97L127.445 144.217L135.764 137.236ZM132.83 140.685L134.118 142.22L133.475 142.76L132.187 141.224L132.83 140.685ZM129.664 132.673L133.775 137.573L133.15 138.098L129.039 133.198L129.664 132.673ZM130.449 136.26C130.778 136.652 130.986 137.068 131.073 137.507C131.164 137.952 131.138 138.381 130.994 138.795C130.861 139.209 130.608 139.573 130.234 139.887C129.86 140.2 129.455 140.389 129.018 140.453C128.586 140.523 128.158 140.475 127.736 140.307C127.324 140.14 126.954 139.861 126.625 139.469C126.296 139.077 126.082 138.66 125.985 138.22C125.898 137.781 125.924 137.352 126.063 136.932C126.202 136.513 126.459 136.146 126.832 135.833C127.206 135.519 127.609 135.333 128.04 135.274C128.477 135.21 128.904 135.259 129.322 135.42C129.744 135.588 130.12 135.868 130.449 136.26ZM129.815 136.792C129.604 136.541 129.361 136.364 129.086 136.26C128.811 136.156 128.53 136.126 128.242 136.169C127.96 136.218 127.693 136.348 127.442 136.559C127.19 136.77 127.013 137.013 126.91 137.288C126.817 137.563 126.798 137.846 126.852 138.134C126.913 138.418 127.048 138.685 127.259 138.937C127.465 139.182 127.702 139.359 127.971 139.467C128.246 139.571 128.525 139.598 128.807 139.549C129.101 139.501 129.373 139.371 129.625 139.16C129.876 138.95 130.048 138.706 130.14 138.43C130.237 138.161 130.259 137.882 130.205 137.593C130.15 137.304 130.021 137.037 129.815 136.792ZM132.655 133.736L133.295 134.499L131.787 135.764L131.147 135.001L132.655 133.736ZM137.966 141.559L142.455 146.909L141.83 147.434L137.341 142.084L137.966 141.559ZM131.614 145.526L137.916 153.037L137.281 153.569L130.98 146.058L131.614 145.526ZM137.036 145.958L137.668 146.712L134.378 149.473L133.745 148.719L137.036 145.958ZM142.208 146.615L142.849 147.378L142.03 148.064C141.687 148.352 141.32 148.65 140.93 148.956C140.545 149.269 140.108 149.594 139.618 149.932C139.134 150.275 138.569 150.629 137.924 150.993L137.368 150.144C138.299 149.635 139.074 149.14 139.695 148.661C140.323 148.176 140.888 147.723 141.39 147.301L142.208 146.615ZM144.012 157.464L144.513 158.061L144.072 158.432C143.71 158.735 143.293 158.96 142.821 159.106C142.348 159.252 141.855 159.3 141.343 159.249C140.836 159.205 140.339 159.042 139.852 158.761L140.097 157.914C140.519 158.155 140.946 158.303 141.378 158.358C141.816 158.419 142.22 158.403 142.592 158.311C142.975 158.219 143.301 158.06 143.571 157.834L144.012 157.464ZM144.158 157.639L144.629 158.199L144.188 158.57C143.906 158.806 143.673 159.095 143.49 159.437C143.307 159.779 143.194 160.155 143.153 160.566C143.116 160.983 143.167 161.41 143.305 161.848L142.463 162.022C142.283 161.483 142.226 160.967 142.292 160.474C142.363 159.986 142.525 159.531 142.778 159.111C143.036 158.685 143.349 158.317 143.717 158.009L144.158 157.639ZM146.596 160.543L147.066 161.104L146.625 161.474C146.3 161.747 145.906 161.968 145.443 162.138C144.984 162.313 144.494 162.401 143.972 162.401C143.461 162.401 142.958 162.275 142.463 162.022L142.765 161.205C143.196 161.407 143.623 161.518 144.047 161.538C144.477 161.553 144.874 161.503 145.236 161.387C145.609 161.272 145.916 161.114 146.155 160.914L146.596 160.543ZM146.719 160.69L147.221 161.288L146.779 161.658C146.491 161.9 146.267 162.198 146.105 162.553C145.948 162.914 145.863 163.31 145.848 163.74C145.844 164.171 145.927 164.613 146.098 165.065L145.221 165.159C145.029 164.631 144.946 164.116 144.973 163.613C145.006 163.104 145.133 162.633 145.352 162.198C145.583 161.764 145.892 161.385 146.278 161.061L146.719 160.69ZM152.463 157.156L153.103 157.919L148.36 161.899L147.719 161.136L152.463 157.156ZM148.884 153.861C149.239 154.284 149.47 154.727 149.577 155.191C149.684 155.655 149.667 156.102 149.528 156.533C149.399 156.964 149.142 157.342 148.756 157.666C148.376 157.985 147.962 158.17 147.514 158.222C147.072 158.28 146.632 158.216 146.194 158.03C145.756 157.844 145.36 157.539 145.005 157.116C144.655 156.7 144.424 156.256 144.312 155.787C144.205 155.323 144.216 154.875 144.344 154.444C144.478 154.018 144.735 153.646 145.115 153.327C145.501 153.003 145.915 152.812 146.357 152.754C146.811 152.698 147.257 152.762 147.695 152.948C148.138 153.14 148.534 153.445 148.884 153.861ZM148.241 154.401C148.014 154.132 147.756 153.936 147.466 153.814C147.175 153.692 146.878 153.649 146.574 153.685C146.281 153.722 146.003 153.851 145.74 154.072C145.482 154.288 145.307 154.539 145.214 154.826C145.132 155.114 145.125 155.412 145.195 155.719C145.265 156.026 145.413 156.314 145.639 156.584C145.87 156.86 146.131 157.059 146.422 157.181C146.712 157.303 147.003 157.345 147.296 157.308C147.595 157.266 147.873 157.137 148.131 156.921C148.394 156.7 148.57 156.449 148.657 156.167C148.75 155.88 148.762 155.583 148.692 155.275C148.622 154.968 148.472 154.677 148.241 154.401ZM152.84 162.665L157.584 168.318L156.968 168.835L152.225 163.182L152.84 162.665ZM150.256 163.095L156.581 170.632L155.956 171.157L149.631 163.619L150.256 163.095ZM155.037 160.821L155.67 161.575L153.16 163.681L152.528 162.927L155.037 160.821ZM147.803 166.798L152.631 172.553L152.006 173.077L147.178 167.323L147.803 166.798ZM149.604 165.286L150.245 166.049L148.277 167.7L147.637 166.937L149.604 165.286ZM160.23 176.847L160.885 177.629L157.714 180.29L157.058 179.509L160.23 176.847ZM162.628 179.706L163.276 180.478L160.105 183.14L159.457 182.367L162.628 179.706ZM159.016 174.561L165.341 182.099L164.716 182.623L158.391 175.085L159.016 174.561ZM166.566 174.616C167.054 175.199 167.405 175.772 167.617 176.335C167.835 176.894 167.912 177.409 167.848 177.88C167.784 178.352 167.565 178.744 167.191 179.058C166.829 179.361 166.408 179.506 165.926 179.492C165.451 179.473 164.957 179.308 164.445 178.996C163.933 178.685 163.433 178.238 162.944 177.656C162.466 177.086 162.115 176.518 161.892 175.954C161.674 175.395 161.597 174.88 161.661 174.409C161.731 173.932 161.947 173.542 162.308 173.239C162.682 172.925 163.107 172.778 163.582 172.797C164.057 172.816 164.551 172.981 165.063 173.293C165.587 173.605 166.088 174.047 166.566 174.616ZM165.95 175.133C165.6 174.717 165.24 174.387 164.87 174.144C164.504 173.908 164.155 173.778 163.822 173.755C163.495 173.726 163.209 173.815 162.964 174.02C162.725 174.221 162.588 174.487 162.553 174.819C162.525 175.146 162.595 175.51 162.765 175.911C162.945 176.313 163.21 176.722 163.56 177.139C163.92 177.568 164.28 177.903 164.639 178.145C165.004 178.381 165.351 178.513 165.677 178.542C166.01 178.565 166.296 178.477 166.535 178.276C166.78 178.071 166.917 177.804 166.946 177.478C166.981 177.146 166.913 176.779 166.744 176.378C166.575 175.977 166.31 175.562 165.95 175.133ZM171.502 182.254L172.026 182.879L170.684 184.005C170.243 184.375 169.756 184.679 169.225 184.916C168.699 185.149 168.153 185.314 167.588 185.412C167.035 185.511 166.493 185.538 165.963 185.491C165.433 185.445 164.947 185.326 164.504 185.134L164.74 184.183C165.139 184.36 165.575 184.475 166.047 184.528C166.525 184.586 167.011 184.581 167.505 184.51C168 184.44 168.474 184.308 168.928 184.115C169.388 183.928 169.798 183.683 170.16 183.38L171.502 182.254ZM171.633 182.41L172.15 183.026L170.808 184.152C170.458 184.445 170.155 184.793 169.898 185.197C169.653 185.601 169.462 186.033 169.325 186.492C169.2 186.953 169.131 187.412 169.119 187.871C169.113 188.336 169.171 188.779 169.293 189.198L168.331 189.284C168.208 188.814 168.158 188.318 168.18 187.798C168.203 187.277 168.297 186.76 168.461 186.246C168.636 185.734 168.875 185.246 169.176 184.784C169.484 184.317 169.856 183.901 170.291 183.536L171.633 182.41ZM170.222 180.038L174.117 184.68L173.483 185.212L169.588 180.57L170.222 180.038ZM175.921 185.093L176.561 185.856L168.242 192.837L167.602 192.074L175.921 185.093ZM178.777 190.308L179.302 190.933L178.631 191.497C178.116 191.929 177.559 192.229 176.959 192.398C176.365 192.573 175.759 192.622 175.141 192.546C174.528 192.475 173.938 192.276 173.37 191.948L173.653 191.053C174.15 191.346 174.664 191.536 175.196 191.622C175.734 191.703 176.253 191.68 176.752 191.554C177.257 191.433 177.708 191.206 178.106 190.871L178.777 190.308ZM178.893 190.446L179.418 191.071L178.747 191.634C178.385 191.938 178.111 192.309 177.925 192.747C177.739 193.185 177.65 193.657 177.657 194.163C177.663 194.669 177.766 195.183 177.965 195.706L177.066 195.848C176.835 195.249 176.728 194.655 176.745 194.066C176.763 193.477 176.894 192.918 177.139 192.388C177.395 191.86 177.756 191.4 178.222 191.009L178.893 190.446ZM177.495 188.22L181.228 192.669L180.603 193.194L176.87 188.745L177.495 188.22ZM182.724 193.2L183.364 193.963L178.354 198.167L177.714 197.404L182.724 193.2ZM181.072 195.526L182.275 196.96L181.641 197.492L180.438 196.058L181.072 195.526ZM175.903 195.713C176.376 196.276 176.721 196.812 176.938 197.319C177.166 197.828 177.259 198.287 177.217 198.698C177.176 199.109 176.992 199.451 176.668 199.723C176.343 199.996 175.974 200.117 175.563 200.087C175.151 200.056 174.711 199.887 174.244 199.579C173.782 199.278 173.315 198.845 172.842 198.281C172.368 197.717 172.021 197.179 171.799 196.665C171.577 196.152 171.487 195.69 171.528 195.279C171.57 194.868 171.753 194.526 172.078 194.254C172.403 193.981 172.771 193.86 173.183 193.89C173.595 193.921 174.031 194.092 174.492 194.405C174.959 194.713 175.43 195.149 175.903 195.713ZM175.296 196.222C174.951 195.811 174.616 195.487 174.291 195.248C173.971 195.015 173.676 194.876 173.408 194.83C173.139 194.784 172.907 194.843 172.711 195.007C172.514 195.172 172.413 195.393 172.406 195.671C172.404 195.943 172.491 196.257 172.664 196.613C172.842 196.975 173.104 197.362 173.448 197.772C173.793 198.183 174.125 198.504 174.446 198.737C174.766 198.969 175.06 199.108 175.329 199.155C175.604 199.196 175.839 199.134 176.035 198.969C176.231 198.805 176.33 198.586 176.331 198.314C176.332 198.041 176.246 197.727 176.073 197.371C175.899 197.016 175.64 196.632 175.296 196.222ZM190.113 202.006L190.76 202.778L182.441 209.759L181.793 208.987L190.113 202.006ZM185.005 199.932L185.521 200.548L184.804 201.15C184.363 201.52 183.885 201.822 183.371 202.055C182.862 202.283 182.341 202.439 181.805 202.523C181.275 202.613 180.754 202.627 180.243 202.565C179.737 202.509 179.262 202.38 178.82 202.177L179.054 201.26C179.452 201.448 179.878 201.571 180.333 201.628C180.793 201.691 181.253 201.691 181.713 201.629C182.184 201.568 182.64 201.446 183.082 201.263C183.524 201.081 183.926 200.837 184.287 200.534L185.005 199.932ZM185.12 200.07L185.637 200.686L184.92 201.288C184.577 201.576 184.283 201.916 184.038 202.309C183.8 202.697 183.616 203.113 183.486 203.556C183.363 203.994 183.298 204.439 183.293 204.893C183.287 205.347 183.345 205.789 183.466 206.22L182.523 206.291C182.394 205.825 182.337 205.341 182.352 204.837C182.374 204.327 182.464 203.824 182.621 203.327C182.784 202.824 183.013 202.345 183.309 201.888C183.609 201.437 183.974 201.032 184.403 200.672L185.12 200.07ZM183.918 197.555L187.759 202.132L187.143 202.649L183.302 198.071L183.918 197.555ZM186.817 198.396L187.457 199.159L185.83 200.524L185.19 199.761L186.817 198.396ZM185.163 211.653C185.028 211.492 184.97 211.305 184.988 211.093C185.007 210.881 185.097 210.707 185.258 210.572C185.419 210.437 185.605 210.379 185.818 210.397C186.03 210.416 186.203 210.506 186.338 210.667C186.474 210.828 186.532 211.014 186.513 211.227C186.495 211.439 186.405 211.612 186.244 211.747C186.137 211.837 186.016 211.892 185.882 211.912C185.749 211.935 185.617 211.925 185.488 211.881C185.363 211.838 185.255 211.762 185.163 211.653ZM61.036 71.5332L61.6762 72.2962L55.4436 77.5259L54.8034 76.7629L61.036 71.5332ZM58.7454 74.348L59.9719 75.8097L59.3376 76.3419L58.1112 74.8803L58.7454 74.348ZM55.2656 66.7099L59.3846 71.6187L58.7687 72.1355L54.6497 67.2267L55.2656 66.7099ZM56.2587 70.059C56.5878 70.4512 56.811 70.8541 56.9281 71.2675C57.0514 71.6758 57.066 72.0603 56.972 72.4212C56.8841 72.7769 56.6838 73.0859 56.3713 73.3482C56.0588 73.6104 55.7166 73.7565 55.3449 73.7865C54.9793 73.8113 54.6062 73.7275 54.2255 73.5352C53.8448 73.3429 53.49 73.0507 53.1608 72.6585C52.8317 72.2662 52.6055 71.866 52.4823 71.4577C52.359 71.0494 52.3387 70.6644 52.4215 70.3025C52.5155 69.9416 52.7188 69.6301 53.0314 69.3678C53.3439 69.1056 53.683 68.962 54.0486 68.9372C54.4254 68.9134 54.8042 68.9977 55.1849 69.19C55.5717 69.3771 55.9296 69.6668 56.2587 70.059ZM55.6612 70.5604C55.3475 70.1866 55.0041 69.9578 54.631 69.874C54.264 69.7851 53.9365 69.8615 53.6485 70.1032C53.3604 70.3449 53.2283 70.6542 53.2521 71.031C53.2759 71.4079 53.4447 71.7833 53.7584 72.1571C54.0772 72.537 54.4175 72.7684 54.7794 72.8512C55.1464 72.9401 55.4739 72.8637 55.7619 72.622C56.05 72.3803 56.1821 72.071 56.1583 71.6942C56.1457 71.3183 55.98 70.9404 55.6612 70.5604ZM58.02 67.9389L58.6602 68.7019L57.3365 69.8126L56.6963 69.0496L58.02 67.9389ZM49.8324 73.4149L54.4836 78.958L53.8585 79.4825L49.2073 73.9394L49.8324 73.4149ZM51.5974 71.934L52.2299 72.6877L50.2075 74.3847L49.575 73.6309L51.5974 71.934ZM59.2664 77.7319L65.576 85.2514L64.9601 85.7682L58.6505 78.2487L59.2664 77.7319ZM63.4379 79.9963L64.0627 80.7409L62.4724 82.0753L61.8476 81.3307L63.4379 79.9963ZM61.6328 77.3597L66.4075 83.0499L65.7916 83.5667L61.0169 77.8765L61.6328 77.3597ZM63.7747 75.5625L68.503 81.1975L67.8963 81.7066L63.8005 76.8254L61.8976 78.4221L61.2651 77.6683L63.7747 75.5625ZM61.2001 82.5006C61.9457 83.3892 62.3976 84.1954 62.5558 84.919C62.72 85.6375 62.5632 86.1973 62.0852 86.5984C61.6072 86.9995 61.0286 87.0568 60.3496 86.7702C59.6644 86.4888 58.949 85.9038 58.2033 85.0152C57.4577 84.1266 57.0032 83.3174 56.8399 82.5876C56.6757 81.8691 56.8325 81.3093 57.3105 80.9082C57.7886 80.5071 58.3671 80.4499 59.0461 80.7364C59.7365 81.0239 60.4545 81.612 61.2001 82.5006ZM60.5949 82.9928C60.2349 82.5638 59.887 82.2239 59.5512 81.9731C59.2267 81.7232 58.9276 81.5721 58.6539 81.5198C58.3864 81.4623 58.1546 81.5158 57.9585 81.6804C57.7685 81.8398 57.6755 82.0588 57.6795 82.3374C57.6835 82.616 57.7804 82.9368 57.9701 83.2998C58.1588 83.674 58.4332 84.0757 58.7931 84.5046C59.1634 84.9459 59.5138 85.2889 59.8445 85.5336C60.1742 85.7896 60.4758 85.9437 60.7495 85.996C61.0232 86.0484 61.255 85.9948 61.445 85.8354C61.6411 85.6709 61.734 85.4519 61.7239 85.1784C61.7199 84.8998 61.6204 84.576 61.4256 84.2069C61.242 83.8387 60.9651 83.434 60.5949 82.9928ZM75.2367 88.4383L75.8769 89.2013L69.7547 94.3384L69.1145 93.5754L75.2367 88.4383ZM73.1484 91.0835L74.3749 92.5451L73.7406 93.0773L72.5141 91.6157L73.1484 91.0835ZM64.0239 90.3278L68.6751 95.8709L68.0501 96.3954L63.3988 90.8523L64.0239 90.3278ZM66.0371 88.6385L66.6696 89.3923L64.4082 91.2898L63.7757 90.536L66.0371 88.6385ZM71.8175 85.5583C72.1672 85.975 72.3895 86.4203 72.4843 86.8943C72.5852 87.3631 72.5622 87.821 72.4152 88.2681C72.2682 88.7152 71.9924 89.1084 71.588 89.4478C71.1958 89.7769 70.7637 89.9776 70.2917 90.0499C69.8198 90.1222 69.3586 90.0705 68.9084 89.8948C68.4642 89.714 68.0673 89.4152 67.7177 88.9985C67.3731 88.5879 67.1478 88.1451 67.0417 87.6702C66.9469 87.1963 66.9761 86.7332 67.1292 86.281C67.2823 85.8287 67.555 85.4381 67.9472 85.1089C68.3517 84.7696 68.7868 84.5663 69.2527 84.4992C69.7185 84.432 70.1735 84.4889 70.6176 84.6697C71.073 84.8515 71.473 85.1477 71.8175 85.5583ZM71.1557 86.1137C70.9294 85.844 70.6681 85.6508 70.3716 85.534C70.0752 85.4172 69.7688 85.3819 69.4525 85.428C69.1413 85.4803 68.8478 85.6221 68.572 85.8535C68.3024 86.0798 68.1148 86.3416 68.0093 86.639C67.9089 86.9426 67.8905 87.2504 67.954 87.5626C68.0176 87.8748 68.1625 88.1658 68.3887 88.4354C68.615 88.7051 68.8763 88.8983 69.1727 89.0151C69.4743 89.138 69.7807 89.1733 70.0919 89.121C70.4082 89.0749 70.7012 88.9387 70.9709 88.7124C71.2467 88.481 71.4347 88.2135 71.5351 87.91C71.6406 87.6126 71.6591 87.3047 71.5904 86.9864C71.5268 86.6742 71.3819 86.3833 71.1557 86.1137ZM84.8027 99.8386L85.4429 100.602L77.1237 107.582L76.4835 106.819L84.8027 99.8386ZM80.3845 96.4027L80.9784 97.1106C80.482 97.5271 79.9604 97.9073 79.4136 98.2513C78.878 98.5963 78.31 98.8901 77.7096 99.1329C77.1091 99.3756 76.4859 99.5539 75.84 99.6677C75.194 99.7816 74.5151 99.8187 73.803 99.7791L73.7429 98.8114C74.375 98.8553 74.9819 98.8318 75.5634 98.7407C76.1561 98.6506 76.7256 98.5016 77.2719 98.2939C77.8182 98.0862 78.3402 97.8309 78.838 97.5281C79.342 97.2201 79.8299 96.8681 80.3018 96.4722L80.3845 96.4027ZM79.0809 94.8492L80.6159 96.6785L79.9816 97.2107L78.4466 95.3814L79.0809 94.8492ZM82.3206 98.7101L82.9145 99.4179C82.4181 99.8344 81.8858 100.239 81.3176 100.632C80.7495 101.026 80.1479 101.379 79.5128 101.693C78.8839 102.001 78.218 102.247 77.5149 102.429C76.8169 102.618 76.0875 102.713 75.3264 102.715L75.1909 101.732C75.8946 101.737 76.5684 101.662 77.2121 101.508C77.8559 101.355 78.4682 101.138 79.0491 100.86C79.6412 100.582 80.203 100.262 80.7344 99.9C81.2709 99.5438 81.7751 99.1677 82.247 98.7718L82.3206 98.7101ZM81.2098 97.3863L82.5443 98.9766L81.91 99.5089L80.5755 97.9186L81.2098 97.3863ZM86.6576 103.748L91.1468 109.098L90.5217 109.623L86.0325 104.273L86.6576 103.748ZM80.3055 107.715L86.6074 115.225L85.9731 115.758L79.6712 108.247L80.3055 107.715ZM85.7276 108.147L86.3601 108.901L83.0692 111.662L82.4367 110.908L85.7276 108.147ZM90.9 108.804L91.5402 109.567L90.722 110.253C90.3789 110.541 90.0121 110.839 89.6219 111.145C89.2368 111.458 88.7995 111.783 88.31 112.121C87.8257 112.464 87.2609 112.818 86.6158 113.182L86.0598 112.333C86.9902 111.823 87.766 111.329 88.3871 110.85C89.0144 110.365 89.5793 109.912 90.0818 109.49L90.9 108.804ZM96.6133 116.341L97.1301 116.957L95.788 118.083C95.3528 118.448 94.8694 118.749 94.3375 118.987C93.8118 119.219 93.2665 119.384 92.7014 119.482C92.1476 119.582 91.6053 119.614 91.0746 119.578C90.55 119.538 90.0687 119.425 89.6307 119.239L89.8595 118.28C90.2585 118.457 90.6917 118.568 91.1589 118.615C91.6374 118.662 92.1239 118.651 92.6184 118.581C93.119 118.505 93.5959 118.377 94.0491 118.195C94.5084 118.008 94.9157 117.765 95.2712 117.467L96.6133 116.341ZM96.7367 116.488L97.2458 117.095L95.9037 118.221C95.5727 118.498 95.2824 118.831 95.0328 119.218C94.7883 119.611 94.5951 120.034 94.4533 120.487C94.3114 120.941 94.2259 121.399 94.1967 121.862C94.1788 122.326 94.2198 122.767 94.3195 123.184L93.3503 123.261C93.2432 122.798 93.2093 122.309 93.2485 121.796C93.2939 121.277 93.4069 120.765 93.5875 120.258C93.7681 119.752 94.0118 119.27 94.3185 118.815C94.6253 118.359 94.984 117.959 95.3946 117.614L96.7367 116.488ZM95.3644 114.162L99.1286 118.648L98.4943 119.18L94.7301 114.694L95.3644 114.162ZM100.809 118.914L101.449 119.677L93.1298 126.658L92.4896 125.895L100.809 118.914ZM97.9472 122.318L99.2354 123.853L98.5919 124.393L97.3037 122.858L97.9472 122.318ZM101.532 124.854L106.276 130.507L105.66 131.024L100.916 125.371L101.532 124.854ZM98.9477 125.284L105.273 132.821L104.648 133.346L98.3226 125.808L98.9477 125.284ZM103.729 123.01L104.362 123.764L101.852 125.87L101.22 125.116L103.729 123.01ZM96.4943 128.987L101.323 134.742L100.698 135.266L95.8692 129.512L96.4943 128.987ZM98.296 127.475L98.9362 128.238L96.969 129.889L96.3288 129.126L98.296 127.475ZM117.548 138.863L118.188 139.626L113.932 143.197L113.292 142.434L117.548 138.863ZM114.041 138.735L115.653 140.656L115.028 141.18L113.416 139.259L114.041 138.735ZM114.906 136.536L115.577 137.336C114.885 137.917 114.144 138.278 113.353 138.419C112.569 138.555 111.754 138.492 110.908 138.231C110.067 137.975 109.212 137.534 108.341 136.907L108.733 136.124C109.497 136.673 110.229 137.067 110.93 137.304C111.635 137.548 112.295 137.631 112.909 137.554C113.524 137.477 114.073 137.236 114.557 136.829L114.906 136.536ZM112.515 133.687L115.423 137.152L114.798 137.677L111.89 134.211L112.515 133.687ZM109.075 138.155L113.564 143.505L111.523 145.218L107.682 140.64L106.358 141.751L105.726 140.997L107.629 139.4L111.462 143.969L112.308 143.259L108.459 138.672L109.075 138.155ZM106.094 140.688L110.799 146.296L110.183 146.813L105.478 141.205L106.094 140.688ZM119.378 152.227L119.918 152.87L119.688 153.063C119.357 153.341 118.984 153.518 118.569 153.595C118.159 153.667 117.726 153.655 117.269 153.558C116.817 153.468 116.363 153.3 115.907 153.056C115.451 152.823 115.016 152.529 114.604 152.175L114.952 151.414C115.305 151.723 115.677 151.985 116.067 152.201C116.462 152.423 116.848 152.585 117.226 152.686C117.609 152.782 117.967 152.81 118.3 152.771C118.633 152.732 118.916 152.615 119.148 152.42L119.378 152.227ZM119.494 152.365L120.034 153.008L119.804 153.201C119.571 153.396 119.407 153.654 119.31 153.975C119.214 154.296 119.18 154.654 119.208 155.048C119.241 155.449 119.33 155.86 119.475 156.281C119.631 156.704 119.833 157.119 120.081 157.527L119.271 157.737C118.994 157.27 118.775 156.79 118.613 156.299C118.452 155.808 118.363 155.329 118.347 154.862C118.331 154.395 118.397 153.964 118.545 153.568C118.694 153.172 118.933 152.835 119.264 152.557L119.494 152.365ZM117.747 149.648L122.313 155.09L121.661 155.638L117.094 150.196L117.747 149.648ZM126.781 149.885L127.421 150.648L122.668 154.635L122.028 153.872L126.781 149.885ZM123.202 146.59C123.557 147.013 123.788 147.456 123.895 147.92C124.002 148.384 123.988 148.828 123.855 149.254C123.726 149.685 123.472 150.061 123.092 150.38C122.712 150.698 122.298 150.884 121.851 150.935C121.408 150.993 120.968 150.929 120.53 150.743C120.092 150.557 119.696 150.253 119.341 149.83C118.991 149.413 118.76 148.97 118.648 148.5C118.541 148.037 118.552 147.589 118.68 147.157C118.814 146.732 119.071 146.359 119.451 146.041C119.831 145.722 120.242 145.534 120.684 145.476C121.132 145.424 121.575 145.491 122.013 145.677C122.456 145.869 122.852 146.174 123.202 146.59ZM122.558 147.13C122.327 146.854 122.066 146.656 121.776 146.534C121.485 146.412 121.194 146.369 120.901 146.406C120.608 146.443 120.333 146.569 120.076 146.785C119.818 147.001 119.643 147.253 119.55 147.54C119.463 147.822 119.454 148.116 119.524 148.423C119.593 148.731 119.744 149.022 119.975 149.298C120.207 149.573 120.467 149.772 120.758 149.894C121.048 150.016 121.34 150.059 121.632 150.022C121.931 149.98 122.21 149.851 122.467 149.635C122.724 149.419 122.897 149.17 122.984 148.888C123.071 148.606 123.08 148.312 123.01 148.004C122.94 147.697 122.79 147.406 122.558 147.13ZM125.527 158.658L126.028 159.256L125.541 159.665C125.179 159.968 124.759 160.195 124.28 160.346C123.808 160.492 123.315 160.54 122.803 160.49C122.296 160.445 121.796 160.285 121.303 160.009L121.557 159.154C121.979 159.395 122.403 159.546 122.829 159.606C123.267 159.667 123.674 159.649 124.052 159.551C124.441 159.455 124.77 159.293 125.04 159.067L125.527 158.658ZM125.666 158.824L126.144 159.394L125.657 159.802C125.375 160.039 125.139 160.331 124.95 160.677C124.767 161.019 124.651 161.398 124.603 161.814C124.562 162.225 124.612 162.658 124.754 163.113L123.906 163.261C123.731 162.729 123.68 162.213 123.752 161.714C123.824 161.215 123.986 160.755 124.239 160.334C124.498 159.908 124.811 159.541 125.178 159.232L125.666 158.824ZM128.103 161.728L128.581 162.298L128.094 162.707C127.769 162.98 127.375 163.206 126.91 163.387C126.452 163.563 125.962 163.651 125.439 163.65C124.917 163.65 124.406 163.52 123.906 163.261L124.206 162.461C124.643 162.658 125.077 162.764 125.507 162.779C125.937 162.794 126.337 162.741 126.705 162.62C127.073 162.499 127.377 162.338 127.616 162.137L128.103 161.728ZM128.234 161.885L128.728 162.473L128.241 162.882C127.953 163.124 127.725 163.424 127.557 163.785C127.394 164.151 127.309 164.546 127.3 164.972C127.296 165.403 127.382 165.848 127.558 166.306L126.664 166.398C126.472 165.87 126.392 165.352 126.425 164.844C126.463 164.342 126.595 163.871 126.821 163.431C127.052 162.997 127.361 162.618 127.747 162.294L128.234 161.885ZM130.156 158.126L131.999 160.323L131.374 160.848L129.531 158.651L130.156 158.126ZM130.247 154.949C130.586 155.353 130.807 155.784 130.908 156.242C131.016 156.705 130.999 157.152 130.859 157.583C130.719 158.014 130.459 158.388 130.08 158.707C129.693 159.031 129.276 159.225 128.828 159.288C128.385 159.346 127.945 159.281 127.507 159.095C127.074 158.916 126.688 158.624 126.349 158.219C126.004 157.808 125.779 157.371 125.671 156.908C125.57 156.45 125.585 156.009 125.719 155.583C125.859 155.152 126.122 154.775 126.508 154.451C126.888 154.132 127.302 153.941 127.751 153.878C128.199 153.815 128.64 153.874 129.073 154.054C129.511 154.24 129.902 154.538 130.247 154.949ZM129.603 155.488C129.377 155.219 129.118 155.023 128.828 154.901C128.543 154.785 128.248 154.751 127.943 154.798C127.644 154.84 127.369 154.966 127.118 155.177C126.86 155.393 126.685 155.645 126.592 155.932C126.498 156.219 126.481 156.516 126.539 156.822C126.609 157.129 126.757 157.417 126.983 157.687C127.204 157.95 127.457 158.14 127.743 158.256C128.039 158.373 128.337 158.41 128.636 158.368C128.935 158.326 129.213 158.197 129.47 157.981C129.721 157.77 129.894 157.521 129.987 157.234C130.086 156.942 130.101 156.642 130.032 156.335C129.967 156.034 129.824 155.752 129.603 155.488ZM133.909 158.361L134.549 159.124L129.806 163.104L129.165 162.341L133.909 158.361ZM140.627 166.367L141.267 167.13L132.938 174.118L132.298 173.355L140.627 166.367ZM137.838 169.709L139.127 171.244L138.492 171.776L137.204 170.241L137.838 169.709ZM130.599 165.805L131.147 166.457C131.574 166.966 131.971 167.427 132.338 167.839C132.716 168.253 133.091 168.638 133.463 168.994C133.84 169.356 134.238 169.712 134.656 170.061L134.081 170.7C133.647 170.333 133.239 169.965 132.857 169.597C132.48 169.234 132.102 168.841 131.725 168.416C131.348 167.991 130.941 167.518 130.503 166.997L129.956 166.345L130.599 165.805ZM135.398 161.778L138.63 165.63L138.005 166.154L135.405 163.057L130.938 166.805L130.305 166.052L135.398 161.778ZM147.722 174.823L148.363 175.586L140.052 182.559L139.412 181.796L147.722 174.823ZM144.819 178.215L146.1 179.741L145.465 180.273L144.185 178.747L144.819 178.215ZM145.049 173.448L145.674 174.193C144.883 174.856 144.018 175.362 143.079 175.712C142.146 176.056 141.142 176.209 140.066 176.172C138.997 176.13 137.86 175.846 136.657 175.32L136.89 174.404C137.924 174.852 138.912 175.114 139.854 175.191C140.807 175.269 141.704 175.168 142.546 174.89C143.4 174.613 144.194 174.165 144.929 173.548L145.049 173.448ZM142.473 170.378L145.373 173.834L144.738 174.366L141.838 170.91L142.473 170.378ZM147.358 184.358L153.66 191.869L153.053 192.378L146.751 184.867L147.358 184.358ZM151.071 186.991L151.712 187.754L150.562 188.719L149.922 187.956L151.071 186.991ZM145.557 187.514L150.347 193.223L149.731 193.739L144.941 188.031L145.557 187.514ZM147.019 186.288L147.659 187.051L145.867 188.555L145.226 187.792L147.019 186.288ZM151.826 181.282L157.434 187.965L156.846 188.459L151.238 181.776L151.826 181.282ZM153.686 185.44C154.401 186.292 154.846 187.041 155.022 187.686C155.204 188.338 155.089 188.836 154.679 189.181C154.268 189.525 153.754 189.554 153.138 189.268C152.533 188.982 151.873 188.413 151.158 187.561C150.443 186.709 149.995 185.957 149.813 185.306C149.643 184.655 149.763 184.157 150.174 183.812C150.585 183.468 151.093 183.439 151.698 183.724C152.308 184.016 152.971 184.588 153.686 185.44ZM153.134 185.903C152.62 185.29 152.163 184.869 151.762 184.641C151.368 184.408 151.055 184.389 150.822 184.585C150.589 184.78 150.55 185.095 150.705 185.528C150.867 185.957 151.204 186.478 151.719 187.091C152.233 187.703 152.687 188.126 153.081 188.36C153.481 188.588 153.798 188.604 154.031 188.409C154.264 188.213 154.299 187.901 154.138 187.473C153.983 187.039 153.648 186.516 153.134 185.903ZM155.19 183.536L155.83 184.299L154.635 185.301L153.995 184.539L155.19 183.536ZM164.128 194.394L164.768 195.157L160.126 199.052L159.486 198.289L164.128 194.394ZM162.641 196.597L163.844 198.031L163.2 198.571L161.997 197.137L162.641 196.597ZM159.17 189.531L159.811 190.294L156.437 193.124L155.797 192.361L159.17 189.531ZM156.201 192.022L156.756 192.684C157.26 193.284 157.799 193.877 158.373 194.461C158.952 195.04 159.592 195.609 160.293 196.17L159.745 196.787C159.018 196.206 158.359 195.621 157.769 195.03C157.184 194.445 156.632 193.843 156.113 193.224L155.558 192.562L156.201 192.022ZM156.043 194.896L156.529 195.475L155.941 195.969C155.573 196.277 155.153 196.504 154.68 196.65C154.208 196.796 153.718 196.847 153.211 196.803C152.702 196.77 152.205 196.618 151.717 196.349L151.963 195.484C152.385 195.726 152.812 195.874 153.244 195.929C153.677 195.983 154.084 195.965 154.467 195.874C154.856 195.777 155.185 195.616 155.455 195.389L156.043 194.896ZM156.182 195.061L156.653 195.622L156.064 196.116C155.783 196.352 155.547 196.644 155.358 196.991C155.168 197.338 155.05 197.719 155.002 198.135C154.96 198.546 155.01 198.979 155.152 199.434L154.305 199.582C154.13 199.05 154.081 198.531 154.16 198.027C154.237 197.534 154.402 197.077 154.654 196.657C154.913 196.231 155.226 195.863 155.594 195.555L156.182 195.061ZM158.604 197.948L159.083 198.518L158.494 199.011C158.163 199.289 157.769 199.516 157.31 199.691C156.852 199.867 156.362 199.955 155.839 199.954C155.322 199.96 154.811 199.836 154.305 199.582L154.597 198.773C155.033 198.981 155.464 199.09 155.889 199.098C156.325 199.108 156.727 199.053 157.096 198.931C157.464 198.81 157.771 198.647 158.016 198.441L158.604 197.948ZM158.743 198.113L159.229 198.692L158.641 199.186C158.353 199.428 158.125 199.728 157.957 200.089C157.794 200.455 157.706 200.853 157.691 201.283C157.681 201.72 157.764 202.161 157.941 202.608L157.055 202.71C156.869 202.177 156.792 201.656 156.825 201.148C156.863 200.646 156.998 200.178 157.229 199.744C157.46 199.31 157.769 198.931 158.155 198.607L158.743 198.113ZM171.179 202.778L171.819 203.541L163.491 210.529L162.851 209.766L171.179 202.778ZM168.391 206.12L169.679 207.655L169.045 208.187L167.757 206.652L168.391 206.12ZM161.152 202.216L161.699 202.868C162.126 203.377 162.523 203.838 162.89 204.25C163.269 204.664 163.644 205.049 164.016 205.405C164.393 205.767 164.791 206.123 165.209 206.472L164.633 207.111C164.2 206.744 163.792 206.376 163.409 206.008C163.032 205.645 162.655 205.252 162.278 204.827C161.9 204.402 161.493 203.929 161.056 203.408L160.508 202.756L161.152 202.216ZM165.95 198.189L169.182 202.041L168.557 202.566L165.958 199.468L161.49 203.216L160.858 202.463L165.95 198.189ZM166.577 212.838C166.442 212.677 166.383 212.491 166.402 212.279C166.421 212.066 166.51 211.893 166.671 211.758C166.832 211.623 167.019 211.564 167.231 211.583C167.443 211.601 167.617 211.691 167.752 211.852C167.887 212.013 167.945 212.2 167.927 212.412C167.908 212.624 167.818 212.798 167.657 212.933C167.551 213.022 167.43 213.077 167.295 213.098C167.162 213.12 167.031 213.11 166.902 213.066C166.776 213.023 166.668 212.947 166.577 212.838Z" fill="white"/>
</svg>
