<svg width="346" height="223" viewBox="0 0 346 223" fill="none" xmlns="http://www.w3.org/2000/svg">
<rect x="40.4961" y="0.541016" width="324.649" height="117.921" transform="rotate(20 40.4961 0.541016)" fill="#9058FF"/>
<path d="M60.2094 39.526L61.9459 40.158L61.5027 41.3759L59.7661 40.7438L60.2094 39.526ZM58.936 36.1126L60.0749 36.5272L59.4388 38.275C59.2226 38.8689 58.9692 39.4364 58.6786 39.9777C58.3879 40.5189 58.057 41.0072 57.6857 41.4424C57.322 41.8804 56.9159 42.2477 56.4674 42.5442C56.0292 42.8359 55.5531 43.0329 55.0391 43.1353L54.5474 41.6794C55.0232 41.5886 55.4542 41.4219 55.8404 41.1794C56.2266 40.9369 56.5763 40.6428 56.8895 40.297C57.2026 39.9513 57.4724 39.5727 57.6987 39.1613C57.9353 38.7451 58.1357 38.3115 58.2999 37.8605L58.936 36.1126ZM59.263 36.2316L60.3794 36.638L59.7679 38.3181C59.6119 38.7466 59.4874 39.1823 59.3943 39.6252C59.3087 40.0708 59.2676 40.5113 59.2709 40.9467C59.2742 41.3821 59.3335 41.8038 59.4489 42.2119C59.5718 42.6227 59.7713 43.0103 60.0473 43.3747L58.7973 44.2478C58.4844 43.8444 58.2562 43.3953 58.1128 42.9004C57.9797 42.4008 57.9207 41.8727 57.9359 41.3164C57.9511 40.76 58.021 40.1938 58.1456 39.6177C58.2777 39.0442 58.4463 38.4756 58.6515 37.9118L59.263 36.2316ZM64.9179 37.2555L66.35 37.7767L62.5495 48.2186L61.1174 47.6973L64.9179 37.2555ZM62.7364 36.653L64.1347 37.1619L60.564 46.9723L59.1657 46.4634L62.7364 36.653ZM72.0067 43.424L74.0139 44.1545L73.5747 45.3611L71.5676 44.6306L72.0067 43.424ZM71.3955 40.507L72.9404 41.0693C72.5819 42.0541 72.1128 42.8752 71.533 43.5325C70.9532 44.1899 70.2136 44.6783 69.314 44.9979C68.4172 45.31 67.314 45.4406 66.0044 45.3896L65.8408 44.0148C66.6624 44.0499 67.3708 44.0097 67.9662 43.8944C68.5615 43.7791 69.0626 43.5954 69.4693 43.3433C69.8863 43.0864 70.2302 42.7731 70.501 42.4034C70.7745 42.0262 70.9988 41.5971 71.1739 41.116L71.3955 40.507ZM68.1705 39.3332L72.3653 40.86L71.9261 42.0666L67.7313 40.5398L68.1705 39.3332ZM70.8218 42.6096L70.4483 43.6358L66.6286 42.552L66.8484 41.3166L70.8218 42.6096ZM74.9868 40.9202L76.4978 41.4702L73.6905 49.1832L72.1795 48.6332L74.9868 40.9202ZM66.3645 48.0492L73.4686 50.6349L73.0295 51.8414L65.9254 49.2558L66.3645 48.0492ZM67.1279 45.9518L68.639 46.5018L67.5883 49.3885L66.0772 48.8385L67.1279 45.9518ZM81.5973 43.7732L89.3892 46.6092L88.9583 47.7933L81.1663 44.9572L81.5973 43.7732ZM80.605 46.7451L88.2278 49.5195L87.7969 50.7035L80.1741 47.9291L80.605 46.7451ZM82.7596 44.7198L84.2594 45.2657L83.1348 48.3554L81.6351 47.8096L82.7596 44.7198ZM86.3906 46.0414L87.8903 46.5873L86.7658 49.677L85.266 49.1311L86.3906 46.0414ZM78.9313 48.5367L88.3809 51.976L87.9458 53.1713L78.4963 49.732L78.9313 48.5367ZM83.3808 48.662L84.8692 49.2038L84.1305 51.2335L82.642 50.6918L83.3808 48.662ZM78.7681 52.5637L86.0075 55.1986L85.5684 56.4052L78.329 53.7703L78.7681 52.5637ZM79.4043 50.8159L80.904 51.3618L80.1119 53.5381L78.6122 52.9922L79.4043 50.8159Z" fill="white"/>
<path d="M50.5658 62.0825C51.0694 62.2658 51.4596 62.5738 51.7363 63.0065C52.0157 63.4318 52.1673 63.9509 52.1911 64.564C52.2148 65.1771 52.0953 65.8445 51.8327 66.5662C51.57 67.2879 51.2325 67.8759 50.8202 68.3303C50.408 68.7847 49.9568 69.0887 49.4667 69.2424C48.9766 69.396 48.4797 69.3811 47.976 69.1978C47.4798 69.0172 47.0897 68.7092 46.8055 68.2737C46.5288 67.841 46.3786 67.3181 46.3548 66.705C46.3311 66.0919 46.4505 65.4245 46.7132 64.7028C46.9759 63.9812 47.3134 63.3931 47.7256 62.9387C48.1379 62.4843 48.5877 62.1841 49.0751 62.0379C49.5727 61.887 50.0696 61.9019 50.5658 62.0825ZM50.2621 62.9169C49.9388 62.7993 49.6083 62.8067 49.2707 62.9392C48.9432 63.0669 48.6328 63.3115 48.3395 63.673C48.0489 64.0269 47.8038 64.4783 47.604 65.0271C47.4043 65.5759 47.3006 66.083 47.2929 66.5484C47.288 67.0064 47.3686 67.3932 47.5346 67.7091C47.7081 68.0276 47.9602 68.2471 48.291 68.3675C48.6142 68.4851 48.9409 68.4763 49.2711 68.3411C49.6088 68.2086 49.9192 67.964 50.2022 67.6073C50.4956 67.2458 50.7421 66.7907 50.9418 66.2419C51.1416 65.6932 51.2439 65.1898 51.2488 64.7319C51.264 64.2692 51.1835 63.8823 51.0072 63.5712C50.8412 63.2554 50.5928 63.0373 50.2621 62.9169ZM55.0479 62.8199L55.9838 63.1606L52.2694 73.3656L51.3335 73.025L55.0479 62.8199ZM54.2879 67.1533L56.1711 67.8387L55.8838 68.6281L54.0006 67.9427L54.2879 67.1533ZM62.2327 66.5843L63.0446 66.8798L62.8887 67.3083C62.7573 67.6691 62.5614 67.9852 62.3009 68.2565C62.0404 68.5277 61.7318 68.7559 61.3749 68.941C61.0208 69.1186 60.6363 69.2511 60.2214 69.3385C59.8065 69.4259 59.3763 69.4736 58.9306 69.4816C58.4952 69.4849 58.0585 69.4452 57.6204 69.3623L57.5305 68.4868C57.9077 68.573 58.2874 68.6175 58.6694 68.6204C59.0618 68.6184 59.4397 68.5857 59.8034 68.5223C60.167 68.4588 60.5013 68.3591 60.8061 68.2232C61.1185 68.09 61.3838 67.9227 61.6019 67.7211C61.8227 67.512 61.981 67.2759 62.0768 67.0128L62.2327 66.5843ZM62.4695 66.6705L63.2814 66.966L63.1255 67.3945C63.0297 67.6576 62.9992 67.9402 63.034 68.2423C63.0715 68.5369 63.1633 68.8343 63.3095 69.1344C63.4632 69.4372 63.6589 69.7298 63.8967 70.0121C64.1345 70.2945 64.3992 70.5611 64.691 70.812C64.993 71.0582 65.3163 71.2695 65.6607 71.4459L65.0402 72.0629C64.6514 71.8448 64.2875 71.5931 63.9486 71.308C63.6124 71.0154 63.3135 70.7023 63.0518 70.3687C62.7901 70.035 62.5807 69.6864 62.4236 69.3227C62.2693 68.9516 62.1795 68.5784 62.1543 68.2031C62.1291 67.8279 62.1822 67.4598 62.3136 67.099L62.4695 66.6705ZM60.3488 71.9006L61.2735 72.2371L59.8616 76.1162L58.937 75.7796L60.3488 71.9006ZM56.4064 69.891L65.6191 73.2442L65.3401 74.0109L56.1273 70.6578L56.4064 69.891ZM59.1585 65.0312L66.6234 67.7482L66.3484 68.5037L58.8835 65.7867L59.1585 65.0312ZM74.1978 70.9775L74.9646 71.2566L74.665 72.0798C74.4379 72.7038 74.1055 73.2426 73.668 73.6963C73.2407 74.1452 72.744 74.4923 72.178 74.7375C71.6147 74.9752 71.0105 75.0915 70.3653 75.0866L70.1318 74.1843C70.7087 74.1899 71.2504 74.0934 71.7569 73.8946C72.2634 73.6959 72.6999 73.4206 73.0663 73.0687C73.443 72.712 73.7203 72.2893 73.8982 71.8007L74.1978 70.9775ZM74.3669 71.0391L75.1337 71.3182L74.8341 72.1414C74.6727 72.5849 74.6182 73.0503 74.6707 73.5377C74.7232 74.025 74.8761 74.4936 75.1296 74.9434C75.3905 75.3959 75.7376 75.799 76.1709 76.1525L75.4305 76.713C74.9481 76.3076 74.5648 75.8403 74.2806 75.3112C74.0067 74.7773 73.85 74.2137 73.8105 73.6205C73.771 73.0272 73.8566 72.4411 74.0673 71.8623L74.3669 71.0391ZM72.0431 69.8102L77.5008 71.7966L77.2217 72.5634L71.764 70.577L72.0431 69.8102ZM79.0449 71.5541L79.9808 71.8948L77.744 78.0404L76.8081 77.6997L79.0449 71.5541ZM78.7447 74.4841L80.5038 75.1244L80.2165 75.9137L78.4574 75.2735L78.7447 74.4841ZM70.9165 76.1683L77.547 78.5816L76.2665 82.0998L75.3306 81.7592L76.332 79.0078L70.6375 76.9351L70.9165 76.1683ZM89.3393 75.301L90.2752 75.6416L86.5568 85.858L85.6209 85.5173L89.3393 75.301ZM88.5958 79.5893L90.4789 80.2747L90.1957 81.0528L88.3126 80.3674L88.5958 79.5893ZM80.3744 79.8278L81.175 80.1192C81.799 80.3463 82.373 80.5467 82.8972 80.7205C83.4316 80.8895 83.949 81.0352 84.4493 81.1577C84.9571 81.2829 85.4792 81.3921 86.0157 81.4852L85.8371 82.3269C85.278 82.2255 84.7408 82.1109 84.2255 81.9829C83.7177 81.8577 83.1942 81.7055 82.655 81.5262C82.1158 81.347 81.5267 81.1411 80.8877 80.9085L80.0871 80.6171L80.3744 79.8278ZM82.5168 73.9416L87.2416 75.6612L86.9625 76.428L83.1624 75.0449L81.1677 80.5252L80.243 80.1886L82.5168 73.9416ZM90.3839 86.3146C90.1863 86.2427 90.0426 86.1103 89.9526 85.9173C89.8626 85.7243 89.8535 85.529 89.9254 85.3315C89.9973 85.1339 90.1298 84.9902 90.3228 84.9002C90.5157 84.8102 90.711 84.8011 90.9086 84.8731C91.1061 84.945 91.2499 85.0774 91.3399 85.2704C91.4299 85.4634 91.4389 85.6586 91.367 85.8562C91.3194 85.987 91.2423 86.095 91.1357 86.1801C91.0318 86.2663 90.913 86.3228 90.7792 86.3497C90.6491 86.3749 90.5173 86.3632 90.3839 86.3146ZM99.0962 79.9504L99.9871 80.2747L99.0841 82.7555L101.227 83.5353L102.13 81.0545L102.998 81.3705L100.564 88.0574L96.6624 86.6373L99.0962 79.9504ZM98.8092 83.511L97.8323 86.1947L99.9748 86.9745L100.952 84.2908L98.8092 83.511ZM106.858 81.6772L107.76 82.0055L104.046 92.2106L103.143 91.8822L106.858 81.6772ZM103.753 85.119L105.715 85.8331L105.432 86.6112L103.47 85.897L103.753 85.119ZM104.513 81.0665L105.404 81.3907L101.956 90.8628L101.066 90.5386L104.513 81.0665ZM116.927 85.3419L117.851 85.6785L114.133 95.8948L113.208 95.5583L116.927 85.3419ZM113.418 88.4197L115.674 89.2405L115.395 90.0073L113.139 89.1865L113.418 88.4197ZM107.391 89.7886L108.157 90.0677C108.804 90.303 109.382 90.5048 109.891 90.6731C110.4 90.8414 110.888 90.9851 111.356 91.1041C111.831 91.2259 112.32 91.3317 112.824 91.4214L112.646 92.2251C112.128 92.1299 111.627 92.0201 111.144 91.8955C110.662 91.771 110.157 91.6256 109.63 91.4594C109.114 91.2884 108.528 91.0838 107.874 90.8458L107.107 90.5667L107.391 89.7886ZM109.595 83.7332L114.308 85.4488L114.029 86.2156L110.24 84.8366L108.221 90.3845L107.296 90.048L109.595 83.7332ZM109.24 86.8478L112.815 88.1488L112.54 88.9043L108.965 87.6033L109.24 86.8478ZM127.266 89.1052L128.191 89.4418L124.472 99.6581L123.548 99.3215L127.266 89.1052ZM117.885 93.5827L118.731 93.8905C119.31 94.1012 119.869 94.2962 120.408 94.4754C120.957 94.6498 121.516 94.8106 122.084 94.9577C122.659 95.1076 123.266 95.2431 123.903 95.3643L123.714 96.1639C122.742 95.9804 121.84 95.7673 121.009 95.5244C120.181 95.274 119.327 94.9887 118.447 94.6686L117.602 94.3608L117.885 93.5827ZM120.054 87.5529L124.768 89.2685L123.442 92.9108L119.698 91.5481L118.725 94.2206L117.778 93.8759L119.026 90.4479L122.77 91.8105L123.541 89.6905L119.775 88.3197L120.054 87.5529ZM137.109 92.6879L138.045 93.0285L134.335 103.222L133.399 102.882L137.109 92.6879ZM136.291 97.0767L138.163 97.758L137.88 98.536L136.008 97.8547L136.291 97.0767ZM134.107 92.8336L135.02 93.1661C134.667 94.1358 134.171 95.0068 133.533 95.7789C132.897 96.5436 132.104 97.1786 131.153 97.6841C130.206 98.1821 129.08 98.5044 127.775 98.6509L127.519 97.7405C128.639 97.6116 129.625 97.345 130.479 96.9406C131.343 96.5315 132.07 95.9958 132.66 95.3337C133.26 94.6668 133.725 93.8823 134.053 92.9802L134.107 92.8336ZM130.34 91.4628L134.58 93.006L134.297 93.7841L130.057 92.2409L130.34 91.4628ZM151.015 97.7491L151.928 98.0816L149.971 103.46L149.057 103.128L151.015 97.7491ZM150.462 100.076L152.379 100.774L152.096 101.552L150.179 100.854L150.462 100.076ZM143.847 95.6894L144.637 95.9767L144.119 97.3975L145.27 97.8161L145.787 96.3953L146.576 96.6826L144.988 101.047L142.259 100.053L143.847 95.6894ZM143.853 98.1304L143.319 99.5964L144.469 100.015L145.003 98.5491L143.853 98.1304ZM147.208 96.9124L147.997 97.1997L147.48 98.6205L148.619 99.0351L149.136 97.6143L149.925 97.9016L148.337 102.265L145.619 101.276L147.208 96.9124ZM147.213 99.3535L146.68 100.819L147.818 101.234L148.352 99.768L147.213 99.3535ZM143.154 101.49L149.807 103.911L148.928 106.325L143.211 104.244L142.669 105.732L141.756 105.4L142.552 103.212L148.269 105.293L148.622 104.323L142.883 102.234L143.154 101.49ZM141.9 105.005L148.902 107.554L148.627 108.309L141.625 105.761L141.9 105.005ZM161.558 101.586L162.482 101.923L158.764 112.139L157.839 111.803L161.558 101.586ZM152.176 106.064L153.022 106.372C153.601 106.582 154.16 106.777 154.699 106.956C155.249 107.131 155.807 107.292 156.375 107.439C156.951 107.589 157.557 107.724 158.194 107.845L158.005 108.645C157.033 108.461 156.132 108.248 155.301 108.005C154.472 107.755 153.618 107.47 152.739 107.15L151.893 106.842L152.176 106.064ZM154.346 100.034L159.059 101.75L157.733 105.392L153.99 104.029L153.017 106.702L152.07 106.357L153.317 102.929L157.061 104.292L157.833 102.172L154.066 100.801L154.346 100.034ZM166.616 108.114L167.405 108.401C168.097 108.653 168.705 108.866 169.229 109.04C169.764 109.209 170.264 109.353 170.732 109.472C171.21 109.586 171.696 109.678 172.19 109.747L172.032 110.532C171.522 110.457 171.025 110.362 170.54 110.245C170.055 110.128 169.537 109.982 168.988 109.807C168.446 109.636 167.825 109.423 167.126 109.168L166.337 108.881L166.616 108.114ZM167.901 104.585L172.4 106.222L172.125 106.978L168.55 105.677L167.422 108.778L166.497 108.441L167.901 104.585ZM174.651 106.352L175.587 106.693L173.74 111.767L172.804 111.426L174.651 106.352ZM174.528 108.797L176.287 109.437L176.003 110.215L174.244 109.575L174.528 108.797ZM166.351 110.035L169.553 111.201L168.708 113.524L166.419 112.691L165.91 114.089L165.019 113.765L165.774 111.69L168.063 112.523L168.408 111.576L166.097 110.734L166.351 110.035ZM165.13 113.46L165.671 113.657C166.115 113.819 166.499 113.954 166.825 114.065C167.162 114.17 167.473 114.262 167.759 114.341C168.048 114.412 168.354 114.472 168.677 114.521L168.493 115.272C168.173 115.215 167.861 115.148 167.557 115.072C167.253 114.995 166.93 114.899 166.589 114.783C166.256 114.67 165.864 114.532 165.413 114.368L164.871 114.171L165.13 113.46ZM169.752 111.707L174.015 113.259L173.76 113.958L169.498 112.407L169.752 111.707ZM171.436 113.572C171.774 113.695 172.055 113.861 172.277 114.069C172.499 114.278 172.643 114.513 172.709 114.776C172.786 115.033 172.772 115.305 172.668 115.591C172.509 116.027 172.221 116.305 171.802 116.425C171.389 116.555 170.93 116.529 170.426 116.346C170.096 116.225 169.819 116.061 169.597 115.852C169.372 115.651 169.219 115.417 169.138 115.149C169.064 114.884 169.079 114.608 169.183 114.323C169.285 114.044 169.449 113.827 169.676 113.672C169.91 113.519 170.18 113.434 170.484 113.417C170.788 113.4 171.105 113.451 171.436 113.572ZM171.198 114.226C170.92 114.125 170.666 114.109 170.436 114.178C170.217 114.243 170.066 114.388 169.984 114.614C169.899 114.847 169.92 115.059 170.046 115.25C170.178 115.451 170.382 115.602 170.66 115.703C170.946 115.807 171.2 115.823 171.422 115.75C171.642 115.685 171.794 115.537 171.878 115.303C171.961 115.078 171.938 114.87 171.812 114.679C171.688 114.481 171.484 114.33 171.198 114.226ZM171.731 111.393L172.644 111.726L172.152 113.079L171.238 112.746L171.731 111.393ZM178.169 111.106L185.104 113.63L184.829 114.385L177.894 111.861L178.169 111.106ZM176.145 112.77L185.392 116.136L185.113 116.902L175.866 113.537L176.145 112.77ZM179.15 108.411L180.074 108.747L178.954 111.826L178.029 111.489L179.15 108.411ZM175.872 117.204L182.931 119.773L182.652 120.54L175.593 117.971L175.872 117.204ZM176.677 114.994L177.613 115.335L176.734 117.748L175.798 117.407L176.677 114.994ZM199.043 115.23L199.979 115.571L197.217 123.159L196.281 122.819L199.043 115.23ZM191.594 113.451L196.962 115.405L196.683 116.171L191.315 114.218L191.594 113.451ZM189.521 118.622L189.695 117.791C190.259 117.996 190.881 118.218 191.56 118.457C192.249 118.691 192.954 118.918 193.675 119.137C194.395 119.357 195.087 119.549 195.751 119.714L195.541 120.43C194.857 120.3 194.153 120.129 193.43 119.917C192.714 119.707 192.019 119.488 191.344 119.26C190.677 119.034 190.069 118.821 189.521 118.622ZM192.356 114.482L193.269 114.814L191.845 118.727L190.931 118.394L192.356 114.482ZM194.803 115.372L195.705 115.7L194.281 119.613L193.378 119.285L194.803 115.372ZM196.634 116.55L198.822 117.346L198.543 118.113L196.355 117.316L196.634 116.55ZM195.928 118.489L198.116 119.285L197.833 120.063L195.645 119.267L195.928 118.489ZM190.097 122.407L196.896 124.882L196.617 125.649L189.818 123.174L190.097 122.407ZM190.914 120.163L191.849 120.504L190.856 123.232L189.92 122.892L190.914 120.163ZM209.371 118.989L210.307 119.33L206.589 129.546L205.653 129.205L209.371 118.989ZM204.641 118.161C205.145 118.345 205.535 118.653 205.812 119.085C206.099 119.513 206.254 120.034 206.278 120.647C206.309 121.263 206.193 121.932 205.93 122.653C205.668 123.375 205.327 123.962 204.907 124.413C204.495 124.868 204.04 125.17 203.542 125.321C203.052 125.475 202.555 125.46 202.051 125.277C201.548 125.093 201.154 124.784 200.869 124.348C200.585 123.913 200.428 123.387 200.396 122.772C200.373 122.158 200.492 121.491 200.755 120.769C201.017 120.048 201.355 119.46 201.767 119.005C202.187 118.554 202.644 118.256 203.139 118.113C203.637 117.962 204.137 117.978 204.641 118.161ZM204.337 118.996C203.999 118.873 203.661 118.877 203.323 119.01C202.996 119.138 202.686 119.382 202.392 119.744C202.102 120.098 201.857 120.549 201.657 121.098C201.457 121.646 201.353 122.154 201.346 122.619C201.341 123.077 201.421 123.464 201.587 123.78C201.761 124.098 202.017 124.319 202.355 124.442C202.686 124.563 203.016 124.555 203.346 124.42C203.684 124.287 203.998 124.044 204.289 123.69C204.582 123.329 204.829 122.874 205.028 122.325C205.228 121.776 205.33 121.273 205.335 120.815C205.343 120.349 205.259 119.961 205.082 119.65C204.916 119.334 204.668 119.116 204.337 118.996ZM219.248 122.584L220.173 122.921L216.455 133.137L215.53 132.8L219.248 122.584ZM218.485 126.891L220.369 127.576L220.081 128.366L218.198 127.68L218.485 126.891ZM210.217 127.189L211.029 127.484C211.66 127.714 212.242 127.917 212.773 128.094C213.315 128.265 213.843 128.419 214.355 128.555C214.871 128.682 215.402 128.791 215.948 128.879L215.759 129.679C215.198 129.585 214.655 129.473 214.133 129.342C213.617 129.214 213.085 129.063 212.535 128.888C211.986 128.714 211.388 128.509 210.741 128.274L209.93 127.978L210.217 127.189ZM212.386 121.159L216.987 122.834L215.653 126.498L211.999 125.169L211.027 127.841L210.102 127.504L211.358 124.054L215.011 125.384L215.783 123.264L212.107 121.926L212.386 121.159ZM45.1884 76.1901L45.9552 76.4692L45.2903 78.2959C45.0851 78.8598 44.8125 79.3863 44.4727 79.8756C44.1404 80.3676 43.7602 80.8039 43.3323 81.1845C42.9043 81.565 42.4504 81.8766 41.9705 82.1191C41.4906 82.3616 41.008 82.5179 40.5227 82.5882L40.2226 81.6234C40.6669 81.5722 41.1044 81.4463 41.535 81.2454C41.9759 81.0398 42.3919 80.7741 42.783 80.4482C43.174 80.1223 43.5169 79.7533 43.8116 79.3412C44.1166 78.9244 44.3539 78.4829 44.5235 78.0169L45.1884 76.1901ZM45.3575 76.2517L46.113 76.5266L45.4482 78.3534C45.284 78.8045 45.1851 79.275 45.1514 79.7651C45.1253 80.2578 45.1614 80.7435 45.2597 81.2219C45.358 81.7004 45.5051 82.1498 45.7012 82.5702C45.9047 82.9934 46.1541 83.3608 46.4493 83.6726L45.6033 84.2075C45.2787 83.8595 45.0116 83.4473 44.8019 82.9708C44.5998 82.4971 44.453 81.9882 44.3615 81.4441C44.2804 80.8953 44.2627 80.3355 44.3087 79.7648C44.3649 79.1893 44.4929 78.6272 44.6926 78.0784L45.3575 76.2517ZM49.9176 76.9153L50.8535 77.256L47.1391 87.461L46.2032 87.1204L49.9176 76.9153ZM49.1371 81.3051L51.0202 81.9905L50.7288 82.7911L48.8457 82.1057L49.1371 81.3051ZM55.701 80.2846L56.4791 80.5678L56.0974 81.6165C55.8703 82.2404 55.5394 82.7755 55.1045 83.2217C54.6697 83.6679 54.1604 84.0146 53.5766 84.2618C53.0031 84.5043 52.3937 84.623 51.7485 84.6181L51.5304 83.7086C52.11 83.7067 52.6517 83.6102 53.1555 83.419C53.6668 83.2305 54.1108 82.9579 54.4875 82.6012C54.867 82.237 55.1442 81.8144 55.3194 81.3333L55.701 80.2846ZM55.8815 80.3502L56.6483 80.6293L56.2666 81.678C56.1407 82.0238 56.0791 82.3802 56.0817 82.7473C56.0946 83.1095 56.1669 83.4721 56.2987 83.8351C56.4333 84.1906 56.6163 84.5296 56.848 84.8523C57.0871 85.1777 57.3727 85.469 57.7048 85.726L56.9644 86.2866C56.4717 85.886 56.0796 85.4197 55.7879 84.8879C55.4962 84.356 55.3193 83.7894 55.2573 83.1879C55.2028 82.5891 55.2836 81.9928 55.4998 81.3989L55.8815 80.3502ZM53.4654 79.1644L59.0471 81.196L58.768 81.9627L53.1863 79.9311L53.4654 79.1644ZM60.8055 80.891L61.7414 81.2316L59.0244 88.6965L58.0885 88.3559L60.8055 80.891ZM51.8408 88.0485L58.7081 90.548L58.429 91.3148L51.5617 88.8153L51.8408 88.0485ZM52.7273 85.6128L53.6633 85.9535L52.6536 88.7275L51.7177 88.3868L52.7273 85.6128ZM66.0323 90.2894L72.9898 92.8217L71.6887 96.3963L70.7528 96.0557L71.7789 93.2366L65.7573 91.0449L66.0323 90.2894ZM74.4671 85.8506L75.4031 86.1913L73.1827 92.2918L72.2467 91.9511L74.4671 85.8506ZM68.0721 84.8256L68.7599 85.0759L68.4316 85.978C68.3167 86.2938 68.1611 86.616 67.9648 86.9447C67.7713 87.2659 67.5429 87.5658 67.2797 87.8446C67.0165 88.1234 66.7177 88.3595 66.3834 88.5528C66.0594 88.7413 65.6992 88.8656 65.3027 88.9257L65.0528 88.0685C65.4035 88.0173 65.7213 87.9159 66.0064 87.7643C66.2942 87.6051 66.5512 87.4135 66.7775 87.1893C67.0038 86.9652 67.1963 86.7288 67.3549 86.4801C67.5238 86.2265 67.6534 85.9757 67.7437 85.7277L68.0721 84.8256ZM68.2863 84.9035L68.9516 85.1457L68.6233 86.0478C68.5439 86.2658 68.4776 86.5183 68.4242 86.8054C68.3708 87.0924 68.3447 87.3979 68.346 87.7219C68.35 88.0384 68.3994 88.3586 68.4943 88.6826C68.592 88.9991 68.7508 89.2995 68.9708 89.5839L68.2878 90.1271C68.0234 89.801 67.8369 89.4479 67.7284 89.0678C67.6198 88.6878 67.5683 88.303 67.5739 87.9134C67.5795 87.5238 67.6189 87.1465 67.6921 86.7816C67.7654 86.4166 67.854 86.0913 67.958 85.8056L68.2863 84.9035ZM70.9701 85.8803L71.6467 86.1266L71.3183 87.0287C71.2089 87.3294 71.0635 87.6468 70.8823 87.981C70.7038 88.3077 70.4915 88.622 70.2454 88.924C69.9992 89.2261 69.71 89.4826 69.3778 89.6937C69.0531 89.9076 68.6898 90.052 68.2878 90.1271L68.1138 89.272C68.4651 89.1955 68.7748 89.0699 69.0428 88.895C69.321 88.7153 69.5634 88.5055 69.7699 88.2657C69.9763 88.0259 70.1527 87.7751 70.2991 87.5133C70.4454 87.2516 70.5596 87.008 70.6417 86.7824L70.9701 85.8803ZM71.1843 85.9583L71.8722 86.2087L71.5438 87.1108C71.4207 87.4491 71.3434 87.8253 71.3118 88.2395C71.2905 88.6489 71.3348 89.0652 71.4447 89.4883C71.5649 89.9066 71.7797 90.287 72.0892 90.6295L71.3581 91.1296C70.9994 90.7352 70.7572 90.2894 70.6316 89.7925C70.5163 89.2908 70.4833 88.785 70.5326 88.2751C70.5895 87.768 70.6973 87.2964 70.856 86.8604L71.1843 85.9583ZM66.9374 83.9784L69.8579 85.0414L69.5789 85.8082L66.6583 84.7452L66.9374 83.9784ZM70.3541 85.222L73.2296 86.2685L72.9505 87.0353L70.075 85.9888L70.3541 85.222ZM81.843 88.7395C82.9706 89.1499 83.794 89.6242 84.3133 90.1622C84.8354 90.6928 84.9938 91.24 84.7886 91.8038C84.5806 92.3751 84.1048 92.7 83.3612 92.7783C82.6202 92.8492 81.686 92.6794 80.5583 92.269C79.4382 91.8613 78.6134 91.3908 78.0838 90.8576C77.5645 90.3195 77.4089 89.7648 77.6168 89.1935C77.822 88.6297 78.2951 88.3123 79.036 88.2415C79.7872 88.1658 80.7228 88.3318 81.843 88.7395ZM81.5885 89.4386C81.0397 89.2389 80.5548 89.1092 80.1338 89.0497C79.7128 88.9901 79.3683 89.0009 79.1004 89.0822C78.8399 89.1662 78.6687 89.3209 78.5866 89.5464C78.5045 89.772 78.5349 90.0044 78.6776 90.2436C78.8307 90.4781 79.0876 90.7078 79.4484 90.9328C79.8119 91.1503 80.2681 91.3589 80.8169 91.5586C81.3732 91.7611 81.8605 91.8959 82.2788 91.963C82.6998 92.0226 83.0405 92.0104 83.3009 91.9264C83.5716 91.8376 83.748 91.6804 83.8301 91.4549C83.9122 91.2294 83.8767 90.9994 83.7237 90.7649C83.5781 90.5332 83.325 90.3048 82.9642 90.0798C82.6033 89.8548 82.1448 89.6411 81.5885 89.4386ZM75.7072 91.2823L84.92 94.6355L84.645 95.391L75.4322 92.0378L75.7072 91.2823ZM76.2326 93.3124L83.145 95.8283L82.3077 98.1287L76.3312 95.9535L75.8839 97.1826L74.9705 96.8501L75.6682 94.9332L81.6447 97.1084L81.9689 96.2176L75.9699 94.0341L76.2326 93.3124ZM75.0403 96.6584L82.2346 99.2769L81.9678 100.01L74.7735 97.3914L75.0403 96.6584ZM96.6004 94.1619L97.4687 94.4779L94.0212 103.95L93.1529 103.634L96.6004 94.1619ZM95.6755 98.282L97.5586 98.9674L97.2796 99.7342L95.3964 99.0488L95.6755 98.282ZM88.6833 98.687L89.0893 98.8347C89.2922 98.9086 89.5543 98.9955 89.8755 99.0954C90.207 99.1905 90.586 99.2603 91.0125 99.3048L90.8041 100.123C90.3551 100.07 89.961 99.9948 89.6221 99.897C89.2933 99.7944 89.02 99.7034 88.802 99.6241L88.396 99.4763L88.6833 98.687ZM90.678 93.2067L92.8656 94.0029L92.5865 94.7697L91.2672 94.2895L89.3915 99.4428L88.5232 99.1267L90.678 93.2067ZM91.3107 99.6433L91.7279 99.7951C92.0061 99.8963 92.3184 99.9973 92.6649 100.098C93.0189 100.201 93.4119 100.268 93.8438 100.297L93.6468 101.119C93.1923 101.082 92.7842 101.01 92.4227 100.904C92.0687 100.8 91.7413 100.694 91.4406 100.584L91.0234 100.433L91.3107 99.6433ZM93.3054 94.163L95.5493 94.9797L95.2703 95.7465L93.8833 95.2417L92.0158 100.372L91.1588 100.06L93.3054 94.163ZM98.7461 94.6874L99.6369 95.0117L95.9226 105.217L95.0318 104.892L98.7461 94.6874ZM101.307 96.6666L105.998 98.3739L104.282 103.087L99.5911 101.38L101.307 96.6666ZM104.809 98.797L101.945 97.7545L100.779 100.957L103.644 101.999L104.809 98.797ZM108.206 98.1306L109.142 98.4712L106.421 105.947L105.485 105.607L108.206 98.1306ZM107.72 101.465L109.513 102.118L109.23 102.896L107.437 102.244L107.72 101.465ZM99.4402 105.373L106.24 107.848L105.961 108.615L99.1612 106.14L99.4402 105.373ZM100.331 102.926L101.256 103.263L100.246 106.037L99.3212 105.7L100.331 102.926ZM119.146 105.305L121.728 106.245L121.449 107.012L118.867 106.072L119.146 105.305ZM122.22 103.244L123.156 103.585L120.435 111.061L119.499 110.72L122.22 103.244ZM113.301 110.418L120.089 112.889L119.81 113.656L113.022 111.185L113.301 110.418ZM114.171 108.028L115.096 108.364L114.086 111.138L113.161 110.801L114.171 108.028ZM116.901 102.738L117.667 103.017L117.368 103.84C117.143 104.457 116.811 104.996 116.371 105.457C115.941 105.913 115.438 106.267 114.861 106.517C114.288 106.759 113.679 106.887 113.036 106.899L112.826 105.967C113.252 105.969 113.659 105.913 114.05 105.8C114.447 105.689 114.816 105.53 115.156 105.321C115.496 105.113 115.789 104.858 116.035 104.556C116.281 104.254 116.47 103.922 116.601 103.561L116.901 102.738ZM117.081 102.804L117.848 103.083L117.548 103.906C117.389 104.342 117.336 104.804 117.389 105.291C117.441 105.778 117.597 106.252 117.855 106.712C118.116 107.165 118.459 107.566 118.885 107.917L118.14 108.489C117.658 108.084 117.28 107.614 117.006 107.08C116.735 106.539 116.576 105.97 116.529 105.374C116.489 104.781 116.573 104.198 116.781 103.627L117.081 102.804ZM114.794 101.473L120.241 103.456L119.961 104.223L114.515 102.24L114.794 101.473ZM126.159 110.488L127.095 110.829L126.27 113.095L125.334 112.755L126.159 110.488ZM132.549 107.003L133.484 107.344L130.665 115.091L129.729 114.75L132.549 107.003ZM123.178 114.013L130.383 116.636L130.104 117.402L122.899 114.78L123.178 114.013ZM123.982 111.803L124.918 112.144L124.04 114.557L123.104 114.216L123.982 111.803ZM123.213 109.812L123.372 108.989C124.004 109.218 124.689 109.464 125.429 109.724C126.178 109.98 126.947 110.23 127.735 110.474C128.526 110.711 129.298 110.916 130.053 111.088L129.874 111.789C129.101 111.644 128.317 111.461 127.521 111.239C126.735 111.013 125.974 110.774 125.24 110.524C124.505 110.273 123.829 110.036 123.213 109.812ZM128.282 112.27L130.605 113.115L130.359 113.792L128.036 112.946L128.282 112.27ZM128.251 105.899C128.755 106.082 129.167 106.317 129.488 106.605C129.812 106.884 130.026 107.196 130.131 107.541C130.246 107.881 130.237 108.231 130.106 108.592C129.977 108.945 129.759 109.219 129.45 109.413C129.148 109.609 128.783 109.711 128.356 109.717C127.928 109.723 127.462 109.634 126.958 109.451C126.462 109.27 126.048 109.039 125.717 108.756C125.393 108.477 125.175 108.163 125.063 107.816C124.959 107.472 124.971 107.123 125.099 106.769C125.231 106.409 125.446 106.134 125.744 105.944C126.053 105.75 126.422 105.65 126.85 105.644C127.288 105.633 127.755 105.718 128.251 105.899ZM127.997 106.598C127.516 106.423 127.089 106.378 126.717 106.464C126.345 106.55 126.099 106.759 125.979 107.09C125.861 107.413 125.917 107.727 126.147 108.032C126.376 108.337 126.732 108.577 127.213 108.752C127.686 108.924 128.109 108.967 128.481 108.881C128.853 108.795 129.098 108.591 129.215 108.267C129.297 108.042 129.299 107.826 129.221 107.618C129.144 107.411 129.001 107.219 128.793 107.041C128.585 106.863 128.32 106.716 127.997 106.598ZM140.053 109.926C141.18 110.336 142.004 110.811 142.523 111.349C143.045 111.879 143.203 112.426 142.998 112.99C142.79 113.562 142.314 113.887 141.571 113.965C140.83 114.036 139.896 113.866 138.768 113.456C137.648 113.048 136.823 112.577 136.293 112.044C135.774 111.506 135.618 110.951 135.826 110.38C136.032 109.816 136.505 109.499 137.246 109.428C137.997 109.352 138.932 109.518 140.053 109.926ZM139.798 110.625C139.249 110.425 138.764 110.296 138.343 110.236C137.922 110.177 137.578 110.187 137.31 110.269C137.049 110.353 136.878 110.507 136.796 110.733C136.714 110.959 136.744 111.191 136.887 111.43C137.04 111.665 137.297 111.894 137.658 112.119C138.022 112.337 138.478 112.545 139.026 112.745C139.583 112.948 140.07 113.082 140.488 113.15C140.909 113.209 141.25 113.197 141.51 113.113C141.781 113.024 141.958 112.867 142.04 112.641C142.122 112.416 142.086 112.186 141.933 111.951C141.788 111.72 141.535 111.491 141.174 111.266C140.813 111.041 140.354 110.828 139.798 110.625ZM133.917 112.469L143.13 115.822L142.855 116.578L133.642 113.224L133.917 112.469ZM134.442 114.499L141.355 117.015L140.517 119.315L134.541 117.14L134.093 118.369L133.18 118.037L133.878 116.12L139.854 118.295L140.178 117.404L134.179 115.221L134.442 114.499ZM133.25 117.845L140.444 120.463L140.177 121.196L132.983 118.578L133.25 117.845ZM152.828 117.602L155.624 118.62L155.345 119.387L152.548 118.369L152.828 117.602ZM151.722 120.29L154.518 121.308L154.239 122.075L151.442 121.057L151.722 120.29ZM152.916 115.604L153.818 115.933C153.55 116.669 153.214 117.36 152.809 118.004C152.412 118.651 151.92 119.23 151.334 119.741C150.756 120.254 150.068 120.68 149.272 121.02C148.483 121.363 147.556 121.596 146.489 121.719L146.233 120.808C147.16 120.694 147.982 120.495 148.698 120.211C149.415 119.927 150.039 119.567 150.573 119.131C151.106 118.695 151.557 118.191 151.927 117.619C152.308 117.043 152.625 116.405 152.879 115.706L152.916 115.604ZM149.229 114.262L153.48 115.809L153.201 116.576L148.95 115.029L149.229 114.262ZM151.941 118.11L151.678 118.831L147.562 117.755L147.688 116.881L151.941 118.11ZM156.52 115.703L157.445 116.039L153.73 126.244L152.806 125.908L156.52 115.703ZM163.272 122.094L166.103 123.124L165.824 123.89L162.993 122.86L163.272 122.094ZM161.743 118.612L162.51 118.892L161.845 120.718C161.639 121.282 161.366 121.812 161.023 122.309C160.688 122.809 160.306 123.249 159.878 123.629C159.451 124.01 158.997 124.321 158.517 124.564C158.044 124.809 157.566 124.967 157.08 125.037L156.769 124.068C157.21 124.025 157.648 123.899 158.081 123.69C158.522 123.485 158.938 123.219 159.329 122.893C159.723 122.56 160.067 122.187 160.362 121.775C160.667 121.358 160.906 120.913 161.078 120.439L161.743 118.612ZM161.935 118.682L162.69 118.957L162.025 120.784C161.858 121.243 161.757 121.721 161.72 122.218C161.691 122.718 161.725 123.212 161.82 123.698C161.919 124.176 162.069 124.627 162.273 125.05C162.484 125.476 162.742 125.842 163.048 126.149L162.209 126.7C161.88 126.341 161.606 125.923 161.389 125.443C161.172 124.964 161.019 124.449 160.93 123.897C160.849 123.348 160.833 122.785 160.882 122.207C160.938 121.631 161.067 121.065 161.27 120.509L161.935 118.682ZM166.9 119.494L167.825 119.83L164.107 130.046L163.182 129.71L166.9 119.494ZM175.152 123.493L175.919 123.772L175.254 125.599C175.049 126.163 174.776 126.689 174.437 127.179C174.104 127.671 173.724 128.107 173.296 128.487C172.868 128.868 172.414 129.18 171.934 129.422C171.455 129.665 170.972 129.821 170.487 129.891L170.187 128.926C170.631 128.875 171.068 128.749 171.499 128.548C171.94 128.343 172.356 128.077 172.747 127.751C173.138 127.425 173.481 127.056 173.775 126.644C174.08 126.227 174.318 125.786 174.487 125.32L175.152 123.493ZM175.321 123.555L176.077 123.83L175.412 125.656C175.248 126.107 175.149 126.578 175.115 127.068C175.089 127.561 175.125 128.046 175.224 128.525C175.322 129.003 175.469 129.453 175.665 129.873C175.869 130.296 176.118 130.664 176.413 130.976L175.567 131.51C175.243 131.163 174.976 130.75 174.766 130.274C174.564 129.8 174.417 129.291 174.325 128.747C174.244 128.198 174.227 127.638 174.273 127.068C174.329 126.492 174.457 125.93 174.657 125.381L175.321 123.555ZM179.881 124.218L180.817 124.559L177.103 134.764L176.167 134.423L179.881 124.218ZM179.101 128.608L180.984 129.293L180.693 130.094L178.81 129.409L179.101 128.608ZM184.36 129.769L185.296 130.11L184.598 132.026L183.662 131.686L184.36 129.769ZM188.104 131.131L189.029 131.468L188.331 133.385L187.406 133.048L188.104 131.131ZM181.519 130.523L190.732 133.876L190.457 134.631L181.244 131.278L181.519 130.523ZM185.562 133.731C186.652 134.127 187.449 134.592 187.953 135.125C188.457 135.657 188.604 136.213 188.393 136.792C188.18 137.378 187.709 137.713 186.98 137.797C186.249 137.889 185.338 137.736 184.248 137.339C183.158 136.942 182.359 136.473 181.85 135.93C181.345 135.397 181.2 134.838 181.413 134.251C181.624 133.672 182.094 133.341 182.822 133.257C183.558 133.176 184.472 133.334 185.562 133.731ZM185.299 134.452C184.765 134.258 184.292 134.133 183.878 134.076C183.472 134.022 183.138 134.04 182.874 134.132C182.614 134.216 182.443 134.371 182.361 134.596C182.273 134.837 182.301 135.077 182.443 135.316C182.589 135.548 182.835 135.773 183.18 135.993C183.534 136.215 183.977 136.423 184.511 136.617C185.045 136.812 185.515 136.936 185.921 136.99C186.334 137.047 186.671 137.033 186.931 136.949C187.195 136.858 187.37 136.692 187.458 136.451C187.54 136.226 187.508 135.997 187.362 135.765C187.22 135.526 186.972 135.295 186.618 135.073C186.272 134.854 185.833 134.647 185.299 134.452ZM187.885 127.348C188.621 127.616 189.229 127.923 189.708 128.267C190.195 128.615 190.529 128.983 190.711 129.373C190.903 129.758 190.926 130.149 190.781 130.548C190.639 130.939 190.369 131.224 189.972 131.403C189.582 131.584 189.089 131.652 188.493 131.605C187.908 131.554 187.246 131.394 186.51 131.126C185.773 130.858 185.16 130.554 184.671 130.214C184.192 129.869 183.858 129.501 183.668 129.108C183.487 128.719 183.467 128.328 183.609 127.938C183.754 127.539 184.02 127.253 184.407 127.079C184.804 126.9 185.297 126.832 185.886 126.876C186.482 126.923 187.148 127.08 187.885 127.348ZM187.618 128.081C187.084 127.887 186.602 127.762 186.17 127.708C185.747 127.656 185.394 127.676 185.113 127.77C184.84 127.866 184.658 128.038 184.568 128.286C184.48 128.527 184.509 128.776 184.654 129.033C184.809 129.285 185.065 129.527 185.423 129.76C185.789 129.995 186.239 130.21 186.772 130.404C187.321 130.604 187.807 130.73 188.231 130.782C188.655 130.834 189.004 130.812 189.277 130.716C189.553 130.612 189.735 130.44 189.822 130.199C189.913 129.951 189.884 129.702 189.737 129.453C189.589 129.203 189.336 128.962 188.978 128.73C188.62 128.497 188.167 128.281 187.618 128.081ZM200.703 131.809L201.639 132.15L198.856 139.795L197.92 139.455L200.703 131.809ZM200.127 135.392L201.92 136.045L201.636 136.823L199.844 136.171L200.127 135.392ZM193.294 130.518L199.316 132.709L199.041 133.465L193.019 131.273L193.294 130.518ZM195.829 132.921C196.31 133.097 196.704 133.334 197.013 133.633C197.323 133.925 197.528 134.251 197.627 134.61C197.729 134.963 197.71 135.33 197.571 135.714C197.431 136.097 197.208 136.395 196.901 136.606C196.597 136.811 196.232 136.925 195.806 136.949C195.38 136.972 194.927 136.897 194.446 136.722C193.964 136.546 193.568 136.313 193.257 136.021C192.947 135.729 192.737 135.406 192.627 135.051C192.528 134.691 192.549 134.32 192.688 133.936C192.828 133.553 193.05 133.259 193.354 133.055C193.668 132.846 194.038 132.73 194.464 132.706C194.893 132.674 195.348 132.746 195.829 132.921ZM195.562 133.654C195.103 133.487 194.692 133.461 194.327 133.575C193.964 133.682 193.719 133.912 193.59 134.265C193.462 134.618 193.502 134.952 193.711 135.267C193.92 135.581 194.254 135.822 194.712 135.989C195.178 136.158 195.589 136.188 195.944 136.079C196.306 135.973 196.551 135.743 196.68 135.389C196.808 135.036 196.768 134.702 196.559 134.388C196.36 134.068 196.028 133.824 195.562 133.654ZM196.294 130.205L197.23 130.545L196.639 132.169L195.703 131.828L196.294 130.205ZM191.941 139.041L198.741 141.516L198.462 142.283L191.662 139.808L191.941 139.041ZM192.729 136.876L193.654 137.212L192.751 139.693L191.826 139.357L192.729 136.876ZM211.001 135.545L211.937 135.886L208.219 146.102L207.283 145.761L211.001 135.545ZM210.258 139.833L212.141 140.519L211.858 141.297L209.975 140.611L210.258 139.833ZM202.037 140.072L202.837 140.363C203.461 140.59 204.035 140.791 204.559 140.965C205.094 141.134 205.611 141.279 206.111 141.402C206.619 141.527 207.141 141.636 207.678 141.729L207.499 142.571C206.94 142.47 206.403 142.355 205.888 142.227C205.38 142.102 204.856 141.95 204.317 141.77C203.778 141.591 203.189 141.385 202.55 141.153L201.749 140.861L202.037 140.072ZM204.179 134.186L208.904 135.905L208.625 136.672L204.824 135.289L202.83 140.769L201.905 140.433L204.179 134.186ZM212.046 146.559C211.848 146.487 211.705 146.354 211.615 146.161C211.525 145.968 211.516 145.773 211.588 145.576C211.659 145.378 211.792 145.234 211.985 145.144C212.178 145.054 212.373 145.045 212.571 145.117C212.768 145.189 212.912 145.321 213.002 145.514C213.092 145.707 213.101 145.903 213.029 146.1C212.982 146.231 212.904 146.339 212.798 146.424C212.694 146.51 212.575 146.567 212.441 146.594C212.311 146.619 212.179 146.607 212.046 146.559Z" fill="white"/>
</svg>
