<svg width="387" height="49" viewBox="0 0 387 49" fill="none" xmlns="http://www.w3.org/2000/svg">
<path d="M0.540086 24.3985C0.540086 20.0038 1.54275 16.0145 3.54809 12.4305C5.59609 8.80381 8.32675 5.96648 11.7401 3.91848C15.1961 1.82781 18.9721 0.782475 23.0681 0.782475C27.1214 0.782475 30.8548 1.82781 34.2681 3.91848C37.7241 5.96648 40.4548 8.80381 42.4601 12.4305C44.4654 16.0145 45.4681 20.0038 45.4681 24.3985C45.4681 28.7931 44.4654 32.8038 42.4601 36.4305C40.4548 40.0145 37.7241 42.8518 34.2681 44.9425C30.8548 47.0331 27.1214 48.0785 23.0681 48.0785C18.9721 48.0785 15.1961 47.0331 11.7401 44.9425C8.32675 42.8518 5.59609 40.0145 3.54809 36.4305C1.54275 32.8038 0.540086 28.7931 0.540086 24.3985ZM4.50809 24.3985C4.50809 28.0251 5.34009 31.3531 7.00409 34.3825C8.66809 37.4118 10.9081 39.8011 13.7241 41.5505C16.5828 43.2571 19.6974 44.1105 23.0681 44.1105C26.4388 44.1105 29.5321 43.2571 32.3481 41.5505C35.1641 39.8011 37.4041 37.4118 39.0681 34.3825C40.7321 31.3531 41.5641 28.0251 41.5641 24.3985C41.5641 20.7718 40.7321 17.4651 39.0681 14.4785C37.4041 11.4491 35.1641 9.08114 32.3481 7.37447C29.5321 5.62514 26.4388 4.75047 23.0681 4.75047C19.6548 4.75047 16.5401 5.62514 13.7241 7.37447C10.9081 9.08114 8.66809 11.4491 7.00409 14.4785C5.34009 17.4651 4.50809 20.7718 4.50809 24.3985ZM32.3481 27.5985C32.2201 29.9451 31.3454 31.8225 29.7241 33.2305C28.1454 34.6385 25.9694 35.3425 23.1961 35.3425C20.2521 35.3425 17.9268 34.4251 16.2201 32.5905C14.5134 30.7558 13.6601 28.2385 13.6601 25.0385V23.7585C13.6601 20.6011 14.5134 18.1051 16.2201 16.2705C17.9694 14.3931 20.2948 13.4545 23.1961 13.4545C26.0121 13.4545 28.1881 14.1798 29.7241 15.6305C31.3028 17.0385 32.1774 18.9371 32.3481 21.3265H27.3561C27.2708 20.0891 26.9081 19.1505 26.2681 18.5105C25.6281 17.8705 24.6041 17.5505 23.1961 17.5505C21.6174 17.5505 20.4654 18.0625 19.7401 19.0865C19.0148 20.1105 18.6521 21.6678 18.6521 23.7585V25.0385C18.6521 27.1718 18.9934 28.7505 19.6761 29.7745C20.4014 30.7558 21.5748 31.2465 23.1961 31.2465C24.5614 31.2465 25.5641 30.9691 26.2041 30.4145C26.8868 29.8171 27.2708 28.8785 27.3561 27.5985H32.3481ZM89.2406 1.42247H100.185V47.4385H91.8006V33.1025L92.6326 12.3665L79.3846 47.4385H73.4326L60.2486 12.3665L61.0166 33.1025V47.4385H52.5686V1.42247H63.5766L76.4406 36.1105L89.2406 1.42247ZM124.832 1.42247C130.165 1.42247 134.283 2.61714 137.184 5.00647C140.085 7.35314 141.536 10.7665 141.536 15.2465C141.536 18.3611 140.811 20.9638 139.36 23.0545C137.909 25.1451 135.84 26.7665 133.152 27.9185L143.392 46.9905V47.4385H134.304L125.28 30.0305H116.704V47.4385H108.32V1.42247H124.832ZM116.704 23.1825H124.896C126.645 23.1825 128.139 22.8838 129.376 22.2865C130.613 21.6465 131.531 20.7718 132.128 19.6625C132.768 18.5105 133.088 17.2091 133.088 15.7585C133.088 13.3691 132.405 11.5131 131.04 10.1905C129.675 8.86781 127.605 8.20647 124.832 8.20647H116.704V23.1825ZM183.587 32.3345C183.331 35.4491 182.478 38.2011 181.027 40.5905C179.576 42.9371 177.528 44.7718 174.883 46.0945C172.238 47.4171 169.08 48.0785 165.411 48.0785C161.614 48.0785 158.307 47.1825 155.491 45.3905C152.675 43.5985 150.499 41.0598 148.963 37.7745C147.47 34.4891 146.723 30.6278 146.723 26.1905V22.6705C146.723 18.2331 147.491 14.3718 149.027 11.0865C150.606 7.75847 152.824 5.21981 155.683 3.47047C158.542 1.67847 161.87 0.782475 165.667 0.782475C171.043 0.782475 175.246 2.23314 178.275 5.13448C181.347 7.99314 183.139 11.8758 183.651 16.7825H175.203C174.904 13.7105 174.03 11.4278 172.579 9.93447C171.128 8.39847 168.824 7.63047 165.667 7.63047C163.363 7.63047 161.422 8.20647 159.843 9.35847C158.307 10.4678 157.155 12.1531 156.387 14.4145C155.619 16.6331 155.235 19.3638 155.235 22.6065V26.1905C155.235 29.3905 155.598 32.0998 156.323 34.3185C157.048 36.5371 158.158 38.2438 159.651 39.4385C161.144 40.6331 163.064 41.2305 165.411 41.2305C168.568 41.2305 170.894 40.5051 172.387 39.0545C173.88 37.6038 174.798 35.3638 175.139 32.3345H183.587ZM189.444 1.42247H197.892V20.4305H217.924V1.42247H226.308V47.4385H217.924V27.2145H197.892V47.4385H189.444V1.42247ZM267.663 33.9985C267.663 38.3505 266.255 41.6785 263.439 43.9825C260.623 46.2865 256.655 47.4385 251.535 47.4385H234.319V1.42247H250.191C255.439 1.42247 259.471 2.46781 262.287 4.55848C265.145 6.60647 266.575 9.72114 266.575 13.9025C266.575 16.0358 265.999 17.9558 264.847 19.6625C263.695 21.3691 262.052 22.6705 259.919 23.5665C261.625 23.9931 263.055 24.7185 264.207 25.7425C265.359 26.7665 266.212 27.9825 266.767 29.3905C267.364 30.7985 267.663 32.3345 267.663 33.9985ZM242.767 20.7505H250.255C252.815 20.7505 254.756 20.2171 256.079 19.1505C257.444 18.0411 258.127 16.5051 258.127 14.5425C258.127 12.2811 257.487 10.6598 256.207 9.67847C254.927 8.69714 252.921 8.20647 250.191 8.20647H242.767V20.7505ZM259.215 33.9345C259.215 32.4838 258.959 31.2251 258.447 30.1585C257.935 29.0918 257.124 28.2811 256.015 27.7265C254.948 27.1291 253.561 26.8305 251.855 26.8305H242.767V40.6545H251.535C254.009 40.6545 255.908 40.0571 257.231 38.8625C258.553 37.6251 259.215 35.9825 259.215 33.9345ZM282.828 8.20647H268.684V1.42247H305.548V8.20647H291.276V47.4385H282.828V8.20647ZM323.953 8.20647H309.809V1.42247H346.673V8.20647H332.401V47.4385H323.953V8.20647ZM368.02 1.42247C373.353 1.42247 377.47 2.61714 380.372 5.00647C383.273 7.35314 384.724 10.7665 384.724 15.2465C384.724 18.3611 383.998 20.9638 382.548 23.0545C381.097 25.1451 379.028 26.7665 376.34 27.9185L386.58 46.9905V47.4385H377.492L368.468 30.0305H359.892V47.4385H351.508V1.42247H368.02ZM359.892 23.1825H368.084C369.833 23.1825 371.326 22.8838 372.564 22.2865C373.801 21.6465 374.718 20.7718 375.316 19.6625C375.956 18.5105 376.276 17.2091 376.276 15.7585C376.276 13.3691 375.593 11.5131 374.228 10.1905C372.862 8.86781 370.793 8.20647 368.02 8.20647H359.892V23.1825Z" fill="#9058FF"/>
</svg>
